G04 #@! TF.GenerationSoftware,KiCad,Pcbnew,5.0.0-4.fc30*
G04 #@! TF.CreationDate,2018-09-24T02:25:55-07:00*
G04 #@! TF.ProjectId,star,737461722E6B696361645F7063620000,rev?*
G04 #@! TF.SameCoordinates,Original*
G04 #@! TF.FileFunction,Copper,L1,Top,Signal*
G04 #@! TF.FilePolarity,Positive*
%FSLAX46Y46*%
G04 Gerber Fmt 4.6, Leading zero omitted, Abs format (unit mm)*
G04 Created by KiCad (PCBNEW 5.0.0-4.fc30) date Mon Sep 24 02:25:55 2018*
%MOMM*%
%LPD*%
G01*
G04 APERTURE LIST*
G04 #@! TA.AperFunction,ComponentPad*
%ADD10C,1.600000*%
G04 #@! TD*
G04 #@! TA.AperFunction,Conductor*
%ADD11C,1.600000*%
G04 #@! TD*
G04 #@! TA.AperFunction,ComponentPad*
%ADD12C,1.270000*%
G04 #@! TD*
G04 #@! TA.AperFunction,ComponentPad*
%ADD13R,1.800000X1.800000*%
G04 #@! TD*
G04 #@! TA.AperFunction,ComponentPad*
%ADD14C,1.800000*%
G04 #@! TD*
G04 #@! TA.AperFunction,Conductor*
%ADD15C,0.100000*%
G04 #@! TD*
G04 #@! TA.AperFunction,ComponentPad*
%ADD16O,1.600000X1.600000*%
G04 #@! TD*
G04 #@! TA.AperFunction,SMDPad,CuDef*
%ADD17R,1.700000X0.650000*%
G04 #@! TD*
G04 #@! TA.AperFunction,ViaPad*
%ADD18C,0.685800*%
G04 #@! TD*
G04 #@! TA.AperFunction,Conductor*
%ADD19C,0.508000*%
G04 #@! TD*
G04 #@! TA.AperFunction,Conductor*
%ADD20C,0.254000*%
G04 #@! TD*
G04 APERTURE END LIST*
D10*
G04 #@! TO.P,R2,1*
G04 #@! TO.N,Net-(D2-Pad2)*
X134300000Y-74000000D03*
G04 #@! TO.P,R2,2*
G04 #@! TO.N,/LED2*
X126939645Y-75972201D03*
D11*
G04 #@! TD*
G04 #@! TO.N,/LED2*
G04 #@! TO.C,R2*
X126939645Y-75972201D02*
X126939645Y-75972201D01*
D12*
G04 #@! TO.P,,2*
G04 #@! TO.N,N/C*
X131828237Y-73050887D03*
G04 #@! TD*
G04 #@! TO.P,,1*
G04 #@! TO.N,N/C*
X130193449Y-75352653D03*
G04 #@! TD*
G04 #@! TO.P,,4*
G04 #@! TO.N,N/C*
X134540922Y-76761367D03*
G04 #@! TD*
G04 #@! TO.P,,5*
G04 #@! TO.N,N/C*
X131945173Y-77646239D03*
G04 #@! TD*
D13*
G04 #@! TO.P,D1,1*
G04 #@! TO.N,GND*
X118300000Y-59100000D03*
D14*
G04 #@! TO.P,D1,2*
G04 #@! TO.N,Net-(D1-Pad2)*
X118300000Y-61640000D03*
G04 #@! TD*
G04 #@! TO.P,D2,2*
G04 #@! TO.N,Net-(D2-Pad2)*
X136246548Y-74557400D03*
G04 #@! TO.P,D2,1*
G04 #@! TO.N,GND*
X138700000Y-73900000D03*
D15*
G04 #@! TD*
G04 #@! TO.N,GND*
G04 #@! TO.C,D2*
G36*
X139336396Y-72797730D02*
X139802270Y-74536396D01*
X138063604Y-75002270D01*
X137597730Y-73263604D01*
X139336396Y-72797730D01*
X139336396Y-72797730D01*
G37*
D14*
G04 #@! TO.P,D3,1*
G04 #@! TO.N,GND*
X130900000Y-97600000D03*
D15*
G04 #@! TD*
G04 #@! TO.N,GND*
G04 #@! TO.C,D3*
G36*
X132172792Y-97600000D02*
X130900000Y-98872792D01*
X129627208Y-97600000D01*
X130900000Y-96327208D01*
X132172792Y-97600000D01*
X132172792Y-97600000D01*
G37*
D14*
G04 #@! TO.P,D3,2*
G04 #@! TO.N,Net-(D3-Pad2)*
X129103949Y-95803949D03*
G04 #@! TD*
G04 #@! TO.P,D4,2*
G04 #@! TO.N,Net-(D4-Pad2)*
X107300000Y-96000000D03*
G04 #@! TO.P,D4,1*
G04 #@! TO.N,GND*
X105503949Y-97796051D03*
D15*
G04 #@! TD*
G04 #@! TO.N,GND*
G04 #@! TO.C,D4*
G36*
X105503949Y-99068843D02*
X104231157Y-97796051D01*
X105503949Y-96523259D01*
X106776741Y-97796051D01*
X105503949Y-99068843D01*
X105503949Y-99068843D01*
G37*
D14*
G04 #@! TO.P,D5,1*
G04 #@! TO.N,GND*
X97800000Y-73900000D03*
D15*
G04 #@! TD*
G04 #@! TO.N,GND*
G04 #@! TO.C,D5*
G36*
X96697730Y-74536396D02*
X97163604Y-72797730D01*
X98902270Y-73263604D01*
X98436396Y-75002270D01*
X96697730Y-74536396D01*
X96697730Y-74536396D01*
G37*
D14*
G04 #@! TO.P,D5,2*
G04 #@! TO.N,Net-(D5-Pad2)*
X100253452Y-74557400D03*
G04 #@! TD*
D10*
G04 #@! TO.P,R1,1*
G04 #@! TO.N,Net-(D1-Pad2)*
X118300000Y-64600000D03*
D16*
G04 #@! TO.P,R1,2*
G04 #@! TO.N,/LED1*
X118300000Y-72220000D03*
G04 #@! TD*
D17*
G04 #@! TO.P,U1,1*
G04 #@! TO.N,/NC*
X114550000Y-78495000D03*
G04 #@! TO.P,U1,2*
G04 #@! TO.N,/LED4*
X114550000Y-79765000D03*
G04 #@! TO.P,U1,3*
G04 #@! TO.N,/LED5*
X114550000Y-81035000D03*
G04 #@! TO.P,U1,4*
G04 #@! TO.N,GND*
X114550000Y-82305000D03*
G04 #@! TO.P,U1,5*
G04 #@! TO.N,/LED1*
X121850000Y-82305000D03*
G04 #@! TO.P,U1,6*
G04 #@! TO.N,/LED2*
X121850000Y-81035000D03*
G04 #@! TO.P,U1,7*
G04 #@! TO.N,/LED3*
X121850000Y-79765000D03*
G04 #@! TO.P,U1,8*
G04 #@! TO.N,/VCC*
X121850000Y-78495000D03*
G04 #@! TD*
D10*
G04 #@! TO.P,R3,2*
G04 #@! TO.N,/LED3*
X120709331Y-91299850D03*
D11*
G04 #@! TD*
G04 #@! TO.N,/LED3*
G04 #@! TO.C,R3*
X120709331Y-91299850D02*
X120709331Y-91299850D01*
D10*
G04 #@! TO.P,R3,1*
G04 #@! TO.N,Net-(D3-Pad2)*
X127100000Y-95450000D03*
G04 #@! TD*
G04 #@! TO.P,R4,1*
G04 #@! TO.N,Net-(D4-Pad2)*
X109500000Y-95450000D03*
G04 #@! TO.P,R4,2*
G04 #@! TO.N,/LED4*
X115890670Y-91299851D03*
D11*
G04 #@! TD*
G04 #@! TO.N,/LED4*
G04 #@! TO.C,R4*
X115890670Y-91299851D02*
X115890670Y-91299851D01*
D10*
G04 #@! TO.P,R5,2*
G04 #@! TO.N,/LED5*
X110660355Y-77772201D03*
D11*
G04 #@! TD*
G04 #@! TO.N,/LED5*
G04 #@! TO.C,R5*
X110660355Y-77772201D02*
X110660355Y-77772201D01*
D10*
G04 #@! TO.P,R5,1*
G04 #@! TO.N,Net-(D5-Pad2)*
X103300000Y-75800000D03*
G04 #@! TD*
D18*
G04 #@! TO.N,GND*
X132550000Y-75200000D03*
X118300000Y-68150000D03*
X112800000Y-93350000D03*
G04 #@! TO.N,/VCC*
X119100000Y-78500000D03*
G04 #@! TD*
D19*
G04 #@! TO.N,/VCC*
X121650000Y-78450000D02*
X121850000Y-78495000D01*
X119100000Y-78500000D02*
X121650000Y-78450000D01*
D20*
G04 #@! TO.N,Net-(D1-Pad2)*
X118300000Y-63468630D02*
X118300000Y-61440000D01*
X118300000Y-64600000D02*
X118300000Y-63468630D01*
G04 #@! TO.N,Net-(D2-Pad2)*
X135589148Y-73900000D02*
X136246548Y-74557400D01*
X134300000Y-73900000D02*
X135589148Y-73900000D01*
G04 #@! TO.N,Net-(D3-Pad2)*
X128750000Y-95450000D02*
X129103949Y-95803949D01*
X127100000Y-95450000D02*
X128750000Y-95450000D01*
G04 #@! TO.N,Net-(D4-Pad2)*
X108950000Y-96000000D02*
X109500000Y-95450000D01*
X107300000Y-96000000D02*
X108950000Y-96000000D01*
G04 #@! TO.N,Net-(D5-Pad2)*
X101700000Y-75200000D02*
X99853452Y-74457400D01*
X103300000Y-75800000D02*
X101700000Y-75200000D01*
G04 #@! TO.N,/LED1*
X125400000Y-72300000D02*
X119431370Y-72220000D01*
X128400000Y-75150000D02*
X125400000Y-72300000D01*
X128400000Y-77200000D02*
X128400000Y-75150000D01*
X121850000Y-82305000D02*
X122954000Y-82305000D01*
X119431370Y-72220000D02*
X118300000Y-72220000D01*
X122954000Y-82305000D02*
X128400000Y-77200000D01*
G04 #@! TO.N,/LED2*
X121850000Y-81035000D02*
X122375000Y-81035000D01*
X126139646Y-76772200D02*
X126939645Y-75972201D01*
X124077699Y-78834147D02*
X126139646Y-76772200D01*
X124077699Y-79911301D02*
X124077699Y-78834147D01*
X122954000Y-81035000D02*
X124077699Y-79911301D01*
X121850000Y-81035000D02*
X122954000Y-81035000D01*
G04 #@! TO.N,/LED3*
X121325000Y-79765000D02*
X121850000Y-79765000D01*
X120709331Y-91299850D02*
X120709331Y-80380669D01*
X120709331Y-80380669D02*
X121325000Y-79765000D01*
G04 #@! TO.N,/LED4*
X115075000Y-79765000D02*
X114550000Y-79765000D01*
X115890670Y-80580670D02*
X115075000Y-79765000D01*
X115890670Y-91299851D02*
X115890670Y-80580670D01*
G04 #@! TO.N,/LED5*
X113923154Y-81035000D02*
X111460354Y-78572200D01*
X111460354Y-78572200D02*
X110660355Y-77772201D01*
X114550000Y-81035000D02*
X113923154Y-81035000D01*
G04 #@! TD*
G04 #@! TO.N,GND*
G36*
X119315360Y-57565000D02*
X118585750Y-57565000D01*
X118427000Y-57723750D01*
X118427000Y-58973000D01*
X119676250Y-58973000D01*
X119792272Y-58856978D01*
X124514925Y-71650888D01*
X124519309Y-71678431D01*
X124547160Y-71723801D01*
X124576847Y-71772225D01*
X124576917Y-71772276D01*
X124576959Y-71772344D01*
X124620660Y-71804044D01*
X124666011Y-71836980D01*
X124666092Y-71836999D01*
X124666160Y-71837049D01*
X124718875Y-71849662D01*
X124773168Y-71862686D01*
X124800723Y-71858316D01*
X138552906Y-72388068D01*
X138466473Y-72537775D01*
X138789803Y-73744457D01*
X139996485Y-73421128D01*
X140108739Y-73226699D01*
X139982450Y-72755385D01*
X139917068Y-72511373D01*
X139861121Y-72438462D01*
X142756405Y-72549992D01*
X140420937Y-74391838D01*
X140382942Y-74250041D01*
X140256654Y-73778726D01*
X140062225Y-73666473D01*
X138855543Y-73989803D01*
X139178872Y-75196485D01*
X139306908Y-75270407D01*
X128647129Y-83677147D01*
X128622286Y-83689829D01*
X128587604Y-83730501D01*
X128550863Y-83773535D01*
X128550836Y-83773618D01*
X128550784Y-83773679D01*
X128533891Y-83825802D01*
X128517371Y-83876680D01*
X121115731Y-89321156D01*
X121115731Y-82914873D01*
X122700000Y-82914873D01*
X122809016Y-82893188D01*
X122901436Y-82831436D01*
X122963188Y-82739016D01*
X122968044Y-82714604D01*
X122987400Y-82711400D01*
X122994023Y-82711400D01*
X123026859Y-82704869D01*
X123100120Y-82692742D01*
X123105895Y-82689148D01*
X123112569Y-82687820D01*
X123174334Y-82646550D01*
X123202735Y-82628872D01*
X123207563Y-82624346D01*
X123246997Y-82597997D01*
X123265980Y-82569587D01*
X128653569Y-77519342D01*
X128692997Y-77492997D01*
X128712135Y-77464354D01*
X131030773Y-77464354D01*
X131030773Y-77828124D01*
X131169982Y-78164205D01*
X131427207Y-78421430D01*
X131763288Y-78560639D01*
X132127058Y-78560639D01*
X132463139Y-78421430D01*
X132720364Y-78164205D01*
X132859573Y-77828124D01*
X132859573Y-77464354D01*
X132720364Y-77128273D01*
X132463139Y-76871048D01*
X132127058Y-76731839D01*
X131763288Y-76731839D01*
X131427207Y-76871048D01*
X131169982Y-77128273D01*
X131030773Y-77464354D01*
X128712135Y-77464354D01*
X128734257Y-77431248D01*
X128777497Y-77370853D01*
X128779039Y-77364228D01*
X128782820Y-77358569D01*
X128797314Y-77285700D01*
X128814144Y-77213385D01*
X128806400Y-77166600D01*
X128806400Y-76579482D01*
X133626522Y-76579482D01*
X133626522Y-76943252D01*
X133765731Y-77279333D01*
X134022956Y-77536558D01*
X134359037Y-77675767D01*
X134722807Y-77675767D01*
X135058888Y-77536558D01*
X135316113Y-77279333D01*
X135455322Y-76943252D01*
X135455322Y-76579482D01*
X135316113Y-76243401D01*
X135058888Y-75986176D01*
X134722807Y-75846967D01*
X134359037Y-75846967D01*
X134022956Y-75986176D01*
X133765731Y-76243401D01*
X133626522Y-76579482D01*
X128806400Y-76579482D01*
X128806400Y-75184760D01*
X128808811Y-75170768D01*
X129279049Y-75170768D01*
X129279049Y-75534538D01*
X129418258Y-75870619D01*
X129675483Y-76127844D01*
X130011564Y-76267053D01*
X130375334Y-76267053D01*
X130711415Y-76127844D01*
X130968640Y-75870619D01*
X131107849Y-75534538D01*
X131107849Y-75170768D01*
X130968640Y-74834687D01*
X130711415Y-74577462D01*
X130375334Y-74438253D01*
X130011564Y-74438253D01*
X129675483Y-74577462D01*
X129418258Y-74834687D01*
X129279049Y-75170768D01*
X128808811Y-75170768D01*
X128814223Y-75139378D01*
X128797582Y-75065646D01*
X128782820Y-74991431D01*
X128779818Y-74986939D01*
X128778629Y-74981669D01*
X128735001Y-74919865D01*
X128692997Y-74857003D01*
X128654704Y-74831416D01*
X126589004Y-72869002D01*
X130913837Y-72869002D01*
X130913837Y-73232772D01*
X131053046Y-73568853D01*
X131310271Y-73826078D01*
X131646352Y-73965287D01*
X132010122Y-73965287D01*
X132346203Y-73826078D01*
X132386987Y-73785294D01*
X133220600Y-73785294D01*
X133220600Y-74214706D01*
X133384929Y-74611431D01*
X133688569Y-74915071D01*
X134085294Y-75079400D01*
X134514706Y-75079400D01*
X134911431Y-74915071D01*
X135067148Y-74759354D01*
X135067148Y-74791997D01*
X135246701Y-75225477D01*
X135578471Y-75557247D01*
X136011951Y-75736800D01*
X136481145Y-75736800D01*
X136914625Y-75557247D01*
X137246395Y-75225477D01*
X137379748Y-74903535D01*
X137417550Y-75044615D01*
X137482932Y-75288627D01*
X137636717Y-75489042D01*
X137855492Y-75615351D01*
X138105949Y-75648324D01*
X138821274Y-75456654D01*
X138933527Y-75262225D01*
X138610197Y-74055543D01*
X138590879Y-74060719D01*
X138525138Y-73815373D01*
X138544457Y-73810197D01*
X138221128Y-72603515D01*
X138026699Y-72491261D01*
X137311374Y-72682932D01*
X137110959Y-72836717D01*
X136984649Y-73055491D01*
X136951675Y-73305948D01*
X137017058Y-73549959D01*
X137057330Y-73700258D01*
X136914625Y-73557553D01*
X136481145Y-73378000D01*
X136011951Y-73378000D01*
X135699226Y-73507535D01*
X135629171Y-73493600D01*
X135629166Y-73493600D01*
X135589148Y-73485640D01*
X135549130Y-73493600D01*
X135258576Y-73493600D01*
X135215071Y-73388569D01*
X134911431Y-73084929D01*
X134514706Y-72920600D01*
X134085294Y-72920600D01*
X133688569Y-73084929D01*
X133384929Y-73388569D01*
X133220600Y-73785294D01*
X132386987Y-73785294D01*
X132603428Y-73568853D01*
X132742637Y-73232772D01*
X132742637Y-72869002D01*
X132603428Y-72532921D01*
X132346203Y-72275696D01*
X132010122Y-72136487D01*
X131646352Y-72136487D01*
X131310271Y-72275696D01*
X131053046Y-72532921D01*
X130913837Y-72869002D01*
X126589004Y-72869002D01*
X125714740Y-72038452D01*
X125696897Y-72010957D01*
X125656692Y-71983306D01*
X125650891Y-71977795D01*
X125623745Y-71960647D01*
X125563685Y-71919340D01*
X125555649Y-71917629D01*
X125548704Y-71913242D01*
X125476869Y-71900858D01*
X125445465Y-71894173D01*
X125437467Y-71894066D01*
X125389379Y-71885776D01*
X125357405Y-71892993D01*
X119474093Y-71814137D01*
X119471393Y-71813600D01*
X119434028Y-71813600D01*
X119396798Y-71813101D01*
X119394101Y-71813600D01*
X119319708Y-71813600D01*
X119316772Y-71798839D01*
X119078204Y-71441796D01*
X118721161Y-71203228D01*
X118406308Y-71140600D01*
X118193692Y-71140600D01*
X117878839Y-71203228D01*
X117521796Y-71441796D01*
X117283228Y-71798839D01*
X117199454Y-72220000D01*
X117283228Y-72641161D01*
X117521796Y-72998204D01*
X117878839Y-73236772D01*
X118193692Y-73299400D01*
X118406308Y-73299400D01*
X118721161Y-73236772D01*
X119078204Y-72998204D01*
X119316772Y-72641161D01*
X119319708Y-72626400D01*
X119428655Y-72626400D01*
X125235452Y-72704230D01*
X127993601Y-75324473D01*
X127993601Y-75737975D01*
X127956417Y-75551040D01*
X127717849Y-75193997D01*
X127360806Y-74955429D01*
X127045953Y-74892801D01*
X126833337Y-74892801D01*
X126518484Y-74955429D01*
X126161441Y-75193997D01*
X125922873Y-75551040D01*
X125839099Y-75972201D01*
X125922873Y-76393362D01*
X125931235Y-76405876D01*
X125880581Y-76456530D01*
X125880578Y-76456532D01*
X123818632Y-78518479D01*
X123784703Y-78541150D01*
X123762032Y-78575079D01*
X123762031Y-78575080D01*
X123694880Y-78675578D01*
X123663339Y-78834147D01*
X123671300Y-78874170D01*
X123671299Y-79742965D01*
X122903144Y-80511121D01*
X122901436Y-80508564D01*
X122809016Y-80446812D01*
X122700000Y-80425127D01*
X121239608Y-80425127D01*
X121289862Y-80374873D01*
X122700000Y-80374873D01*
X122809016Y-80353188D01*
X122901436Y-80291436D01*
X122963188Y-80199016D01*
X122984873Y-80090000D01*
X122984873Y-79440000D01*
X122963188Y-79330984D01*
X122901436Y-79238564D01*
X122809016Y-79176812D01*
X122700000Y-79155127D01*
X121000000Y-79155127D01*
X120890984Y-79176812D01*
X120798564Y-79238564D01*
X120736812Y-79330984D01*
X120715127Y-79440000D01*
X120715127Y-79800138D01*
X120450263Y-80065001D01*
X120416335Y-80087672D01*
X120393664Y-80121601D01*
X120393663Y-80121602D01*
X120326512Y-80222100D01*
X120294971Y-80380669D01*
X120302932Y-80420692D01*
X120302931Y-89919032D01*
X118437094Y-91291499D01*
X118417220Y-91283285D01*
X118364977Y-91261657D01*
X118364889Y-91261657D01*
X118364816Y-91261627D01*
X118310563Y-91261668D01*
X118254781Y-91261679D01*
X118254706Y-91261710D01*
X118254619Y-91261710D01*
X118202877Y-91283189D01*
X118152980Y-91303868D01*
X118133260Y-91323596D01*
X106080302Y-99390516D01*
X106387302Y-99083516D01*
X106387302Y-98859009D01*
X105503949Y-97975656D01*
X104620596Y-98859009D01*
X104620596Y-99083516D01*
X105144251Y-99607171D01*
X105377640Y-99703843D01*
X105612153Y-99703843D01*
X103200247Y-101318107D01*
X104003833Y-98466753D01*
X104216484Y-98679404D01*
X104440991Y-98679404D01*
X105324344Y-97796051D01*
X105310202Y-97781909D01*
X105489807Y-97602304D01*
X105503949Y-97616446D01*
X105518092Y-97602304D01*
X105697697Y-97781909D01*
X105683554Y-97796051D01*
X106566907Y-98679404D01*
X106791414Y-98679404D01*
X107315068Y-98155750D01*
X107411741Y-97922361D01*
X107411741Y-97669742D01*
X107315069Y-97436353D01*
X107052963Y-97174247D01*
X107065403Y-97179400D01*
X107534597Y-97179400D01*
X107968077Y-96999847D01*
X108299847Y-96668077D01*
X108408237Y-96406400D01*
X108909982Y-96406400D01*
X108950000Y-96414360D01*
X108988888Y-96406625D01*
X109285294Y-96529400D01*
X109714706Y-96529400D01*
X110111431Y-96365071D01*
X110415071Y-96061431D01*
X110579400Y-95664706D01*
X110579400Y-95235294D01*
X110415071Y-94838569D01*
X110111431Y-94534929D01*
X109714706Y-94370600D01*
X109285294Y-94370600D01*
X108888569Y-94534929D01*
X108584929Y-94838569D01*
X108420600Y-95235294D01*
X108420600Y-95593600D01*
X108408237Y-95593600D01*
X108299847Y-95331923D01*
X107968077Y-95000153D01*
X107534597Y-94820600D01*
X107065403Y-94820600D01*
X106631923Y-95000153D01*
X106300153Y-95331923D01*
X106120600Y-95765403D01*
X106120600Y-96234597D01*
X106125753Y-96247037D01*
X105863647Y-95984931D01*
X105630258Y-95888259D01*
X105377639Y-95888259D01*
X105144250Y-95984932D01*
X104620596Y-96508586D01*
X104620596Y-96733090D01*
X104520606Y-96633100D01*
X108074511Y-84022828D01*
X108074657Y-84022540D01*
X108108481Y-84012734D01*
X108147171Y-83981773D01*
X108171067Y-83938363D01*
X108598088Y-82590750D01*
X113065000Y-82590750D01*
X113065000Y-82756310D01*
X113161673Y-82989699D01*
X113340302Y-83168327D01*
X113573691Y-83265000D01*
X114264250Y-83265000D01*
X114423000Y-83106250D01*
X114423000Y-82432000D01*
X113223750Y-82432000D01*
X113065000Y-82590750D01*
X108598088Y-82590750D01*
X109879581Y-78546559D01*
X109882151Y-78550405D01*
X110239194Y-78788973D01*
X110554047Y-78851601D01*
X110766663Y-78851601D01*
X111081516Y-78788973D01*
X111094030Y-78780612D01*
X111201286Y-78887868D01*
X111201289Y-78887870D01*
X113415127Y-81101709D01*
X113415127Y-81360000D01*
X113424441Y-81406822D01*
X113340302Y-81441673D01*
X113161673Y-81620301D01*
X113065000Y-81853690D01*
X113065000Y-82019250D01*
X113223750Y-82178000D01*
X114423000Y-82178000D01*
X114423000Y-82158000D01*
X114677000Y-82158000D01*
X114677000Y-82178000D01*
X114697000Y-82178000D01*
X114697000Y-82432000D01*
X114677000Y-82432000D01*
X114677000Y-83106250D01*
X114835750Y-83265000D01*
X115484271Y-83265000D01*
X115484270Y-90280143D01*
X115469509Y-90283079D01*
X115112466Y-90521647D01*
X114873898Y-90878690D01*
X114790124Y-91299851D01*
X114873898Y-91721012D01*
X115112466Y-92078055D01*
X115469509Y-92316623D01*
X115784362Y-92379251D01*
X115996978Y-92379251D01*
X116311831Y-92316623D01*
X116668874Y-92078055D01*
X116907442Y-91721012D01*
X116991216Y-91299851D01*
X116907442Y-90878690D01*
X116668874Y-90521647D01*
X116311831Y-90283079D01*
X116297070Y-90280143D01*
X116297070Y-80620689D01*
X116305030Y-80580670D01*
X116297070Y-80540650D01*
X116297070Y-80540647D01*
X116273490Y-80422101D01*
X116273490Y-80422100D01*
X116206339Y-80321602D01*
X116206336Y-80321599D01*
X116183667Y-80287673D01*
X116149741Y-80265004D01*
X115684873Y-79800137D01*
X115684873Y-79440000D01*
X115663188Y-79330984D01*
X115601436Y-79238564D01*
X115509016Y-79176812D01*
X115400000Y-79155127D01*
X113700000Y-79155127D01*
X113590984Y-79176812D01*
X113498564Y-79238564D01*
X113436812Y-79330984D01*
X113415127Y-79440000D01*
X113415127Y-79952237D01*
X111776024Y-78313135D01*
X111776022Y-78313132D01*
X111668766Y-78205876D01*
X111677127Y-78193362D01*
X111681773Y-78170000D01*
X113415127Y-78170000D01*
X113415127Y-78820000D01*
X113436812Y-78929016D01*
X113498564Y-79021436D01*
X113590984Y-79083188D01*
X113700000Y-79104873D01*
X115400000Y-79104873D01*
X115509016Y-79083188D01*
X115601436Y-79021436D01*
X115663188Y-78929016D01*
X115684873Y-78820000D01*
X115684873Y-78376217D01*
X118477700Y-78376217D01*
X118477700Y-78623783D01*
X118572439Y-78852505D01*
X118747495Y-79027561D01*
X118976217Y-79122300D01*
X119223783Y-79122300D01*
X119452505Y-79027561D01*
X119453495Y-79026571D01*
X120784556Y-79000471D01*
X120798564Y-79021436D01*
X120890984Y-79083188D01*
X121000000Y-79104873D01*
X122700000Y-79104873D01*
X122809016Y-79083188D01*
X122901436Y-79021436D01*
X122963188Y-78929016D01*
X122984873Y-78820000D01*
X122984873Y-78170000D01*
X122963188Y-78060984D01*
X122901436Y-77968564D01*
X122809016Y-77906812D01*
X122700000Y-77885127D01*
X121000000Y-77885127D01*
X120890984Y-77906812D01*
X120853102Y-77932123D01*
X119422878Y-77960167D01*
X119223783Y-77877700D01*
X118976217Y-77877700D01*
X118747495Y-77972439D01*
X118572439Y-78147495D01*
X118477700Y-78376217D01*
X115684873Y-78376217D01*
X115684873Y-78170000D01*
X115663188Y-78060984D01*
X115601436Y-77968564D01*
X115509016Y-77906812D01*
X115400000Y-77885127D01*
X113700000Y-77885127D01*
X113590984Y-77906812D01*
X113498564Y-77968564D01*
X113436812Y-78060984D01*
X113415127Y-78170000D01*
X111681773Y-78170000D01*
X111760901Y-77772201D01*
X111677127Y-77351040D01*
X111438559Y-76993997D01*
X111081516Y-76755429D01*
X110766663Y-76692801D01*
X110554047Y-76692801D01*
X110461129Y-76711283D01*
X112021067Y-71788363D01*
X112022278Y-71779608D01*
X112024021Y-71778341D01*
X112024063Y-71778273D01*
X112024134Y-71778221D01*
X112053717Y-71729861D01*
X112081582Y-71684372D01*
X112085940Y-71656823D01*
X116602279Y-59385750D01*
X116765000Y-59385750D01*
X116765000Y-60126309D01*
X116861673Y-60359698D01*
X117040301Y-60538327D01*
X117273690Y-60635000D01*
X117644363Y-60635000D01*
X117631923Y-60640153D01*
X117300153Y-60971923D01*
X117120600Y-61405403D01*
X117120600Y-61874597D01*
X117300153Y-62308077D01*
X117631923Y-62639847D01*
X117893600Y-62748237D01*
X117893600Y-63508652D01*
X117893601Y-63508657D01*
X117893601Y-63600002D01*
X117688569Y-63684929D01*
X117384929Y-63988569D01*
X117220600Y-64385294D01*
X117220600Y-64814706D01*
X117384929Y-65211431D01*
X117688569Y-65515071D01*
X118085294Y-65679400D01*
X118514706Y-65679400D01*
X118911431Y-65515071D01*
X119215071Y-65211431D01*
X119379400Y-64814706D01*
X119379400Y-64385294D01*
X119215071Y-63988569D01*
X118911431Y-63684929D01*
X118706400Y-63600002D01*
X118706400Y-62748237D01*
X118968077Y-62639847D01*
X119299847Y-62308077D01*
X119479400Y-61874597D01*
X119479400Y-61405403D01*
X119299847Y-60971923D01*
X118968077Y-60640153D01*
X118955637Y-60635000D01*
X119326310Y-60635000D01*
X119559699Y-60538327D01*
X119738327Y-60359698D01*
X119835000Y-60126309D01*
X119835000Y-59385750D01*
X119676250Y-59227000D01*
X118427000Y-59227000D01*
X118427000Y-59247000D01*
X118173000Y-59247000D01*
X118173000Y-59227000D01*
X116923750Y-59227000D01*
X116765000Y-59385750D01*
X116602279Y-59385750D01*
X116799808Y-58849058D01*
X116923750Y-58973000D01*
X118173000Y-58973000D01*
X118173000Y-57723750D01*
X118014250Y-57565000D01*
X117273690Y-57565000D01*
X117272172Y-57565629D01*
X118292378Y-54793689D01*
X119315360Y-57565000D01*
X119315360Y-57565000D01*
G37*
X119315360Y-57565000D02*
X118585750Y-57565000D01*
X118427000Y-57723750D01*
X118427000Y-58973000D01*
X119676250Y-58973000D01*
X119792272Y-58856978D01*
X124514925Y-71650888D01*
X124519309Y-71678431D01*
X124547160Y-71723801D01*
X124576847Y-71772225D01*
X124576917Y-71772276D01*
X124576959Y-71772344D01*
X124620660Y-71804044D01*
X124666011Y-71836980D01*
X124666092Y-71836999D01*
X124666160Y-71837049D01*
X124718875Y-71849662D01*
X124773168Y-71862686D01*
X124800723Y-71858316D01*
X138552906Y-72388068D01*
X138466473Y-72537775D01*
X138789803Y-73744457D01*
X139996485Y-73421128D01*
X140108739Y-73226699D01*
X139982450Y-72755385D01*
X139917068Y-72511373D01*
X139861121Y-72438462D01*
X142756405Y-72549992D01*
X140420937Y-74391838D01*
X140382942Y-74250041D01*
X140256654Y-73778726D01*
X140062225Y-73666473D01*
X138855543Y-73989803D01*
X139178872Y-75196485D01*
X139306908Y-75270407D01*
X128647129Y-83677147D01*
X128622286Y-83689829D01*
X128587604Y-83730501D01*
X128550863Y-83773535D01*
X128550836Y-83773618D01*
X128550784Y-83773679D01*
X128533891Y-83825802D01*
X128517371Y-83876680D01*
X121115731Y-89321156D01*
X121115731Y-82914873D01*
X122700000Y-82914873D01*
X122809016Y-82893188D01*
X122901436Y-82831436D01*
X122963188Y-82739016D01*
X122968044Y-82714604D01*
X122987400Y-82711400D01*
X122994023Y-82711400D01*
X123026859Y-82704869D01*
X123100120Y-82692742D01*
X123105895Y-82689148D01*
X123112569Y-82687820D01*
X123174334Y-82646550D01*
X123202735Y-82628872D01*
X123207563Y-82624346D01*
X123246997Y-82597997D01*
X123265980Y-82569587D01*
X128653569Y-77519342D01*
X128692997Y-77492997D01*
X128712135Y-77464354D01*
X131030773Y-77464354D01*
X131030773Y-77828124D01*
X131169982Y-78164205D01*
X131427207Y-78421430D01*
X131763288Y-78560639D01*
X132127058Y-78560639D01*
X132463139Y-78421430D01*
X132720364Y-78164205D01*
X132859573Y-77828124D01*
X132859573Y-77464354D01*
X132720364Y-77128273D01*
X132463139Y-76871048D01*
X132127058Y-76731839D01*
X131763288Y-76731839D01*
X131427207Y-76871048D01*
X131169982Y-77128273D01*
X131030773Y-77464354D01*
X128712135Y-77464354D01*
X128734257Y-77431248D01*
X128777497Y-77370853D01*
X128779039Y-77364228D01*
X128782820Y-77358569D01*
X128797314Y-77285700D01*
X128814144Y-77213385D01*
X128806400Y-77166600D01*
X128806400Y-76579482D01*
X133626522Y-76579482D01*
X133626522Y-76943252D01*
X133765731Y-77279333D01*
X134022956Y-77536558D01*
X134359037Y-77675767D01*
X134722807Y-77675767D01*
X135058888Y-77536558D01*
X135316113Y-77279333D01*
X135455322Y-76943252D01*
X135455322Y-76579482D01*
X135316113Y-76243401D01*
X135058888Y-75986176D01*
X134722807Y-75846967D01*
X134359037Y-75846967D01*
X134022956Y-75986176D01*
X133765731Y-76243401D01*
X133626522Y-76579482D01*
X128806400Y-76579482D01*
X128806400Y-75184760D01*
X128808811Y-75170768D01*
X129279049Y-75170768D01*
X129279049Y-75534538D01*
X129418258Y-75870619D01*
X129675483Y-76127844D01*
X130011564Y-76267053D01*
X130375334Y-76267053D01*
X130711415Y-76127844D01*
X130968640Y-75870619D01*
X131107849Y-75534538D01*
X131107849Y-75170768D01*
X130968640Y-74834687D01*
X130711415Y-74577462D01*
X130375334Y-74438253D01*
X130011564Y-74438253D01*
X129675483Y-74577462D01*
X129418258Y-74834687D01*
X129279049Y-75170768D01*
X128808811Y-75170768D01*
X128814223Y-75139378D01*
X128797582Y-75065646D01*
X128782820Y-74991431D01*
X128779818Y-74986939D01*
X128778629Y-74981669D01*
X128735001Y-74919865D01*
X128692997Y-74857003D01*
X128654704Y-74831416D01*
X126589004Y-72869002D01*
X130913837Y-72869002D01*
X130913837Y-73232772D01*
X131053046Y-73568853D01*
X131310271Y-73826078D01*
X131646352Y-73965287D01*
X132010122Y-73965287D01*
X132346203Y-73826078D01*
X132386987Y-73785294D01*
X133220600Y-73785294D01*
X133220600Y-74214706D01*
X133384929Y-74611431D01*
X133688569Y-74915071D01*
X134085294Y-75079400D01*
X134514706Y-75079400D01*
X134911431Y-74915071D01*
X135067148Y-74759354D01*
X135067148Y-74791997D01*
X135246701Y-75225477D01*
X135578471Y-75557247D01*
X136011951Y-75736800D01*
X136481145Y-75736800D01*
X136914625Y-75557247D01*
X137246395Y-75225477D01*
X137379748Y-74903535D01*
X137417550Y-75044615D01*
X137482932Y-75288627D01*
X137636717Y-75489042D01*
X137855492Y-75615351D01*
X138105949Y-75648324D01*
X138821274Y-75456654D01*
X138933527Y-75262225D01*
X138610197Y-74055543D01*
X138590879Y-74060719D01*
X138525138Y-73815373D01*
X138544457Y-73810197D01*
X138221128Y-72603515D01*
X138026699Y-72491261D01*
X137311374Y-72682932D01*
X137110959Y-72836717D01*
X136984649Y-73055491D01*
X136951675Y-73305948D01*
X137017058Y-73549959D01*
X137057330Y-73700258D01*
X136914625Y-73557553D01*
X136481145Y-73378000D01*
X136011951Y-73378000D01*
X135699226Y-73507535D01*
X135629171Y-73493600D01*
X135629166Y-73493600D01*
X135589148Y-73485640D01*
X135549130Y-73493600D01*
X135258576Y-73493600D01*
X135215071Y-73388569D01*
X134911431Y-73084929D01*
X134514706Y-72920600D01*
X134085294Y-72920600D01*
X133688569Y-73084929D01*
X133384929Y-73388569D01*
X133220600Y-73785294D01*
X132386987Y-73785294D01*
X132603428Y-73568853D01*
X132742637Y-73232772D01*
X132742637Y-72869002D01*
X132603428Y-72532921D01*
X132346203Y-72275696D01*
X132010122Y-72136487D01*
X131646352Y-72136487D01*
X131310271Y-72275696D01*
X131053046Y-72532921D01*
X130913837Y-72869002D01*
X126589004Y-72869002D01*
X125714740Y-72038452D01*
X125696897Y-72010957D01*
X125656692Y-71983306D01*
X125650891Y-71977795D01*
X125623745Y-71960647D01*
X125563685Y-71919340D01*
X125555649Y-71917629D01*
X125548704Y-71913242D01*
X125476869Y-71900858D01*
X125445465Y-71894173D01*
X125437467Y-71894066D01*
X125389379Y-71885776D01*
X125357405Y-71892993D01*
X119474093Y-71814137D01*
X119471393Y-71813600D01*
X119434028Y-71813600D01*
X119396798Y-71813101D01*
X119394101Y-71813600D01*
X119319708Y-71813600D01*
X119316772Y-71798839D01*
X119078204Y-71441796D01*
X118721161Y-71203228D01*
X118406308Y-71140600D01*
X118193692Y-71140600D01*
X117878839Y-71203228D01*
X117521796Y-71441796D01*
X117283228Y-71798839D01*
X117199454Y-72220000D01*
X117283228Y-72641161D01*
X117521796Y-72998204D01*
X117878839Y-73236772D01*
X118193692Y-73299400D01*
X118406308Y-73299400D01*
X118721161Y-73236772D01*
X119078204Y-72998204D01*
X119316772Y-72641161D01*
X119319708Y-72626400D01*
X119428655Y-72626400D01*
X125235452Y-72704230D01*
X127993601Y-75324473D01*
X127993601Y-75737975D01*
X127956417Y-75551040D01*
X127717849Y-75193997D01*
X127360806Y-74955429D01*
X127045953Y-74892801D01*
X126833337Y-74892801D01*
X126518484Y-74955429D01*
X126161441Y-75193997D01*
X125922873Y-75551040D01*
X125839099Y-75972201D01*
X125922873Y-76393362D01*
X125931235Y-76405876D01*
X125880581Y-76456530D01*
X125880578Y-76456532D01*
X123818632Y-78518479D01*
X123784703Y-78541150D01*
X123762032Y-78575079D01*
X123762031Y-78575080D01*
X123694880Y-78675578D01*
X123663339Y-78834147D01*
X123671300Y-78874170D01*
X123671299Y-79742965D01*
X122903144Y-80511121D01*
X122901436Y-80508564D01*
X122809016Y-80446812D01*
X122700000Y-80425127D01*
X121239608Y-80425127D01*
X121289862Y-80374873D01*
X122700000Y-80374873D01*
X122809016Y-80353188D01*
X122901436Y-80291436D01*
X122963188Y-80199016D01*
X122984873Y-80090000D01*
X122984873Y-79440000D01*
X122963188Y-79330984D01*
X122901436Y-79238564D01*
X122809016Y-79176812D01*
X122700000Y-79155127D01*
X121000000Y-79155127D01*
X120890984Y-79176812D01*
X120798564Y-79238564D01*
X120736812Y-79330984D01*
X120715127Y-79440000D01*
X120715127Y-79800138D01*
X120450263Y-80065001D01*
X120416335Y-80087672D01*
X120393664Y-80121601D01*
X120393663Y-80121602D01*
X120326512Y-80222100D01*
X120294971Y-80380669D01*
X120302932Y-80420692D01*
X120302931Y-89919032D01*
X118437094Y-91291499D01*
X118417220Y-91283285D01*
X118364977Y-91261657D01*
X118364889Y-91261657D01*
X118364816Y-91261627D01*
X118310563Y-91261668D01*
X118254781Y-91261679D01*
X118254706Y-91261710D01*
X118254619Y-91261710D01*
X118202877Y-91283189D01*
X118152980Y-91303868D01*
X118133260Y-91323596D01*
X106080302Y-99390516D01*
X106387302Y-99083516D01*
X106387302Y-98859009D01*
X105503949Y-97975656D01*
X104620596Y-98859009D01*
X104620596Y-99083516D01*
X105144251Y-99607171D01*
X105377640Y-99703843D01*
X105612153Y-99703843D01*
X103200247Y-101318107D01*
X104003833Y-98466753D01*
X104216484Y-98679404D01*
X104440991Y-98679404D01*
X105324344Y-97796051D01*
X105310202Y-97781909D01*
X105489807Y-97602304D01*
X105503949Y-97616446D01*
X105518092Y-97602304D01*
X105697697Y-97781909D01*
X105683554Y-97796051D01*
X106566907Y-98679404D01*
X106791414Y-98679404D01*
X107315068Y-98155750D01*
X107411741Y-97922361D01*
X107411741Y-97669742D01*
X107315069Y-97436353D01*
X107052963Y-97174247D01*
X107065403Y-97179400D01*
X107534597Y-97179400D01*
X107968077Y-96999847D01*
X108299847Y-96668077D01*
X108408237Y-96406400D01*
X108909982Y-96406400D01*
X108950000Y-96414360D01*
X108988888Y-96406625D01*
X109285294Y-96529400D01*
X109714706Y-96529400D01*
X110111431Y-96365071D01*
X110415071Y-96061431D01*
X110579400Y-95664706D01*
X110579400Y-95235294D01*
X110415071Y-94838569D01*
X110111431Y-94534929D01*
X109714706Y-94370600D01*
X109285294Y-94370600D01*
X108888569Y-94534929D01*
X108584929Y-94838569D01*
X108420600Y-95235294D01*
X108420600Y-95593600D01*
X108408237Y-95593600D01*
X108299847Y-95331923D01*
X107968077Y-95000153D01*
X107534597Y-94820600D01*
X107065403Y-94820600D01*
X106631923Y-95000153D01*
X106300153Y-95331923D01*
X106120600Y-95765403D01*
X106120600Y-96234597D01*
X106125753Y-96247037D01*
X105863647Y-95984931D01*
X105630258Y-95888259D01*
X105377639Y-95888259D01*
X105144250Y-95984932D01*
X104620596Y-96508586D01*
X104620596Y-96733090D01*
X104520606Y-96633100D01*
X108074511Y-84022828D01*
X108074657Y-84022540D01*
X108108481Y-84012734D01*
X108147171Y-83981773D01*
X108171067Y-83938363D01*
X108598088Y-82590750D01*
X113065000Y-82590750D01*
X113065000Y-82756310D01*
X113161673Y-82989699D01*
X113340302Y-83168327D01*
X113573691Y-83265000D01*
X114264250Y-83265000D01*
X114423000Y-83106250D01*
X114423000Y-82432000D01*
X113223750Y-82432000D01*
X113065000Y-82590750D01*
X108598088Y-82590750D01*
X109879581Y-78546559D01*
X109882151Y-78550405D01*
X110239194Y-78788973D01*
X110554047Y-78851601D01*
X110766663Y-78851601D01*
X111081516Y-78788973D01*
X111094030Y-78780612D01*
X111201286Y-78887868D01*
X111201289Y-78887870D01*
X113415127Y-81101709D01*
X113415127Y-81360000D01*
X113424441Y-81406822D01*
X113340302Y-81441673D01*
X113161673Y-81620301D01*
X113065000Y-81853690D01*
X113065000Y-82019250D01*
X113223750Y-82178000D01*
X114423000Y-82178000D01*
X114423000Y-82158000D01*
X114677000Y-82158000D01*
X114677000Y-82178000D01*
X114697000Y-82178000D01*
X114697000Y-82432000D01*
X114677000Y-82432000D01*
X114677000Y-83106250D01*
X114835750Y-83265000D01*
X115484271Y-83265000D01*
X115484270Y-90280143D01*
X115469509Y-90283079D01*
X115112466Y-90521647D01*
X114873898Y-90878690D01*
X114790124Y-91299851D01*
X114873898Y-91721012D01*
X115112466Y-92078055D01*
X115469509Y-92316623D01*
X115784362Y-92379251D01*
X115996978Y-92379251D01*
X116311831Y-92316623D01*
X116668874Y-92078055D01*
X116907442Y-91721012D01*
X116991216Y-91299851D01*
X116907442Y-90878690D01*
X116668874Y-90521647D01*
X116311831Y-90283079D01*
X116297070Y-90280143D01*
X116297070Y-80620689D01*
X116305030Y-80580670D01*
X116297070Y-80540650D01*
X116297070Y-80540647D01*
X116273490Y-80422101D01*
X116273490Y-80422100D01*
X116206339Y-80321602D01*
X116206336Y-80321599D01*
X116183667Y-80287673D01*
X116149741Y-80265004D01*
X115684873Y-79800137D01*
X115684873Y-79440000D01*
X115663188Y-79330984D01*
X115601436Y-79238564D01*
X115509016Y-79176812D01*
X115400000Y-79155127D01*
X113700000Y-79155127D01*
X113590984Y-79176812D01*
X113498564Y-79238564D01*
X113436812Y-79330984D01*
X113415127Y-79440000D01*
X113415127Y-79952237D01*
X111776024Y-78313135D01*
X111776022Y-78313132D01*
X111668766Y-78205876D01*
X111677127Y-78193362D01*
X111681773Y-78170000D01*
X113415127Y-78170000D01*
X113415127Y-78820000D01*
X113436812Y-78929016D01*
X113498564Y-79021436D01*
X113590984Y-79083188D01*
X113700000Y-79104873D01*
X115400000Y-79104873D01*
X115509016Y-79083188D01*
X115601436Y-79021436D01*
X115663188Y-78929016D01*
X115684873Y-78820000D01*
X115684873Y-78376217D01*
X118477700Y-78376217D01*
X118477700Y-78623783D01*
X118572439Y-78852505D01*
X118747495Y-79027561D01*
X118976217Y-79122300D01*
X119223783Y-79122300D01*
X119452505Y-79027561D01*
X119453495Y-79026571D01*
X120784556Y-79000471D01*
X120798564Y-79021436D01*
X120890984Y-79083188D01*
X121000000Y-79104873D01*
X122700000Y-79104873D01*
X122809016Y-79083188D01*
X122901436Y-79021436D01*
X122963188Y-78929016D01*
X122984873Y-78820000D01*
X122984873Y-78170000D01*
X122963188Y-78060984D01*
X122901436Y-77968564D01*
X122809016Y-77906812D01*
X122700000Y-77885127D01*
X121000000Y-77885127D01*
X120890984Y-77906812D01*
X120853102Y-77932123D01*
X119422878Y-77960167D01*
X119223783Y-77877700D01*
X118976217Y-77877700D01*
X118747495Y-77972439D01*
X118572439Y-78147495D01*
X118477700Y-78376217D01*
X115684873Y-78376217D01*
X115684873Y-78170000D01*
X115663188Y-78060984D01*
X115601436Y-77968564D01*
X115509016Y-77906812D01*
X115400000Y-77885127D01*
X113700000Y-77885127D01*
X113590984Y-77906812D01*
X113498564Y-77968564D01*
X113436812Y-78060984D01*
X113415127Y-78170000D01*
X111681773Y-78170000D01*
X111760901Y-77772201D01*
X111677127Y-77351040D01*
X111438559Y-76993997D01*
X111081516Y-76755429D01*
X110766663Y-76692801D01*
X110554047Y-76692801D01*
X110461129Y-76711283D01*
X112021067Y-71788363D01*
X112022278Y-71779608D01*
X112024021Y-71778341D01*
X112024063Y-71778273D01*
X112024134Y-71778221D01*
X112053717Y-71729861D01*
X112081582Y-71684372D01*
X112085940Y-71656823D01*
X116602279Y-59385750D01*
X116765000Y-59385750D01*
X116765000Y-60126309D01*
X116861673Y-60359698D01*
X117040301Y-60538327D01*
X117273690Y-60635000D01*
X117644363Y-60635000D01*
X117631923Y-60640153D01*
X117300153Y-60971923D01*
X117120600Y-61405403D01*
X117120600Y-61874597D01*
X117300153Y-62308077D01*
X117631923Y-62639847D01*
X117893600Y-62748237D01*
X117893600Y-63508652D01*
X117893601Y-63508657D01*
X117893601Y-63600002D01*
X117688569Y-63684929D01*
X117384929Y-63988569D01*
X117220600Y-64385294D01*
X117220600Y-64814706D01*
X117384929Y-65211431D01*
X117688569Y-65515071D01*
X118085294Y-65679400D01*
X118514706Y-65679400D01*
X118911431Y-65515071D01*
X119215071Y-65211431D01*
X119379400Y-64814706D01*
X119379400Y-64385294D01*
X119215071Y-63988569D01*
X118911431Y-63684929D01*
X118706400Y-63600002D01*
X118706400Y-62748237D01*
X118968077Y-62639847D01*
X119299847Y-62308077D01*
X119479400Y-61874597D01*
X119479400Y-61405403D01*
X119299847Y-60971923D01*
X118968077Y-60640153D01*
X118955637Y-60635000D01*
X119326310Y-60635000D01*
X119559699Y-60538327D01*
X119738327Y-60359698D01*
X119835000Y-60126309D01*
X119835000Y-59385750D01*
X119676250Y-59227000D01*
X118427000Y-59227000D01*
X118427000Y-59247000D01*
X118173000Y-59247000D01*
X118173000Y-59227000D01*
X116923750Y-59227000D01*
X116765000Y-59385750D01*
X116602279Y-59385750D01*
X116799808Y-58849058D01*
X116923750Y-58973000D01*
X118173000Y-58973000D01*
X118173000Y-57723750D01*
X118014250Y-57565000D01*
X117273690Y-57565000D01*
X117272172Y-57565629D01*
X118292378Y-54793689D01*
X119315360Y-57565000D01*
G04 #@! TD*
M02*
