G04 #@! TF.GenerationSoftware,KiCad,Pcbnew,5.0.0-4.fc30*
G04 #@! TF.CreationDate,2018-09-24T02:25:55-07:00*
G04 #@! TF.ProjectId,star,737461722E6B696361645F7063620000,rev?*
G04 #@! TF.SameCoordinates,Original*
G04 #@! TF.FileFunction,Legend,Bot*
G04 #@! TF.FilePolarity,Positive*
%FSLAX46Y46*%
G04 Gerber Fmt 4.6, Leading zero omitted, Abs format (unit mm)*
G04 Created by KiCad (PCBNEW 5.0.0-4.fc30) date Mon Sep 24 02:25:55 2018*
%MOMM*%
%LPD*%
G01*
G04 APERTURE LIST*
%ADD10C,0.150000*%
%ADD11C,0.010000*%
%ADD12C,2.900000*%
%ADD13C,0.100000*%
%ADD14C,4.400000*%
%ADD15C,2.000000*%
%ADD16C,2.000000*%
%ADD17C,1.670000*%
%ADD18R,2.200000X2.200000*%
%ADD19C,2.200000*%
%ADD20O,2.000000X2.000000*%
G04 APERTURE END LIST*
D10*
G04 #@! TO.C,BT1*
X124116404Y-89907136D02*
X121162485Y-94125769D01*
X128496616Y-79728789D02*
X129049161Y-82862428D01*
X129049161Y-82862428D02*
X127385789Y-85237969D01*
X114775819Y-70121384D02*
X111642180Y-70673929D01*
X111642180Y-70673929D02*
X109978808Y-73049470D01*
X114775819Y-70121384D02*
X128496616Y-79728789D01*
X106709423Y-77718637D02*
X103755504Y-81937270D01*
X108887095Y-85516951D02*
G75*
G02X116247573Y-90684310I2096958J-4838933D01*
G01*
X103755504Y-81937270D02*
X108875204Y-85522122D01*
X121162485Y-94125769D02*
X116247573Y-90684310D01*
D11*
G04 #@! TO.C,G\002A\002A\002A*
G36*
X118310376Y-53830639D02*
X118330934Y-53879293D01*
X118329581Y-53912665D01*
X118326729Y-53940958D01*
X118339823Y-53939134D01*
X118354312Y-53939874D01*
X118350409Y-53957650D01*
X118349734Y-53985555D01*
X118358970Y-53990500D01*
X118383976Y-54007445D01*
X118392742Y-54023349D01*
X118394562Y-54045287D01*
X118379132Y-54040452D01*
X118364749Y-54035590D01*
X118379809Y-54057909D01*
X118380174Y-54058360D01*
X118406874Y-54107333D01*
X118416508Y-54139142D01*
X118435717Y-54195306D01*
X118454891Y-54231259D01*
X118475676Y-54280407D01*
X118478623Y-54313392D01*
X118483243Y-54338462D01*
X118495955Y-54336378D01*
X118509917Y-54337571D01*
X118505344Y-54357444D01*
X118503810Y-54386730D01*
X118513580Y-54392666D01*
X118525777Y-54405590D01*
X118522619Y-54413235D01*
X118523738Y-54444099D01*
X118542611Y-54483716D01*
X118561850Y-54524230D01*
X118561129Y-54547814D01*
X118563671Y-54560604D01*
X118573903Y-54562000D01*
X118591258Y-54577096D01*
X118588678Y-54593750D01*
X118589887Y-54620919D01*
X118600525Y-54625500D01*
X118614154Y-54634122D01*
X118610724Y-54639330D01*
X118611793Y-54664329D01*
X118631771Y-54708995D01*
X118639198Y-54721610D01*
X118665970Y-54781810D01*
X118667071Y-54827669D01*
X118662309Y-54853304D01*
X118680673Y-54847951D01*
X118698714Y-54842102D01*
X118693365Y-54855448D01*
X118693894Y-54887592D01*
X118714004Y-54937340D01*
X118723333Y-54953583D01*
X118748855Y-55004543D01*
X118757128Y-55042043D01*
X118755321Y-55048447D01*
X118758395Y-55068049D01*
X118767945Y-55070000D01*
X118783234Y-55078312D01*
X118779703Y-55084185D01*
X118779721Y-55109913D01*
X118798950Y-55149395D01*
X118819602Y-55196760D01*
X118820434Y-55231559D01*
X118819733Y-55251925D01*
X118833006Y-55247543D01*
X118848662Y-55246841D01*
X118844011Y-55267611D01*
X118842477Y-55296897D01*
X118852246Y-55302833D01*
X118864268Y-55315840D01*
X118860916Y-55323999D01*
X118863297Y-55343473D01*
X118871500Y-55345166D01*
X118885791Y-55357670D01*
X118882987Y-55364870D01*
X118885829Y-55391949D01*
X118893182Y-55398402D01*
X118905579Y-55426961D01*
X118901843Y-55455432D01*
X118898088Y-55485600D01*
X118911323Y-55484301D01*
X118925812Y-55485040D01*
X118921909Y-55502817D01*
X118922816Y-55530654D01*
X118933984Y-55535666D01*
X118948434Y-55548627D01*
X118945010Y-55557760D01*
X118944925Y-55590766D01*
X118955143Y-55608517D01*
X118978489Y-55652339D01*
X118988220Y-55685409D01*
X119006489Y-55730880D01*
X119024462Y-55750745D01*
X119038562Y-55765649D01*
X119032949Y-55768175D01*
X119029389Y-55781690D01*
X119043533Y-55804313D01*
X119061618Y-55829175D01*
X119050749Y-55827366D01*
X119040833Y-55821841D01*
X119027656Y-55819527D01*
X119044985Y-55844442D01*
X119048984Y-55849063D01*
X119081540Y-55903090D01*
X119094856Y-55948962D01*
X119109376Y-56003408D01*
X119126763Y-56034605D01*
X119142675Y-56065964D01*
X119140107Y-56078448D01*
X119142732Y-56101098D01*
X119159475Y-56122999D01*
X119180750Y-56160998D01*
X119180298Y-56183979D01*
X119179497Y-56209606D01*
X119186136Y-56212999D01*
X119203165Y-56230309D01*
X119206638Y-56244750D01*
X119212362Y-56296261D01*
X119213694Y-56308250D01*
X119227129Y-56336502D01*
X119236110Y-56340000D01*
X119246290Y-56352722D01*
X119243843Y-56358048D01*
X119246066Y-56387231D01*
X119261406Y-56415369D01*
X119280388Y-56456431D01*
X119280452Y-56479847D01*
X119286096Y-56512397D01*
X119293735Y-56519238D01*
X119307409Y-56544560D01*
X119304512Y-56553129D01*
X119307633Y-56571561D01*
X119314750Y-56572833D01*
X119334448Y-56584212D01*
X119334660Y-56588708D01*
X119333699Y-56638525D01*
X119346178Y-56666313D01*
X119361603Y-56666062D01*
X119376201Y-56663578D01*
X119371841Y-56673933D01*
X119370356Y-56702370D01*
X119376420Y-56708513D01*
X119392461Y-56734722D01*
X119409527Y-56783774D01*
X119422100Y-56836687D01*
X119424665Y-56874458D01*
X119438295Y-56889381D01*
X119446527Y-56890333D01*
X119460759Y-56898829D01*
X119457294Y-56904260D01*
X119456306Y-56929888D01*
X119465092Y-56944366D01*
X119482680Y-56977633D01*
X119483569Y-56988646D01*
X119481586Y-57038675D01*
X119493417Y-57067663D01*
X119510097Y-57068026D01*
X119525814Y-57066972D01*
X119520607Y-57089865D01*
X119522984Y-57136194D01*
X119551069Y-57189806D01*
X119577321Y-57233743D01*
X119585056Y-57262057D01*
X119583736Y-57264652D01*
X119584102Y-57289633D01*
X119601329Y-57333960D01*
X119603137Y-57337516D01*
X119620782Y-57378684D01*
X119621936Y-57398106D01*
X119620868Y-57398333D01*
X119620096Y-57411236D01*
X119630724Y-57426739D01*
X119644151Y-57457603D01*
X119640371Y-57469072D01*
X119643455Y-57481497D01*
X119654666Y-57483000D01*
X119672243Y-57490605D01*
X119669058Y-57496830D01*
X119670247Y-57521750D01*
X119690299Y-57566667D01*
X119698768Y-57581111D01*
X119723717Y-57630823D01*
X119731457Y-57666554D01*
X119729892Y-57671651D01*
X119732392Y-57699145D01*
X119739333Y-57705249D01*
X119751901Y-57730601D01*
X119749012Y-57738462D01*
X119752699Y-57756796D01*
X119760500Y-57758166D01*
X119774303Y-57771060D01*
X119771083Y-57779333D01*
X119770733Y-57798925D01*
X119776889Y-57800500D01*
X119795620Y-57817806D01*
X119799305Y-57832250D01*
X119805029Y-57883761D01*
X119806361Y-57895750D01*
X119816660Y-57924002D01*
X119823023Y-57927500D01*
X119834792Y-57945451D01*
X119839601Y-57973220D01*
X119854105Y-58017979D01*
X119870564Y-58036396D01*
X119885168Y-58051513D01*
X119879616Y-58054175D01*
X119873560Y-58067430D01*
X119881163Y-58080958D01*
X119898284Y-58122459D01*
X119903784Y-58157410D01*
X119920079Y-58213224D01*
X119941441Y-58246132D01*
X119970456Y-58298074D01*
X119979620Y-58338999D01*
X119987717Y-58379419D01*
X119999874Y-58393151D01*
X120007233Y-58406607D01*
X120003092Y-58415667D01*
X120005063Y-58446499D01*
X120025083Y-58477833D01*
X120047003Y-58517367D01*
X120045053Y-58543269D01*
X120041127Y-58558992D01*
X120055830Y-58552536D01*
X120073023Y-58549591D01*
X120068836Y-58579087D01*
X120067416Y-58583666D01*
X120061323Y-58616433D01*
X120076444Y-58616318D01*
X120079002Y-58614796D01*
X120095743Y-58610092D01*
X120090174Y-58623426D01*
X120090358Y-58655863D01*
X120109642Y-58706510D01*
X120119513Y-58724614D01*
X120144848Y-58774032D01*
X120154587Y-58806780D01*
X120153223Y-58811831D01*
X120156292Y-58834909D01*
X120177395Y-58879305D01*
X120188156Y-58897578D01*
X120212154Y-58942188D01*
X120211334Y-58957184D01*
X120203750Y-58954192D01*
X120191697Y-58952460D01*
X120209187Y-58977259D01*
X120211174Y-58979545D01*
X120238185Y-59017817D01*
X120245709Y-59041392D01*
X120243586Y-59086623D01*
X120251724Y-59119532D01*
X120264972Y-59125596D01*
X120282595Y-59131121D01*
X120284898Y-59140222D01*
X120310897Y-59241660D01*
X120326981Y-59274091D01*
X120341159Y-59313275D01*
X120338440Y-59332170D01*
X120340900Y-59355509D01*
X120362425Y-59386536D01*
X120385534Y-59424811D01*
X120385740Y-59450166D01*
X120386870Y-59470582D01*
X120395500Y-59472666D01*
X120409303Y-59485560D01*
X120406083Y-59493833D01*
X120408463Y-59513306D01*
X120416666Y-59515000D01*
X120430664Y-59527805D01*
X120427634Y-59535545D01*
X120427702Y-59566801D01*
X120445191Y-59614545D01*
X120446707Y-59617528D01*
X120464833Y-59663185D01*
X120466008Y-59691239D01*
X120465211Y-59692233D01*
X120468938Y-59704085D01*
X120480166Y-59705500D01*
X120497743Y-59713105D01*
X120494558Y-59719330D01*
X120495682Y-59744293D01*
X120515694Y-59789076D01*
X120523600Y-59802530D01*
X120554923Y-59866683D01*
X120573715Y-59929900D01*
X120574443Y-59934874D01*
X120592769Y-60001279D01*
X120617780Y-60051826D01*
X120638786Y-60096574D01*
X120639491Y-60127902D01*
X120639940Y-60148086D01*
X120647586Y-60150000D01*
X120660863Y-60165236D01*
X120658201Y-60179020D01*
X120662776Y-60215284D01*
X120681544Y-60242520D01*
X120702620Y-60268805D01*
X120701336Y-60277000D01*
X120700167Y-60290012D01*
X120712230Y-60307822D01*
X120727445Y-60343798D01*
X120724156Y-60360739D01*
X120725658Y-60380871D01*
X120734166Y-60382833D01*
X120747969Y-60395727D01*
X120744750Y-60404000D01*
X120748064Y-60423262D01*
X120757611Y-60425166D01*
X120773049Y-60433343D01*
X120769628Y-60439094D01*
X120769473Y-60464415D01*
X120781975Y-60485490D01*
X120797360Y-60507758D01*
X120782406Y-60503013D01*
X120776500Y-60499674D01*
X120762613Y-60496724D01*
X120780005Y-60521571D01*
X120783865Y-60526027D01*
X120807945Y-60565642D01*
X120809074Y-60593166D01*
X120810203Y-60613582D01*
X120818833Y-60615666D01*
X120832823Y-60628475D01*
X120829786Y-60636235D01*
X120831188Y-60666748D01*
X120852138Y-60710318D01*
X120871847Y-60747366D01*
X120871554Y-60763786D01*
X120870903Y-60763833D01*
X120870784Y-60776822D01*
X120891709Y-60804832D01*
X120914842Y-60842910D01*
X120915187Y-60867879D01*
X120917603Y-60897778D01*
X120941099Y-60943008D01*
X120947357Y-60951867D01*
X120974627Y-60997108D01*
X120982943Y-61028941D01*
X120981791Y-61032190D01*
X120983970Y-61060005D01*
X121001672Y-61111968D01*
X121020504Y-61154466D01*
X121046481Y-61215057D01*
X121060002Y-61260324D01*
X121059872Y-61275680D01*
X121063315Y-61292342D01*
X121068056Y-61293000D01*
X121086172Y-61309823D01*
X121087779Y-61319458D01*
X121097604Y-61379744D01*
X121118750Y-61419588D01*
X121121518Y-61421904D01*
X121136671Y-61451026D01*
X121141898Y-61480112D01*
X121150911Y-61516372D01*
X121161340Y-61525833D01*
X121169441Y-61541366D01*
X121165976Y-61555442D01*
X121168537Y-61589793D01*
X121177568Y-61599238D01*
X121191243Y-61624560D01*
X121188346Y-61633129D01*
X121191466Y-61651561D01*
X121198584Y-61652833D01*
X121218282Y-61664212D01*
X121218493Y-61668708D01*
X121217521Y-61718784D01*
X121230174Y-61746353D01*
X121245763Y-61745860D01*
X121261625Y-61744830D01*
X121256874Y-61766133D01*
X121258160Y-61807498D01*
X121279930Y-61861798D01*
X121283930Y-61868652D01*
X121307904Y-61916637D01*
X121315063Y-61949543D01*
X121313903Y-61952962D01*
X121318800Y-61969358D01*
X121325584Y-61970333D01*
X121344653Y-61981633D01*
X121344639Y-61986208D01*
X121349862Y-62021894D01*
X121370186Y-62077919D01*
X121392595Y-62124652D01*
X121403857Y-62164884D01*
X121400295Y-62183005D01*
X121403108Y-62212009D01*
X121426258Y-62257261D01*
X121432666Y-62266666D01*
X121458946Y-62313400D01*
X121465938Y-62347441D01*
X121464505Y-62351188D01*
X121466845Y-62370761D01*
X121475177Y-62372500D01*
X121489355Y-62388966D01*
X121484742Y-62417484D01*
X121480339Y-62449006D01*
X121493656Y-62448134D01*
X121508367Y-62448791D01*
X121505064Y-62464509D01*
X121506950Y-62499314D01*
X121516235Y-62509404D01*
X121529909Y-62534727D01*
X121527012Y-62543295D01*
X121530133Y-62561728D01*
X121537250Y-62563000D01*
X121556238Y-62574289D01*
X121556194Y-62578875D01*
X121558616Y-62614290D01*
X121571977Y-62660366D01*
X121589726Y-62698613D01*
X121603079Y-62711166D01*
X121613952Y-62728371D01*
X121612583Y-62753500D01*
X121614621Y-62787454D01*
X121625631Y-62795833D01*
X121637138Y-62808872D01*
X121633750Y-62817000D01*
X121636130Y-62836473D01*
X121644333Y-62838166D01*
X121658136Y-62851060D01*
X121654916Y-62859333D01*
X121658230Y-62878595D01*
X121667778Y-62880500D01*
X121684165Y-62887811D01*
X121681416Y-62892805D01*
X121681887Y-62917693D01*
X121697313Y-62966357D01*
X121708196Y-62992410D01*
X121729618Y-63048374D01*
X121738225Y-63088090D01*
X121736891Y-63096521D01*
X121742445Y-63112232D01*
X121750166Y-63113333D01*
X121764458Y-63125837D01*
X121761653Y-63133037D01*
X121763324Y-63160085D01*
X121768342Y-63164401D01*
X121782845Y-63192331D01*
X121787208Y-63228423D01*
X121797901Y-63280263D01*
X121824402Y-63342991D01*
X121832432Y-63357434D01*
X121857866Y-63409229D01*
X121867151Y-63446725D01*
X121865579Y-63453624D01*
X121869369Y-63471812D01*
X121877166Y-63473166D01*
X121890561Y-63486237D01*
X121886925Y-63495667D01*
X121887935Y-63527588D01*
X121903623Y-63553875D01*
X121941112Y-63602039D01*
X121956056Y-63631016D01*
X121945988Y-63635331D01*
X121938645Y-63631548D01*
X121928998Y-63631874D01*
X121946135Y-63656509D01*
X121948031Y-63658694D01*
X121972828Y-63697046D01*
X121975587Y-63722036D01*
X121978085Y-63750559D01*
X121998873Y-63797502D01*
X122005726Y-63809309D01*
X122029792Y-63858498D01*
X122036598Y-63893481D01*
X122035130Y-63897772D01*
X122036481Y-63916408D01*
X122042604Y-63917666D01*
X122057398Y-63935809D01*
X122062375Y-63971284D01*
X122076251Y-64029169D01*
X122097653Y-64063885D01*
X122123512Y-64100497D01*
X122129543Y-64121392D01*
X122127403Y-64171194D01*
X122138922Y-64200620D01*
X122155603Y-64201395D01*
X122170141Y-64198913D01*
X122165386Y-64210003D01*
X122165296Y-64241884D01*
X122182413Y-64293979D01*
X122192959Y-64316486D01*
X122215861Y-64369350D01*
X122224073Y-64405538D01*
X122222111Y-64412332D01*
X122224691Y-64435551D01*
X122246258Y-64466536D01*
X122269733Y-64504175D01*
X122270691Y-64528358D01*
X122273830Y-64552618D01*
X122281619Y-64556956D01*
X122301523Y-64581686D01*
X122311349Y-64619633D01*
X122325048Y-64679841D01*
X122339935Y-64716586D01*
X122352556Y-64754907D01*
X122349144Y-64772133D01*
X122350752Y-64784939D01*
X122355967Y-64785500D01*
X122373330Y-64803448D01*
X122379601Y-64831220D01*
X122394105Y-64875979D01*
X122410564Y-64894396D01*
X122425243Y-64909517D01*
X122419773Y-64912175D01*
X122417037Y-64927377D01*
X122435163Y-64963876D01*
X122437340Y-64967253D01*
X122459019Y-65008773D01*
X122461800Y-65033389D01*
X122461499Y-65033723D01*
X122462420Y-65058271D01*
X122479959Y-65103245D01*
X122483996Y-65111261D01*
X122521122Y-65183693D01*
X122541650Y-65227869D01*
X122548994Y-65252840D01*
X122546569Y-65267656D01*
X122544439Y-65271487D01*
X122548324Y-65299110D01*
X122566400Y-65323543D01*
X122586823Y-65349312D01*
X122585170Y-65357000D01*
X122584001Y-65370012D01*
X122596063Y-65387822D01*
X122611278Y-65423798D01*
X122607989Y-65440739D01*
X122608441Y-65460921D01*
X122616086Y-65462833D01*
X122628142Y-65478547D01*
X122624321Y-65498055D01*
X122620728Y-65521807D01*
X122639166Y-65515750D01*
X122658147Y-65510639D01*
X122652836Y-65536505D01*
X122654846Y-65584990D01*
X122672479Y-65612727D01*
X122693845Y-65650075D01*
X122692907Y-65673166D01*
X122694036Y-65693582D01*
X122702666Y-65695666D01*
X122717012Y-65708090D01*
X122714241Y-65715228D01*
X122716624Y-65743447D01*
X122735763Y-65794790D01*
X122755002Y-65834189D01*
X122782695Y-65893077D01*
X122796880Y-65937221D01*
X122796624Y-65951757D01*
X122800133Y-65979476D01*
X122823610Y-66023075D01*
X122827458Y-66028588D01*
X122861104Y-66092941D01*
X122879684Y-66157222D01*
X122897384Y-66223663D01*
X122923017Y-66277822D01*
X122942933Y-66327032D01*
X122942247Y-66364779D01*
X122938731Y-66389589D01*
X122952827Y-66385956D01*
X122968693Y-66385150D01*
X122964742Y-66403650D01*
X122965649Y-66431488D01*
X122976817Y-66436500D01*
X122991775Y-66449078D01*
X122988786Y-66457068D01*
X122989904Y-66487933D01*
X123008777Y-66527550D01*
X123028017Y-66568063D01*
X123027296Y-66591647D01*
X123029110Y-66604773D01*
X123037141Y-66605833D01*
X123052280Y-66621023D01*
X123049809Y-66635442D01*
X123052370Y-66669793D01*
X123061402Y-66679238D01*
X123075076Y-66704560D01*
X123072179Y-66713129D01*
X123073256Y-66731640D01*
X123079019Y-66732833D01*
X123101336Y-66750392D01*
X123123771Y-66790432D01*
X123137783Y-66833995D01*
X123136389Y-66860146D01*
X123139042Y-66888402D01*
X123159902Y-66935195D01*
X123166773Y-66947023D01*
X123191184Y-66995533D01*
X123198953Y-67029024D01*
X123197737Y-67032962D01*
X123203157Y-67049038D01*
X123211682Y-67050333D01*
X123226900Y-67065679D01*
X123224178Y-67082083D01*
X123225387Y-67109252D01*
X123236025Y-67113833D01*
X123249440Y-67122652D01*
X123245870Y-67128018D01*
X123245626Y-67153909D01*
X123263270Y-67190409D01*
X123283074Y-67236436D01*
X123283547Y-67268083D01*
X123288440Y-67304240D01*
X123304720Y-67324507D01*
X123326334Y-67354537D01*
X123325601Y-67370231D01*
X123329889Y-67387719D01*
X123337666Y-67389000D01*
X123351958Y-67401503D01*
X123349153Y-67408704D01*
X123351995Y-67435782D01*
X123359349Y-67442235D01*
X123371746Y-67470794D01*
X123368010Y-67499265D01*
X123363499Y-67529042D01*
X123381002Y-67525963D01*
X123397730Y-67521248D01*
X123392031Y-67534823D01*
X123390610Y-67570288D01*
X123401936Y-67591010D01*
X123414986Y-67616159D01*
X123409050Y-67622157D01*
X123405984Y-67630798D01*
X123415749Y-67638483D01*
X123437565Y-67669476D01*
X123452038Y-67715819D01*
X123465958Y-67763978D01*
X123482082Y-67789452D01*
X123495546Y-67818207D01*
X123495291Y-67838791D01*
X123499930Y-67869915D01*
X123510122Y-67875833D01*
X123521014Y-67888911D01*
X123517583Y-67897000D01*
X123519963Y-67916473D01*
X123528166Y-67918166D01*
X123541969Y-67931060D01*
X123538750Y-67939333D01*
X123541130Y-67958806D01*
X123549333Y-67960500D01*
X123563466Y-67973237D01*
X123560563Y-67980619D01*
X123561997Y-68010191D01*
X123580563Y-68060008D01*
X123590215Y-68079264D01*
X123613929Y-68131806D01*
X123622721Y-68168996D01*
X123621318Y-68175561D01*
X123626759Y-68191817D01*
X123636278Y-68193333D01*
X123651716Y-68201510D01*
X123648294Y-68207260D01*
X123647134Y-68232961D01*
X123655326Y-68246442D01*
X123673045Y-68285907D01*
X123680926Y-68327765D01*
X123690886Y-68369081D01*
X123705644Y-68383833D01*
X123714772Y-68393925D01*
X123711536Y-68398018D01*
X123711453Y-68423809D01*
X123730055Y-68462116D01*
X123749872Y-68505062D01*
X123750047Y-68532597D01*
X123751917Y-68551685D01*
X123759086Y-68553166D01*
X123771803Y-68568631D01*
X123768654Y-68584916D01*
X123769585Y-68612100D01*
X123779902Y-68616666D01*
X123800449Y-68627636D01*
X123800826Y-68632541D01*
X123799908Y-68683822D01*
X123813585Y-68710786D01*
X123829791Y-68709772D01*
X123844836Y-68705205D01*
X123840558Y-68711867D01*
X123838068Y-68740564D01*
X123846592Y-68755366D01*
X123863634Y-68788559D01*
X123864103Y-68799646D01*
X123865953Y-68837255D01*
X123879585Y-68884258D01*
X123898391Y-68922369D01*
X123912710Y-68934166D01*
X123923615Y-68947066D01*
X123920653Y-68953870D01*
X123922324Y-68980918D01*
X123927342Y-68985234D01*
X123941677Y-69013086D01*
X123946208Y-69050898D01*
X123960376Y-69108628D01*
X123984002Y-69146664D01*
X124007259Y-69181949D01*
X124007768Y-69202453D01*
X124009368Y-69226528D01*
X124028935Y-69255370D01*
X124050991Y-69289282D01*
X124051054Y-69307333D01*
X124051411Y-69332576D01*
X124068213Y-69379710D01*
X124076468Y-69397162D01*
X124098600Y-69452875D01*
X124105852Y-69496113D01*
X124104565Y-69503321D01*
X124105461Y-69521997D01*
X124121357Y-69515925D01*
X124138584Y-69510811D01*
X124133199Y-69523948D01*
X124133817Y-69555970D01*
X124153972Y-69605900D01*
X124164093Y-69623582D01*
X124189976Y-69672661D01*
X124199311Y-69705807D01*
X124197611Y-69711110D01*
X124199723Y-69735171D01*
X124220304Y-69780147D01*
X124230989Y-69798411D01*
X124253119Y-69839728D01*
X124255651Y-69857747D01*
X124249680Y-69856058D01*
X124238129Y-69856301D01*
X124253649Y-69886956D01*
X124256295Y-69891041D01*
X124276275Y-69932283D01*
X124276129Y-69957147D01*
X124278963Y-69969795D01*
X124290166Y-69971333D01*
X124307548Y-69979114D01*
X124304203Y-69985518D01*
X124304233Y-70011239D01*
X124323533Y-70050855D01*
X124344323Y-70090666D01*
X124346502Y-70112552D01*
X124344823Y-70139486D01*
X124358079Y-70187887D01*
X124380654Y-70242213D01*
X124406928Y-70286921D01*
X124411654Y-70292791D01*
X124431045Y-70329232D01*
X124429628Y-70349293D01*
X124431368Y-70379838D01*
X124443934Y-70398251D01*
X124466552Y-70438657D01*
X124469245Y-70458166D01*
X124480490Y-70499395D01*
X124497273Y-70525624D01*
X124514756Y-70564412D01*
X124511219Y-70587103D01*
X124507205Y-70602758D01*
X124523326Y-70595548D01*
X124542011Y-70590757D01*
X124536670Y-70616505D01*
X124538679Y-70664990D01*
X124556313Y-70692727D01*
X124578075Y-70729390D01*
X124577858Y-70751358D01*
X124580996Y-70775618D01*
X124588786Y-70779956D01*
X124608262Y-70804602D01*
X124618915Y-70846275D01*
X124632448Y-70901038D01*
X124650069Y-70934500D01*
X124663656Y-70971831D01*
X124659135Y-70989676D01*
X124655594Y-71004985D01*
X124670163Y-70998536D01*
X124687356Y-70995591D01*
X124683170Y-71025087D01*
X124681750Y-71029666D01*
X124676602Y-71062633D01*
X124687675Y-71064295D01*
X124706206Y-71067695D01*
X124707775Y-71077519D01*
X124710031Y-71138846D01*
X124721031Y-71169056D01*
X124731138Y-71169430D01*
X124748476Y-71174942D01*
X124750605Y-71184056D01*
X124773529Y-71288139D01*
X124809650Y-71362094D01*
X124830650Y-71409700D01*
X124831767Y-71445226D01*
X124831240Y-71465628D01*
X124842158Y-71462558D01*
X124859768Y-71465500D01*
X124860574Y-71477334D01*
X124858256Y-71536480D01*
X124869343Y-71567510D01*
X124886167Y-71567355D01*
X124902177Y-71568049D01*
X124898724Y-71597886D01*
X124896435Y-71628525D01*
X124905973Y-71631696D01*
X124923024Y-71631830D01*
X124920064Y-71656477D01*
X124908967Y-71676581D01*
X124885841Y-71680431D01*
X124825119Y-71684013D01*
X124731537Y-71687305D01*
X124609831Y-71690284D01*
X124464738Y-71692929D01*
X124300994Y-71695217D01*
X124123335Y-71697125D01*
X123936498Y-71698633D01*
X123745220Y-71699717D01*
X123554235Y-71700355D01*
X123368281Y-71700526D01*
X123192095Y-71700207D01*
X123030411Y-71699375D01*
X122887967Y-71698009D01*
X122769500Y-71696087D01*
X122679745Y-71693586D01*
X122623438Y-71690484D01*
X122605424Y-71687369D01*
X122583302Y-71686028D01*
X122521061Y-71684665D01*
X122420917Y-71683290D01*
X122285085Y-71681914D01*
X122115779Y-71680549D01*
X121915216Y-71679204D01*
X121685610Y-71677892D01*
X121429177Y-71676623D01*
X121148130Y-71675408D01*
X120844686Y-71674258D01*
X120521060Y-71673185D01*
X120179465Y-71672199D01*
X119822119Y-71671311D01*
X119451235Y-71670533D01*
X119097343Y-71669919D01*
X118669363Y-71669216D01*
X118236706Y-71668438D01*
X117801439Y-71667593D01*
X117365629Y-71666688D01*
X116931344Y-71665728D01*
X116500650Y-71664720D01*
X116075615Y-71663671D01*
X115658307Y-71662589D01*
X115250791Y-71661478D01*
X114855137Y-71660346D01*
X114473410Y-71659201D01*
X114107678Y-71658047D01*
X113760009Y-71656892D01*
X113432470Y-71655743D01*
X113127127Y-71654606D01*
X112846049Y-71653488D01*
X112591302Y-71652395D01*
X112364954Y-71651335D01*
X112169072Y-71650313D01*
X112005723Y-71649337D01*
X111876975Y-71648413D01*
X111784894Y-71647547D01*
X111731549Y-71646747D01*
X111718224Y-71646201D01*
X111721923Y-71631900D01*
X111732445Y-71619754D01*
X111746748Y-71581427D01*
X111743665Y-71563365D01*
X111741496Y-71541761D01*
X111759500Y-71548250D01*
X111779052Y-71553276D01*
X111775405Y-71533319D01*
X111777408Y-71494888D01*
X111798535Y-71442750D01*
X111803448Y-71434266D01*
X111829228Y-71386679D01*
X111840696Y-71355027D01*
X111840638Y-71352127D01*
X111846133Y-71323746D01*
X111863968Y-71276153D01*
X111865309Y-71273083D01*
X111883474Y-71220061D01*
X111888345Y-71180565D01*
X111888268Y-71180087D01*
X111898145Y-71144037D01*
X111907158Y-71135814D01*
X111926035Y-71106269D01*
X111939442Y-71054570D01*
X111939997Y-71050474D01*
X111953628Y-70997104D01*
X111974529Y-70963748D01*
X111975922Y-70962779D01*
X111991067Y-70947807D01*
X111986498Y-70945324D01*
X111983724Y-70929004D01*
X111998795Y-70889596D01*
X112001528Y-70884183D01*
X112019487Y-70838748D01*
X112020417Y-70810955D01*
X112019711Y-70810100D01*
X112022924Y-70798006D01*
X112032388Y-70796833D01*
X112048851Y-70785187D01*
X112046153Y-70777129D01*
X112048373Y-70749751D01*
X112053646Y-70745268D01*
X112069353Y-70718317D01*
X112084247Y-70666170D01*
X112087617Y-70648465D01*
X112100580Y-70598790D01*
X112115988Y-70575432D01*
X112121209Y-70575742D01*
X112139097Y-70569786D01*
X112143145Y-70554665D01*
X112148597Y-70504249D01*
X112156888Y-70479029D01*
X112165499Y-70468444D01*
X112172017Y-70438540D01*
X112168526Y-70424347D01*
X112171214Y-70398481D01*
X112181817Y-70394666D01*
X112197720Y-70383477D01*
X112195343Y-70376618D01*
X112197566Y-70347435D01*
X112212906Y-70319296D01*
X112231585Y-70277291D01*
X112231130Y-70252678D01*
X112235272Y-70228327D01*
X112245317Y-70225333D01*
X112260062Y-70212499D01*
X112256916Y-70204166D01*
X112258594Y-70184661D01*
X112266250Y-70183000D01*
X112284657Y-70165346D01*
X112288666Y-70142044D01*
X112296619Y-70092460D01*
X112313085Y-70041502D01*
X112332280Y-69992077D01*
X112342733Y-69960750D01*
X112354073Y-69927642D01*
X112374152Y-69877212D01*
X112374626Y-69876083D01*
X112392073Y-69823920D01*
X112397029Y-69786537D01*
X112396966Y-69786125D01*
X112406442Y-69761786D01*
X112414738Y-69759666D01*
X112430134Y-69741249D01*
X112436824Y-69696752D01*
X112436833Y-69694917D01*
X112442667Y-69650246D01*
X112460646Y-69644908D01*
X112461597Y-69645473D01*
X112477492Y-69646498D01*
X112472844Y-69625555D01*
X112469776Y-69596184D01*
X112477566Y-69590333D01*
X112499962Y-69573458D01*
X112508409Y-69557483D01*
X112510229Y-69535545D01*
X112494799Y-69540380D01*
X112480738Y-69544852D01*
X112496110Y-69522147D01*
X112520716Y-69475697D01*
X112534406Y-69428783D01*
X112551177Y-69373632D01*
X112570378Y-69339030D01*
X112588914Y-69292910D01*
X112588932Y-69283416D01*
X124015000Y-69283416D01*
X124025583Y-69294000D01*
X124036166Y-69283416D01*
X124025583Y-69272833D01*
X124015000Y-69283416D01*
X112588932Y-69283416D01*
X112588959Y-69269581D01*
X112591852Y-69237309D01*
X112601438Y-69230500D01*
X112623141Y-69213366D01*
X112645263Y-69176234D01*
X112656736Y-69141600D01*
X112649202Y-69134819D01*
X112648903Y-69135000D01*
X112636696Y-69131781D01*
X112640423Y-69115182D01*
X112662361Y-69086467D01*
X112674195Y-69082333D01*
X112686681Y-69066954D01*
X112683703Y-69051950D01*
X112684544Y-69021543D01*
X112693175Y-69014524D01*
X112715036Y-68990058D01*
X112719039Y-68976115D01*
X112733473Y-68930736D01*
X112739122Y-68920201D01*
X112745357Y-68881218D01*
X112740221Y-68858521D01*
X112735651Y-68833258D01*
X112754333Y-68838916D01*
X112773763Y-68843953D01*
X112769771Y-68822769D01*
X112772729Y-68781924D01*
X112777683Y-68775416D01*
X123824500Y-68775416D01*
X123835083Y-68786000D01*
X123845666Y-68775416D01*
X123835083Y-68764833D01*
X123824500Y-68775416D01*
X112777683Y-68775416D01*
X112785156Y-68765602D01*
X112803357Y-68727737D01*
X112801730Y-68697245D01*
X112798728Y-68666311D01*
X112816980Y-68669057D01*
X112817245Y-68669219D01*
X112836320Y-68673005D01*
X112833924Y-68656654D01*
X112838196Y-68619370D01*
X112857636Y-68586569D01*
X112874801Y-68561610D01*
X112867432Y-68560140D01*
X112851115Y-68558281D01*
X112853963Y-68532267D01*
X112871508Y-68504267D01*
X112887336Y-68503960D01*
X112900707Y-68502120D01*
X112896178Y-68482555D01*
X112894101Y-68453238D01*
X112903164Y-68447333D01*
X112919989Y-68429654D01*
X112923666Y-68406249D01*
X112933553Y-68365614D01*
X112945178Y-68351869D01*
X112958421Y-68328123D01*
X112956101Y-68321441D01*
X112957899Y-68293144D01*
X112975762Y-68244885D01*
X112981527Y-68232945D01*
X113003938Y-68176140D01*
X113012062Y-68129609D01*
X113011606Y-68124541D01*
X113017475Y-68093484D01*
X113029418Y-68087500D01*
X113043297Y-68074611D01*
X113040083Y-68066333D01*
X113041384Y-68046811D01*
X113048753Y-68045166D01*
X113061906Y-68029878D01*
X113059142Y-68015557D01*
X113061704Y-67981206D01*
X113070735Y-67971761D01*
X113084409Y-67946439D01*
X113081512Y-67937870D01*
X113085199Y-67919536D01*
X113093000Y-67918166D01*
X113107424Y-67905857D01*
X113104700Y-67898807D01*
X113106777Y-67875447D01*
X113112125Y-67872349D01*
X113128270Y-67848622D01*
X113141505Y-67800408D01*
X113142335Y-67795349D01*
X113155881Y-67739284D01*
X113173601Y-67700720D01*
X113174100Y-67700099D01*
X113191658Y-67663461D01*
X113207716Y-67606188D01*
X113209843Y-67595560D01*
X113224937Y-67545205D01*
X113243283Y-67528785D01*
X113247084Y-67530240D01*
X113260547Y-67528502D01*
X113256011Y-67508888D01*
X113254477Y-67479602D01*
X113264246Y-67473666D01*
X113274545Y-67463083D01*
X123337666Y-67463083D01*
X123348250Y-67473666D01*
X123358833Y-67463083D01*
X123348250Y-67452500D01*
X123337666Y-67463083D01*
X113274545Y-67463083D01*
X113276701Y-67460868D01*
X113273820Y-67453962D01*
X113276785Y-67426958D01*
X113284597Y-67420071D01*
X113298833Y-67390966D01*
X113296190Y-67376275D01*
X113298604Y-67350439D01*
X113308858Y-67346666D01*
X113322429Y-67337990D01*
X113318961Y-67332739D01*
X113318192Y-67307207D01*
X113327769Y-67291416D01*
X113347179Y-67250441D01*
X113351564Y-67230250D01*
X123253000Y-67230250D01*
X123263583Y-67240833D01*
X123274166Y-67230250D01*
X123263583Y-67219666D01*
X123253000Y-67230250D01*
X113351564Y-67230250D01*
X113356917Y-67205608D01*
X113369230Y-67160202D01*
X113386915Y-67139333D01*
X113406836Y-67114416D01*
X113410500Y-67092280D01*
X113418407Y-67044175D01*
X113434919Y-66993502D01*
X113454113Y-66944077D01*
X113464567Y-66912750D01*
X113475906Y-66879642D01*
X113495985Y-66829212D01*
X113496459Y-66828083D01*
X113513906Y-66775920D01*
X113518863Y-66738537D01*
X113518799Y-66738125D01*
X113528276Y-66713786D01*
X113536572Y-66711666D01*
X113554698Y-66694003D01*
X113558666Y-66670582D01*
X113569086Y-66629584D01*
X113581276Y-66615524D01*
X113595203Y-66586610D01*
X113592523Y-66571942D01*
X113592869Y-66546005D01*
X113601000Y-66542333D01*
X113612479Y-66526962D01*
X113609476Y-66512724D01*
X113611089Y-66489416D01*
X113622166Y-66489416D01*
X113632750Y-66500000D01*
X113643333Y-66489416D01*
X113632750Y-66478833D01*
X113622166Y-66489416D01*
X113611089Y-66489416D01*
X113611846Y-66478491D01*
X113620723Y-66469141D01*
X113639981Y-66438335D01*
X113643333Y-66415596D01*
X113657543Y-66366664D01*
X113670976Y-66348053D01*
X113695995Y-66315301D01*
X113713302Y-66280727D01*
X113717787Y-66257367D01*
X113706833Y-66256583D01*
X113695442Y-66254381D01*
X113701620Y-66229276D01*
X113720234Y-66194100D01*
X113743907Y-66163895D01*
X113763280Y-66126932D01*
X113762225Y-66107235D01*
X113765323Y-66087250D01*
X113770333Y-66087250D01*
X113780916Y-66097833D01*
X113791500Y-66087250D01*
X113780916Y-66076666D01*
X113770333Y-66087250D01*
X113765323Y-66087250D01*
X113767604Y-66072543D01*
X113783138Y-66053656D01*
X113804486Y-66019074D01*
X113803710Y-65999192D01*
X113805724Y-65974104D01*
X113814580Y-65970833D01*
X113826602Y-65957826D01*
X113823250Y-65949666D01*
X113825630Y-65930193D01*
X113833833Y-65928500D01*
X113845930Y-65917916D01*
X122766166Y-65917916D01*
X122776750Y-65928500D01*
X122787333Y-65917916D01*
X122776750Y-65907333D01*
X122766166Y-65917916D01*
X113845930Y-65917916D01*
X113848125Y-65915996D01*
X113845320Y-65908795D01*
X113847440Y-65881477D01*
X113852667Y-65877024D01*
X113863462Y-65849625D01*
X113860261Y-65819335D01*
X113857009Y-65787883D01*
X113874788Y-65790070D01*
X113875578Y-65790553D01*
X113894941Y-65794196D01*
X113893086Y-65778176D01*
X113897890Y-65739573D01*
X113909623Y-65722686D01*
X113925846Y-65682846D01*
X113923864Y-65650395D01*
X113920484Y-65618677D01*
X113938020Y-65620575D01*
X113939078Y-65621219D01*
X113958154Y-65625005D01*
X113955757Y-65608654D01*
X113960029Y-65571370D01*
X113979470Y-65538569D01*
X114000073Y-65511425D01*
X113991903Y-65510500D01*
X113982000Y-65515750D01*
X113967920Y-65518562D01*
X113985461Y-65493479D01*
X113989365Y-65488972D01*
X114013445Y-65449357D01*
X114014574Y-65421833D01*
X114014837Y-65409916D01*
X122575666Y-65409916D01*
X122586250Y-65420500D01*
X122596833Y-65409916D01*
X122586250Y-65399333D01*
X122575666Y-65409916D01*
X114014837Y-65409916D01*
X114015027Y-65401384D01*
X114023084Y-65399333D01*
X114041472Y-65381673D01*
X114045500Y-65358249D01*
X114055386Y-65317614D01*
X114067011Y-65303869D01*
X114078852Y-65277924D01*
X114075773Y-65269943D01*
X114076769Y-65238557D01*
X114088602Y-65218489D01*
X114102497Y-65193424D01*
X114097727Y-65187666D01*
X114097858Y-65174340D01*
X114121121Y-65142235D01*
X114121594Y-65141694D01*
X114142464Y-65113654D01*
X114133336Y-65112265D01*
X114130166Y-65114008D01*
X114109696Y-65123102D01*
X114119839Y-65105895D01*
X114124691Y-65099823D01*
X114140252Y-65067254D01*
X114137038Y-65053427D01*
X114139593Y-65040750D01*
X114149054Y-65039500D01*
X114164989Y-65027083D01*
X114161916Y-65018333D01*
X114164861Y-64998885D01*
X114173515Y-64997166D01*
X114188884Y-64981877D01*
X114186272Y-64966094D01*
X114186681Y-64931920D01*
X114194936Y-64922298D01*
X114206868Y-64897985D01*
X114204400Y-64891577D01*
X114208147Y-64864023D01*
X114223430Y-64843426D01*
X114248117Y-64801586D01*
X114264286Y-64745361D01*
X114279540Y-64687788D01*
X114300419Y-64646808D01*
X114314702Y-64621808D01*
X114310584Y-64616166D01*
X114310643Y-64600233D01*
X114328877Y-64560184D01*
X114339987Y-64540458D01*
X114360260Y-64499750D01*
X122237000Y-64499750D01*
X122247583Y-64510333D01*
X122258166Y-64499750D01*
X122247583Y-64489166D01*
X122237000Y-64499750D01*
X114360260Y-64499750D01*
X114365415Y-64489400D01*
X114375017Y-64453211D01*
X114373696Y-64447016D01*
X114378207Y-64425187D01*
X114384385Y-64422065D01*
X114401541Y-64398201D01*
X114414212Y-64349801D01*
X114414914Y-64344681D01*
X114428167Y-64286980D01*
X114447736Y-64245671D01*
X114448067Y-64245267D01*
X114468984Y-64202322D01*
X114478523Y-64159687D01*
X114493067Y-64111030D01*
X114513198Y-64085744D01*
X114530675Y-64063276D01*
X114527335Y-64053780D01*
X114527168Y-64027886D01*
X114543917Y-63980109D01*
X114553500Y-63960000D01*
X114575662Y-63908183D01*
X114582821Y-63873142D01*
X114580815Y-63867370D01*
X114583792Y-63855198D01*
X114592305Y-63854166D01*
X114611020Y-63836116D01*
X114617000Y-63802499D01*
X114624937Y-63757587D01*
X114638511Y-63737536D01*
X114649852Y-63711054D01*
X114646383Y-63702170D01*
X114646659Y-63695416D01*
X121940666Y-63695416D01*
X121951250Y-63706000D01*
X121961833Y-63695416D01*
X121951250Y-63684833D01*
X121940666Y-63695416D01*
X114646659Y-63695416D01*
X114647580Y-63672980D01*
X114654535Y-63666591D01*
X114672228Y-63638215D01*
X114686678Y-63586690D01*
X114687928Y-63579356D01*
X114701072Y-63528361D01*
X114718105Y-63499889D01*
X114720575Y-63498613D01*
X114733393Y-63476532D01*
X114730784Y-63463356D01*
X114732902Y-63441416D01*
X114744000Y-63441416D01*
X114754583Y-63452000D01*
X114765166Y-63441416D01*
X114754583Y-63430833D01*
X114744000Y-63441416D01*
X114732902Y-63441416D01*
X114734034Y-63429691D01*
X114742556Y-63421141D01*
X114761815Y-63390335D01*
X114765166Y-63367596D01*
X114779488Y-63320984D01*
X114798972Y-63294217D01*
X114821499Y-63256056D01*
X114821793Y-63231785D01*
X114823751Y-63208583D01*
X114828666Y-63208583D01*
X114839250Y-63219166D01*
X114849833Y-63208583D01*
X114839250Y-63198000D01*
X114828666Y-63208583D01*
X114823751Y-63208583D01*
X114825052Y-63193176D01*
X114834554Y-63179412D01*
X114846967Y-63159088D01*
X114841971Y-63155666D01*
X114841341Y-63143602D01*
X114858005Y-63123304D01*
X114879738Y-63085797D01*
X114879720Y-63063195D01*
X114883349Y-63039250D01*
X114892166Y-63039250D01*
X114902750Y-63049833D01*
X114913333Y-63039250D01*
X114902750Y-63028666D01*
X114892166Y-63039250D01*
X114883349Y-63039250D01*
X114885014Y-63028270D01*
X114900528Y-63009343D01*
X114921564Y-62973896D01*
X114920393Y-62953035D01*
X114922774Y-62926841D01*
X114933484Y-62922833D01*
X114948892Y-62910916D01*
X114946200Y-62903474D01*
X114950365Y-62880524D01*
X114958874Y-62875902D01*
X114975332Y-62851340D01*
X114981643Y-62802984D01*
X114981578Y-62799630D01*
X114985843Y-62753705D01*
X115001254Y-62744960D01*
X115002150Y-62745482D01*
X115016929Y-62743643D01*
X115014920Y-62730176D01*
X115019803Y-62691743D01*
X115032077Y-62674065D01*
X115050815Y-62632430D01*
X115050759Y-62604519D01*
X115052091Y-62575395D01*
X115064022Y-62575142D01*
X115080889Y-62571678D01*
X115081574Y-62559832D01*
X115079288Y-62504005D01*
X115088211Y-62470349D01*
X115102726Y-62467066D01*
X115115330Y-62460507D01*
X115114573Y-62436814D01*
X115120212Y-62388712D01*
X115134054Y-62366469D01*
X115161972Y-62325122D01*
X115184329Y-62271040D01*
X115193022Y-62225167D01*
X115191950Y-62216813D01*
X115199624Y-62186963D01*
X115211515Y-62169188D01*
X115221655Y-62150250D01*
X121369166Y-62150250D01*
X121379750Y-62160833D01*
X121390333Y-62150250D01*
X121379750Y-62139666D01*
X121369166Y-62150250D01*
X115221655Y-62150250D01*
X115224544Y-62144856D01*
X115219561Y-62139666D01*
X115219692Y-62126340D01*
X115242954Y-62094235D01*
X115243427Y-62093694D01*
X115264298Y-62065654D01*
X115255170Y-62064265D01*
X115252000Y-62066008D01*
X115231529Y-62075102D01*
X115241673Y-62057895D01*
X115246524Y-62051823D01*
X115262085Y-62019254D01*
X115258871Y-62005427D01*
X115261426Y-61992750D01*
X115270888Y-61991500D01*
X115287477Y-61980037D01*
X115284867Y-61972141D01*
X115286943Y-61948780D01*
X115292292Y-61945682D01*
X115308284Y-61921989D01*
X115321680Y-61873487D01*
X115322834Y-61866577D01*
X115336772Y-61813659D01*
X115355773Y-61781296D01*
X115357610Y-61779970D01*
X115377317Y-61754074D01*
X115377610Y-61746143D01*
X115378951Y-61711640D01*
X115379139Y-61711041D01*
X115387687Y-61679291D01*
X115399797Y-61649785D01*
X115414704Y-61621083D01*
X115435586Y-61578409D01*
X115442948Y-61557583D01*
X115454053Y-61523332D01*
X115469620Y-61483500D01*
X115484581Y-61437411D01*
X115487134Y-61411356D01*
X115497828Y-61384075D01*
X115505418Y-61378025D01*
X115523551Y-61348982D01*
X115536596Y-61297618D01*
X115537134Y-61293629D01*
X115549102Y-61239108D01*
X115565872Y-61203542D01*
X115566694Y-61202672D01*
X115578280Y-61167201D01*
X115574832Y-61149365D01*
X115572708Y-61127758D01*
X115590340Y-61134048D01*
X115608324Y-61139958D01*
X115602446Y-61125603D01*
X115602900Y-61091824D01*
X115622416Y-61060166D01*
X115645047Y-61022850D01*
X115645311Y-60999463D01*
X115647491Y-60971256D01*
X115655264Y-60964238D01*
X115669265Y-60935195D01*
X115666435Y-60919342D01*
X115666175Y-60899306D01*
X115675575Y-60901566D01*
X115690998Y-60893840D01*
X115696500Y-60860332D01*
X115699992Y-60837916D01*
X120882333Y-60837916D01*
X120892916Y-60848500D01*
X120903500Y-60837916D01*
X120892916Y-60827333D01*
X120882333Y-60837916D01*
X115699992Y-60837916D01*
X115702792Y-60819948D01*
X115715263Y-60806166D01*
X115729258Y-60787326D01*
X115743126Y-60739635D01*
X115748310Y-60710916D01*
X115760041Y-60654230D01*
X115773333Y-60620128D01*
X115778935Y-60615666D01*
X115795636Y-60598743D01*
X115797565Y-60589208D01*
X115815015Y-60504076D01*
X115838993Y-60464706D01*
X115853107Y-60426578D01*
X115849998Y-60408531D01*
X115848617Y-60386828D01*
X115859592Y-60389559D01*
X115877094Y-60380446D01*
X115892049Y-60336066D01*
X115893177Y-60329916D01*
X120691833Y-60329916D01*
X120702416Y-60340500D01*
X120713000Y-60329916D01*
X120702416Y-60319333D01*
X120691833Y-60329916D01*
X115893177Y-60329916D01*
X115895189Y-60318948D01*
X115908571Y-60266149D01*
X115925600Y-60236802D01*
X115930913Y-60234666D01*
X115946370Y-60217633D01*
X115946540Y-60195585D01*
X115951845Y-60161928D01*
X115961083Y-60171166D01*
X115971666Y-60160583D01*
X115961083Y-60150000D01*
X115952348Y-60158735D01*
X115953904Y-60148866D01*
X115971667Y-60117438D01*
X115992072Y-60090273D01*
X115984678Y-60089508D01*
X115971666Y-60096658D01*
X115953301Y-60104361D01*
X115963532Y-60087207D01*
X115974196Y-60074263D01*
X115996705Y-60032394D01*
X115997908Y-60004178D01*
X115999122Y-59985418D01*
X116011254Y-59989552D01*
X116030915Y-59985344D01*
X116039314Y-59947643D01*
X116036746Y-59901291D01*
X116047881Y-59876911D01*
X116056654Y-59874833D01*
X116070760Y-59862395D01*
X116068033Y-59855474D01*
X116071966Y-59832392D01*
X116079655Y-59828253D01*
X116096907Y-59803814D01*
X116105878Y-59755714D01*
X116105946Y-59754198D01*
X116113108Y-59712427D01*
X116126923Y-59699491D01*
X116128422Y-59700225D01*
X116138899Y-59695369D01*
X116134678Y-59677222D01*
X116133144Y-59647935D01*
X116142913Y-59642000D01*
X116154935Y-59628993D01*
X116151583Y-59620833D01*
X116151681Y-59601260D01*
X116158160Y-59599666D01*
X116174310Y-59582238D01*
X116176743Y-59562625D01*
X116181814Y-59507474D01*
X116196679Y-59457613D01*
X116216163Y-59426273D01*
X116231258Y-59423206D01*
X116243566Y-59419750D01*
X120353166Y-59419750D01*
X120363750Y-59430333D01*
X120374333Y-59419750D01*
X120363750Y-59409166D01*
X120353166Y-59419750D01*
X116243566Y-59419750D01*
X116244991Y-59419350D01*
X116241468Y-59390937D01*
X116242824Y-59342890D01*
X116256508Y-59317848D01*
X116285112Y-59276158D01*
X116311267Y-59207672D01*
X116337717Y-59105037D01*
X116340350Y-59093222D01*
X116355959Y-59049064D01*
X116370339Y-59029722D01*
X116375942Y-59017583D01*
X120205000Y-59017583D01*
X120215583Y-59028166D01*
X120226166Y-59017583D01*
X120215583Y-59007000D01*
X120205000Y-59017583D01*
X116375942Y-59017583D01*
X116383537Y-59001130D01*
X116383245Y-58980226D01*
X116392349Y-58935140D01*
X116408342Y-58912014D01*
X116433010Y-58869486D01*
X116447731Y-58813727D01*
X116460908Y-58762045D01*
X116480823Y-58731127D01*
X116481261Y-58730847D01*
X116495515Y-58703404D01*
X116491712Y-58691866D01*
X116491758Y-58670730D01*
X116500512Y-58668333D01*
X116518674Y-58652455D01*
X116518487Y-58641875D01*
X116523895Y-58604315D01*
X116539470Y-58567791D01*
X116554358Y-58532679D01*
X116551902Y-58520166D01*
X116550958Y-58507272D01*
X116561557Y-58491760D01*
X116576428Y-58462334D01*
X116574221Y-58452443D01*
X116578739Y-58432231D01*
X116594313Y-58415802D01*
X116615025Y-58380380D01*
X116613727Y-58359869D01*
X116616592Y-58333699D01*
X116627833Y-58329666D01*
X116643921Y-58314365D01*
X116641345Y-58297916D01*
X116641967Y-58270716D01*
X116651928Y-58266166D01*
X116666473Y-58251135D01*
X116664202Y-58238821D01*
X116667106Y-58201382D01*
X116681650Y-58173264D01*
X116698959Y-58128846D01*
X116696865Y-58101886D01*
X116694739Y-58079790D01*
X116710318Y-58084901D01*
X116730797Y-58086498D01*
X116731743Y-58072499D01*
X116737885Y-58018051D01*
X116767168Y-57943014D01*
X116778262Y-57921347D01*
X116788677Y-57879593D01*
X116784029Y-57859868D01*
X116782391Y-57846299D01*
X116793896Y-57851395D01*
X116812985Y-57847407D01*
X116818333Y-57812332D01*
X116826012Y-57771969D01*
X116841263Y-57758166D01*
X116856570Y-57743082D01*
X116854751Y-57731708D01*
X116856716Y-57694948D01*
X116873310Y-57649725D01*
X116889298Y-57606095D01*
X116888044Y-57580933D01*
X116891257Y-57568840D01*
X116900721Y-57567666D01*
X116917185Y-57556020D01*
X116914487Y-57547962D01*
X116917452Y-57520958D01*
X116925264Y-57514071D01*
X116939646Y-57484929D01*
X116937117Y-57470953D01*
X116938576Y-57437831D01*
X116946257Y-57429512D01*
X116963075Y-57400270D01*
X116966500Y-57374668D01*
X116974850Y-57346195D01*
X116987666Y-57345416D01*
X117003455Y-57338022D01*
X117008833Y-57305581D01*
X117016590Y-57260179D01*
X117030345Y-57239369D01*
X117042555Y-57214002D01*
X117039679Y-57206370D01*
X117043612Y-57188198D01*
X117052182Y-57186666D01*
X117067080Y-57171241D01*
X117063504Y-57151855D01*
X117066206Y-57112583D01*
X117072333Y-57112583D01*
X117082916Y-57123166D01*
X117093500Y-57112583D01*
X117082916Y-57102000D01*
X117072333Y-57112583D01*
X117066206Y-57112583D01*
X117066393Y-57109875D01*
X117087697Y-57074133D01*
X117106481Y-57048416D01*
X117099285Y-57046398D01*
X117099034Y-57046544D01*
X117081563Y-57048276D01*
X117085423Y-57029016D01*
X117105796Y-57000340D01*
X117116266Y-56996166D01*
X117125396Y-56980324D01*
X117120988Y-56960944D01*
X117118006Y-56937052D01*
X117132236Y-56941026D01*
X117154752Y-56939098D01*
X117159645Y-56923332D01*
X117178027Y-56832125D01*
X117180673Y-56800375D01*
X117194362Y-56785174D01*
X117200759Y-56784500D01*
X117213796Y-56768117D01*
X117210482Y-56743947D01*
X117210181Y-56731583D01*
X119358333Y-56731583D01*
X119368916Y-56742166D01*
X119379500Y-56731583D01*
X119368916Y-56721000D01*
X119358333Y-56731583D01*
X117210181Y-56731583D01*
X117209663Y-56710416D01*
X117220500Y-56710416D01*
X117231083Y-56721000D01*
X117241666Y-56710416D01*
X117231083Y-56699833D01*
X117220500Y-56710416D01*
X117209663Y-56710416D01*
X117209525Y-56704788D01*
X117219984Y-56689568D01*
X117233742Y-56665274D01*
X117231234Y-56657743D01*
X117235086Y-56630290D01*
X117251047Y-56608809D01*
X117270584Y-56578604D01*
X117268880Y-56564769D01*
X117272276Y-56552829D01*
X117281802Y-56551666D01*
X117301505Y-56534669D01*
X117303132Y-56514625D01*
X117304439Y-56465457D01*
X117316332Y-56416233D01*
X117333898Y-56381225D01*
X117351480Y-56374210D01*
X117365122Y-56368128D01*
X117365098Y-56345565D01*
X117372048Y-56295081D01*
X117385675Y-56270925D01*
X117410658Y-56222841D01*
X117419065Y-56188299D01*
X117428654Y-56138916D01*
X117432166Y-56138916D01*
X117442750Y-56149500D01*
X117453333Y-56138916D01*
X117442750Y-56128333D01*
X117432166Y-56138916D01*
X117428654Y-56138916D01*
X117429897Y-56132518D01*
X117452643Y-56066426D01*
X117480342Y-56001333D01*
X117499833Y-55946247D01*
X117507592Y-55909049D01*
X117522957Y-55867737D01*
X117536305Y-55854213D01*
X117557385Y-55823110D01*
X117567203Y-55783707D01*
X117579661Y-55736750D01*
X117580333Y-55736750D01*
X117590916Y-55747333D01*
X117601500Y-55736750D01*
X117590916Y-55726166D01*
X117580333Y-55736750D01*
X117579661Y-55736750D01*
X117581798Y-55728698D01*
X117599691Y-55696596D01*
X117615711Y-55660289D01*
X117612656Y-55642427D01*
X117614158Y-55622294D01*
X117622666Y-55620333D01*
X117636740Y-55607563D01*
X117633782Y-55600027D01*
X117632315Y-55566697D01*
X117641571Y-55541819D01*
X117661828Y-55497482D01*
X117679170Y-55449675D01*
X117686519Y-55419250D01*
X118871500Y-55419250D01*
X118882083Y-55429833D01*
X118892666Y-55419250D01*
X118882083Y-55408666D01*
X118871500Y-55419250D01*
X117686519Y-55419250D01*
X117687074Y-55416954D01*
X117686777Y-55413202D01*
X117697897Y-55395521D01*
X117716261Y-55375548D01*
X117736972Y-55336652D01*
X117735919Y-55312804D01*
X117738240Y-55286052D01*
X117749666Y-55281666D01*
X117766357Y-55266590D01*
X117764168Y-55252495D01*
X117767249Y-55213384D01*
X117776720Y-55199579D01*
X117784853Y-55186416D01*
X118786833Y-55186416D01*
X118797416Y-55197000D01*
X118808000Y-55186416D01*
X118797416Y-55175833D01*
X118786833Y-55186416D01*
X117784853Y-55186416D01*
X117789284Y-55179245D01*
X117784449Y-55175833D01*
X117782799Y-55161416D01*
X117799786Y-55131070D01*
X117819263Y-55085128D01*
X117818556Y-55053514D01*
X117817054Y-55031678D01*
X117828860Y-55034867D01*
X117847386Y-55026329D01*
X117863021Y-54980378D01*
X117866049Y-54964367D01*
X117879270Y-54908247D01*
X117894614Y-54872562D01*
X117898750Y-54868349D01*
X117908081Y-54841966D01*
X117903895Y-54822433D01*
X117901281Y-54799100D01*
X117915402Y-54803193D01*
X117935648Y-54800727D01*
X117940166Y-54776165D01*
X117950292Y-54734660D01*
X117962776Y-54719858D01*
X117977263Y-54690813D01*
X117975013Y-54678854D01*
X117976837Y-54642208D01*
X117982887Y-54633370D01*
X117999804Y-54600326D01*
X118011914Y-54554873D01*
X118028107Y-54500173D01*
X118046753Y-54465842D01*
X118061165Y-54431069D01*
X118058060Y-54416223D01*
X118060158Y-54388191D01*
X118066821Y-54382296D01*
X118084714Y-54352330D01*
X118088333Y-54326668D01*
X118095702Y-54297480D01*
X118106854Y-54295781D01*
X118120684Y-54287025D01*
X118125375Y-54255831D01*
X118139568Y-54200426D01*
X118160489Y-54169320D01*
X118184943Y-54120105D01*
X118182034Y-54091452D01*
X118178002Y-54061856D01*
X118193621Y-54064246D01*
X118212557Y-54063413D01*
X118213691Y-54040438D01*
X118214666Y-53991617D01*
X118225764Y-53941791D01*
X118242365Y-53905329D01*
X118259850Y-53896600D01*
X118259924Y-53896645D01*
X118275441Y-53889175D01*
X118278511Y-53874083D01*
X118300000Y-53874083D01*
X118310583Y-53884666D01*
X118321166Y-53874083D01*
X118310583Y-53863500D01*
X118300000Y-53874083D01*
X118278511Y-53874083D01*
X118282921Y-53852408D01*
X118281033Y-53810583D01*
X118289379Y-53808373D01*
X118310376Y-53830639D01*
X118310376Y-53830639D01*
G37*
X118310376Y-53830639D02*
X118330934Y-53879293D01*
X118329581Y-53912665D01*
X118326729Y-53940958D01*
X118339823Y-53939134D01*
X118354312Y-53939874D01*
X118350409Y-53957650D01*
X118349734Y-53985555D01*
X118358970Y-53990500D01*
X118383976Y-54007445D01*
X118392742Y-54023349D01*
X118394562Y-54045287D01*
X118379132Y-54040452D01*
X118364749Y-54035590D01*
X118379809Y-54057909D01*
X118380174Y-54058360D01*
X118406874Y-54107333D01*
X118416508Y-54139142D01*
X118435717Y-54195306D01*
X118454891Y-54231259D01*
X118475676Y-54280407D01*
X118478623Y-54313392D01*
X118483243Y-54338462D01*
X118495955Y-54336378D01*
X118509917Y-54337571D01*
X118505344Y-54357444D01*
X118503810Y-54386730D01*
X118513580Y-54392666D01*
X118525777Y-54405590D01*
X118522619Y-54413235D01*
X118523738Y-54444099D01*
X118542611Y-54483716D01*
X118561850Y-54524230D01*
X118561129Y-54547814D01*
X118563671Y-54560604D01*
X118573903Y-54562000D01*
X118591258Y-54577096D01*
X118588678Y-54593750D01*
X118589887Y-54620919D01*
X118600525Y-54625500D01*
X118614154Y-54634122D01*
X118610724Y-54639330D01*
X118611793Y-54664329D01*
X118631771Y-54708995D01*
X118639198Y-54721610D01*
X118665970Y-54781810D01*
X118667071Y-54827669D01*
X118662309Y-54853304D01*
X118680673Y-54847951D01*
X118698714Y-54842102D01*
X118693365Y-54855448D01*
X118693894Y-54887592D01*
X118714004Y-54937340D01*
X118723333Y-54953583D01*
X118748855Y-55004543D01*
X118757128Y-55042043D01*
X118755321Y-55048447D01*
X118758395Y-55068049D01*
X118767945Y-55070000D01*
X118783234Y-55078312D01*
X118779703Y-55084185D01*
X118779721Y-55109913D01*
X118798950Y-55149395D01*
X118819602Y-55196760D01*
X118820434Y-55231559D01*
X118819733Y-55251925D01*
X118833006Y-55247543D01*
X118848662Y-55246841D01*
X118844011Y-55267611D01*
X118842477Y-55296897D01*
X118852246Y-55302833D01*
X118864268Y-55315840D01*
X118860916Y-55323999D01*
X118863297Y-55343473D01*
X118871500Y-55345166D01*
X118885791Y-55357670D01*
X118882987Y-55364870D01*
X118885829Y-55391949D01*
X118893182Y-55398402D01*
X118905579Y-55426961D01*
X118901843Y-55455432D01*
X118898088Y-55485600D01*
X118911323Y-55484301D01*
X118925812Y-55485040D01*
X118921909Y-55502817D01*
X118922816Y-55530654D01*
X118933984Y-55535666D01*
X118948434Y-55548627D01*
X118945010Y-55557760D01*
X118944925Y-55590766D01*
X118955143Y-55608517D01*
X118978489Y-55652339D01*
X118988220Y-55685409D01*
X119006489Y-55730880D01*
X119024462Y-55750745D01*
X119038562Y-55765649D01*
X119032949Y-55768175D01*
X119029389Y-55781690D01*
X119043533Y-55804313D01*
X119061618Y-55829175D01*
X119050749Y-55827366D01*
X119040833Y-55821841D01*
X119027656Y-55819527D01*
X119044985Y-55844442D01*
X119048984Y-55849063D01*
X119081540Y-55903090D01*
X119094856Y-55948962D01*
X119109376Y-56003408D01*
X119126763Y-56034605D01*
X119142675Y-56065964D01*
X119140107Y-56078448D01*
X119142732Y-56101098D01*
X119159475Y-56122999D01*
X119180750Y-56160998D01*
X119180298Y-56183979D01*
X119179497Y-56209606D01*
X119186136Y-56212999D01*
X119203165Y-56230309D01*
X119206638Y-56244750D01*
X119212362Y-56296261D01*
X119213694Y-56308250D01*
X119227129Y-56336502D01*
X119236110Y-56340000D01*
X119246290Y-56352722D01*
X119243843Y-56358048D01*
X119246066Y-56387231D01*
X119261406Y-56415369D01*
X119280388Y-56456431D01*
X119280452Y-56479847D01*
X119286096Y-56512397D01*
X119293735Y-56519238D01*
X119307409Y-56544560D01*
X119304512Y-56553129D01*
X119307633Y-56571561D01*
X119314750Y-56572833D01*
X119334448Y-56584212D01*
X119334660Y-56588708D01*
X119333699Y-56638525D01*
X119346178Y-56666313D01*
X119361603Y-56666062D01*
X119376201Y-56663578D01*
X119371841Y-56673933D01*
X119370356Y-56702370D01*
X119376420Y-56708513D01*
X119392461Y-56734722D01*
X119409527Y-56783774D01*
X119422100Y-56836687D01*
X119424665Y-56874458D01*
X119438295Y-56889381D01*
X119446527Y-56890333D01*
X119460759Y-56898829D01*
X119457294Y-56904260D01*
X119456306Y-56929888D01*
X119465092Y-56944366D01*
X119482680Y-56977633D01*
X119483569Y-56988646D01*
X119481586Y-57038675D01*
X119493417Y-57067663D01*
X119510097Y-57068026D01*
X119525814Y-57066972D01*
X119520607Y-57089865D01*
X119522984Y-57136194D01*
X119551069Y-57189806D01*
X119577321Y-57233743D01*
X119585056Y-57262057D01*
X119583736Y-57264652D01*
X119584102Y-57289633D01*
X119601329Y-57333960D01*
X119603137Y-57337516D01*
X119620782Y-57378684D01*
X119621936Y-57398106D01*
X119620868Y-57398333D01*
X119620096Y-57411236D01*
X119630724Y-57426739D01*
X119644151Y-57457603D01*
X119640371Y-57469072D01*
X119643455Y-57481497D01*
X119654666Y-57483000D01*
X119672243Y-57490605D01*
X119669058Y-57496830D01*
X119670247Y-57521750D01*
X119690299Y-57566667D01*
X119698768Y-57581111D01*
X119723717Y-57630823D01*
X119731457Y-57666554D01*
X119729892Y-57671651D01*
X119732392Y-57699145D01*
X119739333Y-57705249D01*
X119751901Y-57730601D01*
X119749012Y-57738462D01*
X119752699Y-57756796D01*
X119760500Y-57758166D01*
X119774303Y-57771060D01*
X119771083Y-57779333D01*
X119770733Y-57798925D01*
X119776889Y-57800500D01*
X119795620Y-57817806D01*
X119799305Y-57832250D01*
X119805029Y-57883761D01*
X119806361Y-57895750D01*
X119816660Y-57924002D01*
X119823023Y-57927500D01*
X119834792Y-57945451D01*
X119839601Y-57973220D01*
X119854105Y-58017979D01*
X119870564Y-58036396D01*
X119885168Y-58051513D01*
X119879616Y-58054175D01*
X119873560Y-58067430D01*
X119881163Y-58080958D01*
X119898284Y-58122459D01*
X119903784Y-58157410D01*
X119920079Y-58213224D01*
X119941441Y-58246132D01*
X119970456Y-58298074D01*
X119979620Y-58338999D01*
X119987717Y-58379419D01*
X119999874Y-58393151D01*
X120007233Y-58406607D01*
X120003092Y-58415667D01*
X120005063Y-58446499D01*
X120025083Y-58477833D01*
X120047003Y-58517367D01*
X120045053Y-58543269D01*
X120041127Y-58558992D01*
X120055830Y-58552536D01*
X120073023Y-58549591D01*
X120068836Y-58579087D01*
X120067416Y-58583666D01*
X120061323Y-58616433D01*
X120076444Y-58616318D01*
X120079002Y-58614796D01*
X120095743Y-58610092D01*
X120090174Y-58623426D01*
X120090358Y-58655863D01*
X120109642Y-58706510D01*
X120119513Y-58724614D01*
X120144848Y-58774032D01*
X120154587Y-58806780D01*
X120153223Y-58811831D01*
X120156292Y-58834909D01*
X120177395Y-58879305D01*
X120188156Y-58897578D01*
X120212154Y-58942188D01*
X120211334Y-58957184D01*
X120203750Y-58954192D01*
X120191697Y-58952460D01*
X120209187Y-58977259D01*
X120211174Y-58979545D01*
X120238185Y-59017817D01*
X120245709Y-59041392D01*
X120243586Y-59086623D01*
X120251724Y-59119532D01*
X120264972Y-59125596D01*
X120282595Y-59131121D01*
X120284898Y-59140222D01*
X120310897Y-59241660D01*
X120326981Y-59274091D01*
X120341159Y-59313275D01*
X120338440Y-59332170D01*
X120340900Y-59355509D01*
X120362425Y-59386536D01*
X120385534Y-59424811D01*
X120385740Y-59450166D01*
X120386870Y-59470582D01*
X120395500Y-59472666D01*
X120409303Y-59485560D01*
X120406083Y-59493833D01*
X120408463Y-59513306D01*
X120416666Y-59515000D01*
X120430664Y-59527805D01*
X120427634Y-59535545D01*
X120427702Y-59566801D01*
X120445191Y-59614545D01*
X120446707Y-59617528D01*
X120464833Y-59663185D01*
X120466008Y-59691239D01*
X120465211Y-59692233D01*
X120468938Y-59704085D01*
X120480166Y-59705500D01*
X120497743Y-59713105D01*
X120494558Y-59719330D01*
X120495682Y-59744293D01*
X120515694Y-59789076D01*
X120523600Y-59802530D01*
X120554923Y-59866683D01*
X120573715Y-59929900D01*
X120574443Y-59934874D01*
X120592769Y-60001279D01*
X120617780Y-60051826D01*
X120638786Y-60096574D01*
X120639491Y-60127902D01*
X120639940Y-60148086D01*
X120647586Y-60150000D01*
X120660863Y-60165236D01*
X120658201Y-60179020D01*
X120662776Y-60215284D01*
X120681544Y-60242520D01*
X120702620Y-60268805D01*
X120701336Y-60277000D01*
X120700167Y-60290012D01*
X120712230Y-60307822D01*
X120727445Y-60343798D01*
X120724156Y-60360739D01*
X120725658Y-60380871D01*
X120734166Y-60382833D01*
X120747969Y-60395727D01*
X120744750Y-60404000D01*
X120748064Y-60423262D01*
X120757611Y-60425166D01*
X120773049Y-60433343D01*
X120769628Y-60439094D01*
X120769473Y-60464415D01*
X120781975Y-60485490D01*
X120797360Y-60507758D01*
X120782406Y-60503013D01*
X120776500Y-60499674D01*
X120762613Y-60496724D01*
X120780005Y-60521571D01*
X120783865Y-60526027D01*
X120807945Y-60565642D01*
X120809074Y-60593166D01*
X120810203Y-60613582D01*
X120818833Y-60615666D01*
X120832823Y-60628475D01*
X120829786Y-60636235D01*
X120831188Y-60666748D01*
X120852138Y-60710318D01*
X120871847Y-60747366D01*
X120871554Y-60763786D01*
X120870903Y-60763833D01*
X120870784Y-60776822D01*
X120891709Y-60804832D01*
X120914842Y-60842910D01*
X120915187Y-60867879D01*
X120917603Y-60897778D01*
X120941099Y-60943008D01*
X120947357Y-60951867D01*
X120974627Y-60997108D01*
X120982943Y-61028941D01*
X120981791Y-61032190D01*
X120983970Y-61060005D01*
X121001672Y-61111968D01*
X121020504Y-61154466D01*
X121046481Y-61215057D01*
X121060002Y-61260324D01*
X121059872Y-61275680D01*
X121063315Y-61292342D01*
X121068056Y-61293000D01*
X121086172Y-61309823D01*
X121087779Y-61319458D01*
X121097604Y-61379744D01*
X121118750Y-61419588D01*
X121121518Y-61421904D01*
X121136671Y-61451026D01*
X121141898Y-61480112D01*
X121150911Y-61516372D01*
X121161340Y-61525833D01*
X121169441Y-61541366D01*
X121165976Y-61555442D01*
X121168537Y-61589793D01*
X121177568Y-61599238D01*
X121191243Y-61624560D01*
X121188346Y-61633129D01*
X121191466Y-61651561D01*
X121198584Y-61652833D01*
X121218282Y-61664212D01*
X121218493Y-61668708D01*
X121217521Y-61718784D01*
X121230174Y-61746353D01*
X121245763Y-61745860D01*
X121261625Y-61744830D01*
X121256874Y-61766133D01*
X121258160Y-61807498D01*
X121279930Y-61861798D01*
X121283930Y-61868652D01*
X121307904Y-61916637D01*
X121315063Y-61949543D01*
X121313903Y-61952962D01*
X121318800Y-61969358D01*
X121325584Y-61970333D01*
X121344653Y-61981633D01*
X121344639Y-61986208D01*
X121349862Y-62021894D01*
X121370186Y-62077919D01*
X121392595Y-62124652D01*
X121403857Y-62164884D01*
X121400295Y-62183005D01*
X121403108Y-62212009D01*
X121426258Y-62257261D01*
X121432666Y-62266666D01*
X121458946Y-62313400D01*
X121465938Y-62347441D01*
X121464505Y-62351188D01*
X121466845Y-62370761D01*
X121475177Y-62372500D01*
X121489355Y-62388966D01*
X121484742Y-62417484D01*
X121480339Y-62449006D01*
X121493656Y-62448134D01*
X121508367Y-62448791D01*
X121505064Y-62464509D01*
X121506950Y-62499314D01*
X121516235Y-62509404D01*
X121529909Y-62534727D01*
X121527012Y-62543295D01*
X121530133Y-62561728D01*
X121537250Y-62563000D01*
X121556238Y-62574289D01*
X121556194Y-62578875D01*
X121558616Y-62614290D01*
X121571977Y-62660366D01*
X121589726Y-62698613D01*
X121603079Y-62711166D01*
X121613952Y-62728371D01*
X121612583Y-62753500D01*
X121614621Y-62787454D01*
X121625631Y-62795833D01*
X121637138Y-62808872D01*
X121633750Y-62817000D01*
X121636130Y-62836473D01*
X121644333Y-62838166D01*
X121658136Y-62851060D01*
X121654916Y-62859333D01*
X121658230Y-62878595D01*
X121667778Y-62880500D01*
X121684165Y-62887811D01*
X121681416Y-62892805D01*
X121681887Y-62917693D01*
X121697313Y-62966357D01*
X121708196Y-62992410D01*
X121729618Y-63048374D01*
X121738225Y-63088090D01*
X121736891Y-63096521D01*
X121742445Y-63112232D01*
X121750166Y-63113333D01*
X121764458Y-63125837D01*
X121761653Y-63133037D01*
X121763324Y-63160085D01*
X121768342Y-63164401D01*
X121782845Y-63192331D01*
X121787208Y-63228423D01*
X121797901Y-63280263D01*
X121824402Y-63342991D01*
X121832432Y-63357434D01*
X121857866Y-63409229D01*
X121867151Y-63446725D01*
X121865579Y-63453624D01*
X121869369Y-63471812D01*
X121877166Y-63473166D01*
X121890561Y-63486237D01*
X121886925Y-63495667D01*
X121887935Y-63527588D01*
X121903623Y-63553875D01*
X121941112Y-63602039D01*
X121956056Y-63631016D01*
X121945988Y-63635331D01*
X121938645Y-63631548D01*
X121928998Y-63631874D01*
X121946135Y-63656509D01*
X121948031Y-63658694D01*
X121972828Y-63697046D01*
X121975587Y-63722036D01*
X121978085Y-63750559D01*
X121998873Y-63797502D01*
X122005726Y-63809309D01*
X122029792Y-63858498D01*
X122036598Y-63893481D01*
X122035130Y-63897772D01*
X122036481Y-63916408D01*
X122042604Y-63917666D01*
X122057398Y-63935809D01*
X122062375Y-63971284D01*
X122076251Y-64029169D01*
X122097653Y-64063885D01*
X122123512Y-64100497D01*
X122129543Y-64121392D01*
X122127403Y-64171194D01*
X122138922Y-64200620D01*
X122155603Y-64201395D01*
X122170141Y-64198913D01*
X122165386Y-64210003D01*
X122165296Y-64241884D01*
X122182413Y-64293979D01*
X122192959Y-64316486D01*
X122215861Y-64369350D01*
X122224073Y-64405538D01*
X122222111Y-64412332D01*
X122224691Y-64435551D01*
X122246258Y-64466536D01*
X122269733Y-64504175D01*
X122270691Y-64528358D01*
X122273830Y-64552618D01*
X122281619Y-64556956D01*
X122301523Y-64581686D01*
X122311349Y-64619633D01*
X122325048Y-64679841D01*
X122339935Y-64716586D01*
X122352556Y-64754907D01*
X122349144Y-64772133D01*
X122350752Y-64784939D01*
X122355967Y-64785500D01*
X122373330Y-64803448D01*
X122379601Y-64831220D01*
X122394105Y-64875979D01*
X122410564Y-64894396D01*
X122425243Y-64909517D01*
X122419773Y-64912175D01*
X122417037Y-64927377D01*
X122435163Y-64963876D01*
X122437340Y-64967253D01*
X122459019Y-65008773D01*
X122461800Y-65033389D01*
X122461499Y-65033723D01*
X122462420Y-65058271D01*
X122479959Y-65103245D01*
X122483996Y-65111261D01*
X122521122Y-65183693D01*
X122541650Y-65227869D01*
X122548994Y-65252840D01*
X122546569Y-65267656D01*
X122544439Y-65271487D01*
X122548324Y-65299110D01*
X122566400Y-65323543D01*
X122586823Y-65349312D01*
X122585170Y-65357000D01*
X122584001Y-65370012D01*
X122596063Y-65387822D01*
X122611278Y-65423798D01*
X122607989Y-65440739D01*
X122608441Y-65460921D01*
X122616086Y-65462833D01*
X122628142Y-65478547D01*
X122624321Y-65498055D01*
X122620728Y-65521807D01*
X122639166Y-65515750D01*
X122658147Y-65510639D01*
X122652836Y-65536505D01*
X122654846Y-65584990D01*
X122672479Y-65612727D01*
X122693845Y-65650075D01*
X122692907Y-65673166D01*
X122694036Y-65693582D01*
X122702666Y-65695666D01*
X122717012Y-65708090D01*
X122714241Y-65715228D01*
X122716624Y-65743447D01*
X122735763Y-65794790D01*
X122755002Y-65834189D01*
X122782695Y-65893077D01*
X122796880Y-65937221D01*
X122796624Y-65951757D01*
X122800133Y-65979476D01*
X122823610Y-66023075D01*
X122827458Y-66028588D01*
X122861104Y-66092941D01*
X122879684Y-66157222D01*
X122897384Y-66223663D01*
X122923017Y-66277822D01*
X122942933Y-66327032D01*
X122942247Y-66364779D01*
X122938731Y-66389589D01*
X122952827Y-66385956D01*
X122968693Y-66385150D01*
X122964742Y-66403650D01*
X122965649Y-66431488D01*
X122976817Y-66436500D01*
X122991775Y-66449078D01*
X122988786Y-66457068D01*
X122989904Y-66487933D01*
X123008777Y-66527550D01*
X123028017Y-66568063D01*
X123027296Y-66591647D01*
X123029110Y-66604773D01*
X123037141Y-66605833D01*
X123052280Y-66621023D01*
X123049809Y-66635442D01*
X123052370Y-66669793D01*
X123061402Y-66679238D01*
X123075076Y-66704560D01*
X123072179Y-66713129D01*
X123073256Y-66731640D01*
X123079019Y-66732833D01*
X123101336Y-66750392D01*
X123123771Y-66790432D01*
X123137783Y-66833995D01*
X123136389Y-66860146D01*
X123139042Y-66888402D01*
X123159902Y-66935195D01*
X123166773Y-66947023D01*
X123191184Y-66995533D01*
X123198953Y-67029024D01*
X123197737Y-67032962D01*
X123203157Y-67049038D01*
X123211682Y-67050333D01*
X123226900Y-67065679D01*
X123224178Y-67082083D01*
X123225387Y-67109252D01*
X123236025Y-67113833D01*
X123249440Y-67122652D01*
X123245870Y-67128018D01*
X123245626Y-67153909D01*
X123263270Y-67190409D01*
X123283074Y-67236436D01*
X123283547Y-67268083D01*
X123288440Y-67304240D01*
X123304720Y-67324507D01*
X123326334Y-67354537D01*
X123325601Y-67370231D01*
X123329889Y-67387719D01*
X123337666Y-67389000D01*
X123351958Y-67401503D01*
X123349153Y-67408704D01*
X123351995Y-67435782D01*
X123359349Y-67442235D01*
X123371746Y-67470794D01*
X123368010Y-67499265D01*
X123363499Y-67529042D01*
X123381002Y-67525963D01*
X123397730Y-67521248D01*
X123392031Y-67534823D01*
X123390610Y-67570288D01*
X123401936Y-67591010D01*
X123414986Y-67616159D01*
X123409050Y-67622157D01*
X123405984Y-67630798D01*
X123415749Y-67638483D01*
X123437565Y-67669476D01*
X123452038Y-67715819D01*
X123465958Y-67763978D01*
X123482082Y-67789452D01*
X123495546Y-67818207D01*
X123495291Y-67838791D01*
X123499930Y-67869915D01*
X123510122Y-67875833D01*
X123521014Y-67888911D01*
X123517583Y-67897000D01*
X123519963Y-67916473D01*
X123528166Y-67918166D01*
X123541969Y-67931060D01*
X123538750Y-67939333D01*
X123541130Y-67958806D01*
X123549333Y-67960500D01*
X123563466Y-67973237D01*
X123560563Y-67980619D01*
X123561997Y-68010191D01*
X123580563Y-68060008D01*
X123590215Y-68079264D01*
X123613929Y-68131806D01*
X123622721Y-68168996D01*
X123621318Y-68175561D01*
X123626759Y-68191817D01*
X123636278Y-68193333D01*
X123651716Y-68201510D01*
X123648294Y-68207260D01*
X123647134Y-68232961D01*
X123655326Y-68246442D01*
X123673045Y-68285907D01*
X123680926Y-68327765D01*
X123690886Y-68369081D01*
X123705644Y-68383833D01*
X123714772Y-68393925D01*
X123711536Y-68398018D01*
X123711453Y-68423809D01*
X123730055Y-68462116D01*
X123749872Y-68505062D01*
X123750047Y-68532597D01*
X123751917Y-68551685D01*
X123759086Y-68553166D01*
X123771803Y-68568631D01*
X123768654Y-68584916D01*
X123769585Y-68612100D01*
X123779902Y-68616666D01*
X123800449Y-68627636D01*
X123800826Y-68632541D01*
X123799908Y-68683822D01*
X123813585Y-68710786D01*
X123829791Y-68709772D01*
X123844836Y-68705205D01*
X123840558Y-68711867D01*
X123838068Y-68740564D01*
X123846592Y-68755366D01*
X123863634Y-68788559D01*
X123864103Y-68799646D01*
X123865953Y-68837255D01*
X123879585Y-68884258D01*
X123898391Y-68922369D01*
X123912710Y-68934166D01*
X123923615Y-68947066D01*
X123920653Y-68953870D01*
X123922324Y-68980918D01*
X123927342Y-68985234D01*
X123941677Y-69013086D01*
X123946208Y-69050898D01*
X123960376Y-69108628D01*
X123984002Y-69146664D01*
X124007259Y-69181949D01*
X124007768Y-69202453D01*
X124009368Y-69226528D01*
X124028935Y-69255370D01*
X124050991Y-69289282D01*
X124051054Y-69307333D01*
X124051411Y-69332576D01*
X124068213Y-69379710D01*
X124076468Y-69397162D01*
X124098600Y-69452875D01*
X124105852Y-69496113D01*
X124104565Y-69503321D01*
X124105461Y-69521997D01*
X124121357Y-69515925D01*
X124138584Y-69510811D01*
X124133199Y-69523948D01*
X124133817Y-69555970D01*
X124153972Y-69605900D01*
X124164093Y-69623582D01*
X124189976Y-69672661D01*
X124199311Y-69705807D01*
X124197611Y-69711110D01*
X124199723Y-69735171D01*
X124220304Y-69780147D01*
X124230989Y-69798411D01*
X124253119Y-69839728D01*
X124255651Y-69857747D01*
X124249680Y-69856058D01*
X124238129Y-69856301D01*
X124253649Y-69886956D01*
X124256295Y-69891041D01*
X124276275Y-69932283D01*
X124276129Y-69957147D01*
X124278963Y-69969795D01*
X124290166Y-69971333D01*
X124307548Y-69979114D01*
X124304203Y-69985518D01*
X124304233Y-70011239D01*
X124323533Y-70050855D01*
X124344323Y-70090666D01*
X124346502Y-70112552D01*
X124344823Y-70139486D01*
X124358079Y-70187887D01*
X124380654Y-70242213D01*
X124406928Y-70286921D01*
X124411654Y-70292791D01*
X124431045Y-70329232D01*
X124429628Y-70349293D01*
X124431368Y-70379838D01*
X124443934Y-70398251D01*
X124466552Y-70438657D01*
X124469245Y-70458166D01*
X124480490Y-70499395D01*
X124497273Y-70525624D01*
X124514756Y-70564412D01*
X124511219Y-70587103D01*
X124507205Y-70602758D01*
X124523326Y-70595548D01*
X124542011Y-70590757D01*
X124536670Y-70616505D01*
X124538679Y-70664990D01*
X124556313Y-70692727D01*
X124578075Y-70729390D01*
X124577858Y-70751358D01*
X124580996Y-70775618D01*
X124588786Y-70779956D01*
X124608262Y-70804602D01*
X124618915Y-70846275D01*
X124632448Y-70901038D01*
X124650069Y-70934500D01*
X124663656Y-70971831D01*
X124659135Y-70989676D01*
X124655594Y-71004985D01*
X124670163Y-70998536D01*
X124687356Y-70995591D01*
X124683170Y-71025087D01*
X124681750Y-71029666D01*
X124676602Y-71062633D01*
X124687675Y-71064295D01*
X124706206Y-71067695D01*
X124707775Y-71077519D01*
X124710031Y-71138846D01*
X124721031Y-71169056D01*
X124731138Y-71169430D01*
X124748476Y-71174942D01*
X124750605Y-71184056D01*
X124773529Y-71288139D01*
X124809650Y-71362094D01*
X124830650Y-71409700D01*
X124831767Y-71445226D01*
X124831240Y-71465628D01*
X124842158Y-71462558D01*
X124859768Y-71465500D01*
X124860574Y-71477334D01*
X124858256Y-71536480D01*
X124869343Y-71567510D01*
X124886167Y-71567355D01*
X124902177Y-71568049D01*
X124898724Y-71597886D01*
X124896435Y-71628525D01*
X124905973Y-71631696D01*
X124923024Y-71631830D01*
X124920064Y-71656477D01*
X124908967Y-71676581D01*
X124885841Y-71680431D01*
X124825119Y-71684013D01*
X124731537Y-71687305D01*
X124609831Y-71690284D01*
X124464738Y-71692929D01*
X124300994Y-71695217D01*
X124123335Y-71697125D01*
X123936498Y-71698633D01*
X123745220Y-71699717D01*
X123554235Y-71700355D01*
X123368281Y-71700526D01*
X123192095Y-71700207D01*
X123030411Y-71699375D01*
X122887967Y-71698009D01*
X122769500Y-71696087D01*
X122679745Y-71693586D01*
X122623438Y-71690484D01*
X122605424Y-71687369D01*
X122583302Y-71686028D01*
X122521061Y-71684665D01*
X122420917Y-71683290D01*
X122285085Y-71681914D01*
X122115779Y-71680549D01*
X121915216Y-71679204D01*
X121685610Y-71677892D01*
X121429177Y-71676623D01*
X121148130Y-71675408D01*
X120844686Y-71674258D01*
X120521060Y-71673185D01*
X120179465Y-71672199D01*
X119822119Y-71671311D01*
X119451235Y-71670533D01*
X119097343Y-71669919D01*
X118669363Y-71669216D01*
X118236706Y-71668438D01*
X117801439Y-71667593D01*
X117365629Y-71666688D01*
X116931344Y-71665728D01*
X116500650Y-71664720D01*
X116075615Y-71663671D01*
X115658307Y-71662589D01*
X115250791Y-71661478D01*
X114855137Y-71660346D01*
X114473410Y-71659201D01*
X114107678Y-71658047D01*
X113760009Y-71656892D01*
X113432470Y-71655743D01*
X113127127Y-71654606D01*
X112846049Y-71653488D01*
X112591302Y-71652395D01*
X112364954Y-71651335D01*
X112169072Y-71650313D01*
X112005723Y-71649337D01*
X111876975Y-71648413D01*
X111784894Y-71647547D01*
X111731549Y-71646747D01*
X111718224Y-71646201D01*
X111721923Y-71631900D01*
X111732445Y-71619754D01*
X111746748Y-71581427D01*
X111743665Y-71563365D01*
X111741496Y-71541761D01*
X111759500Y-71548250D01*
X111779052Y-71553276D01*
X111775405Y-71533319D01*
X111777408Y-71494888D01*
X111798535Y-71442750D01*
X111803448Y-71434266D01*
X111829228Y-71386679D01*
X111840696Y-71355027D01*
X111840638Y-71352127D01*
X111846133Y-71323746D01*
X111863968Y-71276153D01*
X111865309Y-71273083D01*
X111883474Y-71220061D01*
X111888345Y-71180565D01*
X111888268Y-71180087D01*
X111898145Y-71144037D01*
X111907158Y-71135814D01*
X111926035Y-71106269D01*
X111939442Y-71054570D01*
X111939997Y-71050474D01*
X111953628Y-70997104D01*
X111974529Y-70963748D01*
X111975922Y-70962779D01*
X111991067Y-70947807D01*
X111986498Y-70945324D01*
X111983724Y-70929004D01*
X111998795Y-70889596D01*
X112001528Y-70884183D01*
X112019487Y-70838748D01*
X112020417Y-70810955D01*
X112019711Y-70810100D01*
X112022924Y-70798006D01*
X112032388Y-70796833D01*
X112048851Y-70785187D01*
X112046153Y-70777129D01*
X112048373Y-70749751D01*
X112053646Y-70745268D01*
X112069353Y-70718317D01*
X112084247Y-70666170D01*
X112087617Y-70648465D01*
X112100580Y-70598790D01*
X112115988Y-70575432D01*
X112121209Y-70575742D01*
X112139097Y-70569786D01*
X112143145Y-70554665D01*
X112148597Y-70504249D01*
X112156888Y-70479029D01*
X112165499Y-70468444D01*
X112172017Y-70438540D01*
X112168526Y-70424347D01*
X112171214Y-70398481D01*
X112181817Y-70394666D01*
X112197720Y-70383477D01*
X112195343Y-70376618D01*
X112197566Y-70347435D01*
X112212906Y-70319296D01*
X112231585Y-70277291D01*
X112231130Y-70252678D01*
X112235272Y-70228327D01*
X112245317Y-70225333D01*
X112260062Y-70212499D01*
X112256916Y-70204166D01*
X112258594Y-70184661D01*
X112266250Y-70183000D01*
X112284657Y-70165346D01*
X112288666Y-70142044D01*
X112296619Y-70092460D01*
X112313085Y-70041502D01*
X112332280Y-69992077D01*
X112342733Y-69960750D01*
X112354073Y-69927642D01*
X112374152Y-69877212D01*
X112374626Y-69876083D01*
X112392073Y-69823920D01*
X112397029Y-69786537D01*
X112396966Y-69786125D01*
X112406442Y-69761786D01*
X112414738Y-69759666D01*
X112430134Y-69741249D01*
X112436824Y-69696752D01*
X112436833Y-69694917D01*
X112442667Y-69650246D01*
X112460646Y-69644908D01*
X112461597Y-69645473D01*
X112477492Y-69646498D01*
X112472844Y-69625555D01*
X112469776Y-69596184D01*
X112477566Y-69590333D01*
X112499962Y-69573458D01*
X112508409Y-69557483D01*
X112510229Y-69535545D01*
X112494799Y-69540380D01*
X112480738Y-69544852D01*
X112496110Y-69522147D01*
X112520716Y-69475697D01*
X112534406Y-69428783D01*
X112551177Y-69373632D01*
X112570378Y-69339030D01*
X112588914Y-69292910D01*
X112588932Y-69283416D01*
X124015000Y-69283416D01*
X124025583Y-69294000D01*
X124036166Y-69283416D01*
X124025583Y-69272833D01*
X124015000Y-69283416D01*
X112588932Y-69283416D01*
X112588959Y-69269581D01*
X112591852Y-69237309D01*
X112601438Y-69230500D01*
X112623141Y-69213366D01*
X112645263Y-69176234D01*
X112656736Y-69141600D01*
X112649202Y-69134819D01*
X112648903Y-69135000D01*
X112636696Y-69131781D01*
X112640423Y-69115182D01*
X112662361Y-69086467D01*
X112674195Y-69082333D01*
X112686681Y-69066954D01*
X112683703Y-69051950D01*
X112684544Y-69021543D01*
X112693175Y-69014524D01*
X112715036Y-68990058D01*
X112719039Y-68976115D01*
X112733473Y-68930736D01*
X112739122Y-68920201D01*
X112745357Y-68881218D01*
X112740221Y-68858521D01*
X112735651Y-68833258D01*
X112754333Y-68838916D01*
X112773763Y-68843953D01*
X112769771Y-68822769D01*
X112772729Y-68781924D01*
X112777683Y-68775416D01*
X123824500Y-68775416D01*
X123835083Y-68786000D01*
X123845666Y-68775416D01*
X123835083Y-68764833D01*
X123824500Y-68775416D01*
X112777683Y-68775416D01*
X112785156Y-68765602D01*
X112803357Y-68727737D01*
X112801730Y-68697245D01*
X112798728Y-68666311D01*
X112816980Y-68669057D01*
X112817245Y-68669219D01*
X112836320Y-68673005D01*
X112833924Y-68656654D01*
X112838196Y-68619370D01*
X112857636Y-68586569D01*
X112874801Y-68561610D01*
X112867432Y-68560140D01*
X112851115Y-68558281D01*
X112853963Y-68532267D01*
X112871508Y-68504267D01*
X112887336Y-68503960D01*
X112900707Y-68502120D01*
X112896178Y-68482555D01*
X112894101Y-68453238D01*
X112903164Y-68447333D01*
X112919989Y-68429654D01*
X112923666Y-68406249D01*
X112933553Y-68365614D01*
X112945178Y-68351869D01*
X112958421Y-68328123D01*
X112956101Y-68321441D01*
X112957899Y-68293144D01*
X112975762Y-68244885D01*
X112981527Y-68232945D01*
X113003938Y-68176140D01*
X113012062Y-68129609D01*
X113011606Y-68124541D01*
X113017475Y-68093484D01*
X113029418Y-68087500D01*
X113043297Y-68074611D01*
X113040083Y-68066333D01*
X113041384Y-68046811D01*
X113048753Y-68045166D01*
X113061906Y-68029878D01*
X113059142Y-68015557D01*
X113061704Y-67981206D01*
X113070735Y-67971761D01*
X113084409Y-67946439D01*
X113081512Y-67937870D01*
X113085199Y-67919536D01*
X113093000Y-67918166D01*
X113107424Y-67905857D01*
X113104700Y-67898807D01*
X113106777Y-67875447D01*
X113112125Y-67872349D01*
X113128270Y-67848622D01*
X113141505Y-67800408D01*
X113142335Y-67795349D01*
X113155881Y-67739284D01*
X113173601Y-67700720D01*
X113174100Y-67700099D01*
X113191658Y-67663461D01*
X113207716Y-67606188D01*
X113209843Y-67595560D01*
X113224937Y-67545205D01*
X113243283Y-67528785D01*
X113247084Y-67530240D01*
X113260547Y-67528502D01*
X113256011Y-67508888D01*
X113254477Y-67479602D01*
X113264246Y-67473666D01*
X113274545Y-67463083D01*
X123337666Y-67463083D01*
X123348250Y-67473666D01*
X123358833Y-67463083D01*
X123348250Y-67452500D01*
X123337666Y-67463083D01*
X113274545Y-67463083D01*
X113276701Y-67460868D01*
X113273820Y-67453962D01*
X113276785Y-67426958D01*
X113284597Y-67420071D01*
X113298833Y-67390966D01*
X113296190Y-67376275D01*
X113298604Y-67350439D01*
X113308858Y-67346666D01*
X113322429Y-67337990D01*
X113318961Y-67332739D01*
X113318192Y-67307207D01*
X113327769Y-67291416D01*
X113347179Y-67250441D01*
X113351564Y-67230250D01*
X123253000Y-67230250D01*
X123263583Y-67240833D01*
X123274166Y-67230250D01*
X123263583Y-67219666D01*
X123253000Y-67230250D01*
X113351564Y-67230250D01*
X113356917Y-67205608D01*
X113369230Y-67160202D01*
X113386915Y-67139333D01*
X113406836Y-67114416D01*
X113410500Y-67092280D01*
X113418407Y-67044175D01*
X113434919Y-66993502D01*
X113454113Y-66944077D01*
X113464567Y-66912750D01*
X113475906Y-66879642D01*
X113495985Y-66829212D01*
X113496459Y-66828083D01*
X113513906Y-66775920D01*
X113518863Y-66738537D01*
X113518799Y-66738125D01*
X113528276Y-66713786D01*
X113536572Y-66711666D01*
X113554698Y-66694003D01*
X113558666Y-66670582D01*
X113569086Y-66629584D01*
X113581276Y-66615524D01*
X113595203Y-66586610D01*
X113592523Y-66571942D01*
X113592869Y-66546005D01*
X113601000Y-66542333D01*
X113612479Y-66526962D01*
X113609476Y-66512724D01*
X113611089Y-66489416D01*
X113622166Y-66489416D01*
X113632750Y-66500000D01*
X113643333Y-66489416D01*
X113632750Y-66478833D01*
X113622166Y-66489416D01*
X113611089Y-66489416D01*
X113611846Y-66478491D01*
X113620723Y-66469141D01*
X113639981Y-66438335D01*
X113643333Y-66415596D01*
X113657543Y-66366664D01*
X113670976Y-66348053D01*
X113695995Y-66315301D01*
X113713302Y-66280727D01*
X113717787Y-66257367D01*
X113706833Y-66256583D01*
X113695442Y-66254381D01*
X113701620Y-66229276D01*
X113720234Y-66194100D01*
X113743907Y-66163895D01*
X113763280Y-66126932D01*
X113762225Y-66107235D01*
X113765323Y-66087250D01*
X113770333Y-66087250D01*
X113780916Y-66097833D01*
X113791500Y-66087250D01*
X113780916Y-66076666D01*
X113770333Y-66087250D01*
X113765323Y-66087250D01*
X113767604Y-66072543D01*
X113783138Y-66053656D01*
X113804486Y-66019074D01*
X113803710Y-65999192D01*
X113805724Y-65974104D01*
X113814580Y-65970833D01*
X113826602Y-65957826D01*
X113823250Y-65949666D01*
X113825630Y-65930193D01*
X113833833Y-65928500D01*
X113845930Y-65917916D01*
X122766166Y-65917916D01*
X122776750Y-65928500D01*
X122787333Y-65917916D01*
X122776750Y-65907333D01*
X122766166Y-65917916D01*
X113845930Y-65917916D01*
X113848125Y-65915996D01*
X113845320Y-65908795D01*
X113847440Y-65881477D01*
X113852667Y-65877024D01*
X113863462Y-65849625D01*
X113860261Y-65819335D01*
X113857009Y-65787883D01*
X113874788Y-65790070D01*
X113875578Y-65790553D01*
X113894941Y-65794196D01*
X113893086Y-65778176D01*
X113897890Y-65739573D01*
X113909623Y-65722686D01*
X113925846Y-65682846D01*
X113923864Y-65650395D01*
X113920484Y-65618677D01*
X113938020Y-65620575D01*
X113939078Y-65621219D01*
X113958154Y-65625005D01*
X113955757Y-65608654D01*
X113960029Y-65571370D01*
X113979470Y-65538569D01*
X114000073Y-65511425D01*
X113991903Y-65510500D01*
X113982000Y-65515750D01*
X113967920Y-65518562D01*
X113985461Y-65493479D01*
X113989365Y-65488972D01*
X114013445Y-65449357D01*
X114014574Y-65421833D01*
X114014837Y-65409916D01*
X122575666Y-65409916D01*
X122586250Y-65420500D01*
X122596833Y-65409916D01*
X122586250Y-65399333D01*
X122575666Y-65409916D01*
X114014837Y-65409916D01*
X114015027Y-65401384D01*
X114023084Y-65399333D01*
X114041472Y-65381673D01*
X114045500Y-65358249D01*
X114055386Y-65317614D01*
X114067011Y-65303869D01*
X114078852Y-65277924D01*
X114075773Y-65269943D01*
X114076769Y-65238557D01*
X114088602Y-65218489D01*
X114102497Y-65193424D01*
X114097727Y-65187666D01*
X114097858Y-65174340D01*
X114121121Y-65142235D01*
X114121594Y-65141694D01*
X114142464Y-65113654D01*
X114133336Y-65112265D01*
X114130166Y-65114008D01*
X114109696Y-65123102D01*
X114119839Y-65105895D01*
X114124691Y-65099823D01*
X114140252Y-65067254D01*
X114137038Y-65053427D01*
X114139593Y-65040750D01*
X114149054Y-65039500D01*
X114164989Y-65027083D01*
X114161916Y-65018333D01*
X114164861Y-64998885D01*
X114173515Y-64997166D01*
X114188884Y-64981877D01*
X114186272Y-64966094D01*
X114186681Y-64931920D01*
X114194936Y-64922298D01*
X114206868Y-64897985D01*
X114204400Y-64891577D01*
X114208147Y-64864023D01*
X114223430Y-64843426D01*
X114248117Y-64801586D01*
X114264286Y-64745361D01*
X114279540Y-64687788D01*
X114300419Y-64646808D01*
X114314702Y-64621808D01*
X114310584Y-64616166D01*
X114310643Y-64600233D01*
X114328877Y-64560184D01*
X114339987Y-64540458D01*
X114360260Y-64499750D01*
X122237000Y-64499750D01*
X122247583Y-64510333D01*
X122258166Y-64499750D01*
X122247583Y-64489166D01*
X122237000Y-64499750D01*
X114360260Y-64499750D01*
X114365415Y-64489400D01*
X114375017Y-64453211D01*
X114373696Y-64447016D01*
X114378207Y-64425187D01*
X114384385Y-64422065D01*
X114401541Y-64398201D01*
X114414212Y-64349801D01*
X114414914Y-64344681D01*
X114428167Y-64286980D01*
X114447736Y-64245671D01*
X114448067Y-64245267D01*
X114468984Y-64202322D01*
X114478523Y-64159687D01*
X114493067Y-64111030D01*
X114513198Y-64085744D01*
X114530675Y-64063276D01*
X114527335Y-64053780D01*
X114527168Y-64027886D01*
X114543917Y-63980109D01*
X114553500Y-63960000D01*
X114575662Y-63908183D01*
X114582821Y-63873142D01*
X114580815Y-63867370D01*
X114583792Y-63855198D01*
X114592305Y-63854166D01*
X114611020Y-63836116D01*
X114617000Y-63802499D01*
X114624937Y-63757587D01*
X114638511Y-63737536D01*
X114649852Y-63711054D01*
X114646383Y-63702170D01*
X114646659Y-63695416D01*
X121940666Y-63695416D01*
X121951250Y-63706000D01*
X121961833Y-63695416D01*
X121951250Y-63684833D01*
X121940666Y-63695416D01*
X114646659Y-63695416D01*
X114647580Y-63672980D01*
X114654535Y-63666591D01*
X114672228Y-63638215D01*
X114686678Y-63586690D01*
X114687928Y-63579356D01*
X114701072Y-63528361D01*
X114718105Y-63499889D01*
X114720575Y-63498613D01*
X114733393Y-63476532D01*
X114730784Y-63463356D01*
X114732902Y-63441416D01*
X114744000Y-63441416D01*
X114754583Y-63452000D01*
X114765166Y-63441416D01*
X114754583Y-63430833D01*
X114744000Y-63441416D01*
X114732902Y-63441416D01*
X114734034Y-63429691D01*
X114742556Y-63421141D01*
X114761815Y-63390335D01*
X114765166Y-63367596D01*
X114779488Y-63320984D01*
X114798972Y-63294217D01*
X114821499Y-63256056D01*
X114821793Y-63231785D01*
X114823751Y-63208583D01*
X114828666Y-63208583D01*
X114839250Y-63219166D01*
X114849833Y-63208583D01*
X114839250Y-63198000D01*
X114828666Y-63208583D01*
X114823751Y-63208583D01*
X114825052Y-63193176D01*
X114834554Y-63179412D01*
X114846967Y-63159088D01*
X114841971Y-63155666D01*
X114841341Y-63143602D01*
X114858005Y-63123304D01*
X114879738Y-63085797D01*
X114879720Y-63063195D01*
X114883349Y-63039250D01*
X114892166Y-63039250D01*
X114902750Y-63049833D01*
X114913333Y-63039250D01*
X114902750Y-63028666D01*
X114892166Y-63039250D01*
X114883349Y-63039250D01*
X114885014Y-63028270D01*
X114900528Y-63009343D01*
X114921564Y-62973896D01*
X114920393Y-62953035D01*
X114922774Y-62926841D01*
X114933484Y-62922833D01*
X114948892Y-62910916D01*
X114946200Y-62903474D01*
X114950365Y-62880524D01*
X114958874Y-62875902D01*
X114975332Y-62851340D01*
X114981643Y-62802984D01*
X114981578Y-62799630D01*
X114985843Y-62753705D01*
X115001254Y-62744960D01*
X115002150Y-62745482D01*
X115016929Y-62743643D01*
X115014920Y-62730176D01*
X115019803Y-62691743D01*
X115032077Y-62674065D01*
X115050815Y-62632430D01*
X115050759Y-62604519D01*
X115052091Y-62575395D01*
X115064022Y-62575142D01*
X115080889Y-62571678D01*
X115081574Y-62559832D01*
X115079288Y-62504005D01*
X115088211Y-62470349D01*
X115102726Y-62467066D01*
X115115330Y-62460507D01*
X115114573Y-62436814D01*
X115120212Y-62388712D01*
X115134054Y-62366469D01*
X115161972Y-62325122D01*
X115184329Y-62271040D01*
X115193022Y-62225167D01*
X115191950Y-62216813D01*
X115199624Y-62186963D01*
X115211515Y-62169188D01*
X115221655Y-62150250D01*
X121369166Y-62150250D01*
X121379750Y-62160833D01*
X121390333Y-62150250D01*
X121379750Y-62139666D01*
X121369166Y-62150250D01*
X115221655Y-62150250D01*
X115224544Y-62144856D01*
X115219561Y-62139666D01*
X115219692Y-62126340D01*
X115242954Y-62094235D01*
X115243427Y-62093694D01*
X115264298Y-62065654D01*
X115255170Y-62064265D01*
X115252000Y-62066008D01*
X115231529Y-62075102D01*
X115241673Y-62057895D01*
X115246524Y-62051823D01*
X115262085Y-62019254D01*
X115258871Y-62005427D01*
X115261426Y-61992750D01*
X115270888Y-61991500D01*
X115287477Y-61980037D01*
X115284867Y-61972141D01*
X115286943Y-61948780D01*
X115292292Y-61945682D01*
X115308284Y-61921989D01*
X115321680Y-61873487D01*
X115322834Y-61866577D01*
X115336772Y-61813659D01*
X115355773Y-61781296D01*
X115357610Y-61779970D01*
X115377317Y-61754074D01*
X115377610Y-61746143D01*
X115378951Y-61711640D01*
X115379139Y-61711041D01*
X115387687Y-61679291D01*
X115399797Y-61649785D01*
X115414704Y-61621083D01*
X115435586Y-61578409D01*
X115442948Y-61557583D01*
X115454053Y-61523332D01*
X115469620Y-61483500D01*
X115484581Y-61437411D01*
X115487134Y-61411356D01*
X115497828Y-61384075D01*
X115505418Y-61378025D01*
X115523551Y-61348982D01*
X115536596Y-61297618D01*
X115537134Y-61293629D01*
X115549102Y-61239108D01*
X115565872Y-61203542D01*
X115566694Y-61202672D01*
X115578280Y-61167201D01*
X115574832Y-61149365D01*
X115572708Y-61127758D01*
X115590340Y-61134048D01*
X115608324Y-61139958D01*
X115602446Y-61125603D01*
X115602900Y-61091824D01*
X115622416Y-61060166D01*
X115645047Y-61022850D01*
X115645311Y-60999463D01*
X115647491Y-60971256D01*
X115655264Y-60964238D01*
X115669265Y-60935195D01*
X115666435Y-60919342D01*
X115666175Y-60899306D01*
X115675575Y-60901566D01*
X115690998Y-60893840D01*
X115696500Y-60860332D01*
X115699992Y-60837916D01*
X120882333Y-60837916D01*
X120892916Y-60848500D01*
X120903500Y-60837916D01*
X120892916Y-60827333D01*
X120882333Y-60837916D01*
X115699992Y-60837916D01*
X115702792Y-60819948D01*
X115715263Y-60806166D01*
X115729258Y-60787326D01*
X115743126Y-60739635D01*
X115748310Y-60710916D01*
X115760041Y-60654230D01*
X115773333Y-60620128D01*
X115778935Y-60615666D01*
X115795636Y-60598743D01*
X115797565Y-60589208D01*
X115815015Y-60504076D01*
X115838993Y-60464706D01*
X115853107Y-60426578D01*
X115849998Y-60408531D01*
X115848617Y-60386828D01*
X115859592Y-60389559D01*
X115877094Y-60380446D01*
X115892049Y-60336066D01*
X115893177Y-60329916D01*
X120691833Y-60329916D01*
X120702416Y-60340500D01*
X120713000Y-60329916D01*
X120702416Y-60319333D01*
X120691833Y-60329916D01*
X115893177Y-60329916D01*
X115895189Y-60318948D01*
X115908571Y-60266149D01*
X115925600Y-60236802D01*
X115930913Y-60234666D01*
X115946370Y-60217633D01*
X115946540Y-60195585D01*
X115951845Y-60161928D01*
X115961083Y-60171166D01*
X115971666Y-60160583D01*
X115961083Y-60150000D01*
X115952348Y-60158735D01*
X115953904Y-60148866D01*
X115971667Y-60117438D01*
X115992072Y-60090273D01*
X115984678Y-60089508D01*
X115971666Y-60096658D01*
X115953301Y-60104361D01*
X115963532Y-60087207D01*
X115974196Y-60074263D01*
X115996705Y-60032394D01*
X115997908Y-60004178D01*
X115999122Y-59985418D01*
X116011254Y-59989552D01*
X116030915Y-59985344D01*
X116039314Y-59947643D01*
X116036746Y-59901291D01*
X116047881Y-59876911D01*
X116056654Y-59874833D01*
X116070760Y-59862395D01*
X116068033Y-59855474D01*
X116071966Y-59832392D01*
X116079655Y-59828253D01*
X116096907Y-59803814D01*
X116105878Y-59755714D01*
X116105946Y-59754198D01*
X116113108Y-59712427D01*
X116126923Y-59699491D01*
X116128422Y-59700225D01*
X116138899Y-59695369D01*
X116134678Y-59677222D01*
X116133144Y-59647935D01*
X116142913Y-59642000D01*
X116154935Y-59628993D01*
X116151583Y-59620833D01*
X116151681Y-59601260D01*
X116158160Y-59599666D01*
X116174310Y-59582238D01*
X116176743Y-59562625D01*
X116181814Y-59507474D01*
X116196679Y-59457613D01*
X116216163Y-59426273D01*
X116231258Y-59423206D01*
X116243566Y-59419750D01*
X120353166Y-59419750D01*
X120363750Y-59430333D01*
X120374333Y-59419750D01*
X120363750Y-59409166D01*
X120353166Y-59419750D01*
X116243566Y-59419750D01*
X116244991Y-59419350D01*
X116241468Y-59390937D01*
X116242824Y-59342890D01*
X116256508Y-59317848D01*
X116285112Y-59276158D01*
X116311267Y-59207672D01*
X116337717Y-59105037D01*
X116340350Y-59093222D01*
X116355959Y-59049064D01*
X116370339Y-59029722D01*
X116375942Y-59017583D01*
X120205000Y-59017583D01*
X120215583Y-59028166D01*
X120226166Y-59017583D01*
X120215583Y-59007000D01*
X120205000Y-59017583D01*
X116375942Y-59017583D01*
X116383537Y-59001130D01*
X116383245Y-58980226D01*
X116392349Y-58935140D01*
X116408342Y-58912014D01*
X116433010Y-58869486D01*
X116447731Y-58813727D01*
X116460908Y-58762045D01*
X116480823Y-58731127D01*
X116481261Y-58730847D01*
X116495515Y-58703404D01*
X116491712Y-58691866D01*
X116491758Y-58670730D01*
X116500512Y-58668333D01*
X116518674Y-58652455D01*
X116518487Y-58641875D01*
X116523895Y-58604315D01*
X116539470Y-58567791D01*
X116554358Y-58532679D01*
X116551902Y-58520166D01*
X116550958Y-58507272D01*
X116561557Y-58491760D01*
X116576428Y-58462334D01*
X116574221Y-58452443D01*
X116578739Y-58432231D01*
X116594313Y-58415802D01*
X116615025Y-58380380D01*
X116613727Y-58359869D01*
X116616592Y-58333699D01*
X116627833Y-58329666D01*
X116643921Y-58314365D01*
X116641345Y-58297916D01*
X116641967Y-58270716D01*
X116651928Y-58266166D01*
X116666473Y-58251135D01*
X116664202Y-58238821D01*
X116667106Y-58201382D01*
X116681650Y-58173264D01*
X116698959Y-58128846D01*
X116696865Y-58101886D01*
X116694739Y-58079790D01*
X116710318Y-58084901D01*
X116730797Y-58086498D01*
X116731743Y-58072499D01*
X116737885Y-58018051D01*
X116767168Y-57943014D01*
X116778262Y-57921347D01*
X116788677Y-57879593D01*
X116784029Y-57859868D01*
X116782391Y-57846299D01*
X116793896Y-57851395D01*
X116812985Y-57847407D01*
X116818333Y-57812332D01*
X116826012Y-57771969D01*
X116841263Y-57758166D01*
X116856570Y-57743082D01*
X116854751Y-57731708D01*
X116856716Y-57694948D01*
X116873310Y-57649725D01*
X116889298Y-57606095D01*
X116888044Y-57580933D01*
X116891257Y-57568840D01*
X116900721Y-57567666D01*
X116917185Y-57556020D01*
X116914487Y-57547962D01*
X116917452Y-57520958D01*
X116925264Y-57514071D01*
X116939646Y-57484929D01*
X116937117Y-57470953D01*
X116938576Y-57437831D01*
X116946257Y-57429512D01*
X116963075Y-57400270D01*
X116966500Y-57374668D01*
X116974850Y-57346195D01*
X116987666Y-57345416D01*
X117003455Y-57338022D01*
X117008833Y-57305581D01*
X117016590Y-57260179D01*
X117030345Y-57239369D01*
X117042555Y-57214002D01*
X117039679Y-57206370D01*
X117043612Y-57188198D01*
X117052182Y-57186666D01*
X117067080Y-57171241D01*
X117063504Y-57151855D01*
X117066206Y-57112583D01*
X117072333Y-57112583D01*
X117082916Y-57123166D01*
X117093500Y-57112583D01*
X117082916Y-57102000D01*
X117072333Y-57112583D01*
X117066206Y-57112583D01*
X117066393Y-57109875D01*
X117087697Y-57074133D01*
X117106481Y-57048416D01*
X117099285Y-57046398D01*
X117099034Y-57046544D01*
X117081563Y-57048276D01*
X117085423Y-57029016D01*
X117105796Y-57000340D01*
X117116266Y-56996166D01*
X117125396Y-56980324D01*
X117120988Y-56960944D01*
X117118006Y-56937052D01*
X117132236Y-56941026D01*
X117154752Y-56939098D01*
X117159645Y-56923332D01*
X117178027Y-56832125D01*
X117180673Y-56800375D01*
X117194362Y-56785174D01*
X117200759Y-56784500D01*
X117213796Y-56768117D01*
X117210482Y-56743947D01*
X117210181Y-56731583D01*
X119358333Y-56731583D01*
X119368916Y-56742166D01*
X119379500Y-56731583D01*
X119368916Y-56721000D01*
X119358333Y-56731583D01*
X117210181Y-56731583D01*
X117209663Y-56710416D01*
X117220500Y-56710416D01*
X117231083Y-56721000D01*
X117241666Y-56710416D01*
X117231083Y-56699833D01*
X117220500Y-56710416D01*
X117209663Y-56710416D01*
X117209525Y-56704788D01*
X117219984Y-56689568D01*
X117233742Y-56665274D01*
X117231234Y-56657743D01*
X117235086Y-56630290D01*
X117251047Y-56608809D01*
X117270584Y-56578604D01*
X117268880Y-56564769D01*
X117272276Y-56552829D01*
X117281802Y-56551666D01*
X117301505Y-56534669D01*
X117303132Y-56514625D01*
X117304439Y-56465457D01*
X117316332Y-56416233D01*
X117333898Y-56381225D01*
X117351480Y-56374210D01*
X117365122Y-56368128D01*
X117365098Y-56345565D01*
X117372048Y-56295081D01*
X117385675Y-56270925D01*
X117410658Y-56222841D01*
X117419065Y-56188299D01*
X117428654Y-56138916D01*
X117432166Y-56138916D01*
X117442750Y-56149500D01*
X117453333Y-56138916D01*
X117442750Y-56128333D01*
X117432166Y-56138916D01*
X117428654Y-56138916D01*
X117429897Y-56132518D01*
X117452643Y-56066426D01*
X117480342Y-56001333D01*
X117499833Y-55946247D01*
X117507592Y-55909049D01*
X117522957Y-55867737D01*
X117536305Y-55854213D01*
X117557385Y-55823110D01*
X117567203Y-55783707D01*
X117579661Y-55736750D01*
X117580333Y-55736750D01*
X117590916Y-55747333D01*
X117601500Y-55736750D01*
X117590916Y-55726166D01*
X117580333Y-55736750D01*
X117579661Y-55736750D01*
X117581798Y-55728698D01*
X117599691Y-55696596D01*
X117615711Y-55660289D01*
X117612656Y-55642427D01*
X117614158Y-55622294D01*
X117622666Y-55620333D01*
X117636740Y-55607563D01*
X117633782Y-55600027D01*
X117632315Y-55566697D01*
X117641571Y-55541819D01*
X117661828Y-55497482D01*
X117679170Y-55449675D01*
X117686519Y-55419250D01*
X118871500Y-55419250D01*
X118882083Y-55429833D01*
X118892666Y-55419250D01*
X118882083Y-55408666D01*
X118871500Y-55419250D01*
X117686519Y-55419250D01*
X117687074Y-55416954D01*
X117686777Y-55413202D01*
X117697897Y-55395521D01*
X117716261Y-55375548D01*
X117736972Y-55336652D01*
X117735919Y-55312804D01*
X117738240Y-55286052D01*
X117749666Y-55281666D01*
X117766357Y-55266590D01*
X117764168Y-55252495D01*
X117767249Y-55213384D01*
X117776720Y-55199579D01*
X117784853Y-55186416D01*
X118786833Y-55186416D01*
X118797416Y-55197000D01*
X118808000Y-55186416D01*
X118797416Y-55175833D01*
X118786833Y-55186416D01*
X117784853Y-55186416D01*
X117789284Y-55179245D01*
X117784449Y-55175833D01*
X117782799Y-55161416D01*
X117799786Y-55131070D01*
X117819263Y-55085128D01*
X117818556Y-55053514D01*
X117817054Y-55031678D01*
X117828860Y-55034867D01*
X117847386Y-55026329D01*
X117863021Y-54980378D01*
X117866049Y-54964367D01*
X117879270Y-54908247D01*
X117894614Y-54872562D01*
X117898750Y-54868349D01*
X117908081Y-54841966D01*
X117903895Y-54822433D01*
X117901281Y-54799100D01*
X117915402Y-54803193D01*
X117935648Y-54800727D01*
X117940166Y-54776165D01*
X117950292Y-54734660D01*
X117962776Y-54719858D01*
X117977263Y-54690813D01*
X117975013Y-54678854D01*
X117976837Y-54642208D01*
X117982887Y-54633370D01*
X117999804Y-54600326D01*
X118011914Y-54554873D01*
X118028107Y-54500173D01*
X118046753Y-54465842D01*
X118061165Y-54431069D01*
X118058060Y-54416223D01*
X118060158Y-54388191D01*
X118066821Y-54382296D01*
X118084714Y-54352330D01*
X118088333Y-54326668D01*
X118095702Y-54297480D01*
X118106854Y-54295781D01*
X118120684Y-54287025D01*
X118125375Y-54255831D01*
X118139568Y-54200426D01*
X118160489Y-54169320D01*
X118184943Y-54120105D01*
X118182034Y-54091452D01*
X118178002Y-54061856D01*
X118193621Y-54064246D01*
X118212557Y-54063413D01*
X118213691Y-54040438D01*
X118214666Y-53991617D01*
X118225764Y-53941791D01*
X118242365Y-53905329D01*
X118259850Y-53896600D01*
X118259924Y-53896645D01*
X118275441Y-53889175D01*
X118278511Y-53874083D01*
X118300000Y-53874083D01*
X118310583Y-53884666D01*
X118321166Y-53874083D01*
X118310583Y-53863500D01*
X118300000Y-53874083D01*
X118278511Y-53874083D01*
X118282921Y-53852408D01*
X118281033Y-53810583D01*
X118289379Y-53808373D01*
X118310376Y-53830639D01*
G36*
X111886500Y-71209583D02*
X111875916Y-71220166D01*
X111865333Y-71209583D01*
X111875916Y-71199000D01*
X111886500Y-71209583D01*
X111886500Y-71209583D01*
G37*
X111886500Y-71209583D02*
X111875916Y-71220166D01*
X111865333Y-71209583D01*
X111875916Y-71199000D01*
X111886500Y-71209583D01*
G36*
X124565333Y-70659250D02*
X124554750Y-70669833D01*
X124544166Y-70659250D01*
X124554750Y-70648666D01*
X124565333Y-70659250D01*
X124565333Y-70659250D01*
G37*
X124565333Y-70659250D02*
X124554750Y-70669833D01*
X124544166Y-70659250D01*
X124554750Y-70648666D01*
X124565333Y-70659250D01*
G36*
X112585000Y-69304583D02*
X112574416Y-69315166D01*
X112563833Y-69304583D01*
X112574416Y-69294000D01*
X112585000Y-69304583D01*
X112585000Y-69304583D01*
G37*
X112585000Y-69304583D02*
X112574416Y-69315166D01*
X112563833Y-69304583D01*
X112574416Y-69294000D01*
X112585000Y-69304583D01*
G36*
X123993833Y-69114083D02*
X123983250Y-69124666D01*
X123972666Y-69114083D01*
X123983250Y-69103500D01*
X123993833Y-69114083D01*
X123993833Y-69114083D01*
G37*
X123993833Y-69114083D02*
X123983250Y-69124666D01*
X123972666Y-69114083D01*
X123983250Y-69103500D01*
X123993833Y-69114083D01*
G36*
X113008333Y-68161583D02*
X112997750Y-68172166D01*
X112987166Y-68161583D01*
X112997750Y-68151000D01*
X113008333Y-68161583D01*
X113008333Y-68161583D01*
G37*
X113008333Y-68161583D02*
X112997750Y-68172166D01*
X112987166Y-68161583D01*
X112997750Y-68151000D01*
X113008333Y-68161583D01*
G36*
X123316500Y-67293750D02*
X123305916Y-67304333D01*
X123295333Y-67293750D01*
X123305916Y-67283166D01*
X123316500Y-67293750D01*
X123316500Y-67293750D01*
G37*
X123316500Y-67293750D02*
X123305916Y-67304333D01*
X123295333Y-67293750D01*
X123305916Y-67283166D01*
X123316500Y-67293750D01*
G36*
X123168333Y-66891583D02*
X123157750Y-66902166D01*
X123147166Y-66891583D01*
X123157750Y-66881000D01*
X123168333Y-66891583D01*
X123168333Y-66891583D01*
G37*
X123168333Y-66891583D02*
X123157750Y-66902166D01*
X123147166Y-66891583D01*
X123157750Y-66881000D01*
X123168333Y-66891583D01*
G36*
X113579833Y-66595250D02*
X113569250Y-66605833D01*
X113558666Y-66595250D01*
X113569250Y-66584666D01*
X113579833Y-66595250D01*
X113579833Y-66595250D01*
G37*
X113579833Y-66595250D02*
X113569250Y-66605833D01*
X113558666Y-66595250D01*
X113569250Y-66584666D01*
X113579833Y-66595250D01*
G36*
X122829666Y-65981416D02*
X122819083Y-65992000D01*
X122808500Y-65981416D01*
X122819083Y-65970833D01*
X122829666Y-65981416D01*
X122829666Y-65981416D01*
G37*
X122829666Y-65981416D02*
X122819083Y-65992000D01*
X122808500Y-65981416D01*
X122819083Y-65970833D01*
X122829666Y-65981416D01*
G36*
X122745000Y-65748583D02*
X122734416Y-65759166D01*
X122723833Y-65748583D01*
X122734416Y-65738000D01*
X122745000Y-65748583D01*
X122745000Y-65748583D01*
G37*
X122745000Y-65748583D02*
X122734416Y-65759166D01*
X122723833Y-65748583D01*
X122734416Y-65738000D01*
X122745000Y-65748583D01*
G36*
X122681500Y-65579250D02*
X122670916Y-65589833D01*
X122660333Y-65579250D01*
X122670916Y-65568666D01*
X122681500Y-65579250D01*
X122681500Y-65579250D01*
G37*
X122681500Y-65579250D02*
X122670916Y-65589833D01*
X122660333Y-65579250D01*
X122670916Y-65568666D01*
X122681500Y-65579250D01*
G36*
X114003166Y-65452250D02*
X113992583Y-65462833D01*
X113982000Y-65452250D01*
X113992583Y-65441666D01*
X114003166Y-65452250D01*
X114003166Y-65452250D01*
G37*
X114003166Y-65452250D02*
X113992583Y-65462833D01*
X113982000Y-65452250D01*
X113992583Y-65441666D01*
X114003166Y-65452250D01*
G36*
X122258166Y-64436250D02*
X122247583Y-64446833D01*
X122237000Y-64436250D01*
X122247583Y-64425666D01*
X122258166Y-64436250D01*
X122258166Y-64436250D01*
G37*
X122258166Y-64436250D02*
X122247583Y-64446833D01*
X122237000Y-64436250D01*
X122247583Y-64425666D01*
X122258166Y-64436250D01*
G36*
X122110000Y-64034083D02*
X122099416Y-64044666D01*
X122088833Y-64034083D01*
X122099416Y-64023500D01*
X122110000Y-64034083D01*
X122110000Y-64034083D01*
G37*
X122110000Y-64034083D02*
X122099416Y-64044666D01*
X122088833Y-64034083D01*
X122099416Y-64023500D01*
X122110000Y-64034083D01*
G36*
X121432666Y-62213750D02*
X121422083Y-62224333D01*
X121411500Y-62213750D01*
X121422083Y-62203166D01*
X121432666Y-62213750D01*
X121432666Y-62213750D01*
G37*
X121432666Y-62213750D02*
X121422083Y-62224333D01*
X121411500Y-62213750D01*
X121422083Y-62203166D01*
X121432666Y-62213750D01*
G36*
X121284500Y-61811583D02*
X121273916Y-61822166D01*
X121263333Y-61811583D01*
X121273916Y-61801000D01*
X121284500Y-61811583D01*
X121284500Y-61811583D01*
G37*
X121284500Y-61811583D02*
X121273916Y-61822166D01*
X121263333Y-61811583D01*
X121273916Y-61801000D01*
X121284500Y-61811583D01*
G36*
X120945833Y-60901416D02*
X120935250Y-60912000D01*
X120924666Y-60901416D01*
X120935250Y-60890833D01*
X120945833Y-60901416D01*
X120945833Y-60901416D01*
G37*
X120945833Y-60901416D02*
X120935250Y-60912000D01*
X120924666Y-60901416D01*
X120935250Y-60890833D01*
X120945833Y-60901416D01*
G36*
X120861166Y-60668583D02*
X120850583Y-60679166D01*
X120840000Y-60668583D01*
X120850583Y-60658000D01*
X120861166Y-60668583D01*
X120861166Y-60668583D01*
G37*
X120861166Y-60668583D02*
X120850583Y-60679166D01*
X120840000Y-60668583D01*
X120850583Y-60658000D01*
X120861166Y-60668583D01*
G36*
X120374333Y-59356250D02*
X120363750Y-59366833D01*
X120353166Y-59356250D01*
X120363750Y-59345666D01*
X120374333Y-59356250D01*
X120374333Y-59356250D01*
G37*
X120374333Y-59356250D02*
X120363750Y-59366833D01*
X120353166Y-59356250D01*
X120363750Y-59345666D01*
X120374333Y-59356250D01*
G36*
X119548833Y-57133750D02*
X119538250Y-57144333D01*
X119527666Y-57133750D01*
X119538250Y-57123166D01*
X119548833Y-57133750D01*
X119548833Y-57133750D01*
G37*
X119548833Y-57133750D02*
X119538250Y-57144333D01*
X119527666Y-57133750D01*
X119538250Y-57123166D01*
X119548833Y-57133750D01*
G36*
X117961333Y-54699583D02*
X117950750Y-54710166D01*
X117940166Y-54699583D01*
X117950750Y-54689000D01*
X117961333Y-54699583D01*
X117961333Y-54699583D01*
G37*
X117961333Y-54699583D02*
X117950750Y-54710166D01*
X117940166Y-54699583D01*
X117950750Y-54689000D01*
X117961333Y-54699583D01*
G04 #@! TO.C,BT1*
D10*
X113868669Y-87954766D02*
X113724334Y-87911834D01*
X113658013Y-87923528D01*
X113564380Y-87974229D01*
X113482440Y-88091251D01*
X113466821Y-88196578D01*
X113478515Y-88262899D01*
X113529217Y-88356532D01*
X113841275Y-88575038D01*
X114414851Y-87755886D01*
X114141800Y-87564693D01*
X114036473Y-87549074D01*
X113970152Y-87560768D01*
X113876519Y-87611470D01*
X113821892Y-87689484D01*
X113806273Y-87794812D01*
X113817967Y-87861132D01*
X113868669Y-87954766D01*
X114141719Y-88145958D01*
X113712721Y-87264249D02*
X113244634Y-86936491D01*
X112905101Y-87919522D02*
X113478677Y-87100370D01*
X111968927Y-87264006D02*
X112437014Y-87591764D01*
X112202971Y-87427885D02*
X112776547Y-86608733D01*
X112772622Y-86780381D01*
X112796010Y-86913022D01*
X112846711Y-87006655D01*
G04 #@! TD*
%LPC*%
D11*
G04 #@! TO.C,G\002A\002A\002A*
G36*
X111807266Y-71520024D02*
X111813039Y-71520300D01*
X111919495Y-71527083D01*
X109914546Y-77707750D01*
X109753602Y-78204080D01*
X109596153Y-78690001D01*
X109442694Y-79163971D01*
X109293721Y-79624447D01*
X109149729Y-80069888D01*
X109011214Y-80498750D01*
X108878673Y-80909493D01*
X108752599Y-81300572D01*
X108633490Y-81670446D01*
X108521840Y-82017573D01*
X108418145Y-82340411D01*
X108322902Y-82637416D01*
X108236604Y-82907048D01*
X108159749Y-83147762D01*
X108092831Y-83358018D01*
X108036347Y-83536273D01*
X107990792Y-83680984D01*
X107956661Y-83790610D01*
X107934450Y-83863607D01*
X107924655Y-83898435D01*
X107924257Y-83901326D01*
X107942361Y-83914645D01*
X107993415Y-83951866D01*
X108076103Y-84012035D01*
X108189110Y-84094197D01*
X108331118Y-84197395D01*
X108500813Y-84320675D01*
X108696877Y-84463081D01*
X108917996Y-84623658D01*
X109162853Y-84801450D01*
X109430132Y-84995502D01*
X109718517Y-85204859D01*
X110026693Y-85428565D01*
X110353342Y-85665664D01*
X110697150Y-85915203D01*
X111056800Y-86176224D01*
X111430976Y-86447772D01*
X111818362Y-86728893D01*
X112217642Y-87018631D01*
X112627501Y-87316031D01*
X113046621Y-87620136D01*
X113182958Y-87719056D01*
X113604657Y-88025074D01*
X114017427Y-88324718D01*
X114419957Y-88617032D01*
X114810936Y-88901061D01*
X115189050Y-89175849D01*
X115552990Y-89440440D01*
X115901442Y-89693878D01*
X116233096Y-89935207D01*
X116546640Y-90163472D01*
X116840761Y-90377716D01*
X117114149Y-90576984D01*
X117365492Y-90760320D01*
X117593478Y-90926768D01*
X117796795Y-91075372D01*
X117974132Y-91205177D01*
X118124177Y-91315226D01*
X118245618Y-91404564D01*
X118337144Y-91472234D01*
X118397442Y-91517282D01*
X118425202Y-91538750D01*
X118427000Y-91540491D01*
X118409631Y-91553046D01*
X118358430Y-91588227D01*
X118274753Y-91645126D01*
X118159954Y-91722835D01*
X118015391Y-91820446D01*
X117842419Y-91937050D01*
X117642394Y-92071739D01*
X117416672Y-92223604D01*
X117166609Y-92391739D01*
X116893561Y-92575233D01*
X116598883Y-92773179D01*
X116283932Y-92984670D01*
X115950064Y-93208795D01*
X115598634Y-93444648D01*
X115230999Y-93691320D01*
X114848515Y-93947902D01*
X114452536Y-94213487D01*
X114044420Y-94487166D01*
X113625522Y-94768030D01*
X113197199Y-95055173D01*
X112760805Y-95347685D01*
X112317697Y-95644658D01*
X111869232Y-95945183D01*
X111416764Y-96248354D01*
X110961650Y-96553260D01*
X110505246Y-96858995D01*
X110048908Y-97164649D01*
X109593991Y-97469315D01*
X109141852Y-97772085D01*
X108693846Y-98072049D01*
X108251329Y-98368300D01*
X107815658Y-98659929D01*
X107388188Y-98946029D01*
X106970276Y-99225691D01*
X106563276Y-99498006D01*
X106168546Y-99762067D01*
X105787441Y-100016965D01*
X105421316Y-100261792D01*
X105071529Y-100495640D01*
X104739434Y-100717600D01*
X104426388Y-100926764D01*
X104133747Y-101122224D01*
X103862866Y-101303071D01*
X103615102Y-101468398D01*
X103391810Y-101617296D01*
X103194347Y-101748857D01*
X103024068Y-101862172D01*
X102882329Y-101956334D01*
X102770486Y-102030434D01*
X102689896Y-102083563D01*
X102641913Y-102114814D01*
X102627758Y-102123500D01*
X102615805Y-102107199D01*
X102615500Y-102102558D01*
X102621183Y-102080991D01*
X102637991Y-102019977D01*
X102665557Y-101920815D01*
X102703518Y-101784803D01*
X102751508Y-101613238D01*
X102809162Y-101407419D01*
X102876115Y-101168644D01*
X102952002Y-100898210D01*
X103036458Y-100597417D01*
X103129118Y-100267561D01*
X103229617Y-99909942D01*
X103337590Y-99525856D01*
X103452673Y-99116603D01*
X103574500Y-98683479D01*
X103702706Y-98227784D01*
X103836926Y-97750815D01*
X103976795Y-97253871D01*
X104121949Y-96738248D01*
X104272021Y-96205246D01*
X104426648Y-95656163D01*
X104585465Y-95092296D01*
X104748105Y-94514943D01*
X104914205Y-93925403D01*
X105083399Y-93324974D01*
X105166083Y-93031582D01*
X105336634Y-92426389D01*
X105504267Y-91831472D01*
X105668618Y-91248129D01*
X105829321Y-90677655D01*
X105986011Y-90121351D01*
X106138323Y-89580512D01*
X106285893Y-89056436D01*
X106428355Y-88550420D01*
X106565345Y-88063763D01*
X106696497Y-87597761D01*
X106821447Y-87153712D01*
X106939830Y-86732913D01*
X107051280Y-86336662D01*
X107155433Y-85966257D01*
X107251924Y-85622994D01*
X107340388Y-85308171D01*
X107420460Y-85023086D01*
X107491775Y-84769036D01*
X107553968Y-84547318D01*
X107606674Y-84359230D01*
X107649528Y-84206070D01*
X107682165Y-84089135D01*
X107704220Y-84009722D01*
X107715329Y-83969128D01*
X107716666Y-83963809D01*
X107700250Y-83950101D01*
X107651858Y-83911222D01*
X107572779Y-83848185D01*
X107464300Y-83762005D01*
X107327708Y-83653698D01*
X107164291Y-83524277D01*
X106975335Y-83374757D01*
X106762128Y-83206153D01*
X106525958Y-83019480D01*
X106268112Y-82815752D01*
X105989876Y-82595984D01*
X105692539Y-82361191D01*
X105377387Y-82112387D01*
X105045708Y-81850586D01*
X104698790Y-81576804D01*
X104337919Y-81292056D01*
X103964383Y-80997355D01*
X103579469Y-80693717D01*
X103184465Y-80382156D01*
X102780657Y-80063686D01*
X102369334Y-79739323D01*
X101951782Y-79410082D01*
X101529289Y-79076976D01*
X101103142Y-78741020D01*
X100674629Y-78403230D01*
X100245036Y-78064619D01*
X99815651Y-77726203D01*
X99387762Y-77388995D01*
X98962655Y-77054012D01*
X98541618Y-76722267D01*
X98125939Y-76394775D01*
X97716904Y-76072550D01*
X97315801Y-75756608D01*
X96923918Y-75447963D01*
X96542541Y-75147629D01*
X96172957Y-74856622D01*
X95816455Y-74575956D01*
X95474322Y-74306646D01*
X95147844Y-74049705D01*
X94838309Y-73806150D01*
X94547005Y-73576994D01*
X94275219Y-73363253D01*
X94024238Y-73165940D01*
X93795349Y-72986071D01*
X93589840Y-72824660D01*
X93408997Y-72682722D01*
X93254109Y-72561271D01*
X93126463Y-72461323D01*
X93027346Y-72383892D01*
X92958045Y-72329992D01*
X92919848Y-72300638D01*
X92912880Y-72295525D01*
X92899697Y-72274599D01*
X92902558Y-72268886D01*
X92924314Y-72267225D01*
X92986962Y-72263964D01*
X93089089Y-72259159D01*
X93229288Y-72252869D01*
X93406146Y-72245152D01*
X93618255Y-72236064D01*
X93864203Y-72225663D01*
X94142581Y-72214007D01*
X94451979Y-72201153D01*
X94790986Y-72187160D01*
X95158193Y-72172084D01*
X95552189Y-72155983D01*
X95971563Y-72138915D01*
X96414907Y-72120937D01*
X96880809Y-72102108D01*
X97367860Y-72082483D01*
X97874649Y-72062122D01*
X98399766Y-72041082D01*
X98941802Y-72019420D01*
X99499345Y-71997193D01*
X100070986Y-71974460D01*
X100655315Y-71951278D01*
X101250921Y-71927704D01*
X101474445Y-71918872D01*
X102082393Y-71894858D01*
X102683360Y-71871117D01*
X103275748Y-71847711D01*
X103857961Y-71824705D01*
X104428401Y-71802162D01*
X104985473Y-71780143D01*
X105527579Y-71758714D01*
X106053122Y-71737936D01*
X106560507Y-71717873D01*
X107048137Y-71698589D01*
X107514414Y-71680146D01*
X107957742Y-71662607D01*
X108376524Y-71646036D01*
X108769164Y-71630496D01*
X109134064Y-71616049D01*
X109469629Y-71602760D01*
X109774262Y-71590692D01*
X110046365Y-71579907D01*
X110284343Y-71570468D01*
X110486597Y-71562439D01*
X110651533Y-71555884D01*
X110777552Y-71550864D01*
X110863059Y-71547444D01*
X110870500Y-71547145D01*
X111059108Y-71539837D01*
X111238287Y-71533422D01*
X111402737Y-71528050D01*
X111547160Y-71523874D01*
X111666255Y-71521043D01*
X111754723Y-71519710D01*
X111807266Y-71520024D01*
X111807266Y-71520024D01*
G37*
X111807266Y-71520024D02*
X111813039Y-71520300D01*
X111919495Y-71527083D01*
X109914546Y-77707750D01*
X109753602Y-78204080D01*
X109596153Y-78690001D01*
X109442694Y-79163971D01*
X109293721Y-79624447D01*
X109149729Y-80069888D01*
X109011214Y-80498750D01*
X108878673Y-80909493D01*
X108752599Y-81300572D01*
X108633490Y-81670446D01*
X108521840Y-82017573D01*
X108418145Y-82340411D01*
X108322902Y-82637416D01*
X108236604Y-82907048D01*
X108159749Y-83147762D01*
X108092831Y-83358018D01*
X108036347Y-83536273D01*
X107990792Y-83680984D01*
X107956661Y-83790610D01*
X107934450Y-83863607D01*
X107924655Y-83898435D01*
X107924257Y-83901326D01*
X107942361Y-83914645D01*
X107993415Y-83951866D01*
X108076103Y-84012035D01*
X108189110Y-84094197D01*
X108331118Y-84197395D01*
X108500813Y-84320675D01*
X108696877Y-84463081D01*
X108917996Y-84623658D01*
X109162853Y-84801450D01*
X109430132Y-84995502D01*
X109718517Y-85204859D01*
X110026693Y-85428565D01*
X110353342Y-85665664D01*
X110697150Y-85915203D01*
X111056800Y-86176224D01*
X111430976Y-86447772D01*
X111818362Y-86728893D01*
X112217642Y-87018631D01*
X112627501Y-87316031D01*
X113046621Y-87620136D01*
X113182958Y-87719056D01*
X113604657Y-88025074D01*
X114017427Y-88324718D01*
X114419957Y-88617032D01*
X114810936Y-88901061D01*
X115189050Y-89175849D01*
X115552990Y-89440440D01*
X115901442Y-89693878D01*
X116233096Y-89935207D01*
X116546640Y-90163472D01*
X116840761Y-90377716D01*
X117114149Y-90576984D01*
X117365492Y-90760320D01*
X117593478Y-90926768D01*
X117796795Y-91075372D01*
X117974132Y-91205177D01*
X118124177Y-91315226D01*
X118245618Y-91404564D01*
X118337144Y-91472234D01*
X118397442Y-91517282D01*
X118425202Y-91538750D01*
X118427000Y-91540491D01*
X118409631Y-91553046D01*
X118358430Y-91588227D01*
X118274753Y-91645126D01*
X118159954Y-91722835D01*
X118015391Y-91820446D01*
X117842419Y-91937050D01*
X117642394Y-92071739D01*
X117416672Y-92223604D01*
X117166609Y-92391739D01*
X116893561Y-92575233D01*
X116598883Y-92773179D01*
X116283932Y-92984670D01*
X115950064Y-93208795D01*
X115598634Y-93444648D01*
X115230999Y-93691320D01*
X114848515Y-93947902D01*
X114452536Y-94213487D01*
X114044420Y-94487166D01*
X113625522Y-94768030D01*
X113197199Y-95055173D01*
X112760805Y-95347685D01*
X112317697Y-95644658D01*
X111869232Y-95945183D01*
X111416764Y-96248354D01*
X110961650Y-96553260D01*
X110505246Y-96858995D01*
X110048908Y-97164649D01*
X109593991Y-97469315D01*
X109141852Y-97772085D01*
X108693846Y-98072049D01*
X108251329Y-98368300D01*
X107815658Y-98659929D01*
X107388188Y-98946029D01*
X106970276Y-99225691D01*
X106563276Y-99498006D01*
X106168546Y-99762067D01*
X105787441Y-100016965D01*
X105421316Y-100261792D01*
X105071529Y-100495640D01*
X104739434Y-100717600D01*
X104426388Y-100926764D01*
X104133747Y-101122224D01*
X103862866Y-101303071D01*
X103615102Y-101468398D01*
X103391810Y-101617296D01*
X103194347Y-101748857D01*
X103024068Y-101862172D01*
X102882329Y-101956334D01*
X102770486Y-102030434D01*
X102689896Y-102083563D01*
X102641913Y-102114814D01*
X102627758Y-102123500D01*
X102615805Y-102107199D01*
X102615500Y-102102558D01*
X102621183Y-102080991D01*
X102637991Y-102019977D01*
X102665557Y-101920815D01*
X102703518Y-101784803D01*
X102751508Y-101613238D01*
X102809162Y-101407419D01*
X102876115Y-101168644D01*
X102952002Y-100898210D01*
X103036458Y-100597417D01*
X103129118Y-100267561D01*
X103229617Y-99909942D01*
X103337590Y-99525856D01*
X103452673Y-99116603D01*
X103574500Y-98683479D01*
X103702706Y-98227784D01*
X103836926Y-97750815D01*
X103976795Y-97253871D01*
X104121949Y-96738248D01*
X104272021Y-96205246D01*
X104426648Y-95656163D01*
X104585465Y-95092296D01*
X104748105Y-94514943D01*
X104914205Y-93925403D01*
X105083399Y-93324974D01*
X105166083Y-93031582D01*
X105336634Y-92426389D01*
X105504267Y-91831472D01*
X105668618Y-91248129D01*
X105829321Y-90677655D01*
X105986011Y-90121351D01*
X106138323Y-89580512D01*
X106285893Y-89056436D01*
X106428355Y-88550420D01*
X106565345Y-88063763D01*
X106696497Y-87597761D01*
X106821447Y-87153712D01*
X106939830Y-86732913D01*
X107051280Y-86336662D01*
X107155433Y-85966257D01*
X107251924Y-85622994D01*
X107340388Y-85308171D01*
X107420460Y-85023086D01*
X107491775Y-84769036D01*
X107553968Y-84547318D01*
X107606674Y-84359230D01*
X107649528Y-84206070D01*
X107682165Y-84089135D01*
X107704220Y-84009722D01*
X107715329Y-83969128D01*
X107716666Y-83963809D01*
X107700250Y-83950101D01*
X107651858Y-83911222D01*
X107572779Y-83848185D01*
X107464300Y-83762005D01*
X107327708Y-83653698D01*
X107164291Y-83524277D01*
X106975335Y-83374757D01*
X106762128Y-83206153D01*
X106525958Y-83019480D01*
X106268112Y-82815752D01*
X105989876Y-82595984D01*
X105692539Y-82361191D01*
X105377387Y-82112387D01*
X105045708Y-81850586D01*
X104698790Y-81576804D01*
X104337919Y-81292056D01*
X103964383Y-80997355D01*
X103579469Y-80693717D01*
X103184465Y-80382156D01*
X102780657Y-80063686D01*
X102369334Y-79739323D01*
X101951782Y-79410082D01*
X101529289Y-79076976D01*
X101103142Y-78741020D01*
X100674629Y-78403230D01*
X100245036Y-78064619D01*
X99815651Y-77726203D01*
X99387762Y-77388995D01*
X98962655Y-77054012D01*
X98541618Y-76722267D01*
X98125939Y-76394775D01*
X97716904Y-76072550D01*
X97315801Y-75756608D01*
X96923918Y-75447963D01*
X96542541Y-75147629D01*
X96172957Y-74856622D01*
X95816455Y-74575956D01*
X95474322Y-74306646D01*
X95147844Y-74049705D01*
X94838309Y-73806150D01*
X94547005Y-73576994D01*
X94275219Y-73363253D01*
X94024238Y-73165940D01*
X93795349Y-72986071D01*
X93589840Y-72824660D01*
X93408997Y-72682722D01*
X93254109Y-72561271D01*
X93126463Y-72461323D01*
X93027346Y-72383892D01*
X92958045Y-72329992D01*
X92919848Y-72300638D01*
X92912880Y-72295525D01*
X92899697Y-72274599D01*
X92902558Y-72268886D01*
X92924314Y-72267225D01*
X92986962Y-72263964D01*
X93089089Y-72259159D01*
X93229288Y-72252869D01*
X93406146Y-72245152D01*
X93618255Y-72236064D01*
X93864203Y-72225663D01*
X94142581Y-72214007D01*
X94451979Y-72201153D01*
X94790986Y-72187160D01*
X95158193Y-72172084D01*
X95552189Y-72155983D01*
X95971563Y-72138915D01*
X96414907Y-72120937D01*
X96880809Y-72102108D01*
X97367860Y-72082483D01*
X97874649Y-72062122D01*
X98399766Y-72041082D01*
X98941802Y-72019420D01*
X99499345Y-71997193D01*
X100070986Y-71974460D01*
X100655315Y-71951278D01*
X101250921Y-71927704D01*
X101474445Y-71918872D01*
X102082393Y-71894858D01*
X102683360Y-71871117D01*
X103275748Y-71847711D01*
X103857961Y-71824705D01*
X104428401Y-71802162D01*
X104985473Y-71780143D01*
X105527579Y-71758714D01*
X106053122Y-71737936D01*
X106560507Y-71717873D01*
X107048137Y-71698589D01*
X107514414Y-71680146D01*
X107957742Y-71662607D01*
X108376524Y-71646036D01*
X108769164Y-71630496D01*
X109134064Y-71616049D01*
X109469629Y-71602760D01*
X109774262Y-71590692D01*
X110046365Y-71579907D01*
X110284343Y-71570468D01*
X110486597Y-71562439D01*
X110651533Y-71555884D01*
X110777552Y-71550864D01*
X110863059Y-71547444D01*
X110870500Y-71547145D01*
X111059108Y-71539837D01*
X111238287Y-71533422D01*
X111402737Y-71528050D01*
X111547160Y-71523874D01*
X111666255Y-71521043D01*
X111754723Y-71519710D01*
X111807266Y-71520024D01*
G04 #@! TD*
D12*
G04 #@! TO.C,BT1*
X126406418Y-88031414D03*
D13*
G36*
X123526597Y-89616227D02*
X126910698Y-84783230D01*
X129286239Y-86446601D01*
X125902138Y-91279598D01*
X123526597Y-89616227D01*
X123526597Y-89616227D01*
G37*
D12*
X107893582Y-75068586D03*
D13*
G36*
X105013761Y-76653399D02*
X108397862Y-71820402D01*
X110773403Y-73483773D01*
X107389302Y-78316770D01*
X105013761Y-76653399D01*
X105013761Y-76653399D01*
G37*
D14*
X117150000Y-81550000D03*
D13*
G36*
X114085997Y-82090266D02*
X116609734Y-78485997D01*
X120214003Y-81009734D01*
X117690266Y-84614003D01*
X114085997Y-82090266D01*
X114085997Y-82090266D01*
G37*
G04 #@! TD*
D15*
G04 #@! TO.C,R2*
X134300000Y-74000000D03*
X126939645Y-75972201D03*
D16*
X126939645Y-75972201D02*
X126939645Y-75972201D01*
G04 #@! TD*
D17*
G04 #@! TO.C,*
X131828237Y-73050887D03*
G04 #@! TD*
G04 #@! TO.C,*
X130193449Y-75352653D03*
G04 #@! TD*
G04 #@! TO.C,*
X134540922Y-76761367D03*
G04 #@! TD*
G04 #@! TO.C,*
X131945173Y-77646239D03*
G04 #@! TD*
D18*
G04 #@! TO.C,D1*
X118300000Y-59100000D03*
D19*
X118300000Y-61640000D03*
G04 #@! TD*
G04 #@! TO.C,D2*
X136246548Y-74557400D03*
X138700000Y-73900000D03*
D13*
G36*
X139477817Y-72552781D02*
X140047219Y-74677817D01*
X137922183Y-75247219D01*
X137352781Y-73122183D01*
X139477817Y-72552781D01*
X139477817Y-72552781D01*
G37*
G04 #@! TD*
D19*
G04 #@! TO.C,D3*
X130900000Y-97600000D03*
D13*
G36*
X132455635Y-97600000D02*
X130900000Y-99155635D01*
X129344365Y-97600000D01*
X130900000Y-96044365D01*
X132455635Y-97600000D01*
X132455635Y-97600000D01*
G37*
D19*
X129103949Y-95803949D03*
G04 #@! TD*
G04 #@! TO.C,D4*
X107300000Y-96000000D03*
X105503949Y-97796051D03*
D13*
G36*
X105503949Y-99351686D02*
X103948314Y-97796051D01*
X105503949Y-96240416D01*
X107059584Y-97796051D01*
X105503949Y-99351686D01*
X105503949Y-99351686D01*
G37*
G04 #@! TD*
D19*
G04 #@! TO.C,D5*
X97800000Y-73900000D03*
D13*
G36*
X96452781Y-74677817D02*
X97022183Y-72552781D01*
X99147219Y-73122183D01*
X98577817Y-75247219D01*
X96452781Y-74677817D01*
X96452781Y-74677817D01*
G37*
D19*
X100253452Y-74557400D03*
G04 #@! TD*
D15*
G04 #@! TO.C,R1*
X118300000Y-64600000D03*
D20*
X118300000Y-72220000D03*
G04 #@! TD*
D15*
G04 #@! TO.C,R3*
X120709331Y-91299850D03*
D16*
X120709331Y-91299850D02*
X120709331Y-91299850D01*
D15*
X127100000Y-95450000D03*
G04 #@! TD*
G04 #@! TO.C,R4*
X109500000Y-95450000D03*
X115890670Y-91299851D03*
D16*
X115890670Y-91299851D02*
X115890670Y-91299851D01*
G04 #@! TD*
D15*
G04 #@! TO.C,R5*
X110660355Y-77772201D03*
D16*
X110660355Y-77772201D02*
X110660355Y-77772201D01*
D15*
X103300000Y-75800000D03*
G04 #@! TD*
M02*
