G04 #@! TF.GenerationSoftware,KiCad,Pcbnew,5.0.0-4.fc30*
G04 #@! TF.CreationDate,2018-09-24T02:25:55-07:00*
G04 #@! TF.ProjectId,star,737461722E6B696361645F7063620000,rev?*
G04 #@! TF.SameCoordinates,Original*
G04 #@! TF.FileFunction,Legend,Top*
G04 #@! TF.FilePolarity,Positive*
%FSLAX46Y46*%
G04 Gerber Fmt 4.6, Leading zero omitted, Abs format (unit mm)*
G04 Created by KiCad (PCBNEW 5.0.0-4.fc30) date Mon Sep 24 02:25:55 2018*
%MOMM*%
%LPD*%
G01*
G04 APERTURE LIST*
%ADD10C,0.010000*%
%ADD11C,0.120000*%
%ADD12C,0.150000*%
%ADD13C,2.000000*%
%ADD14C,2.000000*%
%ADD15C,1.670000*%
%ADD16R,2.200000X2.200000*%
%ADD17C,2.200000*%
%ADD18C,0.100000*%
%ADD19O,2.000000X2.000000*%
%ADD20R,2.100000X1.050000*%
G04 APERTURE END LIST*
D10*
G04 #@! TO.C,G\002A\002A\002A*
G36*
X118323359Y-53841455D02*
X118324324Y-53886850D01*
X118321881Y-53913438D01*
X118327400Y-53940154D01*
X118340368Y-53938797D01*
X118354278Y-53940178D01*
X118350409Y-53957650D01*
X118351316Y-53985488D01*
X118362484Y-53990500D01*
X118377228Y-54003334D01*
X118374083Y-54011666D01*
X118374630Y-54031220D01*
X118381435Y-54032833D01*
X118392867Y-54049808D01*
X118389934Y-54078476D01*
X118386579Y-54109912D01*
X118404240Y-54107882D01*
X118405769Y-54106956D01*
X118423609Y-54101365D01*
X118418708Y-54113792D01*
X118416756Y-54148680D01*
X118430518Y-54185854D01*
X118448841Y-54228651D01*
X118451842Y-54252254D01*
X118458433Y-54281716D01*
X118479095Y-54320301D01*
X118503510Y-54368608D01*
X118511666Y-54402505D01*
X118523515Y-54431137D01*
X118534082Y-54435000D01*
X118546450Y-54448090D01*
X118542843Y-54457093D01*
X118542517Y-54490351D01*
X118551756Y-54506380D01*
X118575447Y-54555657D01*
X118591455Y-54629019D01*
X118594760Y-54663790D01*
X118607494Y-54681702D01*
X118616430Y-54679077D01*
X118632356Y-54689272D01*
X118647419Y-54729919D01*
X118650940Y-54746620D01*
X118665465Y-54805625D01*
X118682647Y-54847817D01*
X118685582Y-54852114D01*
X118696728Y-54886193D01*
X118693273Y-54897931D01*
X118696298Y-54921937D01*
X118703187Y-54925701D01*
X118726515Y-54950624D01*
X118730795Y-54964550D01*
X118744633Y-55006677D01*
X118763022Y-55045195D01*
X118779675Y-55092535D01*
X118779062Y-55123219D01*
X118783498Y-55158198D01*
X118809212Y-55204240D01*
X118811828Y-55207642D01*
X118842849Y-55262314D01*
X118855625Y-55314827D01*
X118861896Y-55353942D01*
X118873481Y-55366333D01*
X118882292Y-55382188D01*
X118877821Y-55401555D01*
X118875073Y-55425430D01*
X118886663Y-55422960D01*
X118908746Y-55428573D01*
X118920036Y-55451267D01*
X118921184Y-55480373D01*
X118908588Y-55479508D01*
X118895812Y-55478869D01*
X118899344Y-55487013D01*
X118915578Y-55519485D01*
X118938190Y-55570504D01*
X118958203Y-55619267D01*
X118966016Y-55641500D01*
X118989068Y-55711145D01*
X119013789Y-55759312D01*
X119025298Y-55771466D01*
X119039927Y-55789887D01*
X119049914Y-55828846D01*
X119057409Y-55897935D01*
X119059298Y-55923207D01*
X119071397Y-55949090D01*
X119086763Y-55946193D01*
X119102716Y-55945173D01*
X119098246Y-55965498D01*
X119100547Y-56007665D01*
X119114808Y-56029950D01*
X119133095Y-56060215D01*
X119130396Y-56074047D01*
X119131800Y-56095458D01*
X119141926Y-56104236D01*
X119162552Y-56135031D01*
X119175264Y-56185053D01*
X119192698Y-56250414D01*
X119217659Y-56299677D01*
X119244319Y-56358788D01*
X119252500Y-56408209D01*
X119259003Y-56450717D01*
X119273416Y-56466999D01*
X119289508Y-56485703D01*
X119304263Y-56532425D01*
X119307810Y-56551281D01*
X119321325Y-56603465D01*
X119338256Y-56623370D01*
X119343144Y-56622055D01*
X119356485Y-56626339D01*
X119353058Y-56654219D01*
X119350768Y-56684858D01*
X119360307Y-56688030D01*
X119373384Y-56697747D01*
X119379448Y-56737339D01*
X119379500Y-56742166D01*
X119384741Y-56783886D01*
X119397504Y-56796857D01*
X119398944Y-56796147D01*
X119414203Y-56806530D01*
X119430975Y-56842902D01*
X119443987Y-56889466D01*
X119447966Y-56930424D01*
X119446654Y-56939092D01*
X119456319Y-56965890D01*
X119475090Y-56988947D01*
X119497460Y-57037321D01*
X119494367Y-57064547D01*
X119490777Y-57094367D01*
X119503989Y-57092968D01*
X119518842Y-57093589D01*
X119515877Y-57108092D01*
X119520515Y-57144693D01*
X119535101Y-57162887D01*
X119555664Y-57203741D01*
X119553897Y-57233088D01*
X119550798Y-57263993D01*
X119568950Y-57261391D01*
X119569936Y-57260789D01*
X119587785Y-57255202D01*
X119582974Y-57267465D01*
X119582646Y-57300821D01*
X119600944Y-57341216D01*
X119620387Y-57381516D01*
X119620123Y-57404654D01*
X119620766Y-57429806D01*
X119641216Y-57471011D01*
X119666525Y-57520020D01*
X119675833Y-57556338D01*
X119687682Y-57584970D01*
X119698249Y-57588833D01*
X119710617Y-57601923D01*
X119707010Y-57610927D01*
X119706683Y-57644184D01*
X119715923Y-57660213D01*
X119739613Y-57709490D01*
X119755621Y-57782852D01*
X119758927Y-57817624D01*
X119771661Y-57835536D01*
X119780597Y-57832910D01*
X119796522Y-57843106D01*
X119811586Y-57883753D01*
X119815107Y-57900453D01*
X119829632Y-57959458D01*
X119846813Y-58001651D01*
X119849748Y-58005947D01*
X119860894Y-58040026D01*
X119857440Y-58051764D01*
X119860465Y-58075770D01*
X119867354Y-58079534D01*
X119890682Y-58104457D01*
X119894962Y-58118384D01*
X119908800Y-58160510D01*
X119927189Y-58199028D01*
X119943842Y-58246368D01*
X119943229Y-58277053D01*
X119947665Y-58312031D01*
X119973379Y-58358073D01*
X119975995Y-58361476D01*
X120007015Y-58416148D01*
X120019791Y-58468660D01*
X120026063Y-58507776D01*
X120037648Y-58520166D01*
X120046458Y-58536022D01*
X120041988Y-58555388D01*
X120039239Y-58579263D01*
X120050829Y-58576793D01*
X120072913Y-58582406D01*
X120084202Y-58605100D01*
X120085351Y-58634207D01*
X120072755Y-58633342D01*
X120059978Y-58632702D01*
X120063510Y-58640846D01*
X120079745Y-58673319D01*
X120102357Y-58724337D01*
X120122370Y-58773101D01*
X120130183Y-58795333D01*
X120153234Y-58864978D01*
X120177955Y-58913145D01*
X120189464Y-58925299D01*
X120204094Y-58943720D01*
X120214081Y-58982679D01*
X120221575Y-59051768D01*
X120223465Y-59077040D01*
X120235563Y-59102923D01*
X120250930Y-59100026D01*
X120266883Y-59099006D01*
X120262413Y-59119331D01*
X120264714Y-59161498D01*
X120278974Y-59183784D01*
X120297262Y-59214048D01*
X120294563Y-59227881D01*
X120295966Y-59249292D01*
X120306092Y-59258070D01*
X120326719Y-59288864D01*
X120339430Y-59338886D01*
X120356865Y-59404248D01*
X120381825Y-59453510D01*
X120408486Y-59512622D01*
X120416666Y-59562043D01*
X120423170Y-59604550D01*
X120437583Y-59620833D01*
X120453675Y-59639537D01*
X120468430Y-59686258D01*
X120471976Y-59705115D01*
X120485492Y-59757298D01*
X120502422Y-59777204D01*
X120507311Y-59775888D01*
X120520652Y-59780172D01*
X120517224Y-59808052D01*
X120514935Y-59838692D01*
X120524473Y-59841863D01*
X120537551Y-59851580D01*
X120543614Y-59891173D01*
X120543666Y-59895999D01*
X120548908Y-59937719D01*
X120561671Y-59950690D01*
X120563110Y-59949981D01*
X120578862Y-59959901D01*
X120595263Y-59996816D01*
X120607671Y-60045717D01*
X120611447Y-60091597D01*
X120610232Y-60102375D01*
X120617881Y-60126703D01*
X120625334Y-60128833D01*
X120645357Y-60146656D01*
X120666613Y-60189875D01*
X120667747Y-60193058D01*
X120679463Y-60236451D01*
X120671632Y-60245470D01*
X120667706Y-60243420D01*
X120656744Y-60244912D01*
X120668668Y-60273266D01*
X120694819Y-60312695D01*
X120711126Y-60328758D01*
X120721557Y-60355923D01*
X120718261Y-60386164D01*
X120714914Y-60417585D01*
X120732587Y-60415540D01*
X120734102Y-60414622D01*
X120751952Y-60409036D01*
X120747140Y-60421298D01*
X120746812Y-60454655D01*
X120765111Y-60495050D01*
X120784553Y-60535350D01*
X120784290Y-60558487D01*
X120784933Y-60583639D01*
X120805382Y-60624844D01*
X120830691Y-60673853D01*
X120840000Y-60710171D01*
X120851848Y-60738804D01*
X120862415Y-60742666D01*
X120874784Y-60755756D01*
X120871176Y-60764760D01*
X120870850Y-60798017D01*
X120880089Y-60814046D01*
X120903780Y-60863324D01*
X120919788Y-60936686D01*
X120923093Y-60971457D01*
X120935827Y-60989369D01*
X120944763Y-60986744D01*
X120960689Y-60996939D01*
X120975753Y-61037586D01*
X120979273Y-61054286D01*
X120993799Y-61113292D01*
X121010980Y-61155484D01*
X121013915Y-61159781D01*
X121025061Y-61193859D01*
X121021607Y-61205598D01*
X121024631Y-61229604D01*
X121031520Y-61233368D01*
X121054848Y-61258291D01*
X121059128Y-61272217D01*
X121072967Y-61314344D01*
X121091356Y-61352862D01*
X121108009Y-61400202D01*
X121107395Y-61430886D01*
X121111831Y-61465864D01*
X121137546Y-61511907D01*
X121140161Y-61515309D01*
X121171182Y-61569981D01*
X121183958Y-61622493D01*
X121190229Y-61661609D01*
X121201814Y-61674000D01*
X121210625Y-61689855D01*
X121206155Y-61709222D01*
X121203406Y-61733097D01*
X121214996Y-61730627D01*
X121237080Y-61736239D01*
X121248369Y-61758933D01*
X121249518Y-61788040D01*
X121236922Y-61787175D01*
X121224145Y-61786535D01*
X121227677Y-61794679D01*
X121243911Y-61827152D01*
X121266524Y-61878170D01*
X121286537Y-61926934D01*
X121294350Y-61949166D01*
X121317401Y-62018812D01*
X121342122Y-62066978D01*
X121353631Y-62079133D01*
X121368261Y-62097554D01*
X121378248Y-62136513D01*
X121385742Y-62205602D01*
X121387631Y-62230874D01*
X121399730Y-62256757D01*
X121415097Y-62253860D01*
X121431050Y-62252840D01*
X121426579Y-62273165D01*
X121428881Y-62315332D01*
X121443141Y-62337617D01*
X121461428Y-62367882D01*
X121458730Y-62381714D01*
X121460133Y-62403125D01*
X121470259Y-62411903D01*
X121490885Y-62442698D01*
X121503597Y-62492720D01*
X121521032Y-62558081D01*
X121545992Y-62607343D01*
X121572653Y-62666455D01*
X121580833Y-62715876D01*
X121587337Y-62758383D01*
X121601749Y-62774666D01*
X121617842Y-62793370D01*
X121632596Y-62840091D01*
X121636143Y-62858948D01*
X121649659Y-62911131D01*
X121666589Y-62931037D01*
X121671478Y-62929722D01*
X121684818Y-62934005D01*
X121681391Y-62961886D01*
X121679102Y-62992525D01*
X121688640Y-62995696D01*
X121701717Y-63005414D01*
X121707781Y-63045006D01*
X121707833Y-63049833D01*
X121713074Y-63091553D01*
X121725837Y-63104523D01*
X121727277Y-63103814D01*
X121743029Y-63113735D01*
X121759429Y-63150649D01*
X121771838Y-63199551D01*
X121775614Y-63245430D01*
X121774399Y-63256208D01*
X121782047Y-63280536D01*
X121789501Y-63282666D01*
X121809524Y-63300490D01*
X121830780Y-63343709D01*
X121831914Y-63346891D01*
X121842479Y-63388739D01*
X121835457Y-63399340D01*
X121833824Y-63398459D01*
X121826599Y-63405209D01*
X121837616Y-63439067D01*
X121838070Y-63440068D01*
X121860832Y-63479473D01*
X121878095Y-63494333D01*
X121895076Y-63511902D01*
X121904473Y-63536695D01*
X121905746Y-63566099D01*
X121892316Y-63564698D01*
X121887683Y-63571195D01*
X121903030Y-63604304D01*
X121915176Y-63624921D01*
X121940905Y-63674031D01*
X121949911Y-63707339D01*
X121948102Y-63712675D01*
X121948994Y-63737572D01*
X121969549Y-63778678D01*
X121994858Y-63827686D01*
X122004166Y-63864005D01*
X122016015Y-63892637D01*
X122026582Y-63896500D01*
X122038950Y-63909590D01*
X122035343Y-63918593D01*
X122035017Y-63951851D01*
X122044256Y-63967880D01*
X122067947Y-64017157D01*
X122083955Y-64090519D01*
X122087260Y-64125290D01*
X122099994Y-64143202D01*
X122108930Y-64140577D01*
X122124856Y-64150772D01*
X122139919Y-64191419D01*
X122143440Y-64208120D01*
X122157965Y-64267125D01*
X122175147Y-64309317D01*
X122178082Y-64313614D01*
X122189228Y-64347693D01*
X122185773Y-64359431D01*
X122188798Y-64383437D01*
X122195687Y-64387201D01*
X122219015Y-64412124D01*
X122223295Y-64426050D01*
X122237133Y-64468177D01*
X122255522Y-64506695D01*
X122272175Y-64554035D01*
X122271562Y-64584719D01*
X122275998Y-64619698D01*
X122301712Y-64665740D01*
X122304328Y-64669142D01*
X122335349Y-64723814D01*
X122348125Y-64776327D01*
X122354396Y-64815442D01*
X122365981Y-64827833D01*
X122374792Y-64843688D01*
X122370321Y-64863055D01*
X122367573Y-64886930D01*
X122379163Y-64884460D01*
X122401246Y-64890073D01*
X122412536Y-64912767D01*
X122413684Y-64941873D01*
X122401088Y-64941008D01*
X122388312Y-64940369D01*
X122391844Y-64948513D01*
X122408078Y-64980985D01*
X122430690Y-65032004D01*
X122450703Y-65080767D01*
X122458516Y-65103000D01*
X122481568Y-65172645D01*
X122506289Y-65220812D01*
X122517798Y-65232966D01*
X122532427Y-65251387D01*
X122542414Y-65290346D01*
X122549909Y-65359435D01*
X122551798Y-65384707D01*
X122563897Y-65410590D01*
X122579263Y-65407693D01*
X122595216Y-65406673D01*
X122590746Y-65426998D01*
X122593047Y-65469165D01*
X122607308Y-65491450D01*
X122625595Y-65521715D01*
X122622896Y-65535547D01*
X122624300Y-65556958D01*
X122634426Y-65565736D01*
X122655052Y-65596531D01*
X122667764Y-65646553D01*
X122685198Y-65711914D01*
X122710159Y-65761177D01*
X122736819Y-65820288D01*
X122745000Y-65869709D01*
X122751503Y-65912217D01*
X122765916Y-65928500D01*
X122782008Y-65947203D01*
X122796763Y-65993925D01*
X122800310Y-66012781D01*
X122813825Y-66064965D01*
X122830756Y-66084870D01*
X122835644Y-66083555D01*
X122848985Y-66087839D01*
X122845558Y-66115719D01*
X122843268Y-66146358D01*
X122852807Y-66149530D01*
X122865884Y-66159247D01*
X122871948Y-66198839D01*
X122872000Y-66203666D01*
X122877241Y-66245386D01*
X122890004Y-66258357D01*
X122891444Y-66257647D01*
X122907196Y-66267568D01*
X122923596Y-66304483D01*
X122936005Y-66353384D01*
X122939781Y-66399264D01*
X122938565Y-66410041D01*
X122946214Y-66434369D01*
X122953668Y-66436500D01*
X122973690Y-66454323D01*
X122994947Y-66497542D01*
X122996080Y-66500724D01*
X123006646Y-66542572D01*
X122999623Y-66553173D01*
X122997990Y-66552293D01*
X122990765Y-66559042D01*
X123001783Y-66592900D01*
X123002236Y-66593901D01*
X123024998Y-66633306D01*
X123042262Y-66648166D01*
X123059243Y-66665735D01*
X123068640Y-66690529D01*
X123069837Y-66719478D01*
X123058777Y-66719949D01*
X123054043Y-66727546D01*
X123067598Y-66762230D01*
X123075686Y-66778128D01*
X123099019Y-66828735D01*
X123108701Y-66863650D01*
X123108364Y-66867587D01*
X123115063Y-66897056D01*
X123135762Y-66935634D01*
X123160177Y-66983941D01*
X123168333Y-67017838D01*
X123180182Y-67046470D01*
X123190749Y-67050333D01*
X123203117Y-67063423D01*
X123199510Y-67072427D01*
X123199183Y-67105684D01*
X123208423Y-67121713D01*
X123232113Y-67170990D01*
X123248121Y-67244352D01*
X123251427Y-67279124D01*
X123264161Y-67297036D01*
X123273097Y-67294410D01*
X123289022Y-67304606D01*
X123304086Y-67345253D01*
X123307607Y-67361953D01*
X123322132Y-67420958D01*
X123339313Y-67463151D01*
X123342248Y-67467447D01*
X123353394Y-67501526D01*
X123349940Y-67513264D01*
X123352965Y-67537270D01*
X123359854Y-67541034D01*
X123383182Y-67565957D01*
X123387462Y-67579884D01*
X123401300Y-67622010D01*
X123419689Y-67660528D01*
X123436342Y-67707868D01*
X123435729Y-67738553D01*
X123440165Y-67773531D01*
X123465879Y-67819573D01*
X123468495Y-67822976D01*
X123499515Y-67877648D01*
X123512291Y-67930160D01*
X123518563Y-67969276D01*
X123530148Y-67981666D01*
X123538958Y-67997522D01*
X123534488Y-68016888D01*
X123531739Y-68040763D01*
X123543329Y-68038293D01*
X123565413Y-68043906D01*
X123576702Y-68066600D01*
X123577851Y-68095707D01*
X123565255Y-68094842D01*
X123552478Y-68094202D01*
X123556010Y-68102346D01*
X123572245Y-68134819D01*
X123594857Y-68185837D01*
X123614870Y-68234601D01*
X123622683Y-68256833D01*
X123645734Y-68326478D01*
X123670455Y-68374645D01*
X123681964Y-68386799D01*
X123696594Y-68405220D01*
X123706581Y-68444179D01*
X123714075Y-68513268D01*
X123715965Y-68538540D01*
X123728063Y-68564423D01*
X123743430Y-68561526D01*
X123759383Y-68560506D01*
X123754913Y-68580831D01*
X123757214Y-68622998D01*
X123771474Y-68645284D01*
X123789762Y-68675548D01*
X123787063Y-68689381D01*
X123788466Y-68710792D01*
X123798592Y-68719570D01*
X123819219Y-68750364D01*
X123831930Y-68800386D01*
X123849365Y-68865748D01*
X123874325Y-68915010D01*
X123900986Y-68974122D01*
X123909166Y-69023543D01*
X123915670Y-69066050D01*
X123930083Y-69082333D01*
X123946175Y-69101037D01*
X123960930Y-69147758D01*
X123964476Y-69166615D01*
X123977992Y-69218798D01*
X123994922Y-69238704D01*
X123999811Y-69237388D01*
X124013152Y-69241672D01*
X124009724Y-69269552D01*
X124007435Y-69300192D01*
X124016973Y-69303363D01*
X124030051Y-69313080D01*
X124036114Y-69352673D01*
X124036166Y-69357500D01*
X124041408Y-69399219D01*
X124054171Y-69412190D01*
X124055610Y-69411481D01*
X124071362Y-69421401D01*
X124087763Y-69458316D01*
X124100171Y-69507217D01*
X124103947Y-69553097D01*
X124102732Y-69563875D01*
X124110381Y-69588203D01*
X124117834Y-69590333D01*
X124137857Y-69608156D01*
X124159113Y-69651375D01*
X124160247Y-69654558D01*
X124170812Y-69696406D01*
X124163790Y-69707006D01*
X124162157Y-69706126D01*
X124154932Y-69712875D01*
X124165950Y-69746734D01*
X124166403Y-69747734D01*
X124189165Y-69787139D01*
X124206428Y-69802000D01*
X124223409Y-69819568D01*
X124232807Y-69844362D01*
X124234109Y-69873815D01*
X124220241Y-69872112D01*
X124215370Y-69878894D01*
X124229946Y-69912738D01*
X124243382Y-69936793D01*
X124272713Y-69995372D01*
X124288994Y-70045111D01*
X124290166Y-70055960D01*
X124300167Y-70095975D01*
X124311333Y-70108916D01*
X124329114Y-70138771D01*
X124332500Y-70163082D01*
X124342135Y-70196784D01*
X124354915Y-70204166D01*
X124367284Y-70217256D01*
X124363676Y-70226260D01*
X124363350Y-70259517D01*
X124372589Y-70275546D01*
X124396280Y-70324824D01*
X124412288Y-70398186D01*
X124415593Y-70432957D01*
X124428327Y-70450869D01*
X124437263Y-70448244D01*
X124453189Y-70458439D01*
X124468253Y-70499086D01*
X124471773Y-70515786D01*
X124486299Y-70574792D01*
X124503480Y-70616984D01*
X124506415Y-70621281D01*
X124517561Y-70655359D01*
X124514107Y-70667098D01*
X124517131Y-70691104D01*
X124524020Y-70694868D01*
X124547348Y-70719791D01*
X124551628Y-70733717D01*
X124565467Y-70775844D01*
X124583856Y-70814362D01*
X124600509Y-70861702D01*
X124599895Y-70892386D01*
X124604331Y-70927364D01*
X124630046Y-70973407D01*
X124632661Y-70976809D01*
X124663682Y-71031481D01*
X124676458Y-71083993D01*
X124682729Y-71123109D01*
X124694314Y-71135500D01*
X124703125Y-71151355D01*
X124698655Y-71170722D01*
X124695906Y-71194597D01*
X124707496Y-71192127D01*
X124729580Y-71197739D01*
X124740869Y-71220433D01*
X124742018Y-71249540D01*
X124729422Y-71248675D01*
X124716645Y-71248035D01*
X124720177Y-71256179D01*
X124737282Y-71289992D01*
X124758715Y-71338825D01*
X124777911Y-71385659D01*
X124789127Y-71416459D01*
X124800390Y-71454379D01*
X124807478Y-71479458D01*
X124824436Y-71521379D01*
X124840530Y-71537666D01*
X124862453Y-71555279D01*
X124874219Y-71594153D01*
X124870685Y-71629361D01*
X124848761Y-71632182D01*
X124786516Y-71634859D01*
X124685911Y-71637394D01*
X124548907Y-71639787D01*
X124377465Y-71642037D01*
X124173546Y-71644147D01*
X123939111Y-71646115D01*
X123676120Y-71647942D01*
X123386534Y-71649630D01*
X123072315Y-71651178D01*
X122735423Y-71652586D01*
X122377819Y-71653856D01*
X122001465Y-71654987D01*
X121608320Y-71655981D01*
X121200346Y-71656837D01*
X120779503Y-71657556D01*
X120347754Y-71658139D01*
X119907057Y-71658585D01*
X119459375Y-71658896D01*
X119006669Y-71659072D01*
X118550898Y-71659112D01*
X118094025Y-71659019D01*
X117638010Y-71658791D01*
X117184813Y-71658430D01*
X116736396Y-71657937D01*
X116294720Y-71657310D01*
X115861745Y-71656552D01*
X115439433Y-71655661D01*
X115029744Y-71654640D01*
X114634640Y-71653488D01*
X114256080Y-71652205D01*
X113896026Y-71650793D01*
X113556440Y-71649251D01*
X113239281Y-71647580D01*
X112946511Y-71645781D01*
X112680090Y-71643853D01*
X112441980Y-71641798D01*
X112234141Y-71639616D01*
X112058535Y-71637307D01*
X111917121Y-71634871D01*
X111811862Y-71632310D01*
X111744718Y-71629623D01*
X111717649Y-71626811D01*
X111717166Y-71626375D01*
X111728963Y-71608839D01*
X111738333Y-71611750D01*
X111758299Y-71607956D01*
X111761219Y-71597124D01*
X111767411Y-71516072D01*
X111774866Y-71468220D01*
X111785651Y-71444442D01*
X111797539Y-71436792D01*
X111813927Y-71417411D01*
X111811299Y-71408858D01*
X111813106Y-71390622D01*
X111818993Y-71389500D01*
X111835143Y-71372071D01*
X111837576Y-71352458D01*
X111842522Y-71298740D01*
X111856909Y-71248817D01*
X111875617Y-71216281D01*
X111890480Y-71212043D01*
X111904122Y-71205962D01*
X111904098Y-71183398D01*
X111911048Y-71132914D01*
X111924675Y-71108759D01*
X111949658Y-71060674D01*
X111958065Y-71026132D01*
X111959433Y-71019083D01*
X124628833Y-71019083D01*
X124639416Y-71029666D01*
X124650000Y-71019083D01*
X124639416Y-71008500D01*
X124628833Y-71019083D01*
X111959433Y-71019083D01*
X111967654Y-70976750D01*
X111971166Y-70976750D01*
X111981750Y-70987333D01*
X111992333Y-70976750D01*
X111981750Y-70966166D01*
X111971166Y-70976750D01*
X111967654Y-70976750D01*
X111968897Y-70970351D01*
X111991643Y-70904260D01*
X112019342Y-70839166D01*
X112038833Y-70784081D01*
X112046592Y-70746883D01*
X112061957Y-70705570D01*
X112075305Y-70692046D01*
X112096385Y-70660944D01*
X112106203Y-70621541D01*
X112120798Y-70566531D01*
X112138691Y-70534429D01*
X112154711Y-70498122D01*
X112151656Y-70480260D01*
X112153158Y-70460128D01*
X112161666Y-70458166D01*
X112175740Y-70445396D01*
X112172782Y-70437860D01*
X112171315Y-70404530D01*
X112180571Y-70379652D01*
X112210109Y-70310858D01*
X112228367Y-70251569D01*
X112245599Y-70224583D01*
X112259797Y-70208845D01*
X112277195Y-70170402D01*
X112274919Y-70150637D01*
X112277240Y-70123885D01*
X112288666Y-70119500D01*
X112305357Y-70104424D01*
X112303168Y-70090329D01*
X112306249Y-70051217D01*
X112315720Y-70037412D01*
X112328284Y-70017079D01*
X112323449Y-70013666D01*
X112321799Y-69999250D01*
X112338786Y-69968903D01*
X112358263Y-69922961D01*
X112357556Y-69891347D01*
X112356054Y-69869512D01*
X112367860Y-69872700D01*
X112386386Y-69864162D01*
X112402021Y-69818211D01*
X112405049Y-69802200D01*
X112418270Y-69746080D01*
X112433614Y-69710396D01*
X112437750Y-69706183D01*
X112447081Y-69679799D01*
X112442895Y-69660266D01*
X112440281Y-69636934D01*
X112454402Y-69641026D01*
X112474648Y-69638560D01*
X112479166Y-69613998D01*
X112489292Y-69572493D01*
X112501776Y-69557691D01*
X112516263Y-69528647D01*
X112514013Y-69516688D01*
X112515837Y-69480042D01*
X112521887Y-69471204D01*
X112538804Y-69438159D01*
X112550914Y-69392706D01*
X112567107Y-69338007D01*
X112585753Y-69303675D01*
X112600165Y-69268903D01*
X112597060Y-69254056D01*
X112599158Y-69226024D01*
X112605821Y-69220130D01*
X112623714Y-69190164D01*
X112627333Y-69164501D01*
X112636095Y-69135307D01*
X112652097Y-69137473D01*
X112668269Y-69138583D01*
X112664505Y-69120581D01*
X112666904Y-69082233D01*
X112689308Y-69031960D01*
X112692368Y-69027150D01*
X112717301Y-68972485D01*
X112720168Y-68926689D01*
X112720025Y-68926224D01*
X112717741Y-68899093D01*
X112728492Y-68899527D01*
X112749551Y-68893227D01*
X112760536Y-68870399D01*
X112762518Y-68841420D01*
X112754142Y-68839034D01*
X112748600Y-68829829D01*
X112758205Y-68793050D01*
X112760261Y-68787459D01*
X112781062Y-68747587D01*
X112799738Y-68735122D01*
X112800811Y-68735645D01*
X112817077Y-68729316D01*
X112819406Y-68718457D01*
X112829657Y-68643819D01*
X112848614Y-68589867D01*
X112863412Y-68572327D01*
X112875800Y-68544938D01*
X112871639Y-68533439D01*
X112870723Y-68500250D01*
X112881333Y-68500250D01*
X112891916Y-68510833D01*
X112902500Y-68500250D01*
X112891916Y-68489666D01*
X112881333Y-68500250D01*
X112870723Y-68500250D01*
X112870681Y-68498753D01*
X112882102Y-68478156D01*
X112895997Y-68453091D01*
X112891227Y-68447333D01*
X112890668Y-68434437D01*
X112909848Y-68408573D01*
X112931457Y-68374337D01*
X112930768Y-68355657D01*
X112933385Y-68342915D01*
X112943774Y-68341500D01*
X112962005Y-68325162D01*
X112959872Y-68299187D01*
X112958920Y-68259823D01*
X112967987Y-68245021D01*
X112983906Y-68216386D01*
X112987166Y-68190834D01*
X112995913Y-68161868D01*
X113010601Y-68162984D01*
X113025266Y-68161369D01*
X113020706Y-68135472D01*
X113023868Y-68086624D01*
X113039372Y-68066923D01*
X113061041Y-68037638D01*
X113060671Y-68023064D01*
X113064571Y-67997986D01*
X113070563Y-67993034D01*
X113082399Y-67965309D01*
X113079227Y-67949238D01*
X113080525Y-67922471D01*
X113090735Y-67918166D01*
X113108939Y-67900224D01*
X113114166Y-67869959D01*
X113115219Y-67865250D01*
X123464666Y-67865250D01*
X123475250Y-67875833D01*
X123485833Y-67865250D01*
X123475250Y-67854666D01*
X123464666Y-67865250D01*
X113115219Y-67865250D01*
X113126281Y-67815806D01*
X113148075Y-67773340D01*
X113168657Y-67734236D01*
X113169196Y-67712140D01*
X113171635Y-67688947D01*
X113190849Y-67661294D01*
X113218228Y-67610013D01*
X113225291Y-67570013D01*
X113234302Y-67526583D01*
X113241166Y-67526583D01*
X113251750Y-67537166D01*
X113262333Y-67526583D01*
X113251750Y-67516000D01*
X113241166Y-67526583D01*
X113234302Y-67526583D01*
X113235656Y-67520062D01*
X113253137Y-67493681D01*
X113271457Y-67458347D01*
X113269393Y-67440369D01*
X113270854Y-67414127D01*
X113280571Y-67410166D01*
X113294156Y-67394742D01*
X113291154Y-67378416D01*
X113292085Y-67351232D01*
X113302402Y-67346666D01*
X113320543Y-67328707D01*
X113325833Y-67297983D01*
X113336289Y-67248224D01*
X113351233Y-67223899D01*
X113363363Y-67202538D01*
X113356525Y-67198175D01*
X113352708Y-67189458D01*
X113364282Y-67180181D01*
X113392318Y-67146609D01*
X113396627Y-67132881D01*
X113411782Y-67087739D01*
X113418506Y-67075383D01*
X113427544Y-67044305D01*
X113424047Y-67035658D01*
X113424477Y-67010772D01*
X113441734Y-66966697D01*
X113443094Y-66964034D01*
X113465486Y-66906783D01*
X113474000Y-66859635D01*
X113481114Y-66829074D01*
X113492720Y-66826571D01*
X113507202Y-66814920D01*
X113525457Y-66774947D01*
X113543341Y-66719918D01*
X113556713Y-66663096D01*
X113561431Y-66617748D01*
X113560652Y-66609000D01*
X113568259Y-66591199D01*
X113578417Y-66594375D01*
X113596913Y-66589666D01*
X113601000Y-66568982D01*
X113614739Y-66519706D01*
X113627458Y-66501128D01*
X113642642Y-66481956D01*
X113625528Y-66488877D01*
X113622166Y-66490784D01*
X113604603Y-66496796D01*
X113611732Y-66477351D01*
X113626699Y-66453459D01*
X113657096Y-66393336D01*
X113673255Y-66341318D01*
X113688923Y-66288665D01*
X113705580Y-66258092D01*
X113718304Y-66228534D01*
X113714923Y-66218812D01*
X113717654Y-66195252D01*
X113740422Y-66152909D01*
X113748196Y-66141529D01*
X113774913Y-66094378D01*
X113782522Y-66059896D01*
X113781005Y-66055644D01*
X113781241Y-66035978D01*
X113787956Y-66034333D01*
X113807629Y-66015911D01*
X113825120Y-65971448D01*
X113835488Y-65917143D01*
X113835475Y-65878561D01*
X113839822Y-65851979D01*
X113850871Y-65851864D01*
X113871508Y-65845281D01*
X113882369Y-65822399D01*
X113884351Y-65793420D01*
X113875975Y-65791034D01*
X113870433Y-65781829D01*
X113880038Y-65745050D01*
X113882094Y-65739459D01*
X113903839Y-65700245D01*
X113924888Y-65689185D01*
X113926242Y-65689868D01*
X113937684Y-65685987D01*
X113933344Y-65667388D01*
X113931268Y-65638072D01*
X113940330Y-65632166D01*
X113957156Y-65614488D01*
X113960833Y-65591082D01*
X113970970Y-65550277D01*
X113982861Y-65536384D01*
X113994980Y-65508000D01*
X113991176Y-65479567D01*
X113986969Y-65449653D01*
X114002621Y-65451913D01*
X114021966Y-65450876D01*
X114023829Y-65428105D01*
X114026760Y-65376063D01*
X114041333Y-65326632D01*
X114061831Y-65296456D01*
X114070063Y-65293500D01*
X114085862Y-65277212D01*
X114085936Y-65267041D01*
X114087182Y-65220876D01*
X114098808Y-65170689D01*
X114115921Y-65131008D01*
X114133629Y-65116359D01*
X114136340Y-65117399D01*
X114149384Y-65115270D01*
X114144407Y-65094316D01*
X114146429Y-65048956D01*
X114161078Y-65026731D01*
X114181226Y-64987942D01*
X114179919Y-64964804D01*
X114180867Y-64937980D01*
X114190737Y-64933666D01*
X114204323Y-64918242D01*
X114201321Y-64901916D01*
X114202252Y-64874732D01*
X114212568Y-64870166D01*
X114233593Y-64853162D01*
X114236000Y-64839794D01*
X114243685Y-64798973D01*
X114260419Y-64749836D01*
X114275338Y-64711416D01*
X122300500Y-64711416D01*
X122311083Y-64722000D01*
X122321666Y-64711416D01*
X122311083Y-64700833D01*
X122300500Y-64711416D01*
X114275338Y-64711416D01*
X114279613Y-64700410D01*
X114290067Y-64669083D01*
X114301406Y-64635975D01*
X114321485Y-64585545D01*
X114321959Y-64584416D01*
X114339301Y-64531492D01*
X114343861Y-64492637D01*
X114343812Y-64492334D01*
X114351425Y-64474532D01*
X114361584Y-64477708D01*
X114382206Y-64473648D01*
X114386812Y-64458665D01*
X114392263Y-64408249D01*
X114400555Y-64383029D01*
X114409166Y-64372444D01*
X114415684Y-64342540D01*
X114412193Y-64328347D01*
X114414273Y-64302451D01*
X114424235Y-64298666D01*
X114443452Y-64281017D01*
X114447666Y-64257582D01*
X114456939Y-64217367D01*
X114467908Y-64203987D01*
X114479440Y-64176452D01*
X114476227Y-64160405D01*
X114478112Y-64133668D01*
X114488984Y-64129333D01*
X114503728Y-64116499D01*
X114500583Y-64108166D01*
X114499593Y-64088548D01*
X114505300Y-64087000D01*
X114520036Y-64068769D01*
X114527635Y-64032194D01*
X114541363Y-63971498D01*
X114562107Y-63921069D01*
X114632493Y-63768060D01*
X114670245Y-63634216D01*
X114671678Y-63625669D01*
X114684955Y-63572845D01*
X114701235Y-63549796D01*
X114707056Y-63550581D01*
X114720165Y-63547490D01*
X114717757Y-63534321D01*
X114722029Y-63497037D01*
X114741470Y-63464236D01*
X114758994Y-63438810D01*
X114747179Y-63440332D01*
X114729863Y-63446638D01*
X114735635Y-63427157D01*
X114746429Y-63406929D01*
X114768373Y-63364057D01*
X114777645Y-63340875D01*
X114786333Y-63314416D01*
X114796013Y-63286145D01*
X114796916Y-63282666D01*
X114806741Y-63247564D01*
X114807360Y-63245625D01*
X114810006Y-63213875D01*
X114823670Y-63198652D01*
X114829915Y-63198000D01*
X114841872Y-63184734D01*
X114837787Y-63174466D01*
X114835789Y-63144472D01*
X114841829Y-63137425D01*
X114863463Y-63113830D01*
X114884872Y-63080182D01*
X114899017Y-63049885D01*
X114898858Y-63036343D01*
X114893971Y-63038134D01*
X114880233Y-63036564D01*
X114884090Y-63019182D01*
X114905759Y-62990473D01*
X114917361Y-62986333D01*
X114931028Y-62971031D01*
X114929271Y-62960063D01*
X114934872Y-62924124D01*
X114946789Y-62907519D01*
X114963013Y-62867679D01*
X114961031Y-62835229D01*
X114957743Y-62803475D01*
X114975393Y-62805528D01*
X114975766Y-62805757D01*
X114993015Y-62808775D01*
X114988881Y-62779394D01*
X114987416Y-62774666D01*
X114981272Y-62741924D01*
X114996319Y-62741956D01*
X114999329Y-62743738D01*
X115017535Y-62747422D01*
X115013438Y-62726769D01*
X115016811Y-62686662D01*
X115031486Y-62667392D01*
X115052187Y-62625795D01*
X115049126Y-62599694D01*
X115045800Y-62570438D01*
X115059232Y-62572181D01*
X115078550Y-62568431D01*
X115082666Y-62547315D01*
X115096406Y-62498040D01*
X115109125Y-62479461D01*
X115121982Y-62461226D01*
X115111098Y-62464673D01*
X115094812Y-62462210D01*
X115097630Y-62436267D01*
X115114368Y-62407700D01*
X115128822Y-62406612D01*
X115144042Y-62402441D01*
X115144134Y-62390499D01*
X115145713Y-62345949D01*
X115158820Y-62295604D01*
X115177687Y-62256737D01*
X115192558Y-62245500D01*
X115206106Y-62230195D01*
X115204286Y-62219041D01*
X115208075Y-62184597D01*
X115228806Y-62133399D01*
X115234677Y-62122426D01*
X115256876Y-62071584D01*
X115261997Y-62034713D01*
X115260276Y-62030101D01*
X115262240Y-62001187D01*
X115271572Y-61992485D01*
X115291216Y-61962426D01*
X115304960Y-61910436D01*
X115305497Y-61906474D01*
X115319128Y-61853104D01*
X115340029Y-61819748D01*
X115341422Y-61818779D01*
X115356567Y-61803807D01*
X115351998Y-61801324D01*
X115349224Y-61785004D01*
X115364295Y-61745596D01*
X115367028Y-61740183D01*
X115384987Y-61694748D01*
X115385917Y-61666955D01*
X115385211Y-61666100D01*
X115388424Y-61654006D01*
X115397888Y-61652833D01*
X115414351Y-61641187D01*
X115411653Y-61633129D01*
X115413873Y-61605751D01*
X115419146Y-61601268D01*
X115434853Y-61574317D01*
X115439632Y-61557583D01*
X121136333Y-61557583D01*
X121146916Y-61568166D01*
X121157500Y-61557583D01*
X121146916Y-61547000D01*
X121136333Y-61557583D01*
X115439632Y-61557583D01*
X115449747Y-61522170D01*
X115453117Y-61504465D01*
X115466080Y-61454790D01*
X115481488Y-61431432D01*
X115486709Y-61431742D01*
X115504597Y-61425786D01*
X115508645Y-61410665D01*
X115514097Y-61360249D01*
X115522388Y-61335029D01*
X115530999Y-61324444D01*
X115537517Y-61294540D01*
X115534026Y-61280347D01*
X115536714Y-61254481D01*
X115547317Y-61250666D01*
X115563220Y-61239477D01*
X115560843Y-61232618D01*
X115563066Y-61203435D01*
X115578406Y-61175296D01*
X115597085Y-61133291D01*
X115596630Y-61108678D01*
X115600772Y-61084327D01*
X115610817Y-61081333D01*
X115625562Y-61068499D01*
X115622416Y-61060166D01*
X115624094Y-61040661D01*
X115631750Y-61039000D01*
X115649293Y-61021066D01*
X115654297Y-60991375D01*
X115664191Y-60938195D01*
X115686047Y-60883122D01*
X115708074Y-60835949D01*
X115717653Y-60805652D01*
X115717666Y-60805125D01*
X115725080Y-60774733D01*
X115742227Y-60728169D01*
X115758683Y-60677661D01*
X115762833Y-60643721D01*
X115774237Y-60610642D01*
X115780605Y-60605430D01*
X115797282Y-60576032D01*
X115802333Y-60539084D01*
X115809599Y-60501956D01*
X115827097Y-60501473D01*
X115842992Y-60502498D01*
X115838344Y-60481555D01*
X115835276Y-60452184D01*
X115843066Y-60446333D01*
X115865462Y-60429458D01*
X115873909Y-60413483D01*
X115875729Y-60391545D01*
X115860299Y-60396380D01*
X115846238Y-60400852D01*
X115861610Y-60378147D01*
X115886216Y-60331697D01*
X115899906Y-60284783D01*
X115916677Y-60229632D01*
X115935878Y-60195030D01*
X115954414Y-60148910D01*
X115954459Y-60125581D01*
X115957352Y-60093309D01*
X115966938Y-60086500D01*
X115988641Y-60069366D01*
X116010763Y-60032234D01*
X116022236Y-59997600D01*
X116014702Y-59990819D01*
X116014403Y-59991000D01*
X116002196Y-59987781D01*
X116005923Y-59971182D01*
X116027861Y-59942467D01*
X116039695Y-59938333D01*
X116052181Y-59922954D01*
X116049203Y-59907950D01*
X116050044Y-59877543D01*
X116058675Y-59870524D01*
X116080536Y-59846058D01*
X116084539Y-59832115D01*
X116098973Y-59786736D01*
X116104622Y-59776201D01*
X116110857Y-59737218D01*
X116105721Y-59714521D01*
X116101151Y-59689258D01*
X116119833Y-59694916D01*
X116139263Y-59699953D01*
X116135271Y-59678769D01*
X116138229Y-59637924D01*
X116150656Y-59621602D01*
X116168857Y-59583737D01*
X116167230Y-59553245D01*
X116164228Y-59522311D01*
X116182480Y-59525057D01*
X116182745Y-59525219D01*
X116201820Y-59529005D01*
X116199424Y-59512654D01*
X116203696Y-59475370D01*
X116223136Y-59442569D01*
X116240301Y-59417610D01*
X116232932Y-59416140D01*
X116216615Y-59414281D01*
X116219463Y-59388267D01*
X116237008Y-59360267D01*
X116252836Y-59359960D01*
X116266207Y-59358120D01*
X116261678Y-59338555D01*
X116259601Y-59309238D01*
X116268664Y-59303333D01*
X116285489Y-59285654D01*
X116289166Y-59262249D01*
X116299158Y-59221543D01*
X116310894Y-59207736D01*
X116328844Y-59177571D01*
X116328666Y-59169445D01*
X116333859Y-59133978D01*
X116351869Y-59082714D01*
X116352580Y-59081083D01*
X116370936Y-59025203D01*
X116375811Y-58980541D01*
X116382845Y-58949393D01*
X116394918Y-58943499D01*
X116408797Y-58930611D01*
X116405583Y-58922333D01*
X116406884Y-58902811D01*
X116414253Y-58901166D01*
X116427406Y-58885878D01*
X116424642Y-58871557D01*
X116427204Y-58837206D01*
X116436235Y-58827761D01*
X116449909Y-58802439D01*
X116447012Y-58793870D01*
X116450699Y-58775536D01*
X116458500Y-58774166D01*
X116472924Y-58761857D01*
X116470200Y-58754807D01*
X116472277Y-58731447D01*
X116477625Y-58728349D01*
X116493770Y-58704622D01*
X116507005Y-58656408D01*
X116507835Y-58651349D01*
X116521381Y-58595284D01*
X116539101Y-58556720D01*
X116539600Y-58556099D01*
X116557158Y-58519461D01*
X116573216Y-58462188D01*
X116575343Y-58451560D01*
X116589674Y-58403750D01*
X119972166Y-58403750D01*
X119982750Y-58414333D01*
X119993333Y-58403750D01*
X119982750Y-58393166D01*
X119972166Y-58403750D01*
X116589674Y-58403750D01*
X116590437Y-58401205D01*
X116608783Y-58384785D01*
X116612584Y-58386240D01*
X116626047Y-58384502D01*
X116621511Y-58364888D01*
X116619977Y-58335602D01*
X116629746Y-58329666D01*
X116642201Y-58316868D01*
X116639320Y-58309962D01*
X116642285Y-58282958D01*
X116650097Y-58276071D01*
X116664333Y-58246966D01*
X116661690Y-58232275D01*
X116664104Y-58206439D01*
X116674358Y-58202666D01*
X116687929Y-58193990D01*
X116684461Y-58188739D01*
X116683692Y-58163207D01*
X116693269Y-58147416D01*
X116712679Y-58106441D01*
X116722417Y-58061608D01*
X116734730Y-58016202D01*
X116752415Y-57995333D01*
X116772336Y-57970416D01*
X116776000Y-57948280D01*
X116783951Y-57900212D01*
X116800584Y-57849502D01*
X116817054Y-57802361D01*
X116821751Y-57774041D01*
X116834225Y-57758691D01*
X116839499Y-57758166D01*
X116855549Y-57740091D01*
X116860666Y-57706499D01*
X116868115Y-57661931D01*
X116880908Y-57642321D01*
X116892440Y-57614785D01*
X116889227Y-57598738D01*
X116890525Y-57571971D01*
X116900735Y-57567666D01*
X116919952Y-57550017D01*
X116924166Y-57526582D01*
X116934586Y-57485584D01*
X116946776Y-57471524D01*
X116960703Y-57442610D01*
X116958023Y-57427942D01*
X116958369Y-57402005D01*
X116966500Y-57398333D01*
X116977979Y-57382962D01*
X116974976Y-57368724D01*
X116976589Y-57345416D01*
X116987666Y-57345416D01*
X116998250Y-57356000D01*
X117008833Y-57345416D01*
X116998250Y-57334833D01*
X116987666Y-57345416D01*
X116976589Y-57345416D01*
X116977346Y-57334491D01*
X116986223Y-57325141D01*
X117005481Y-57294335D01*
X117008833Y-57271596D01*
X117023043Y-57222664D01*
X117036476Y-57204053D01*
X117061495Y-57171301D01*
X117078802Y-57136727D01*
X117083287Y-57113367D01*
X117072333Y-57112583D01*
X117060942Y-57110381D01*
X117067120Y-57085276D01*
X117085734Y-57050100D01*
X117109407Y-57019895D01*
X117128780Y-56982932D01*
X117127725Y-56963235D01*
X117130823Y-56943250D01*
X117135833Y-56943250D01*
X117146416Y-56953833D01*
X117157000Y-56943250D01*
X117146416Y-56932666D01*
X117135833Y-56943250D01*
X117130823Y-56943250D01*
X117133104Y-56928543D01*
X117148638Y-56909656D01*
X117169986Y-56875074D01*
X117169210Y-56855192D01*
X117171224Y-56830104D01*
X117180080Y-56826833D01*
X117192102Y-56813826D01*
X117188750Y-56805666D01*
X117191130Y-56786193D01*
X117199333Y-56784500D01*
X117213625Y-56771996D01*
X117210820Y-56764795D01*
X117212940Y-56737477D01*
X117218167Y-56733024D01*
X117228962Y-56705625D01*
X117225761Y-56675335D01*
X117222509Y-56643883D01*
X117240288Y-56646070D01*
X117241078Y-56646553D01*
X117260441Y-56650196D01*
X117258586Y-56634176D01*
X117263390Y-56595573D01*
X117275123Y-56578686D01*
X117291346Y-56538846D01*
X117289364Y-56506395D01*
X117285984Y-56474677D01*
X117303520Y-56476575D01*
X117304578Y-56477219D01*
X117323654Y-56481005D01*
X117321257Y-56464654D01*
X117325529Y-56427370D01*
X117344970Y-56394569D01*
X117363726Y-56368369D01*
X117351868Y-56370031D01*
X117349521Y-56371382D01*
X117330226Y-56378033D01*
X117338342Y-56359145D01*
X117358124Y-56313269D01*
X117361627Y-56298050D01*
X117378822Y-56265328D01*
X117388680Y-56259245D01*
X117407504Y-56234712D01*
X117411000Y-56212485D01*
X117421309Y-56172583D01*
X117432511Y-56159869D01*
X117444352Y-56133924D01*
X117441273Y-56125943D01*
X117442269Y-56094557D01*
X117454102Y-56074489D01*
X117467997Y-56049424D01*
X117463227Y-56043666D01*
X117463358Y-56030340D01*
X117486621Y-55998235D01*
X117487094Y-55997694D01*
X117507964Y-55969654D01*
X117498836Y-55968265D01*
X117495666Y-55970008D01*
X117475196Y-55979102D01*
X117485339Y-55961895D01*
X117490191Y-55955823D01*
X117505752Y-55923254D01*
X117502538Y-55909427D01*
X117505093Y-55896750D01*
X117514554Y-55895499D01*
X117530489Y-55883083D01*
X117527416Y-55874333D01*
X117530361Y-55854885D01*
X117539015Y-55853166D01*
X117554384Y-55837877D01*
X117551772Y-55822094D01*
X117552181Y-55787920D01*
X117560436Y-55778298D01*
X117572368Y-55753985D01*
X117569900Y-55747577D01*
X117573647Y-55720023D01*
X117588930Y-55699426D01*
X117613617Y-55657586D01*
X117629786Y-55601361D01*
X117645040Y-55543788D01*
X117665919Y-55502808D01*
X117680202Y-55477808D01*
X117676084Y-55472166D01*
X117676143Y-55456233D01*
X117694377Y-55416184D01*
X117705487Y-55396458D01*
X117730915Y-55345400D01*
X117740517Y-55309211D01*
X117739196Y-55303016D01*
X117743707Y-55281187D01*
X117749885Y-55278065D01*
X117766910Y-55254226D01*
X117768044Y-55249916D01*
X118808000Y-55249916D01*
X118818583Y-55260500D01*
X118829166Y-55249916D01*
X118818583Y-55239333D01*
X118808000Y-55249916D01*
X117768044Y-55249916D01*
X117779707Y-55205607D01*
X117780616Y-55199092D01*
X117792540Y-55144103D01*
X117809169Y-55107965D01*
X117810361Y-55106672D01*
X117821947Y-55071201D01*
X117818498Y-55053365D01*
X117816936Y-55031668D01*
X117830493Y-55035877D01*
X117846632Y-55036782D01*
X117843456Y-55020911D01*
X117847694Y-54983710D01*
X117866215Y-54956474D01*
X117888402Y-54922122D01*
X117888254Y-54902291D01*
X117891124Y-54875140D01*
X117898931Y-54868238D01*
X117912932Y-54839195D01*
X117910102Y-54823342D01*
X117909842Y-54803306D01*
X117919242Y-54805566D01*
X117936063Y-54798955D01*
X117944535Y-54764121D01*
X117942673Y-54726041D01*
X117956148Y-54710666D01*
X117961333Y-54710166D01*
X117977383Y-54692091D01*
X117982500Y-54658499D01*
X117989948Y-54613931D01*
X118002742Y-54594321D01*
X118014273Y-54566785D01*
X118011060Y-54550738D01*
X118010676Y-54523885D01*
X118019040Y-54519666D01*
X118038750Y-54502795D01*
X118040772Y-54493208D01*
X118050512Y-54430688D01*
X118067597Y-54379217D01*
X118086858Y-54354353D01*
X118086934Y-54354327D01*
X118097923Y-54332407D01*
X118094130Y-54313743D01*
X118091886Y-54290996D01*
X118105902Y-54295193D01*
X118124501Y-54291362D01*
X118130665Y-54248115D01*
X118130666Y-54247261D01*
X118139485Y-54192131D01*
X118158309Y-54156053D01*
X118183329Y-54123301D01*
X118200636Y-54088727D01*
X118205120Y-54065367D01*
X118194166Y-54064583D01*
X118183031Y-54062053D01*
X118189127Y-54036751D01*
X118207360Y-54001871D01*
X118229124Y-53974012D01*
X118246986Y-53937480D01*
X118245437Y-53919760D01*
X118250188Y-53895250D01*
X118257666Y-53895250D01*
X118268250Y-53905833D01*
X118278833Y-53895250D01*
X118268250Y-53884666D01*
X118257666Y-53895250D01*
X118250188Y-53895250D01*
X118251780Y-53887038D01*
X118278086Y-53853592D01*
X118308947Y-53831736D01*
X118323359Y-53841455D01*
X118323359Y-53841455D01*
G37*
X118323359Y-53841455D02*
X118324324Y-53886850D01*
X118321881Y-53913438D01*
X118327400Y-53940154D01*
X118340368Y-53938797D01*
X118354278Y-53940178D01*
X118350409Y-53957650D01*
X118351316Y-53985488D01*
X118362484Y-53990500D01*
X118377228Y-54003334D01*
X118374083Y-54011666D01*
X118374630Y-54031220D01*
X118381435Y-54032833D01*
X118392867Y-54049808D01*
X118389934Y-54078476D01*
X118386579Y-54109912D01*
X118404240Y-54107882D01*
X118405769Y-54106956D01*
X118423609Y-54101365D01*
X118418708Y-54113792D01*
X118416756Y-54148680D01*
X118430518Y-54185854D01*
X118448841Y-54228651D01*
X118451842Y-54252254D01*
X118458433Y-54281716D01*
X118479095Y-54320301D01*
X118503510Y-54368608D01*
X118511666Y-54402505D01*
X118523515Y-54431137D01*
X118534082Y-54435000D01*
X118546450Y-54448090D01*
X118542843Y-54457093D01*
X118542517Y-54490351D01*
X118551756Y-54506380D01*
X118575447Y-54555657D01*
X118591455Y-54629019D01*
X118594760Y-54663790D01*
X118607494Y-54681702D01*
X118616430Y-54679077D01*
X118632356Y-54689272D01*
X118647419Y-54729919D01*
X118650940Y-54746620D01*
X118665465Y-54805625D01*
X118682647Y-54847817D01*
X118685582Y-54852114D01*
X118696728Y-54886193D01*
X118693273Y-54897931D01*
X118696298Y-54921937D01*
X118703187Y-54925701D01*
X118726515Y-54950624D01*
X118730795Y-54964550D01*
X118744633Y-55006677D01*
X118763022Y-55045195D01*
X118779675Y-55092535D01*
X118779062Y-55123219D01*
X118783498Y-55158198D01*
X118809212Y-55204240D01*
X118811828Y-55207642D01*
X118842849Y-55262314D01*
X118855625Y-55314827D01*
X118861896Y-55353942D01*
X118873481Y-55366333D01*
X118882292Y-55382188D01*
X118877821Y-55401555D01*
X118875073Y-55425430D01*
X118886663Y-55422960D01*
X118908746Y-55428573D01*
X118920036Y-55451267D01*
X118921184Y-55480373D01*
X118908588Y-55479508D01*
X118895812Y-55478869D01*
X118899344Y-55487013D01*
X118915578Y-55519485D01*
X118938190Y-55570504D01*
X118958203Y-55619267D01*
X118966016Y-55641500D01*
X118989068Y-55711145D01*
X119013789Y-55759312D01*
X119025298Y-55771466D01*
X119039927Y-55789887D01*
X119049914Y-55828846D01*
X119057409Y-55897935D01*
X119059298Y-55923207D01*
X119071397Y-55949090D01*
X119086763Y-55946193D01*
X119102716Y-55945173D01*
X119098246Y-55965498D01*
X119100547Y-56007665D01*
X119114808Y-56029950D01*
X119133095Y-56060215D01*
X119130396Y-56074047D01*
X119131800Y-56095458D01*
X119141926Y-56104236D01*
X119162552Y-56135031D01*
X119175264Y-56185053D01*
X119192698Y-56250414D01*
X119217659Y-56299677D01*
X119244319Y-56358788D01*
X119252500Y-56408209D01*
X119259003Y-56450717D01*
X119273416Y-56466999D01*
X119289508Y-56485703D01*
X119304263Y-56532425D01*
X119307810Y-56551281D01*
X119321325Y-56603465D01*
X119338256Y-56623370D01*
X119343144Y-56622055D01*
X119356485Y-56626339D01*
X119353058Y-56654219D01*
X119350768Y-56684858D01*
X119360307Y-56688030D01*
X119373384Y-56697747D01*
X119379448Y-56737339D01*
X119379500Y-56742166D01*
X119384741Y-56783886D01*
X119397504Y-56796857D01*
X119398944Y-56796147D01*
X119414203Y-56806530D01*
X119430975Y-56842902D01*
X119443987Y-56889466D01*
X119447966Y-56930424D01*
X119446654Y-56939092D01*
X119456319Y-56965890D01*
X119475090Y-56988947D01*
X119497460Y-57037321D01*
X119494367Y-57064547D01*
X119490777Y-57094367D01*
X119503989Y-57092968D01*
X119518842Y-57093589D01*
X119515877Y-57108092D01*
X119520515Y-57144693D01*
X119535101Y-57162887D01*
X119555664Y-57203741D01*
X119553897Y-57233088D01*
X119550798Y-57263993D01*
X119568950Y-57261391D01*
X119569936Y-57260789D01*
X119587785Y-57255202D01*
X119582974Y-57267465D01*
X119582646Y-57300821D01*
X119600944Y-57341216D01*
X119620387Y-57381516D01*
X119620123Y-57404654D01*
X119620766Y-57429806D01*
X119641216Y-57471011D01*
X119666525Y-57520020D01*
X119675833Y-57556338D01*
X119687682Y-57584970D01*
X119698249Y-57588833D01*
X119710617Y-57601923D01*
X119707010Y-57610927D01*
X119706683Y-57644184D01*
X119715923Y-57660213D01*
X119739613Y-57709490D01*
X119755621Y-57782852D01*
X119758927Y-57817624D01*
X119771661Y-57835536D01*
X119780597Y-57832910D01*
X119796522Y-57843106D01*
X119811586Y-57883753D01*
X119815107Y-57900453D01*
X119829632Y-57959458D01*
X119846813Y-58001651D01*
X119849748Y-58005947D01*
X119860894Y-58040026D01*
X119857440Y-58051764D01*
X119860465Y-58075770D01*
X119867354Y-58079534D01*
X119890682Y-58104457D01*
X119894962Y-58118384D01*
X119908800Y-58160510D01*
X119927189Y-58199028D01*
X119943842Y-58246368D01*
X119943229Y-58277053D01*
X119947665Y-58312031D01*
X119973379Y-58358073D01*
X119975995Y-58361476D01*
X120007015Y-58416148D01*
X120019791Y-58468660D01*
X120026063Y-58507776D01*
X120037648Y-58520166D01*
X120046458Y-58536022D01*
X120041988Y-58555388D01*
X120039239Y-58579263D01*
X120050829Y-58576793D01*
X120072913Y-58582406D01*
X120084202Y-58605100D01*
X120085351Y-58634207D01*
X120072755Y-58633342D01*
X120059978Y-58632702D01*
X120063510Y-58640846D01*
X120079745Y-58673319D01*
X120102357Y-58724337D01*
X120122370Y-58773101D01*
X120130183Y-58795333D01*
X120153234Y-58864978D01*
X120177955Y-58913145D01*
X120189464Y-58925299D01*
X120204094Y-58943720D01*
X120214081Y-58982679D01*
X120221575Y-59051768D01*
X120223465Y-59077040D01*
X120235563Y-59102923D01*
X120250930Y-59100026D01*
X120266883Y-59099006D01*
X120262413Y-59119331D01*
X120264714Y-59161498D01*
X120278974Y-59183784D01*
X120297262Y-59214048D01*
X120294563Y-59227881D01*
X120295966Y-59249292D01*
X120306092Y-59258070D01*
X120326719Y-59288864D01*
X120339430Y-59338886D01*
X120356865Y-59404248D01*
X120381825Y-59453510D01*
X120408486Y-59512622D01*
X120416666Y-59562043D01*
X120423170Y-59604550D01*
X120437583Y-59620833D01*
X120453675Y-59639537D01*
X120468430Y-59686258D01*
X120471976Y-59705115D01*
X120485492Y-59757298D01*
X120502422Y-59777204D01*
X120507311Y-59775888D01*
X120520652Y-59780172D01*
X120517224Y-59808052D01*
X120514935Y-59838692D01*
X120524473Y-59841863D01*
X120537551Y-59851580D01*
X120543614Y-59891173D01*
X120543666Y-59895999D01*
X120548908Y-59937719D01*
X120561671Y-59950690D01*
X120563110Y-59949981D01*
X120578862Y-59959901D01*
X120595263Y-59996816D01*
X120607671Y-60045717D01*
X120611447Y-60091597D01*
X120610232Y-60102375D01*
X120617881Y-60126703D01*
X120625334Y-60128833D01*
X120645357Y-60146656D01*
X120666613Y-60189875D01*
X120667747Y-60193058D01*
X120679463Y-60236451D01*
X120671632Y-60245470D01*
X120667706Y-60243420D01*
X120656744Y-60244912D01*
X120668668Y-60273266D01*
X120694819Y-60312695D01*
X120711126Y-60328758D01*
X120721557Y-60355923D01*
X120718261Y-60386164D01*
X120714914Y-60417585D01*
X120732587Y-60415540D01*
X120734102Y-60414622D01*
X120751952Y-60409036D01*
X120747140Y-60421298D01*
X120746812Y-60454655D01*
X120765111Y-60495050D01*
X120784553Y-60535350D01*
X120784290Y-60558487D01*
X120784933Y-60583639D01*
X120805382Y-60624844D01*
X120830691Y-60673853D01*
X120840000Y-60710171D01*
X120851848Y-60738804D01*
X120862415Y-60742666D01*
X120874784Y-60755756D01*
X120871176Y-60764760D01*
X120870850Y-60798017D01*
X120880089Y-60814046D01*
X120903780Y-60863324D01*
X120919788Y-60936686D01*
X120923093Y-60971457D01*
X120935827Y-60989369D01*
X120944763Y-60986744D01*
X120960689Y-60996939D01*
X120975753Y-61037586D01*
X120979273Y-61054286D01*
X120993799Y-61113292D01*
X121010980Y-61155484D01*
X121013915Y-61159781D01*
X121025061Y-61193859D01*
X121021607Y-61205598D01*
X121024631Y-61229604D01*
X121031520Y-61233368D01*
X121054848Y-61258291D01*
X121059128Y-61272217D01*
X121072967Y-61314344D01*
X121091356Y-61352862D01*
X121108009Y-61400202D01*
X121107395Y-61430886D01*
X121111831Y-61465864D01*
X121137546Y-61511907D01*
X121140161Y-61515309D01*
X121171182Y-61569981D01*
X121183958Y-61622493D01*
X121190229Y-61661609D01*
X121201814Y-61674000D01*
X121210625Y-61689855D01*
X121206155Y-61709222D01*
X121203406Y-61733097D01*
X121214996Y-61730627D01*
X121237080Y-61736239D01*
X121248369Y-61758933D01*
X121249518Y-61788040D01*
X121236922Y-61787175D01*
X121224145Y-61786535D01*
X121227677Y-61794679D01*
X121243911Y-61827152D01*
X121266524Y-61878170D01*
X121286537Y-61926934D01*
X121294350Y-61949166D01*
X121317401Y-62018812D01*
X121342122Y-62066978D01*
X121353631Y-62079133D01*
X121368261Y-62097554D01*
X121378248Y-62136513D01*
X121385742Y-62205602D01*
X121387631Y-62230874D01*
X121399730Y-62256757D01*
X121415097Y-62253860D01*
X121431050Y-62252840D01*
X121426579Y-62273165D01*
X121428881Y-62315332D01*
X121443141Y-62337617D01*
X121461428Y-62367882D01*
X121458730Y-62381714D01*
X121460133Y-62403125D01*
X121470259Y-62411903D01*
X121490885Y-62442698D01*
X121503597Y-62492720D01*
X121521032Y-62558081D01*
X121545992Y-62607343D01*
X121572653Y-62666455D01*
X121580833Y-62715876D01*
X121587337Y-62758383D01*
X121601749Y-62774666D01*
X121617842Y-62793370D01*
X121632596Y-62840091D01*
X121636143Y-62858948D01*
X121649659Y-62911131D01*
X121666589Y-62931037D01*
X121671478Y-62929722D01*
X121684818Y-62934005D01*
X121681391Y-62961886D01*
X121679102Y-62992525D01*
X121688640Y-62995696D01*
X121701717Y-63005414D01*
X121707781Y-63045006D01*
X121707833Y-63049833D01*
X121713074Y-63091553D01*
X121725837Y-63104523D01*
X121727277Y-63103814D01*
X121743029Y-63113735D01*
X121759429Y-63150649D01*
X121771838Y-63199551D01*
X121775614Y-63245430D01*
X121774399Y-63256208D01*
X121782047Y-63280536D01*
X121789501Y-63282666D01*
X121809524Y-63300490D01*
X121830780Y-63343709D01*
X121831914Y-63346891D01*
X121842479Y-63388739D01*
X121835457Y-63399340D01*
X121833824Y-63398459D01*
X121826599Y-63405209D01*
X121837616Y-63439067D01*
X121838070Y-63440068D01*
X121860832Y-63479473D01*
X121878095Y-63494333D01*
X121895076Y-63511902D01*
X121904473Y-63536695D01*
X121905746Y-63566099D01*
X121892316Y-63564698D01*
X121887683Y-63571195D01*
X121903030Y-63604304D01*
X121915176Y-63624921D01*
X121940905Y-63674031D01*
X121949911Y-63707339D01*
X121948102Y-63712675D01*
X121948994Y-63737572D01*
X121969549Y-63778678D01*
X121994858Y-63827686D01*
X122004166Y-63864005D01*
X122016015Y-63892637D01*
X122026582Y-63896500D01*
X122038950Y-63909590D01*
X122035343Y-63918593D01*
X122035017Y-63951851D01*
X122044256Y-63967880D01*
X122067947Y-64017157D01*
X122083955Y-64090519D01*
X122087260Y-64125290D01*
X122099994Y-64143202D01*
X122108930Y-64140577D01*
X122124856Y-64150772D01*
X122139919Y-64191419D01*
X122143440Y-64208120D01*
X122157965Y-64267125D01*
X122175147Y-64309317D01*
X122178082Y-64313614D01*
X122189228Y-64347693D01*
X122185773Y-64359431D01*
X122188798Y-64383437D01*
X122195687Y-64387201D01*
X122219015Y-64412124D01*
X122223295Y-64426050D01*
X122237133Y-64468177D01*
X122255522Y-64506695D01*
X122272175Y-64554035D01*
X122271562Y-64584719D01*
X122275998Y-64619698D01*
X122301712Y-64665740D01*
X122304328Y-64669142D01*
X122335349Y-64723814D01*
X122348125Y-64776327D01*
X122354396Y-64815442D01*
X122365981Y-64827833D01*
X122374792Y-64843688D01*
X122370321Y-64863055D01*
X122367573Y-64886930D01*
X122379163Y-64884460D01*
X122401246Y-64890073D01*
X122412536Y-64912767D01*
X122413684Y-64941873D01*
X122401088Y-64941008D01*
X122388312Y-64940369D01*
X122391844Y-64948513D01*
X122408078Y-64980985D01*
X122430690Y-65032004D01*
X122450703Y-65080767D01*
X122458516Y-65103000D01*
X122481568Y-65172645D01*
X122506289Y-65220812D01*
X122517798Y-65232966D01*
X122532427Y-65251387D01*
X122542414Y-65290346D01*
X122549909Y-65359435D01*
X122551798Y-65384707D01*
X122563897Y-65410590D01*
X122579263Y-65407693D01*
X122595216Y-65406673D01*
X122590746Y-65426998D01*
X122593047Y-65469165D01*
X122607308Y-65491450D01*
X122625595Y-65521715D01*
X122622896Y-65535547D01*
X122624300Y-65556958D01*
X122634426Y-65565736D01*
X122655052Y-65596531D01*
X122667764Y-65646553D01*
X122685198Y-65711914D01*
X122710159Y-65761177D01*
X122736819Y-65820288D01*
X122745000Y-65869709D01*
X122751503Y-65912217D01*
X122765916Y-65928500D01*
X122782008Y-65947203D01*
X122796763Y-65993925D01*
X122800310Y-66012781D01*
X122813825Y-66064965D01*
X122830756Y-66084870D01*
X122835644Y-66083555D01*
X122848985Y-66087839D01*
X122845558Y-66115719D01*
X122843268Y-66146358D01*
X122852807Y-66149530D01*
X122865884Y-66159247D01*
X122871948Y-66198839D01*
X122872000Y-66203666D01*
X122877241Y-66245386D01*
X122890004Y-66258357D01*
X122891444Y-66257647D01*
X122907196Y-66267568D01*
X122923596Y-66304483D01*
X122936005Y-66353384D01*
X122939781Y-66399264D01*
X122938565Y-66410041D01*
X122946214Y-66434369D01*
X122953668Y-66436500D01*
X122973690Y-66454323D01*
X122994947Y-66497542D01*
X122996080Y-66500724D01*
X123006646Y-66542572D01*
X122999623Y-66553173D01*
X122997990Y-66552293D01*
X122990765Y-66559042D01*
X123001783Y-66592900D01*
X123002236Y-66593901D01*
X123024998Y-66633306D01*
X123042262Y-66648166D01*
X123059243Y-66665735D01*
X123068640Y-66690529D01*
X123069837Y-66719478D01*
X123058777Y-66719949D01*
X123054043Y-66727546D01*
X123067598Y-66762230D01*
X123075686Y-66778128D01*
X123099019Y-66828735D01*
X123108701Y-66863650D01*
X123108364Y-66867587D01*
X123115063Y-66897056D01*
X123135762Y-66935634D01*
X123160177Y-66983941D01*
X123168333Y-67017838D01*
X123180182Y-67046470D01*
X123190749Y-67050333D01*
X123203117Y-67063423D01*
X123199510Y-67072427D01*
X123199183Y-67105684D01*
X123208423Y-67121713D01*
X123232113Y-67170990D01*
X123248121Y-67244352D01*
X123251427Y-67279124D01*
X123264161Y-67297036D01*
X123273097Y-67294410D01*
X123289022Y-67304606D01*
X123304086Y-67345253D01*
X123307607Y-67361953D01*
X123322132Y-67420958D01*
X123339313Y-67463151D01*
X123342248Y-67467447D01*
X123353394Y-67501526D01*
X123349940Y-67513264D01*
X123352965Y-67537270D01*
X123359854Y-67541034D01*
X123383182Y-67565957D01*
X123387462Y-67579884D01*
X123401300Y-67622010D01*
X123419689Y-67660528D01*
X123436342Y-67707868D01*
X123435729Y-67738553D01*
X123440165Y-67773531D01*
X123465879Y-67819573D01*
X123468495Y-67822976D01*
X123499515Y-67877648D01*
X123512291Y-67930160D01*
X123518563Y-67969276D01*
X123530148Y-67981666D01*
X123538958Y-67997522D01*
X123534488Y-68016888D01*
X123531739Y-68040763D01*
X123543329Y-68038293D01*
X123565413Y-68043906D01*
X123576702Y-68066600D01*
X123577851Y-68095707D01*
X123565255Y-68094842D01*
X123552478Y-68094202D01*
X123556010Y-68102346D01*
X123572245Y-68134819D01*
X123594857Y-68185837D01*
X123614870Y-68234601D01*
X123622683Y-68256833D01*
X123645734Y-68326478D01*
X123670455Y-68374645D01*
X123681964Y-68386799D01*
X123696594Y-68405220D01*
X123706581Y-68444179D01*
X123714075Y-68513268D01*
X123715965Y-68538540D01*
X123728063Y-68564423D01*
X123743430Y-68561526D01*
X123759383Y-68560506D01*
X123754913Y-68580831D01*
X123757214Y-68622998D01*
X123771474Y-68645284D01*
X123789762Y-68675548D01*
X123787063Y-68689381D01*
X123788466Y-68710792D01*
X123798592Y-68719570D01*
X123819219Y-68750364D01*
X123831930Y-68800386D01*
X123849365Y-68865748D01*
X123874325Y-68915010D01*
X123900986Y-68974122D01*
X123909166Y-69023543D01*
X123915670Y-69066050D01*
X123930083Y-69082333D01*
X123946175Y-69101037D01*
X123960930Y-69147758D01*
X123964476Y-69166615D01*
X123977992Y-69218798D01*
X123994922Y-69238704D01*
X123999811Y-69237388D01*
X124013152Y-69241672D01*
X124009724Y-69269552D01*
X124007435Y-69300192D01*
X124016973Y-69303363D01*
X124030051Y-69313080D01*
X124036114Y-69352673D01*
X124036166Y-69357500D01*
X124041408Y-69399219D01*
X124054171Y-69412190D01*
X124055610Y-69411481D01*
X124071362Y-69421401D01*
X124087763Y-69458316D01*
X124100171Y-69507217D01*
X124103947Y-69553097D01*
X124102732Y-69563875D01*
X124110381Y-69588203D01*
X124117834Y-69590333D01*
X124137857Y-69608156D01*
X124159113Y-69651375D01*
X124160247Y-69654558D01*
X124170812Y-69696406D01*
X124163790Y-69707006D01*
X124162157Y-69706126D01*
X124154932Y-69712875D01*
X124165950Y-69746734D01*
X124166403Y-69747734D01*
X124189165Y-69787139D01*
X124206428Y-69802000D01*
X124223409Y-69819568D01*
X124232807Y-69844362D01*
X124234109Y-69873815D01*
X124220241Y-69872112D01*
X124215370Y-69878894D01*
X124229946Y-69912738D01*
X124243382Y-69936793D01*
X124272713Y-69995372D01*
X124288994Y-70045111D01*
X124290166Y-70055960D01*
X124300167Y-70095975D01*
X124311333Y-70108916D01*
X124329114Y-70138771D01*
X124332500Y-70163082D01*
X124342135Y-70196784D01*
X124354915Y-70204166D01*
X124367284Y-70217256D01*
X124363676Y-70226260D01*
X124363350Y-70259517D01*
X124372589Y-70275546D01*
X124396280Y-70324824D01*
X124412288Y-70398186D01*
X124415593Y-70432957D01*
X124428327Y-70450869D01*
X124437263Y-70448244D01*
X124453189Y-70458439D01*
X124468253Y-70499086D01*
X124471773Y-70515786D01*
X124486299Y-70574792D01*
X124503480Y-70616984D01*
X124506415Y-70621281D01*
X124517561Y-70655359D01*
X124514107Y-70667098D01*
X124517131Y-70691104D01*
X124524020Y-70694868D01*
X124547348Y-70719791D01*
X124551628Y-70733717D01*
X124565467Y-70775844D01*
X124583856Y-70814362D01*
X124600509Y-70861702D01*
X124599895Y-70892386D01*
X124604331Y-70927364D01*
X124630046Y-70973407D01*
X124632661Y-70976809D01*
X124663682Y-71031481D01*
X124676458Y-71083993D01*
X124682729Y-71123109D01*
X124694314Y-71135500D01*
X124703125Y-71151355D01*
X124698655Y-71170722D01*
X124695906Y-71194597D01*
X124707496Y-71192127D01*
X124729580Y-71197739D01*
X124740869Y-71220433D01*
X124742018Y-71249540D01*
X124729422Y-71248675D01*
X124716645Y-71248035D01*
X124720177Y-71256179D01*
X124737282Y-71289992D01*
X124758715Y-71338825D01*
X124777911Y-71385659D01*
X124789127Y-71416459D01*
X124800390Y-71454379D01*
X124807478Y-71479458D01*
X124824436Y-71521379D01*
X124840530Y-71537666D01*
X124862453Y-71555279D01*
X124874219Y-71594153D01*
X124870685Y-71629361D01*
X124848761Y-71632182D01*
X124786516Y-71634859D01*
X124685911Y-71637394D01*
X124548907Y-71639787D01*
X124377465Y-71642037D01*
X124173546Y-71644147D01*
X123939111Y-71646115D01*
X123676120Y-71647942D01*
X123386534Y-71649630D01*
X123072315Y-71651178D01*
X122735423Y-71652586D01*
X122377819Y-71653856D01*
X122001465Y-71654987D01*
X121608320Y-71655981D01*
X121200346Y-71656837D01*
X120779503Y-71657556D01*
X120347754Y-71658139D01*
X119907057Y-71658585D01*
X119459375Y-71658896D01*
X119006669Y-71659072D01*
X118550898Y-71659112D01*
X118094025Y-71659019D01*
X117638010Y-71658791D01*
X117184813Y-71658430D01*
X116736396Y-71657937D01*
X116294720Y-71657310D01*
X115861745Y-71656552D01*
X115439433Y-71655661D01*
X115029744Y-71654640D01*
X114634640Y-71653488D01*
X114256080Y-71652205D01*
X113896026Y-71650793D01*
X113556440Y-71649251D01*
X113239281Y-71647580D01*
X112946511Y-71645781D01*
X112680090Y-71643853D01*
X112441980Y-71641798D01*
X112234141Y-71639616D01*
X112058535Y-71637307D01*
X111917121Y-71634871D01*
X111811862Y-71632310D01*
X111744718Y-71629623D01*
X111717649Y-71626811D01*
X111717166Y-71626375D01*
X111728963Y-71608839D01*
X111738333Y-71611750D01*
X111758299Y-71607956D01*
X111761219Y-71597124D01*
X111767411Y-71516072D01*
X111774866Y-71468220D01*
X111785651Y-71444442D01*
X111797539Y-71436792D01*
X111813927Y-71417411D01*
X111811299Y-71408858D01*
X111813106Y-71390622D01*
X111818993Y-71389500D01*
X111835143Y-71372071D01*
X111837576Y-71352458D01*
X111842522Y-71298740D01*
X111856909Y-71248817D01*
X111875617Y-71216281D01*
X111890480Y-71212043D01*
X111904122Y-71205962D01*
X111904098Y-71183398D01*
X111911048Y-71132914D01*
X111924675Y-71108759D01*
X111949658Y-71060674D01*
X111958065Y-71026132D01*
X111959433Y-71019083D01*
X124628833Y-71019083D01*
X124639416Y-71029666D01*
X124650000Y-71019083D01*
X124639416Y-71008500D01*
X124628833Y-71019083D01*
X111959433Y-71019083D01*
X111967654Y-70976750D01*
X111971166Y-70976750D01*
X111981750Y-70987333D01*
X111992333Y-70976750D01*
X111981750Y-70966166D01*
X111971166Y-70976750D01*
X111967654Y-70976750D01*
X111968897Y-70970351D01*
X111991643Y-70904260D01*
X112019342Y-70839166D01*
X112038833Y-70784081D01*
X112046592Y-70746883D01*
X112061957Y-70705570D01*
X112075305Y-70692046D01*
X112096385Y-70660944D01*
X112106203Y-70621541D01*
X112120798Y-70566531D01*
X112138691Y-70534429D01*
X112154711Y-70498122D01*
X112151656Y-70480260D01*
X112153158Y-70460128D01*
X112161666Y-70458166D01*
X112175740Y-70445396D01*
X112172782Y-70437860D01*
X112171315Y-70404530D01*
X112180571Y-70379652D01*
X112210109Y-70310858D01*
X112228367Y-70251569D01*
X112245599Y-70224583D01*
X112259797Y-70208845D01*
X112277195Y-70170402D01*
X112274919Y-70150637D01*
X112277240Y-70123885D01*
X112288666Y-70119500D01*
X112305357Y-70104424D01*
X112303168Y-70090329D01*
X112306249Y-70051217D01*
X112315720Y-70037412D01*
X112328284Y-70017079D01*
X112323449Y-70013666D01*
X112321799Y-69999250D01*
X112338786Y-69968903D01*
X112358263Y-69922961D01*
X112357556Y-69891347D01*
X112356054Y-69869512D01*
X112367860Y-69872700D01*
X112386386Y-69864162D01*
X112402021Y-69818211D01*
X112405049Y-69802200D01*
X112418270Y-69746080D01*
X112433614Y-69710396D01*
X112437750Y-69706183D01*
X112447081Y-69679799D01*
X112442895Y-69660266D01*
X112440281Y-69636934D01*
X112454402Y-69641026D01*
X112474648Y-69638560D01*
X112479166Y-69613998D01*
X112489292Y-69572493D01*
X112501776Y-69557691D01*
X112516263Y-69528647D01*
X112514013Y-69516688D01*
X112515837Y-69480042D01*
X112521887Y-69471204D01*
X112538804Y-69438159D01*
X112550914Y-69392706D01*
X112567107Y-69338007D01*
X112585753Y-69303675D01*
X112600165Y-69268903D01*
X112597060Y-69254056D01*
X112599158Y-69226024D01*
X112605821Y-69220130D01*
X112623714Y-69190164D01*
X112627333Y-69164501D01*
X112636095Y-69135307D01*
X112652097Y-69137473D01*
X112668269Y-69138583D01*
X112664505Y-69120581D01*
X112666904Y-69082233D01*
X112689308Y-69031960D01*
X112692368Y-69027150D01*
X112717301Y-68972485D01*
X112720168Y-68926689D01*
X112720025Y-68926224D01*
X112717741Y-68899093D01*
X112728492Y-68899527D01*
X112749551Y-68893227D01*
X112760536Y-68870399D01*
X112762518Y-68841420D01*
X112754142Y-68839034D01*
X112748600Y-68829829D01*
X112758205Y-68793050D01*
X112760261Y-68787459D01*
X112781062Y-68747587D01*
X112799738Y-68735122D01*
X112800811Y-68735645D01*
X112817077Y-68729316D01*
X112819406Y-68718457D01*
X112829657Y-68643819D01*
X112848614Y-68589867D01*
X112863412Y-68572327D01*
X112875800Y-68544938D01*
X112871639Y-68533439D01*
X112870723Y-68500250D01*
X112881333Y-68500250D01*
X112891916Y-68510833D01*
X112902500Y-68500250D01*
X112891916Y-68489666D01*
X112881333Y-68500250D01*
X112870723Y-68500250D01*
X112870681Y-68498753D01*
X112882102Y-68478156D01*
X112895997Y-68453091D01*
X112891227Y-68447333D01*
X112890668Y-68434437D01*
X112909848Y-68408573D01*
X112931457Y-68374337D01*
X112930768Y-68355657D01*
X112933385Y-68342915D01*
X112943774Y-68341500D01*
X112962005Y-68325162D01*
X112959872Y-68299187D01*
X112958920Y-68259823D01*
X112967987Y-68245021D01*
X112983906Y-68216386D01*
X112987166Y-68190834D01*
X112995913Y-68161868D01*
X113010601Y-68162984D01*
X113025266Y-68161369D01*
X113020706Y-68135472D01*
X113023868Y-68086624D01*
X113039372Y-68066923D01*
X113061041Y-68037638D01*
X113060671Y-68023064D01*
X113064571Y-67997986D01*
X113070563Y-67993034D01*
X113082399Y-67965309D01*
X113079227Y-67949238D01*
X113080525Y-67922471D01*
X113090735Y-67918166D01*
X113108939Y-67900224D01*
X113114166Y-67869959D01*
X113115219Y-67865250D01*
X123464666Y-67865250D01*
X123475250Y-67875833D01*
X123485833Y-67865250D01*
X123475250Y-67854666D01*
X123464666Y-67865250D01*
X113115219Y-67865250D01*
X113126281Y-67815806D01*
X113148075Y-67773340D01*
X113168657Y-67734236D01*
X113169196Y-67712140D01*
X113171635Y-67688947D01*
X113190849Y-67661294D01*
X113218228Y-67610013D01*
X113225291Y-67570013D01*
X113234302Y-67526583D01*
X113241166Y-67526583D01*
X113251750Y-67537166D01*
X113262333Y-67526583D01*
X113251750Y-67516000D01*
X113241166Y-67526583D01*
X113234302Y-67526583D01*
X113235656Y-67520062D01*
X113253137Y-67493681D01*
X113271457Y-67458347D01*
X113269393Y-67440369D01*
X113270854Y-67414127D01*
X113280571Y-67410166D01*
X113294156Y-67394742D01*
X113291154Y-67378416D01*
X113292085Y-67351232D01*
X113302402Y-67346666D01*
X113320543Y-67328707D01*
X113325833Y-67297983D01*
X113336289Y-67248224D01*
X113351233Y-67223899D01*
X113363363Y-67202538D01*
X113356525Y-67198175D01*
X113352708Y-67189458D01*
X113364282Y-67180181D01*
X113392318Y-67146609D01*
X113396627Y-67132881D01*
X113411782Y-67087739D01*
X113418506Y-67075383D01*
X113427544Y-67044305D01*
X113424047Y-67035658D01*
X113424477Y-67010772D01*
X113441734Y-66966697D01*
X113443094Y-66964034D01*
X113465486Y-66906783D01*
X113474000Y-66859635D01*
X113481114Y-66829074D01*
X113492720Y-66826571D01*
X113507202Y-66814920D01*
X113525457Y-66774947D01*
X113543341Y-66719918D01*
X113556713Y-66663096D01*
X113561431Y-66617748D01*
X113560652Y-66609000D01*
X113568259Y-66591199D01*
X113578417Y-66594375D01*
X113596913Y-66589666D01*
X113601000Y-66568982D01*
X113614739Y-66519706D01*
X113627458Y-66501128D01*
X113642642Y-66481956D01*
X113625528Y-66488877D01*
X113622166Y-66490784D01*
X113604603Y-66496796D01*
X113611732Y-66477351D01*
X113626699Y-66453459D01*
X113657096Y-66393336D01*
X113673255Y-66341318D01*
X113688923Y-66288665D01*
X113705580Y-66258092D01*
X113718304Y-66228534D01*
X113714923Y-66218812D01*
X113717654Y-66195252D01*
X113740422Y-66152909D01*
X113748196Y-66141529D01*
X113774913Y-66094378D01*
X113782522Y-66059896D01*
X113781005Y-66055644D01*
X113781241Y-66035978D01*
X113787956Y-66034333D01*
X113807629Y-66015911D01*
X113825120Y-65971448D01*
X113835488Y-65917143D01*
X113835475Y-65878561D01*
X113839822Y-65851979D01*
X113850871Y-65851864D01*
X113871508Y-65845281D01*
X113882369Y-65822399D01*
X113884351Y-65793420D01*
X113875975Y-65791034D01*
X113870433Y-65781829D01*
X113880038Y-65745050D01*
X113882094Y-65739459D01*
X113903839Y-65700245D01*
X113924888Y-65689185D01*
X113926242Y-65689868D01*
X113937684Y-65685987D01*
X113933344Y-65667388D01*
X113931268Y-65638072D01*
X113940330Y-65632166D01*
X113957156Y-65614488D01*
X113960833Y-65591082D01*
X113970970Y-65550277D01*
X113982861Y-65536384D01*
X113994980Y-65508000D01*
X113991176Y-65479567D01*
X113986969Y-65449653D01*
X114002621Y-65451913D01*
X114021966Y-65450876D01*
X114023829Y-65428105D01*
X114026760Y-65376063D01*
X114041333Y-65326632D01*
X114061831Y-65296456D01*
X114070063Y-65293500D01*
X114085862Y-65277212D01*
X114085936Y-65267041D01*
X114087182Y-65220876D01*
X114098808Y-65170689D01*
X114115921Y-65131008D01*
X114133629Y-65116359D01*
X114136340Y-65117399D01*
X114149384Y-65115270D01*
X114144407Y-65094316D01*
X114146429Y-65048956D01*
X114161078Y-65026731D01*
X114181226Y-64987942D01*
X114179919Y-64964804D01*
X114180867Y-64937980D01*
X114190737Y-64933666D01*
X114204323Y-64918242D01*
X114201321Y-64901916D01*
X114202252Y-64874732D01*
X114212568Y-64870166D01*
X114233593Y-64853162D01*
X114236000Y-64839794D01*
X114243685Y-64798973D01*
X114260419Y-64749836D01*
X114275338Y-64711416D01*
X122300500Y-64711416D01*
X122311083Y-64722000D01*
X122321666Y-64711416D01*
X122311083Y-64700833D01*
X122300500Y-64711416D01*
X114275338Y-64711416D01*
X114279613Y-64700410D01*
X114290067Y-64669083D01*
X114301406Y-64635975D01*
X114321485Y-64585545D01*
X114321959Y-64584416D01*
X114339301Y-64531492D01*
X114343861Y-64492637D01*
X114343812Y-64492334D01*
X114351425Y-64474532D01*
X114361584Y-64477708D01*
X114382206Y-64473648D01*
X114386812Y-64458665D01*
X114392263Y-64408249D01*
X114400555Y-64383029D01*
X114409166Y-64372444D01*
X114415684Y-64342540D01*
X114412193Y-64328347D01*
X114414273Y-64302451D01*
X114424235Y-64298666D01*
X114443452Y-64281017D01*
X114447666Y-64257582D01*
X114456939Y-64217367D01*
X114467908Y-64203987D01*
X114479440Y-64176452D01*
X114476227Y-64160405D01*
X114478112Y-64133668D01*
X114488984Y-64129333D01*
X114503728Y-64116499D01*
X114500583Y-64108166D01*
X114499593Y-64088548D01*
X114505300Y-64087000D01*
X114520036Y-64068769D01*
X114527635Y-64032194D01*
X114541363Y-63971498D01*
X114562107Y-63921069D01*
X114632493Y-63768060D01*
X114670245Y-63634216D01*
X114671678Y-63625669D01*
X114684955Y-63572845D01*
X114701235Y-63549796D01*
X114707056Y-63550581D01*
X114720165Y-63547490D01*
X114717757Y-63534321D01*
X114722029Y-63497037D01*
X114741470Y-63464236D01*
X114758994Y-63438810D01*
X114747179Y-63440332D01*
X114729863Y-63446638D01*
X114735635Y-63427157D01*
X114746429Y-63406929D01*
X114768373Y-63364057D01*
X114777645Y-63340875D01*
X114786333Y-63314416D01*
X114796013Y-63286145D01*
X114796916Y-63282666D01*
X114806741Y-63247564D01*
X114807360Y-63245625D01*
X114810006Y-63213875D01*
X114823670Y-63198652D01*
X114829915Y-63198000D01*
X114841872Y-63184734D01*
X114837787Y-63174466D01*
X114835789Y-63144472D01*
X114841829Y-63137425D01*
X114863463Y-63113830D01*
X114884872Y-63080182D01*
X114899017Y-63049885D01*
X114898858Y-63036343D01*
X114893971Y-63038134D01*
X114880233Y-63036564D01*
X114884090Y-63019182D01*
X114905759Y-62990473D01*
X114917361Y-62986333D01*
X114931028Y-62971031D01*
X114929271Y-62960063D01*
X114934872Y-62924124D01*
X114946789Y-62907519D01*
X114963013Y-62867679D01*
X114961031Y-62835229D01*
X114957743Y-62803475D01*
X114975393Y-62805528D01*
X114975766Y-62805757D01*
X114993015Y-62808775D01*
X114988881Y-62779394D01*
X114987416Y-62774666D01*
X114981272Y-62741924D01*
X114996319Y-62741956D01*
X114999329Y-62743738D01*
X115017535Y-62747422D01*
X115013438Y-62726769D01*
X115016811Y-62686662D01*
X115031486Y-62667392D01*
X115052187Y-62625795D01*
X115049126Y-62599694D01*
X115045800Y-62570438D01*
X115059232Y-62572181D01*
X115078550Y-62568431D01*
X115082666Y-62547315D01*
X115096406Y-62498040D01*
X115109125Y-62479461D01*
X115121982Y-62461226D01*
X115111098Y-62464673D01*
X115094812Y-62462210D01*
X115097630Y-62436267D01*
X115114368Y-62407700D01*
X115128822Y-62406612D01*
X115144042Y-62402441D01*
X115144134Y-62390499D01*
X115145713Y-62345949D01*
X115158820Y-62295604D01*
X115177687Y-62256737D01*
X115192558Y-62245500D01*
X115206106Y-62230195D01*
X115204286Y-62219041D01*
X115208075Y-62184597D01*
X115228806Y-62133399D01*
X115234677Y-62122426D01*
X115256876Y-62071584D01*
X115261997Y-62034713D01*
X115260276Y-62030101D01*
X115262240Y-62001187D01*
X115271572Y-61992485D01*
X115291216Y-61962426D01*
X115304960Y-61910436D01*
X115305497Y-61906474D01*
X115319128Y-61853104D01*
X115340029Y-61819748D01*
X115341422Y-61818779D01*
X115356567Y-61803807D01*
X115351998Y-61801324D01*
X115349224Y-61785004D01*
X115364295Y-61745596D01*
X115367028Y-61740183D01*
X115384987Y-61694748D01*
X115385917Y-61666955D01*
X115385211Y-61666100D01*
X115388424Y-61654006D01*
X115397888Y-61652833D01*
X115414351Y-61641187D01*
X115411653Y-61633129D01*
X115413873Y-61605751D01*
X115419146Y-61601268D01*
X115434853Y-61574317D01*
X115439632Y-61557583D01*
X121136333Y-61557583D01*
X121146916Y-61568166D01*
X121157500Y-61557583D01*
X121146916Y-61547000D01*
X121136333Y-61557583D01*
X115439632Y-61557583D01*
X115449747Y-61522170D01*
X115453117Y-61504465D01*
X115466080Y-61454790D01*
X115481488Y-61431432D01*
X115486709Y-61431742D01*
X115504597Y-61425786D01*
X115508645Y-61410665D01*
X115514097Y-61360249D01*
X115522388Y-61335029D01*
X115530999Y-61324444D01*
X115537517Y-61294540D01*
X115534026Y-61280347D01*
X115536714Y-61254481D01*
X115547317Y-61250666D01*
X115563220Y-61239477D01*
X115560843Y-61232618D01*
X115563066Y-61203435D01*
X115578406Y-61175296D01*
X115597085Y-61133291D01*
X115596630Y-61108678D01*
X115600772Y-61084327D01*
X115610817Y-61081333D01*
X115625562Y-61068499D01*
X115622416Y-61060166D01*
X115624094Y-61040661D01*
X115631750Y-61039000D01*
X115649293Y-61021066D01*
X115654297Y-60991375D01*
X115664191Y-60938195D01*
X115686047Y-60883122D01*
X115708074Y-60835949D01*
X115717653Y-60805652D01*
X115717666Y-60805125D01*
X115725080Y-60774733D01*
X115742227Y-60728169D01*
X115758683Y-60677661D01*
X115762833Y-60643721D01*
X115774237Y-60610642D01*
X115780605Y-60605430D01*
X115797282Y-60576032D01*
X115802333Y-60539084D01*
X115809599Y-60501956D01*
X115827097Y-60501473D01*
X115842992Y-60502498D01*
X115838344Y-60481555D01*
X115835276Y-60452184D01*
X115843066Y-60446333D01*
X115865462Y-60429458D01*
X115873909Y-60413483D01*
X115875729Y-60391545D01*
X115860299Y-60396380D01*
X115846238Y-60400852D01*
X115861610Y-60378147D01*
X115886216Y-60331697D01*
X115899906Y-60284783D01*
X115916677Y-60229632D01*
X115935878Y-60195030D01*
X115954414Y-60148910D01*
X115954459Y-60125581D01*
X115957352Y-60093309D01*
X115966938Y-60086500D01*
X115988641Y-60069366D01*
X116010763Y-60032234D01*
X116022236Y-59997600D01*
X116014702Y-59990819D01*
X116014403Y-59991000D01*
X116002196Y-59987781D01*
X116005923Y-59971182D01*
X116027861Y-59942467D01*
X116039695Y-59938333D01*
X116052181Y-59922954D01*
X116049203Y-59907950D01*
X116050044Y-59877543D01*
X116058675Y-59870524D01*
X116080536Y-59846058D01*
X116084539Y-59832115D01*
X116098973Y-59786736D01*
X116104622Y-59776201D01*
X116110857Y-59737218D01*
X116105721Y-59714521D01*
X116101151Y-59689258D01*
X116119833Y-59694916D01*
X116139263Y-59699953D01*
X116135271Y-59678769D01*
X116138229Y-59637924D01*
X116150656Y-59621602D01*
X116168857Y-59583737D01*
X116167230Y-59553245D01*
X116164228Y-59522311D01*
X116182480Y-59525057D01*
X116182745Y-59525219D01*
X116201820Y-59529005D01*
X116199424Y-59512654D01*
X116203696Y-59475370D01*
X116223136Y-59442569D01*
X116240301Y-59417610D01*
X116232932Y-59416140D01*
X116216615Y-59414281D01*
X116219463Y-59388267D01*
X116237008Y-59360267D01*
X116252836Y-59359960D01*
X116266207Y-59358120D01*
X116261678Y-59338555D01*
X116259601Y-59309238D01*
X116268664Y-59303333D01*
X116285489Y-59285654D01*
X116289166Y-59262249D01*
X116299158Y-59221543D01*
X116310894Y-59207736D01*
X116328844Y-59177571D01*
X116328666Y-59169445D01*
X116333859Y-59133978D01*
X116351869Y-59082714D01*
X116352580Y-59081083D01*
X116370936Y-59025203D01*
X116375811Y-58980541D01*
X116382845Y-58949393D01*
X116394918Y-58943499D01*
X116408797Y-58930611D01*
X116405583Y-58922333D01*
X116406884Y-58902811D01*
X116414253Y-58901166D01*
X116427406Y-58885878D01*
X116424642Y-58871557D01*
X116427204Y-58837206D01*
X116436235Y-58827761D01*
X116449909Y-58802439D01*
X116447012Y-58793870D01*
X116450699Y-58775536D01*
X116458500Y-58774166D01*
X116472924Y-58761857D01*
X116470200Y-58754807D01*
X116472277Y-58731447D01*
X116477625Y-58728349D01*
X116493770Y-58704622D01*
X116507005Y-58656408D01*
X116507835Y-58651349D01*
X116521381Y-58595284D01*
X116539101Y-58556720D01*
X116539600Y-58556099D01*
X116557158Y-58519461D01*
X116573216Y-58462188D01*
X116575343Y-58451560D01*
X116589674Y-58403750D01*
X119972166Y-58403750D01*
X119982750Y-58414333D01*
X119993333Y-58403750D01*
X119982750Y-58393166D01*
X119972166Y-58403750D01*
X116589674Y-58403750D01*
X116590437Y-58401205D01*
X116608783Y-58384785D01*
X116612584Y-58386240D01*
X116626047Y-58384502D01*
X116621511Y-58364888D01*
X116619977Y-58335602D01*
X116629746Y-58329666D01*
X116642201Y-58316868D01*
X116639320Y-58309962D01*
X116642285Y-58282958D01*
X116650097Y-58276071D01*
X116664333Y-58246966D01*
X116661690Y-58232275D01*
X116664104Y-58206439D01*
X116674358Y-58202666D01*
X116687929Y-58193990D01*
X116684461Y-58188739D01*
X116683692Y-58163207D01*
X116693269Y-58147416D01*
X116712679Y-58106441D01*
X116722417Y-58061608D01*
X116734730Y-58016202D01*
X116752415Y-57995333D01*
X116772336Y-57970416D01*
X116776000Y-57948280D01*
X116783951Y-57900212D01*
X116800584Y-57849502D01*
X116817054Y-57802361D01*
X116821751Y-57774041D01*
X116834225Y-57758691D01*
X116839499Y-57758166D01*
X116855549Y-57740091D01*
X116860666Y-57706499D01*
X116868115Y-57661931D01*
X116880908Y-57642321D01*
X116892440Y-57614785D01*
X116889227Y-57598738D01*
X116890525Y-57571971D01*
X116900735Y-57567666D01*
X116919952Y-57550017D01*
X116924166Y-57526582D01*
X116934586Y-57485584D01*
X116946776Y-57471524D01*
X116960703Y-57442610D01*
X116958023Y-57427942D01*
X116958369Y-57402005D01*
X116966500Y-57398333D01*
X116977979Y-57382962D01*
X116974976Y-57368724D01*
X116976589Y-57345416D01*
X116987666Y-57345416D01*
X116998250Y-57356000D01*
X117008833Y-57345416D01*
X116998250Y-57334833D01*
X116987666Y-57345416D01*
X116976589Y-57345416D01*
X116977346Y-57334491D01*
X116986223Y-57325141D01*
X117005481Y-57294335D01*
X117008833Y-57271596D01*
X117023043Y-57222664D01*
X117036476Y-57204053D01*
X117061495Y-57171301D01*
X117078802Y-57136727D01*
X117083287Y-57113367D01*
X117072333Y-57112583D01*
X117060942Y-57110381D01*
X117067120Y-57085276D01*
X117085734Y-57050100D01*
X117109407Y-57019895D01*
X117128780Y-56982932D01*
X117127725Y-56963235D01*
X117130823Y-56943250D01*
X117135833Y-56943250D01*
X117146416Y-56953833D01*
X117157000Y-56943250D01*
X117146416Y-56932666D01*
X117135833Y-56943250D01*
X117130823Y-56943250D01*
X117133104Y-56928543D01*
X117148638Y-56909656D01*
X117169986Y-56875074D01*
X117169210Y-56855192D01*
X117171224Y-56830104D01*
X117180080Y-56826833D01*
X117192102Y-56813826D01*
X117188750Y-56805666D01*
X117191130Y-56786193D01*
X117199333Y-56784500D01*
X117213625Y-56771996D01*
X117210820Y-56764795D01*
X117212940Y-56737477D01*
X117218167Y-56733024D01*
X117228962Y-56705625D01*
X117225761Y-56675335D01*
X117222509Y-56643883D01*
X117240288Y-56646070D01*
X117241078Y-56646553D01*
X117260441Y-56650196D01*
X117258586Y-56634176D01*
X117263390Y-56595573D01*
X117275123Y-56578686D01*
X117291346Y-56538846D01*
X117289364Y-56506395D01*
X117285984Y-56474677D01*
X117303520Y-56476575D01*
X117304578Y-56477219D01*
X117323654Y-56481005D01*
X117321257Y-56464654D01*
X117325529Y-56427370D01*
X117344970Y-56394569D01*
X117363726Y-56368369D01*
X117351868Y-56370031D01*
X117349521Y-56371382D01*
X117330226Y-56378033D01*
X117338342Y-56359145D01*
X117358124Y-56313269D01*
X117361627Y-56298050D01*
X117378822Y-56265328D01*
X117388680Y-56259245D01*
X117407504Y-56234712D01*
X117411000Y-56212485D01*
X117421309Y-56172583D01*
X117432511Y-56159869D01*
X117444352Y-56133924D01*
X117441273Y-56125943D01*
X117442269Y-56094557D01*
X117454102Y-56074489D01*
X117467997Y-56049424D01*
X117463227Y-56043666D01*
X117463358Y-56030340D01*
X117486621Y-55998235D01*
X117487094Y-55997694D01*
X117507964Y-55969654D01*
X117498836Y-55968265D01*
X117495666Y-55970008D01*
X117475196Y-55979102D01*
X117485339Y-55961895D01*
X117490191Y-55955823D01*
X117505752Y-55923254D01*
X117502538Y-55909427D01*
X117505093Y-55896750D01*
X117514554Y-55895499D01*
X117530489Y-55883083D01*
X117527416Y-55874333D01*
X117530361Y-55854885D01*
X117539015Y-55853166D01*
X117554384Y-55837877D01*
X117551772Y-55822094D01*
X117552181Y-55787920D01*
X117560436Y-55778298D01*
X117572368Y-55753985D01*
X117569900Y-55747577D01*
X117573647Y-55720023D01*
X117588930Y-55699426D01*
X117613617Y-55657586D01*
X117629786Y-55601361D01*
X117645040Y-55543788D01*
X117665919Y-55502808D01*
X117680202Y-55477808D01*
X117676084Y-55472166D01*
X117676143Y-55456233D01*
X117694377Y-55416184D01*
X117705487Y-55396458D01*
X117730915Y-55345400D01*
X117740517Y-55309211D01*
X117739196Y-55303016D01*
X117743707Y-55281187D01*
X117749885Y-55278065D01*
X117766910Y-55254226D01*
X117768044Y-55249916D01*
X118808000Y-55249916D01*
X118818583Y-55260500D01*
X118829166Y-55249916D01*
X118818583Y-55239333D01*
X118808000Y-55249916D01*
X117768044Y-55249916D01*
X117779707Y-55205607D01*
X117780616Y-55199092D01*
X117792540Y-55144103D01*
X117809169Y-55107965D01*
X117810361Y-55106672D01*
X117821947Y-55071201D01*
X117818498Y-55053365D01*
X117816936Y-55031668D01*
X117830493Y-55035877D01*
X117846632Y-55036782D01*
X117843456Y-55020911D01*
X117847694Y-54983710D01*
X117866215Y-54956474D01*
X117888402Y-54922122D01*
X117888254Y-54902291D01*
X117891124Y-54875140D01*
X117898931Y-54868238D01*
X117912932Y-54839195D01*
X117910102Y-54823342D01*
X117909842Y-54803306D01*
X117919242Y-54805566D01*
X117936063Y-54798955D01*
X117944535Y-54764121D01*
X117942673Y-54726041D01*
X117956148Y-54710666D01*
X117961333Y-54710166D01*
X117977383Y-54692091D01*
X117982500Y-54658499D01*
X117989948Y-54613931D01*
X118002742Y-54594321D01*
X118014273Y-54566785D01*
X118011060Y-54550738D01*
X118010676Y-54523885D01*
X118019040Y-54519666D01*
X118038750Y-54502795D01*
X118040772Y-54493208D01*
X118050512Y-54430688D01*
X118067597Y-54379217D01*
X118086858Y-54354353D01*
X118086934Y-54354327D01*
X118097923Y-54332407D01*
X118094130Y-54313743D01*
X118091886Y-54290996D01*
X118105902Y-54295193D01*
X118124501Y-54291362D01*
X118130665Y-54248115D01*
X118130666Y-54247261D01*
X118139485Y-54192131D01*
X118158309Y-54156053D01*
X118183329Y-54123301D01*
X118200636Y-54088727D01*
X118205120Y-54065367D01*
X118194166Y-54064583D01*
X118183031Y-54062053D01*
X118189127Y-54036751D01*
X118207360Y-54001871D01*
X118229124Y-53974012D01*
X118246986Y-53937480D01*
X118245437Y-53919760D01*
X118250188Y-53895250D01*
X118257666Y-53895250D01*
X118268250Y-53905833D01*
X118278833Y-53895250D01*
X118268250Y-53884666D01*
X118257666Y-53895250D01*
X118250188Y-53895250D01*
X118251780Y-53887038D01*
X118278086Y-53853592D01*
X118308947Y-53831736D01*
X118323359Y-53841455D01*
G36*
X112500333Y-69537416D02*
X112489750Y-69548000D01*
X112479166Y-69537416D01*
X112489750Y-69526833D01*
X112500333Y-69537416D01*
X112500333Y-69537416D01*
G37*
X112500333Y-69537416D02*
X112489750Y-69548000D01*
X112479166Y-69537416D01*
X112489750Y-69526833D01*
X112500333Y-69537416D01*
G36*
X113770333Y-66087250D02*
X113759750Y-66097833D01*
X113749166Y-66087250D01*
X113759750Y-66076666D01*
X113770333Y-66087250D01*
X113770333Y-66087250D01*
G37*
X113770333Y-66087250D02*
X113759750Y-66097833D01*
X113749166Y-66087250D01*
X113759750Y-66076666D01*
X113770333Y-66087250D01*
G36*
X113982000Y-65515750D02*
X113971416Y-65526333D01*
X113960833Y-65515750D01*
X113971416Y-65505166D01*
X113982000Y-65515750D01*
X113982000Y-65515750D01*
G37*
X113982000Y-65515750D02*
X113971416Y-65526333D01*
X113960833Y-65515750D01*
X113971416Y-65505166D01*
X113982000Y-65515750D01*
G36*
X115252000Y-62065583D02*
X115241416Y-62076166D01*
X115230833Y-62065583D01*
X115241416Y-62055000D01*
X115252000Y-62065583D01*
X115252000Y-62065583D01*
G37*
X115252000Y-62065583D02*
X115241416Y-62076166D01*
X115230833Y-62065583D01*
X115241416Y-62055000D01*
X115252000Y-62065583D01*
G36*
X115950500Y-60160583D02*
X115939916Y-60171166D01*
X115929333Y-60160583D01*
X115939916Y-60150000D01*
X115950500Y-60160583D01*
X115950500Y-60160583D01*
G37*
X115950500Y-60160583D02*
X115939916Y-60171166D01*
X115929333Y-60160583D01*
X115939916Y-60150000D01*
X115950500Y-60160583D01*
G36*
X116373833Y-59017583D02*
X116363250Y-59028166D01*
X116352666Y-59017583D01*
X116363250Y-59007000D01*
X116373833Y-59017583D01*
X116373833Y-59017583D01*
G37*
X116373833Y-59017583D02*
X116363250Y-59028166D01*
X116352666Y-59017583D01*
X116363250Y-59007000D01*
X116373833Y-59017583D01*
G36*
X116945333Y-57451250D02*
X116934750Y-57461833D01*
X116924166Y-57451250D01*
X116934750Y-57440666D01*
X116945333Y-57451250D01*
X116945333Y-57451250D01*
G37*
X116945333Y-57451250D02*
X116934750Y-57461833D01*
X116924166Y-57451250D01*
X116934750Y-57440666D01*
X116945333Y-57451250D01*
D11*
G04 #@! TO.C,R2*
X134047572Y-75144325D02*
X134132982Y-75463081D01*
X134132982Y-75463081D02*
X127815827Y-77155757D01*
X127815827Y-77155757D02*
X127730417Y-76837002D01*
X133509228Y-73135199D02*
X133423818Y-72816444D01*
X133423818Y-72816444D02*
X127106663Y-74509120D01*
X127106663Y-74509120D02*
X127192073Y-74827876D01*
G04 #@! TO.C,D1*
X119378608Y-62042335D02*
G75*
G03X119535516Y-58810000I-1078608J1672335D01*
G01*
X117221392Y-62042335D02*
G75*
G02X117064484Y-58810000I1078608J1672335D01*
G01*
X119379837Y-61411130D02*
G75*
G03X119380000Y-59329039I-1079837J1041130D01*
G01*
X117220163Y-61411130D02*
G75*
G02X117220000Y-59329039I1079837J1041130D01*
G01*
X119536000Y-58810000D02*
X119380000Y-58810000D01*
X117220000Y-58810000D02*
X117064000Y-58810000D01*
G04 #@! TO.C,D2*
X138700594Y-72781743D02*
X138660218Y-72631058D01*
X139300019Y-75018827D02*
X139259643Y-74868142D01*
X136188138Y-73455121D02*
G75*
G02X138199241Y-72916080I1285136J-773579D01*
G01*
X136747101Y-75541208D02*
G75*
G03X138758290Y-75002480I726173J1312508D01*
G01*
X135578759Y-73619677D02*
G75*
G02X138660343Y-72631526I1894515J-609023D01*
G01*
X136137087Y-75703388D02*
G75*
G03X139299894Y-75018359I1336187J1474688D01*
G01*
G04 #@! TO.C,D3*
X128056762Y-96282146D02*
G75*
G03X130231419Y-98678703I1945212J-419828D01*
G01*
X129582146Y-94756762D02*
G75*
G02X131978703Y-96931419I419828J-1945212D01*
G01*
X128502224Y-96729345D02*
G75*
G03X129974370Y-98201720I1499750J27371D01*
G01*
X130029345Y-95202224D02*
G75*
G02X131501720Y-96674370I-27371J-1499750D01*
G01*
X130231077Y-98679045D02*
X130341386Y-98568736D01*
X131868736Y-97041386D02*
X131979045Y-96931077D01*
G04 #@! TO.C,D4*
X106062563Y-98764787D02*
X106172872Y-98875096D01*
X104424904Y-97127128D02*
X104535213Y-97237437D01*
X107901725Y-96925396D02*
G75*
G02X106429579Y-98397771I-1499750J27371D01*
G01*
X106374604Y-95398275D02*
G75*
G03X104902229Y-96870421I27371J-1499750D01*
G01*
X108347187Y-96478197D02*
G75*
G02X106172530Y-98874754I-1945212J-419828D01*
G01*
X106821803Y-94952813D02*
G75*
G03X104425246Y-97127470I-419828J-1945212D01*
G01*
G04 #@! TO.C,D5*
X100921241Y-73619677D02*
G75*
G03X97839657Y-72631526I-1894515J-609023D01*
G01*
X100362913Y-75703388D02*
G75*
G02X97200106Y-75018359I-1336187J1474688D01*
G01*
X100311862Y-73455121D02*
G75*
G03X98300759Y-72916080I-1285136J-773579D01*
G01*
X99752899Y-75541208D02*
G75*
G02X97741710Y-75002480I-726173J1312508D01*
G01*
X97839782Y-72631058D02*
X97799406Y-72781743D01*
X97240357Y-74868142D02*
X97199981Y-75018827D01*
G04 #@! TO.C,R1*
X119340000Y-65140000D02*
X119670000Y-65140000D01*
X119670000Y-65140000D02*
X119670000Y-71680000D01*
X119670000Y-71680000D02*
X119340000Y-71680000D01*
X117260000Y-65140000D02*
X116930000Y-65140000D01*
X116930000Y-65140000D02*
X116930000Y-71680000D01*
X116930000Y-71680000D02*
X117260000Y-71680000D01*
D12*
G04 #@! TO.C,U1*
X115450000Y-77645000D02*
X115450000Y-77850000D01*
X120950000Y-77645000D02*
X120950000Y-77945000D01*
X120950000Y-83155000D02*
X120950000Y-82855000D01*
X115450000Y-83155000D02*
X115450000Y-82855000D01*
X115450000Y-77645000D02*
X120950000Y-77645000D01*
X115450000Y-83155000D02*
X120950000Y-83155000D01*
X115450000Y-77850000D02*
X113700000Y-77850000D01*
D11*
G04 #@! TO.C,R3*
X121908368Y-90444977D02*
X121728637Y-90721738D01*
X127393274Y-94006915D02*
X121908368Y-90444977D01*
X127213542Y-94283678D02*
X127393274Y-94006915D01*
X120416057Y-92742933D02*
X120595788Y-92466173D01*
X125900962Y-96304874D02*
X120416057Y-92742933D01*
X126080694Y-96028111D02*
X125900962Y-96304874D01*
G04 #@! TO.C,R4*
X109386458Y-94283678D02*
X109206727Y-94006916D01*
X109206727Y-94006916D02*
X114691632Y-90444977D01*
X114691632Y-90444977D02*
X114871363Y-90721738D01*
X110519307Y-96028112D02*
X110699038Y-96304874D01*
X110699038Y-96304874D02*
X116183943Y-92742934D01*
X116183943Y-92742934D02*
X116004212Y-92466173D01*
G04 #@! TO.C,R5*
X109784173Y-78955757D02*
X109869583Y-78637002D01*
X103467018Y-77263081D02*
X109784173Y-78955757D01*
X103552428Y-76944325D02*
X103467018Y-77263081D01*
X110493337Y-76309120D02*
X110407927Y-76627876D01*
X104176182Y-74616444D02*
X110493337Y-76309120D01*
X104090772Y-74935199D02*
X104176182Y-74616444D01*
G04 #@! TO.C,R2*
D12*
X128956097Y-73580102D02*
X128510874Y-73206411D01*
X128404139Y-73727999D02*
X128145320Y-72762073D01*
X128513292Y-72663475D01*
X128617609Y-72684823D01*
X128675931Y-72718494D01*
X128746576Y-72798162D01*
X128783551Y-72936152D01*
X128762204Y-73040470D01*
X128728532Y-73098791D01*
X128648864Y-73169437D01*
X128280892Y-73268034D01*
X129089899Y-72607572D02*
X129123571Y-72549251D01*
X129203239Y-72478605D01*
X129433221Y-72416981D01*
X129537539Y-72438328D01*
X129595860Y-72472000D01*
X129666506Y-72551668D01*
X129691155Y-72643661D01*
X129682133Y-72793975D01*
X129278072Y-73493829D01*
X129876026Y-73333608D01*
G04 #@! TO.C,*
G04 #@! TO.C,D1*
X112961904Y-72852380D02*
X112961904Y-71852380D01*
X113200000Y-71852380D01*
X113342857Y-71900000D01*
X113438095Y-71995238D01*
X113485714Y-72090476D01*
X113533333Y-72280952D01*
X113533333Y-72423809D01*
X113485714Y-72614285D01*
X113438095Y-72709523D01*
X113342857Y-72804761D01*
X113200000Y-72852380D01*
X112961904Y-72852380D01*
X114485714Y-72852380D02*
X113914285Y-72852380D01*
X114200000Y-72852380D02*
X114200000Y-71852380D01*
X114104761Y-71995238D01*
X114009523Y-72090476D01*
X113914285Y-72138095D01*
G04 #@! TO.C,D2*
X140404139Y-73727999D02*
X140145320Y-72762073D01*
X140375302Y-72700450D01*
X140525616Y-72709472D01*
X140642259Y-72776815D01*
X140712905Y-72856484D01*
X140808200Y-73028145D01*
X140845174Y-73166134D01*
X140848477Y-73362445D01*
X140827130Y-73466762D01*
X140759786Y-73583405D01*
X140634121Y-73666375D01*
X140404139Y-73727999D01*
X141089899Y-72607572D02*
X141123571Y-72549251D01*
X141203239Y-72478605D01*
X141433221Y-72416981D01*
X141537539Y-72438328D01*
X141595860Y-72472000D01*
X141666506Y-72551668D01*
X141691155Y-72643661D01*
X141682133Y-72793975D01*
X141278072Y-73493829D01*
X141876026Y-73333608D01*
G04 #@! TO.C,D3*
X131258206Y-99397969D02*
X131965312Y-98690862D01*
X132133671Y-98859221D01*
X132201015Y-98993908D01*
X132201015Y-99128595D01*
X132167343Y-99229610D01*
X132066328Y-99397969D01*
X131965312Y-99498984D01*
X131796954Y-99600000D01*
X131695938Y-99633671D01*
X131561251Y-99633671D01*
X131426564Y-99566328D01*
X131258206Y-99397969D01*
X132605076Y-99330625D02*
X133042809Y-99768358D01*
X132537732Y-99802030D01*
X132638748Y-99903045D01*
X132672419Y-100004061D01*
X132672419Y-100071404D01*
X132638748Y-100172419D01*
X132470389Y-100340778D01*
X132369374Y-100374450D01*
X132302030Y-100374450D01*
X132201015Y-100340778D01*
X131998984Y-100138748D01*
X131965312Y-100037732D01*
X131965312Y-99970389D01*
G04 #@! TO.C,D4*
X104197969Y-100641793D02*
X103490862Y-99934687D01*
X103659221Y-99766328D01*
X103793908Y-99698984D01*
X103928595Y-99698984D01*
X104029610Y-99732656D01*
X104197969Y-99833671D01*
X104298984Y-99934687D01*
X104400000Y-100103045D01*
X104433671Y-100204061D01*
X104433671Y-100338748D01*
X104366328Y-100473435D01*
X104197969Y-100641793D01*
X104736717Y-99160236D02*
X105208122Y-99631641D01*
X104298984Y-99059221D02*
X104635702Y-99732656D01*
X105073435Y-99294923D01*
G04 #@! TO.C,D5*
X94869969Y-73445933D02*
X95128788Y-72480007D01*
X95358771Y-72541631D01*
X95484436Y-72624601D01*
X95551779Y-72741244D01*
X95573126Y-72845561D01*
X95569824Y-73041872D01*
X95532850Y-73179861D01*
X95437554Y-73351522D01*
X95366908Y-73431191D01*
X95250266Y-73498534D01*
X95099952Y-73507556D01*
X94869969Y-73445933D01*
X96554679Y-72862073D02*
X96094714Y-72738826D01*
X95925471Y-73186466D01*
X95983792Y-73152794D01*
X96088110Y-73131447D01*
X96318092Y-73193071D01*
X96397760Y-73263717D01*
X96431432Y-73322038D01*
X96452779Y-73426356D01*
X96391155Y-73656338D01*
X96320509Y-73736006D01*
X96262188Y-73769678D01*
X96157871Y-73791025D01*
X95927888Y-73729401D01*
X95848220Y-73658755D01*
X95814548Y-73600434D01*
G04 #@! TO.C,R1*
X121833333Y-72852380D02*
X121500000Y-72376190D01*
X121261904Y-72852380D02*
X121261904Y-71852380D01*
X121642857Y-71852380D01*
X121738095Y-71900000D01*
X121785714Y-71947619D01*
X121833333Y-72042857D01*
X121833333Y-72185714D01*
X121785714Y-72280952D01*
X121738095Y-72328571D01*
X121642857Y-72376190D01*
X121261904Y-72376190D01*
X122785714Y-72852380D02*
X122214285Y-72852380D01*
X122500000Y-72852380D02*
X122500000Y-71852380D01*
X122404761Y-71995238D01*
X122309523Y-72090476D01*
X122214285Y-72138095D01*
G04 #@! TO.C,U1*
X117438095Y-76172380D02*
X117438095Y-76981904D01*
X117485714Y-77077142D01*
X117533333Y-77124761D01*
X117628571Y-77172380D01*
X117819047Y-77172380D01*
X117914285Y-77124761D01*
X117961904Y-77077142D01*
X118009523Y-76981904D01*
X118009523Y-76172380D01*
X119009523Y-77172380D02*
X118438095Y-77172380D01*
X118723809Y-77172380D02*
X118723809Y-76172380D01*
X118628571Y-76315238D01*
X118533333Y-76410476D01*
X118438095Y-76458095D01*
G04 #@! TO.C,R3*
X125263837Y-92038625D02*
X125243632Y-91457712D01*
X124784596Y-91727403D02*
X125329235Y-90888732D01*
X125648729Y-91096214D01*
X125702667Y-91188021D01*
X125716669Y-91253893D01*
X125704735Y-91359701D01*
X125626929Y-91479511D01*
X125535122Y-91533449D01*
X125469250Y-91547451D01*
X125363442Y-91535517D01*
X125043948Y-91328036D01*
X126088033Y-91381501D02*
X126607210Y-91718658D01*
X126120171Y-91856605D01*
X126239981Y-91934411D01*
X126293920Y-92026218D01*
X126307921Y-92092090D01*
X126295987Y-92197899D01*
X126166311Y-92397582D01*
X126074504Y-92451520D01*
X126008632Y-92465522D01*
X125902824Y-92453588D01*
X125663204Y-92297977D01*
X125609265Y-92206170D01*
X125595264Y-92140298D01*
G04 #@! TO.C,R4*
X111511145Y-91857447D02*
X110972237Y-91639627D01*
X111031905Y-92168670D02*
X110487266Y-91329999D01*
X110806760Y-91122517D01*
X110912568Y-91110584D01*
X110978440Y-91124585D01*
X111070247Y-91178523D01*
X111148053Y-91298334D01*
X111159986Y-91404142D01*
X111145985Y-91470014D01*
X111092047Y-91561821D01*
X110772553Y-91769303D01*
X111866913Y-90831500D02*
X112230006Y-91390614D01*
X111459748Y-90641683D02*
X111649093Y-91370409D01*
X112168270Y-91033251D01*
G04 #@! TO.C,R5*
X107315506Y-74890685D02*
X107116778Y-74344448D01*
X106763548Y-74742789D02*
X107022367Y-73776863D01*
X107390339Y-73875461D01*
X107470007Y-73946107D01*
X107503679Y-74004428D01*
X107525026Y-74108745D01*
X107488052Y-74246735D01*
X107417406Y-74326403D01*
X107359085Y-74360075D01*
X107254767Y-74381422D01*
X106886796Y-74282824D01*
X108448258Y-74158929D02*
X107988293Y-74035682D01*
X107819050Y-74483322D01*
X107877371Y-74449650D01*
X107981689Y-74428303D01*
X108211671Y-74489927D01*
X108291339Y-74560573D01*
X108325011Y-74618894D01*
X108346358Y-74723212D01*
X108284734Y-74953194D01*
X108214088Y-75032862D01*
X108155767Y-75066534D01*
X108051450Y-75087881D01*
X107821467Y-75026257D01*
X107741799Y-74955611D01*
X107708127Y-74897290D01*
G04 #@! TD*
%LPC*%
D10*
G04 #@! TO.C,G\002A\002A\002A*
G36*
X111807266Y-71520024D02*
X111813039Y-71520300D01*
X111919495Y-71527083D01*
X109914546Y-77707750D01*
X109753602Y-78204080D01*
X109596153Y-78690001D01*
X109442694Y-79163971D01*
X109293721Y-79624447D01*
X109149729Y-80069888D01*
X109011214Y-80498750D01*
X108878673Y-80909493D01*
X108752599Y-81300572D01*
X108633490Y-81670446D01*
X108521840Y-82017573D01*
X108418145Y-82340411D01*
X108322902Y-82637416D01*
X108236604Y-82907048D01*
X108159749Y-83147762D01*
X108092831Y-83358018D01*
X108036347Y-83536273D01*
X107990792Y-83680984D01*
X107956661Y-83790610D01*
X107934450Y-83863607D01*
X107924655Y-83898435D01*
X107924257Y-83901326D01*
X107942361Y-83914645D01*
X107993415Y-83951866D01*
X108076103Y-84012035D01*
X108189110Y-84094197D01*
X108331118Y-84197395D01*
X108500813Y-84320675D01*
X108696877Y-84463081D01*
X108917996Y-84623658D01*
X109162853Y-84801450D01*
X109430132Y-84995502D01*
X109718517Y-85204859D01*
X110026693Y-85428565D01*
X110353342Y-85665664D01*
X110697150Y-85915203D01*
X111056800Y-86176224D01*
X111430976Y-86447772D01*
X111818362Y-86728893D01*
X112217642Y-87018631D01*
X112627501Y-87316031D01*
X113046621Y-87620136D01*
X113182958Y-87719056D01*
X113604657Y-88025074D01*
X114017427Y-88324717D01*
X114419957Y-88617031D01*
X114810935Y-88901060D01*
X115189050Y-89175847D01*
X115552989Y-89440437D01*
X115901442Y-89693874D01*
X116233096Y-89935202D01*
X116546639Y-90163466D01*
X116840761Y-90377708D01*
X117114149Y-90576975D01*
X117365491Y-90760309D01*
X117593477Y-90926756D01*
X117796794Y-91075358D01*
X117974131Y-91205161D01*
X118124176Y-91315208D01*
X118245617Y-91404544D01*
X118337143Y-91472213D01*
X118397442Y-91517258D01*
X118425202Y-91538725D01*
X118427000Y-91540465D01*
X118409591Y-91553228D01*
X118358114Y-91588767D01*
X118273692Y-91646331D01*
X118157448Y-91725164D01*
X118010503Y-91824513D01*
X117833981Y-91943624D01*
X117629005Y-92081744D01*
X117396698Y-92238119D01*
X117138182Y-92411995D01*
X116854580Y-92602618D01*
X116547015Y-92809235D01*
X116216610Y-93031092D01*
X115864487Y-93267436D01*
X115491770Y-93517512D01*
X115099581Y-93780567D01*
X114689042Y-94055847D01*
X114261278Y-94342599D01*
X113817410Y-94640068D01*
X113358561Y-94947502D01*
X112885854Y-95264146D01*
X112400413Y-95589246D01*
X111903359Y-95922050D01*
X111395815Y-96261803D01*
X110878905Y-96607751D01*
X110681667Y-96739735D01*
X110018760Y-97183358D01*
X109390406Y-97603958D01*
X108795932Y-98001989D01*
X108234664Y-98377906D01*
X107705930Y-98732161D01*
X107209055Y-99065210D01*
X106743367Y-99377506D01*
X106308191Y-99669504D01*
X105902855Y-99941657D01*
X105526685Y-100194421D01*
X105179008Y-100428248D01*
X104859149Y-100643593D01*
X104566437Y-100840911D01*
X104300197Y-101020654D01*
X104059755Y-101183278D01*
X103844440Y-101329237D01*
X103653576Y-101458984D01*
X103486491Y-101572974D01*
X103342511Y-101671661D01*
X103220962Y-101755499D01*
X103121172Y-101824942D01*
X103042467Y-101880444D01*
X102984174Y-101922459D01*
X102945619Y-101951442D01*
X102926128Y-101967846D01*
X102923326Y-101971457D01*
X102901029Y-102008978D01*
X102861446Y-102014093D01*
X102815234Y-102021649D01*
X102754178Y-102048188D01*
X102725075Y-102065594D01*
X102665326Y-102103909D01*
X102632381Y-102119887D01*
X102618390Y-102115501D01*
X102615500Y-102093127D01*
X102622728Y-102051034D01*
X102636048Y-102008709D01*
X102646041Y-101968197D01*
X102628099Y-101948809D01*
X102604298Y-101941536D01*
X102565029Y-101927042D01*
X102552017Y-101914830D01*
X102557701Y-101893757D01*
X102574509Y-101833239D01*
X102602073Y-101734576D01*
X102640029Y-101599068D01*
X102688010Y-101428015D01*
X102745651Y-101222716D01*
X102812585Y-100984471D01*
X102888448Y-100714580D01*
X102972872Y-100414343D01*
X103065493Y-100085060D01*
X103165944Y-99728030D01*
X103273860Y-99344553D01*
X103388874Y-98935929D01*
X103510621Y-98503458D01*
X103638736Y-98048440D01*
X103772852Y-97572173D01*
X103912603Y-97075959D01*
X104057623Y-96561097D01*
X104207548Y-96028887D01*
X104362010Y-95480628D01*
X104520645Y-94917621D01*
X104683086Y-94341164D01*
X104848967Y-93752559D01*
X105017923Y-93153104D01*
X105090721Y-92894833D01*
X105294657Y-92171307D01*
X105487402Y-91487408D01*
X105669265Y-90842021D01*
X105840556Y-90234031D01*
X106001582Y-89662323D01*
X106152652Y-89125781D01*
X106294075Y-88623291D01*
X106426159Y-88153738D01*
X106549214Y-87716007D01*
X106663548Y-87308983D01*
X106769469Y-86931551D01*
X106867286Y-86582597D01*
X106957308Y-86261004D01*
X107039844Y-85965659D01*
X107115201Y-85695445D01*
X107183690Y-85449249D01*
X107245618Y-85225955D01*
X107301294Y-85024449D01*
X107351027Y-84843615D01*
X107395126Y-84682338D01*
X107433899Y-84539503D01*
X107467654Y-84413996D01*
X107496701Y-84304702D01*
X107521348Y-84210505D01*
X107541903Y-84130291D01*
X107558676Y-84062944D01*
X107571976Y-84007350D01*
X107582110Y-83962394D01*
X107589387Y-83926960D01*
X107594116Y-83899935D01*
X107596606Y-83880202D01*
X107597166Y-83866646D01*
X107596103Y-83858154D01*
X107593728Y-83853610D01*
X107593662Y-83853545D01*
X107574783Y-83838238D01*
X107523699Y-83797599D01*
X107441478Y-83732472D01*
X107329190Y-83643697D01*
X107187903Y-83532116D01*
X107018685Y-83398572D01*
X106822604Y-83243904D01*
X106600730Y-83068956D01*
X106354130Y-82874569D01*
X106083874Y-82661585D01*
X105791029Y-82430844D01*
X105476664Y-82183190D01*
X105141848Y-81919463D01*
X104787650Y-81640505D01*
X104415137Y-81347158D01*
X104025378Y-81040264D01*
X103619442Y-80720664D01*
X103198398Y-80389200D01*
X102763313Y-80046714D01*
X102315256Y-79694046D01*
X101855296Y-79332040D01*
X101384501Y-78961537D01*
X100903939Y-78583377D01*
X100414680Y-78198404D01*
X100234250Y-78056440D01*
X99742365Y-77669424D01*
X99258898Y-77289029D01*
X98784914Y-76916089D01*
X98321474Y-76551443D01*
X97869642Y-76195926D01*
X97430481Y-75850375D01*
X97005054Y-75515626D01*
X96594425Y-75192517D01*
X96199656Y-74881884D01*
X95821811Y-74584563D01*
X95461953Y-74301392D01*
X95121144Y-74033206D01*
X94800449Y-73780843D01*
X94500930Y-73545138D01*
X94223651Y-73326929D01*
X93969674Y-73127053D01*
X93740062Y-72946345D01*
X93535880Y-72785643D01*
X93358189Y-72645782D01*
X93208054Y-72527601D01*
X93086537Y-72431934D01*
X92994702Y-72359620D01*
X92933611Y-72311494D01*
X92904328Y-72288393D01*
X92901763Y-72286352D01*
X92903708Y-72267735D01*
X92925384Y-72266155D01*
X92987950Y-72262973D01*
X93089997Y-72258246D01*
X93230116Y-72252032D01*
X93406895Y-72244388D01*
X93618926Y-72235372D01*
X93864799Y-72225040D01*
X94143102Y-72213451D01*
X94452428Y-72200661D01*
X94791365Y-72186729D01*
X95158504Y-72171711D01*
X95552434Y-72155665D01*
X95971747Y-72138648D01*
X96415032Y-72120718D01*
X96880879Y-72101931D01*
X97367879Y-72082347D01*
X97874620Y-72062020D01*
X98399695Y-72041011D01*
X98941692Y-72019374D01*
X99499201Y-71997169D01*
X100070814Y-71974452D01*
X100655119Y-71951281D01*
X101250707Y-71927713D01*
X101474445Y-71918872D01*
X102082393Y-71894858D01*
X102683360Y-71871117D01*
X103275748Y-71847711D01*
X103857961Y-71824705D01*
X104428401Y-71802162D01*
X104985473Y-71780143D01*
X105527579Y-71758714D01*
X106053122Y-71737936D01*
X106560507Y-71717873D01*
X107048137Y-71698589D01*
X107514414Y-71680146D01*
X107957742Y-71662607D01*
X108376524Y-71646036D01*
X108769164Y-71630496D01*
X109134064Y-71616049D01*
X109469629Y-71602760D01*
X109774262Y-71590692D01*
X110046365Y-71579907D01*
X110284343Y-71570468D01*
X110486597Y-71562439D01*
X110651533Y-71555884D01*
X110777552Y-71550864D01*
X110863059Y-71547444D01*
X110870500Y-71547145D01*
X111059108Y-71539837D01*
X111238287Y-71533422D01*
X111402737Y-71528050D01*
X111547160Y-71523874D01*
X111666255Y-71521043D01*
X111754723Y-71519710D01*
X111807266Y-71520024D01*
X111807266Y-71520024D01*
G37*
X111807266Y-71520024D02*
X111813039Y-71520300D01*
X111919495Y-71527083D01*
X109914546Y-77707750D01*
X109753602Y-78204080D01*
X109596153Y-78690001D01*
X109442694Y-79163971D01*
X109293721Y-79624447D01*
X109149729Y-80069888D01*
X109011214Y-80498750D01*
X108878673Y-80909493D01*
X108752599Y-81300572D01*
X108633490Y-81670446D01*
X108521840Y-82017573D01*
X108418145Y-82340411D01*
X108322902Y-82637416D01*
X108236604Y-82907048D01*
X108159749Y-83147762D01*
X108092831Y-83358018D01*
X108036347Y-83536273D01*
X107990792Y-83680984D01*
X107956661Y-83790610D01*
X107934450Y-83863607D01*
X107924655Y-83898435D01*
X107924257Y-83901326D01*
X107942361Y-83914645D01*
X107993415Y-83951866D01*
X108076103Y-84012035D01*
X108189110Y-84094197D01*
X108331118Y-84197395D01*
X108500813Y-84320675D01*
X108696877Y-84463081D01*
X108917996Y-84623658D01*
X109162853Y-84801450D01*
X109430132Y-84995502D01*
X109718517Y-85204859D01*
X110026693Y-85428565D01*
X110353342Y-85665664D01*
X110697150Y-85915203D01*
X111056800Y-86176224D01*
X111430976Y-86447772D01*
X111818362Y-86728893D01*
X112217642Y-87018631D01*
X112627501Y-87316031D01*
X113046621Y-87620136D01*
X113182958Y-87719056D01*
X113604657Y-88025074D01*
X114017427Y-88324717D01*
X114419957Y-88617031D01*
X114810935Y-88901060D01*
X115189050Y-89175847D01*
X115552989Y-89440437D01*
X115901442Y-89693874D01*
X116233096Y-89935202D01*
X116546639Y-90163466D01*
X116840761Y-90377708D01*
X117114149Y-90576975D01*
X117365491Y-90760309D01*
X117593477Y-90926756D01*
X117796794Y-91075358D01*
X117974131Y-91205161D01*
X118124176Y-91315208D01*
X118245617Y-91404544D01*
X118337143Y-91472213D01*
X118397442Y-91517258D01*
X118425202Y-91538725D01*
X118427000Y-91540465D01*
X118409591Y-91553228D01*
X118358114Y-91588767D01*
X118273692Y-91646331D01*
X118157448Y-91725164D01*
X118010503Y-91824513D01*
X117833981Y-91943624D01*
X117629005Y-92081744D01*
X117396698Y-92238119D01*
X117138182Y-92411995D01*
X116854580Y-92602618D01*
X116547015Y-92809235D01*
X116216610Y-93031092D01*
X115864487Y-93267436D01*
X115491770Y-93517512D01*
X115099581Y-93780567D01*
X114689042Y-94055847D01*
X114261278Y-94342599D01*
X113817410Y-94640068D01*
X113358561Y-94947502D01*
X112885854Y-95264146D01*
X112400413Y-95589246D01*
X111903359Y-95922050D01*
X111395815Y-96261803D01*
X110878905Y-96607751D01*
X110681667Y-96739735D01*
X110018760Y-97183358D01*
X109390406Y-97603958D01*
X108795932Y-98001989D01*
X108234664Y-98377906D01*
X107705930Y-98732161D01*
X107209055Y-99065210D01*
X106743367Y-99377506D01*
X106308191Y-99669504D01*
X105902855Y-99941657D01*
X105526685Y-100194421D01*
X105179008Y-100428248D01*
X104859149Y-100643593D01*
X104566437Y-100840911D01*
X104300197Y-101020654D01*
X104059755Y-101183278D01*
X103844440Y-101329237D01*
X103653576Y-101458984D01*
X103486491Y-101572974D01*
X103342511Y-101671661D01*
X103220962Y-101755499D01*
X103121172Y-101824942D01*
X103042467Y-101880444D01*
X102984174Y-101922459D01*
X102945619Y-101951442D01*
X102926128Y-101967846D01*
X102923326Y-101971457D01*
X102901029Y-102008978D01*
X102861446Y-102014093D01*
X102815234Y-102021649D01*
X102754178Y-102048188D01*
X102725075Y-102065594D01*
X102665326Y-102103909D01*
X102632381Y-102119887D01*
X102618390Y-102115501D01*
X102615500Y-102093127D01*
X102622728Y-102051034D01*
X102636048Y-102008709D01*
X102646041Y-101968197D01*
X102628099Y-101948809D01*
X102604298Y-101941536D01*
X102565029Y-101927042D01*
X102552017Y-101914830D01*
X102557701Y-101893757D01*
X102574509Y-101833239D01*
X102602073Y-101734576D01*
X102640029Y-101599068D01*
X102688010Y-101428015D01*
X102745651Y-101222716D01*
X102812585Y-100984471D01*
X102888448Y-100714580D01*
X102972872Y-100414343D01*
X103065493Y-100085060D01*
X103165944Y-99728030D01*
X103273860Y-99344553D01*
X103388874Y-98935929D01*
X103510621Y-98503458D01*
X103638736Y-98048440D01*
X103772852Y-97572173D01*
X103912603Y-97075959D01*
X104057623Y-96561097D01*
X104207548Y-96028887D01*
X104362010Y-95480628D01*
X104520645Y-94917621D01*
X104683086Y-94341164D01*
X104848967Y-93752559D01*
X105017923Y-93153104D01*
X105090721Y-92894833D01*
X105294657Y-92171307D01*
X105487402Y-91487408D01*
X105669265Y-90842021D01*
X105840556Y-90234031D01*
X106001582Y-89662323D01*
X106152652Y-89125781D01*
X106294075Y-88623291D01*
X106426159Y-88153738D01*
X106549214Y-87716007D01*
X106663548Y-87308983D01*
X106769469Y-86931551D01*
X106867286Y-86582597D01*
X106957308Y-86261004D01*
X107039844Y-85965659D01*
X107115201Y-85695445D01*
X107183690Y-85449249D01*
X107245618Y-85225955D01*
X107301294Y-85024449D01*
X107351027Y-84843615D01*
X107395126Y-84682338D01*
X107433899Y-84539503D01*
X107467654Y-84413996D01*
X107496701Y-84304702D01*
X107521348Y-84210505D01*
X107541903Y-84130291D01*
X107558676Y-84062944D01*
X107571976Y-84007350D01*
X107582110Y-83962394D01*
X107589387Y-83926960D01*
X107594116Y-83899935D01*
X107596606Y-83880202D01*
X107597166Y-83866646D01*
X107596103Y-83858154D01*
X107593728Y-83853610D01*
X107593662Y-83853545D01*
X107574783Y-83838238D01*
X107523699Y-83797599D01*
X107441478Y-83732472D01*
X107329190Y-83643697D01*
X107187903Y-83532116D01*
X107018685Y-83398572D01*
X106822604Y-83243904D01*
X106600730Y-83068956D01*
X106354130Y-82874569D01*
X106083874Y-82661585D01*
X105791029Y-82430844D01*
X105476664Y-82183190D01*
X105141848Y-81919463D01*
X104787650Y-81640505D01*
X104415137Y-81347158D01*
X104025378Y-81040264D01*
X103619442Y-80720664D01*
X103198398Y-80389200D01*
X102763313Y-80046714D01*
X102315256Y-79694046D01*
X101855296Y-79332040D01*
X101384501Y-78961537D01*
X100903939Y-78583377D01*
X100414680Y-78198404D01*
X100234250Y-78056440D01*
X99742365Y-77669424D01*
X99258898Y-77289029D01*
X98784914Y-76916089D01*
X98321474Y-76551443D01*
X97869642Y-76195926D01*
X97430481Y-75850375D01*
X97005054Y-75515626D01*
X96594425Y-75192517D01*
X96199656Y-74881884D01*
X95821811Y-74584563D01*
X95461953Y-74301392D01*
X95121144Y-74033206D01*
X94800449Y-73780843D01*
X94500930Y-73545138D01*
X94223651Y-73326929D01*
X93969674Y-73127053D01*
X93740062Y-72946345D01*
X93535880Y-72785643D01*
X93358189Y-72645782D01*
X93208054Y-72527601D01*
X93086537Y-72431934D01*
X92994702Y-72359620D01*
X92933611Y-72311494D01*
X92904328Y-72288393D01*
X92901763Y-72286352D01*
X92903708Y-72267735D01*
X92925384Y-72266155D01*
X92987950Y-72262973D01*
X93089997Y-72258246D01*
X93230116Y-72252032D01*
X93406895Y-72244388D01*
X93618926Y-72235372D01*
X93864799Y-72225040D01*
X94143102Y-72213451D01*
X94452428Y-72200661D01*
X94791365Y-72186729D01*
X95158504Y-72171711D01*
X95552434Y-72155665D01*
X95971747Y-72138648D01*
X96415032Y-72120718D01*
X96880879Y-72101931D01*
X97367879Y-72082347D01*
X97874620Y-72062020D01*
X98399695Y-72041011D01*
X98941692Y-72019374D01*
X99499201Y-71997169D01*
X100070814Y-71974452D01*
X100655119Y-71951281D01*
X101250707Y-71927713D01*
X101474445Y-71918872D01*
X102082393Y-71894858D01*
X102683360Y-71871117D01*
X103275748Y-71847711D01*
X103857961Y-71824705D01*
X104428401Y-71802162D01*
X104985473Y-71780143D01*
X105527579Y-71758714D01*
X106053122Y-71737936D01*
X106560507Y-71717873D01*
X107048137Y-71698589D01*
X107514414Y-71680146D01*
X107957742Y-71662607D01*
X108376524Y-71646036D01*
X108769164Y-71630496D01*
X109134064Y-71616049D01*
X109469629Y-71602760D01*
X109774262Y-71590692D01*
X110046365Y-71579907D01*
X110284343Y-71570468D01*
X110486597Y-71562439D01*
X110651533Y-71555884D01*
X110777552Y-71550864D01*
X110863059Y-71547444D01*
X110870500Y-71547145D01*
X111059108Y-71539837D01*
X111238287Y-71533422D01*
X111402737Y-71528050D01*
X111547160Y-71523874D01*
X111666255Y-71521043D01*
X111754723Y-71519710D01*
X111807266Y-71520024D01*
G04 #@! TD*
D13*
G04 #@! TO.C,R2*
X134300000Y-74000000D03*
X126939645Y-75972201D03*
D14*
X126939645Y-75972201D02*
X126939645Y-75972201D01*
G04 #@! TD*
D15*
G04 #@! TO.C,*
X131828237Y-73050887D03*
G04 #@! TD*
G04 #@! TO.C,*
X130193449Y-75352653D03*
G04 #@! TD*
G04 #@! TO.C,*
X134540922Y-76761367D03*
G04 #@! TD*
G04 #@! TO.C,*
X131945173Y-77646239D03*
G04 #@! TD*
D16*
G04 #@! TO.C,D1*
X118300000Y-59100000D03*
D17*
X118300000Y-61640000D03*
G04 #@! TD*
G04 #@! TO.C,D2*
X136246548Y-74557400D03*
X138700000Y-73900000D03*
D18*
G36*
X139477817Y-72552781D02*
X140047219Y-74677817D01*
X137922183Y-75247219D01*
X137352781Y-73122183D01*
X139477817Y-72552781D01*
X139477817Y-72552781D01*
G37*
G04 #@! TD*
D17*
G04 #@! TO.C,D3*
X130900000Y-97600000D03*
D18*
G36*
X132455635Y-97600000D02*
X130900000Y-99155635D01*
X129344365Y-97600000D01*
X130900000Y-96044365D01*
X132455635Y-97600000D01*
X132455635Y-97600000D01*
G37*
D17*
X129103949Y-95803949D03*
G04 #@! TD*
G04 #@! TO.C,D4*
X107300000Y-96000000D03*
X105503949Y-97796051D03*
D18*
G36*
X105503949Y-99351686D02*
X103948314Y-97796051D01*
X105503949Y-96240416D01*
X107059584Y-97796051D01*
X105503949Y-99351686D01*
X105503949Y-99351686D01*
G37*
G04 #@! TD*
D17*
G04 #@! TO.C,D5*
X97800000Y-73900000D03*
D18*
G36*
X96452781Y-74677817D02*
X97022183Y-72552781D01*
X99147219Y-73122183D01*
X98577817Y-75247219D01*
X96452781Y-74677817D01*
X96452781Y-74677817D01*
G37*
D17*
X100253452Y-74557400D03*
G04 #@! TD*
D13*
G04 #@! TO.C,R1*
X118300000Y-64600000D03*
D19*
X118300000Y-72220000D03*
G04 #@! TD*
D20*
G04 #@! TO.C,U1*
X114550000Y-78495000D03*
X114550000Y-79765000D03*
X114550000Y-81035000D03*
X114550000Y-82305000D03*
X121850000Y-82305000D03*
X121850000Y-81035000D03*
X121850000Y-79765000D03*
X121850000Y-78495000D03*
G04 #@! TD*
D13*
G04 #@! TO.C,R3*
X120709331Y-91299850D03*
D14*
X120709331Y-91299850D02*
X120709331Y-91299850D01*
D13*
X127100000Y-95450000D03*
G04 #@! TD*
G04 #@! TO.C,R4*
X109500000Y-95450000D03*
X115890670Y-91299851D03*
D14*
X115890670Y-91299851D02*
X115890670Y-91299851D01*
G04 #@! TD*
D13*
G04 #@! TO.C,R5*
X110660355Y-77772201D03*
D14*
X110660355Y-77772201D02*
X110660355Y-77772201D01*
D13*
X103300000Y-75800000D03*
G04 #@! TD*
M02*
