G04 #@! TF.GenerationSoftware,KiCad,Pcbnew,5.0.0-4.fc30*
G04 #@! TF.CreationDate,2018-09-24T02:25:55-07:00*
G04 #@! TF.ProjectId,star,737461722E6B696361645F7063620000,rev?*
G04 #@! TF.SameCoordinates,Original*
G04 #@! TF.FileFunction,Soldermask,Top*
G04 #@! TF.FilePolarity,Negative*
%FSLAX46Y46*%
G04 Gerber Fmt 4.6, Leading zero omitted, Abs format (unit mm)*
G04 Created by KiCad (PCBNEW 5.0.0-4.fc30) date Mon Sep 24 02:25:55 2018*
%MOMM*%
%LPD*%
G01*
G04 APERTURE LIST*
%ADD10C,0.010000*%
%ADD11C,2.000000*%
%ADD12C,2.000000*%
%ADD13C,1.670000*%
%ADD14R,2.200000X2.200000*%
%ADD15C,2.200000*%
%ADD16C,0.100000*%
%ADD17O,2.000000X2.000000*%
%ADD18R,2.100000X1.050000*%
G04 APERTURE END LIST*
D10*
G04 #@! TO.C,G\002A\002A\002A*
G36*
X111807266Y-71520024D02*
X111813039Y-71520300D01*
X111919495Y-71527083D01*
X109914546Y-77707750D01*
X109753602Y-78204080D01*
X109596153Y-78690001D01*
X109442694Y-79163971D01*
X109293721Y-79624447D01*
X109149729Y-80069888D01*
X109011214Y-80498750D01*
X108878673Y-80909493D01*
X108752599Y-81300572D01*
X108633490Y-81670446D01*
X108521840Y-82017573D01*
X108418145Y-82340411D01*
X108322902Y-82637416D01*
X108236604Y-82907048D01*
X108159749Y-83147762D01*
X108092831Y-83358018D01*
X108036347Y-83536273D01*
X107990792Y-83680984D01*
X107956661Y-83790610D01*
X107934450Y-83863607D01*
X107924655Y-83898435D01*
X107924257Y-83901326D01*
X107942361Y-83914645D01*
X107993415Y-83951866D01*
X108076103Y-84012035D01*
X108189110Y-84094197D01*
X108331118Y-84197395D01*
X108500813Y-84320675D01*
X108696877Y-84463081D01*
X108917996Y-84623658D01*
X109162853Y-84801450D01*
X109430132Y-84995502D01*
X109718517Y-85204859D01*
X110026693Y-85428565D01*
X110353342Y-85665664D01*
X110697150Y-85915203D01*
X111056800Y-86176224D01*
X111430976Y-86447772D01*
X111818362Y-86728893D01*
X112217642Y-87018631D01*
X112627501Y-87316031D01*
X113046621Y-87620136D01*
X113182958Y-87719056D01*
X113604657Y-88025074D01*
X114017427Y-88324717D01*
X114419957Y-88617031D01*
X114810935Y-88901060D01*
X115189050Y-89175847D01*
X115552989Y-89440437D01*
X115901442Y-89693874D01*
X116233096Y-89935202D01*
X116546639Y-90163466D01*
X116840761Y-90377708D01*
X117114149Y-90576975D01*
X117365491Y-90760309D01*
X117593477Y-90926756D01*
X117796794Y-91075358D01*
X117974131Y-91205161D01*
X118124176Y-91315208D01*
X118245617Y-91404544D01*
X118337143Y-91472213D01*
X118397442Y-91517258D01*
X118425202Y-91538725D01*
X118427000Y-91540465D01*
X118409591Y-91553228D01*
X118358114Y-91588767D01*
X118273692Y-91646331D01*
X118157448Y-91725164D01*
X118010503Y-91824513D01*
X117833981Y-91943624D01*
X117629005Y-92081744D01*
X117396698Y-92238119D01*
X117138182Y-92411995D01*
X116854580Y-92602618D01*
X116547015Y-92809235D01*
X116216610Y-93031092D01*
X115864487Y-93267436D01*
X115491770Y-93517512D01*
X115099581Y-93780567D01*
X114689042Y-94055847D01*
X114261278Y-94342599D01*
X113817410Y-94640068D01*
X113358561Y-94947502D01*
X112885854Y-95264146D01*
X112400413Y-95589246D01*
X111903359Y-95922050D01*
X111395815Y-96261803D01*
X110878905Y-96607751D01*
X110681667Y-96739735D01*
X110018760Y-97183358D01*
X109390406Y-97603958D01*
X108795932Y-98001989D01*
X108234664Y-98377906D01*
X107705930Y-98732161D01*
X107209055Y-99065210D01*
X106743367Y-99377506D01*
X106308191Y-99669504D01*
X105902855Y-99941657D01*
X105526685Y-100194421D01*
X105179008Y-100428248D01*
X104859149Y-100643593D01*
X104566437Y-100840911D01*
X104300197Y-101020654D01*
X104059755Y-101183278D01*
X103844440Y-101329237D01*
X103653576Y-101458984D01*
X103486491Y-101572974D01*
X103342511Y-101671661D01*
X103220962Y-101755499D01*
X103121172Y-101824942D01*
X103042467Y-101880444D01*
X102984174Y-101922459D01*
X102945619Y-101951442D01*
X102926128Y-101967846D01*
X102923326Y-101971457D01*
X102901029Y-102008978D01*
X102861446Y-102014093D01*
X102815234Y-102021649D01*
X102754178Y-102048188D01*
X102725075Y-102065594D01*
X102665326Y-102103909D01*
X102632381Y-102119887D01*
X102618390Y-102115501D01*
X102615500Y-102093127D01*
X102622728Y-102051034D01*
X102636048Y-102008709D01*
X102646041Y-101968197D01*
X102628099Y-101948809D01*
X102604298Y-101941536D01*
X102565029Y-101927042D01*
X102552017Y-101914830D01*
X102557701Y-101893757D01*
X102574509Y-101833239D01*
X102602073Y-101734576D01*
X102640029Y-101599068D01*
X102688010Y-101428015D01*
X102745651Y-101222716D01*
X102812585Y-100984471D01*
X102888448Y-100714580D01*
X102972872Y-100414343D01*
X103065493Y-100085060D01*
X103165944Y-99728030D01*
X103273860Y-99344553D01*
X103388874Y-98935929D01*
X103510621Y-98503458D01*
X103638736Y-98048440D01*
X103772852Y-97572173D01*
X103912603Y-97075959D01*
X104057623Y-96561097D01*
X104207548Y-96028887D01*
X104362010Y-95480628D01*
X104520645Y-94917621D01*
X104683086Y-94341164D01*
X104848967Y-93752559D01*
X105017923Y-93153104D01*
X105090721Y-92894833D01*
X105294657Y-92171307D01*
X105487402Y-91487408D01*
X105669265Y-90842021D01*
X105840556Y-90234031D01*
X106001582Y-89662323D01*
X106152652Y-89125781D01*
X106294075Y-88623291D01*
X106426159Y-88153738D01*
X106549214Y-87716007D01*
X106663548Y-87308983D01*
X106769469Y-86931551D01*
X106867286Y-86582597D01*
X106957308Y-86261004D01*
X107039844Y-85965659D01*
X107115201Y-85695445D01*
X107183690Y-85449249D01*
X107245618Y-85225955D01*
X107301294Y-85024449D01*
X107351027Y-84843615D01*
X107395126Y-84682338D01*
X107433899Y-84539503D01*
X107467654Y-84413996D01*
X107496701Y-84304702D01*
X107521348Y-84210505D01*
X107541903Y-84130291D01*
X107558676Y-84062944D01*
X107571976Y-84007350D01*
X107582110Y-83962394D01*
X107589387Y-83926960D01*
X107594116Y-83899935D01*
X107596606Y-83880202D01*
X107597166Y-83866646D01*
X107596103Y-83858154D01*
X107593728Y-83853610D01*
X107593662Y-83853545D01*
X107574783Y-83838238D01*
X107523699Y-83797599D01*
X107441478Y-83732472D01*
X107329190Y-83643697D01*
X107187903Y-83532116D01*
X107018685Y-83398572D01*
X106822604Y-83243904D01*
X106600730Y-83068956D01*
X106354130Y-82874569D01*
X106083874Y-82661585D01*
X105791029Y-82430844D01*
X105476664Y-82183190D01*
X105141848Y-81919463D01*
X104787650Y-81640505D01*
X104415137Y-81347158D01*
X104025378Y-81040264D01*
X103619442Y-80720664D01*
X103198398Y-80389200D01*
X102763313Y-80046714D01*
X102315256Y-79694046D01*
X101855296Y-79332040D01*
X101384501Y-78961537D01*
X100903939Y-78583377D01*
X100414680Y-78198404D01*
X100234250Y-78056440D01*
X99742365Y-77669424D01*
X99258898Y-77289029D01*
X98784914Y-76916089D01*
X98321474Y-76551443D01*
X97869642Y-76195926D01*
X97430481Y-75850375D01*
X97005054Y-75515626D01*
X96594425Y-75192517D01*
X96199656Y-74881884D01*
X95821811Y-74584563D01*
X95461953Y-74301392D01*
X95121144Y-74033206D01*
X94800449Y-73780843D01*
X94500930Y-73545138D01*
X94223651Y-73326929D01*
X93969674Y-73127053D01*
X93740062Y-72946345D01*
X93535880Y-72785643D01*
X93358189Y-72645782D01*
X93208054Y-72527601D01*
X93086537Y-72431934D01*
X92994702Y-72359620D01*
X92933611Y-72311494D01*
X92904328Y-72288393D01*
X92901763Y-72286352D01*
X92903708Y-72267735D01*
X92925384Y-72266155D01*
X92987950Y-72262973D01*
X93089997Y-72258246D01*
X93230116Y-72252032D01*
X93406895Y-72244388D01*
X93618926Y-72235372D01*
X93864799Y-72225040D01*
X94143102Y-72213451D01*
X94452428Y-72200661D01*
X94791365Y-72186729D01*
X95158504Y-72171711D01*
X95552434Y-72155665D01*
X95971747Y-72138648D01*
X96415032Y-72120718D01*
X96880879Y-72101931D01*
X97367879Y-72082347D01*
X97874620Y-72062020D01*
X98399695Y-72041011D01*
X98941692Y-72019374D01*
X99499201Y-71997169D01*
X100070814Y-71974452D01*
X100655119Y-71951281D01*
X101250707Y-71927713D01*
X101474445Y-71918872D01*
X102082393Y-71894858D01*
X102683360Y-71871117D01*
X103275748Y-71847711D01*
X103857961Y-71824705D01*
X104428401Y-71802162D01*
X104985473Y-71780143D01*
X105527579Y-71758714D01*
X106053122Y-71737936D01*
X106560507Y-71717873D01*
X107048137Y-71698589D01*
X107514414Y-71680146D01*
X107957742Y-71662607D01*
X108376524Y-71646036D01*
X108769164Y-71630496D01*
X109134064Y-71616049D01*
X109469629Y-71602760D01*
X109774262Y-71590692D01*
X110046365Y-71579907D01*
X110284343Y-71570468D01*
X110486597Y-71562439D01*
X110651533Y-71555884D01*
X110777552Y-71550864D01*
X110863059Y-71547444D01*
X110870500Y-71547145D01*
X111059108Y-71539837D01*
X111238287Y-71533422D01*
X111402737Y-71528050D01*
X111547160Y-71523874D01*
X111666255Y-71521043D01*
X111754723Y-71519710D01*
X111807266Y-71520024D01*
X111807266Y-71520024D01*
G37*
X111807266Y-71520024D02*
X111813039Y-71520300D01*
X111919495Y-71527083D01*
X109914546Y-77707750D01*
X109753602Y-78204080D01*
X109596153Y-78690001D01*
X109442694Y-79163971D01*
X109293721Y-79624447D01*
X109149729Y-80069888D01*
X109011214Y-80498750D01*
X108878673Y-80909493D01*
X108752599Y-81300572D01*
X108633490Y-81670446D01*
X108521840Y-82017573D01*
X108418145Y-82340411D01*
X108322902Y-82637416D01*
X108236604Y-82907048D01*
X108159749Y-83147762D01*
X108092831Y-83358018D01*
X108036347Y-83536273D01*
X107990792Y-83680984D01*
X107956661Y-83790610D01*
X107934450Y-83863607D01*
X107924655Y-83898435D01*
X107924257Y-83901326D01*
X107942361Y-83914645D01*
X107993415Y-83951866D01*
X108076103Y-84012035D01*
X108189110Y-84094197D01*
X108331118Y-84197395D01*
X108500813Y-84320675D01*
X108696877Y-84463081D01*
X108917996Y-84623658D01*
X109162853Y-84801450D01*
X109430132Y-84995502D01*
X109718517Y-85204859D01*
X110026693Y-85428565D01*
X110353342Y-85665664D01*
X110697150Y-85915203D01*
X111056800Y-86176224D01*
X111430976Y-86447772D01*
X111818362Y-86728893D01*
X112217642Y-87018631D01*
X112627501Y-87316031D01*
X113046621Y-87620136D01*
X113182958Y-87719056D01*
X113604657Y-88025074D01*
X114017427Y-88324717D01*
X114419957Y-88617031D01*
X114810935Y-88901060D01*
X115189050Y-89175847D01*
X115552989Y-89440437D01*
X115901442Y-89693874D01*
X116233096Y-89935202D01*
X116546639Y-90163466D01*
X116840761Y-90377708D01*
X117114149Y-90576975D01*
X117365491Y-90760309D01*
X117593477Y-90926756D01*
X117796794Y-91075358D01*
X117974131Y-91205161D01*
X118124176Y-91315208D01*
X118245617Y-91404544D01*
X118337143Y-91472213D01*
X118397442Y-91517258D01*
X118425202Y-91538725D01*
X118427000Y-91540465D01*
X118409591Y-91553228D01*
X118358114Y-91588767D01*
X118273692Y-91646331D01*
X118157448Y-91725164D01*
X118010503Y-91824513D01*
X117833981Y-91943624D01*
X117629005Y-92081744D01*
X117396698Y-92238119D01*
X117138182Y-92411995D01*
X116854580Y-92602618D01*
X116547015Y-92809235D01*
X116216610Y-93031092D01*
X115864487Y-93267436D01*
X115491770Y-93517512D01*
X115099581Y-93780567D01*
X114689042Y-94055847D01*
X114261278Y-94342599D01*
X113817410Y-94640068D01*
X113358561Y-94947502D01*
X112885854Y-95264146D01*
X112400413Y-95589246D01*
X111903359Y-95922050D01*
X111395815Y-96261803D01*
X110878905Y-96607751D01*
X110681667Y-96739735D01*
X110018760Y-97183358D01*
X109390406Y-97603958D01*
X108795932Y-98001989D01*
X108234664Y-98377906D01*
X107705930Y-98732161D01*
X107209055Y-99065210D01*
X106743367Y-99377506D01*
X106308191Y-99669504D01*
X105902855Y-99941657D01*
X105526685Y-100194421D01*
X105179008Y-100428248D01*
X104859149Y-100643593D01*
X104566437Y-100840911D01*
X104300197Y-101020654D01*
X104059755Y-101183278D01*
X103844440Y-101329237D01*
X103653576Y-101458984D01*
X103486491Y-101572974D01*
X103342511Y-101671661D01*
X103220962Y-101755499D01*
X103121172Y-101824942D01*
X103042467Y-101880444D01*
X102984174Y-101922459D01*
X102945619Y-101951442D01*
X102926128Y-101967846D01*
X102923326Y-101971457D01*
X102901029Y-102008978D01*
X102861446Y-102014093D01*
X102815234Y-102021649D01*
X102754178Y-102048188D01*
X102725075Y-102065594D01*
X102665326Y-102103909D01*
X102632381Y-102119887D01*
X102618390Y-102115501D01*
X102615500Y-102093127D01*
X102622728Y-102051034D01*
X102636048Y-102008709D01*
X102646041Y-101968197D01*
X102628099Y-101948809D01*
X102604298Y-101941536D01*
X102565029Y-101927042D01*
X102552017Y-101914830D01*
X102557701Y-101893757D01*
X102574509Y-101833239D01*
X102602073Y-101734576D01*
X102640029Y-101599068D01*
X102688010Y-101428015D01*
X102745651Y-101222716D01*
X102812585Y-100984471D01*
X102888448Y-100714580D01*
X102972872Y-100414343D01*
X103065493Y-100085060D01*
X103165944Y-99728030D01*
X103273860Y-99344553D01*
X103388874Y-98935929D01*
X103510621Y-98503458D01*
X103638736Y-98048440D01*
X103772852Y-97572173D01*
X103912603Y-97075959D01*
X104057623Y-96561097D01*
X104207548Y-96028887D01*
X104362010Y-95480628D01*
X104520645Y-94917621D01*
X104683086Y-94341164D01*
X104848967Y-93752559D01*
X105017923Y-93153104D01*
X105090721Y-92894833D01*
X105294657Y-92171307D01*
X105487402Y-91487408D01*
X105669265Y-90842021D01*
X105840556Y-90234031D01*
X106001582Y-89662323D01*
X106152652Y-89125781D01*
X106294075Y-88623291D01*
X106426159Y-88153738D01*
X106549214Y-87716007D01*
X106663548Y-87308983D01*
X106769469Y-86931551D01*
X106867286Y-86582597D01*
X106957308Y-86261004D01*
X107039844Y-85965659D01*
X107115201Y-85695445D01*
X107183690Y-85449249D01*
X107245618Y-85225955D01*
X107301294Y-85024449D01*
X107351027Y-84843615D01*
X107395126Y-84682338D01*
X107433899Y-84539503D01*
X107467654Y-84413996D01*
X107496701Y-84304702D01*
X107521348Y-84210505D01*
X107541903Y-84130291D01*
X107558676Y-84062944D01*
X107571976Y-84007350D01*
X107582110Y-83962394D01*
X107589387Y-83926960D01*
X107594116Y-83899935D01*
X107596606Y-83880202D01*
X107597166Y-83866646D01*
X107596103Y-83858154D01*
X107593728Y-83853610D01*
X107593662Y-83853545D01*
X107574783Y-83838238D01*
X107523699Y-83797599D01*
X107441478Y-83732472D01*
X107329190Y-83643697D01*
X107187903Y-83532116D01*
X107018685Y-83398572D01*
X106822604Y-83243904D01*
X106600730Y-83068956D01*
X106354130Y-82874569D01*
X106083874Y-82661585D01*
X105791029Y-82430844D01*
X105476664Y-82183190D01*
X105141848Y-81919463D01*
X104787650Y-81640505D01*
X104415137Y-81347158D01*
X104025378Y-81040264D01*
X103619442Y-80720664D01*
X103198398Y-80389200D01*
X102763313Y-80046714D01*
X102315256Y-79694046D01*
X101855296Y-79332040D01*
X101384501Y-78961537D01*
X100903939Y-78583377D01*
X100414680Y-78198404D01*
X100234250Y-78056440D01*
X99742365Y-77669424D01*
X99258898Y-77289029D01*
X98784914Y-76916089D01*
X98321474Y-76551443D01*
X97869642Y-76195926D01*
X97430481Y-75850375D01*
X97005054Y-75515626D01*
X96594425Y-75192517D01*
X96199656Y-74881884D01*
X95821811Y-74584563D01*
X95461953Y-74301392D01*
X95121144Y-74033206D01*
X94800449Y-73780843D01*
X94500930Y-73545138D01*
X94223651Y-73326929D01*
X93969674Y-73127053D01*
X93740062Y-72946345D01*
X93535880Y-72785643D01*
X93358189Y-72645782D01*
X93208054Y-72527601D01*
X93086537Y-72431934D01*
X92994702Y-72359620D01*
X92933611Y-72311494D01*
X92904328Y-72288393D01*
X92901763Y-72286352D01*
X92903708Y-72267735D01*
X92925384Y-72266155D01*
X92987950Y-72262973D01*
X93089997Y-72258246D01*
X93230116Y-72252032D01*
X93406895Y-72244388D01*
X93618926Y-72235372D01*
X93864799Y-72225040D01*
X94143102Y-72213451D01*
X94452428Y-72200661D01*
X94791365Y-72186729D01*
X95158504Y-72171711D01*
X95552434Y-72155665D01*
X95971747Y-72138648D01*
X96415032Y-72120718D01*
X96880879Y-72101931D01*
X97367879Y-72082347D01*
X97874620Y-72062020D01*
X98399695Y-72041011D01*
X98941692Y-72019374D01*
X99499201Y-71997169D01*
X100070814Y-71974452D01*
X100655119Y-71951281D01*
X101250707Y-71927713D01*
X101474445Y-71918872D01*
X102082393Y-71894858D01*
X102683360Y-71871117D01*
X103275748Y-71847711D01*
X103857961Y-71824705D01*
X104428401Y-71802162D01*
X104985473Y-71780143D01*
X105527579Y-71758714D01*
X106053122Y-71737936D01*
X106560507Y-71717873D01*
X107048137Y-71698589D01*
X107514414Y-71680146D01*
X107957742Y-71662607D01*
X108376524Y-71646036D01*
X108769164Y-71630496D01*
X109134064Y-71616049D01*
X109469629Y-71602760D01*
X109774262Y-71590692D01*
X110046365Y-71579907D01*
X110284343Y-71570468D01*
X110486597Y-71562439D01*
X110651533Y-71555884D01*
X110777552Y-71550864D01*
X110863059Y-71547444D01*
X110870500Y-71547145D01*
X111059108Y-71539837D01*
X111238287Y-71533422D01*
X111402737Y-71528050D01*
X111547160Y-71523874D01*
X111666255Y-71521043D01*
X111754723Y-71519710D01*
X111807266Y-71520024D01*
G04 #@! TD*
D11*
G04 #@! TO.C,R2*
X134300000Y-74000000D03*
X126939645Y-75972201D03*
D12*
X126939645Y-75972201D02*
X126939645Y-75972201D01*
G04 #@! TD*
D13*
G04 #@! TO.C,*
X131828237Y-73050887D03*
G04 #@! TD*
G04 #@! TO.C,*
X130193449Y-75352653D03*
G04 #@! TD*
G04 #@! TO.C,*
X134540922Y-76761367D03*
G04 #@! TD*
G04 #@! TO.C,*
X131945173Y-77646239D03*
G04 #@! TD*
D14*
G04 #@! TO.C,D1*
X118300000Y-59100000D03*
D15*
X118300000Y-61640000D03*
G04 #@! TD*
G04 #@! TO.C,D2*
X136246548Y-74557400D03*
X138700000Y-73900000D03*
D16*
G36*
X139477817Y-72552781D02*
X140047219Y-74677817D01*
X137922183Y-75247219D01*
X137352781Y-73122183D01*
X139477817Y-72552781D01*
X139477817Y-72552781D01*
G37*
G04 #@! TD*
D15*
G04 #@! TO.C,D3*
X130900000Y-97600000D03*
D16*
G36*
X132455635Y-97600000D02*
X130900000Y-99155635D01*
X129344365Y-97600000D01*
X130900000Y-96044365D01*
X132455635Y-97600000D01*
X132455635Y-97600000D01*
G37*
D15*
X129103949Y-95803949D03*
G04 #@! TD*
G04 #@! TO.C,D4*
X107300000Y-96000000D03*
X105503949Y-97796051D03*
D16*
G36*
X105503949Y-99351686D02*
X103948314Y-97796051D01*
X105503949Y-96240416D01*
X107059584Y-97796051D01*
X105503949Y-99351686D01*
X105503949Y-99351686D01*
G37*
G04 #@! TD*
D15*
G04 #@! TO.C,D5*
X97800000Y-73900000D03*
D16*
G36*
X96452781Y-74677817D02*
X97022183Y-72552781D01*
X99147219Y-73122183D01*
X98577817Y-75247219D01*
X96452781Y-74677817D01*
X96452781Y-74677817D01*
G37*
D15*
X100253452Y-74557400D03*
G04 #@! TD*
D11*
G04 #@! TO.C,R1*
X118300000Y-64600000D03*
D17*
X118300000Y-72220000D03*
G04 #@! TD*
D18*
G04 #@! TO.C,U1*
X114550000Y-78495000D03*
X114550000Y-79765000D03*
X114550000Y-81035000D03*
X114550000Y-82305000D03*
X121850000Y-82305000D03*
X121850000Y-81035000D03*
X121850000Y-79765000D03*
X121850000Y-78495000D03*
G04 #@! TD*
D11*
G04 #@! TO.C,R3*
X120709331Y-91299850D03*
D12*
X120709331Y-91299850D02*
X120709331Y-91299850D01*
D11*
X127100000Y-95450000D03*
G04 #@! TD*
G04 #@! TO.C,R4*
X109500000Y-95450000D03*
X115890670Y-91299851D03*
D12*
X115890670Y-91299851D02*
X115890670Y-91299851D01*
G04 #@! TD*
D11*
G04 #@! TO.C,R5*
X110660355Y-77772201D03*
D12*
X110660355Y-77772201D02*
X110660355Y-77772201D01*
D11*
X103300000Y-75800000D03*
G04 #@! TD*
M02*
