G04 #@! TF.GenerationSoftware,KiCad,Pcbnew,5.0.0-4.fc30*
G04 #@! TF.CreationDate,2018-09-24T02:25:55-07:00*
G04 #@! TF.ProjectId,star,737461722E6B696361645F7063620000,rev?*
G04 #@! TF.SameCoordinates,Original*
G04 #@! TF.FileFunction,Soldermask,Bot*
G04 #@! TF.FilePolarity,Negative*
%FSLAX46Y46*%
G04 Gerber Fmt 4.6, Leading zero omitted, Abs format (unit mm)*
G04 Created by KiCad (PCBNEW 5.0.0-4.fc30) date Mon Sep 24 02:25:55 2018*
%MOMM*%
%LPD*%
G01*
G04 APERTURE LIST*
%ADD10C,0.010000*%
%ADD11C,2.900000*%
%ADD12C,0.100000*%
%ADD13C,4.400000*%
%ADD14C,2.000000*%
%ADD15C,2.000000*%
%ADD16C,1.670000*%
%ADD17R,2.200000X2.200000*%
%ADD18C,2.200000*%
%ADD19O,2.000000X2.000000*%
G04 APERTURE END LIST*
D10*
G04 #@! TO.C,G\002A\002A\002A*
G36*
X111807266Y-71520024D02*
X111813039Y-71520300D01*
X111919495Y-71527083D01*
X109914546Y-77707750D01*
X109753602Y-78204080D01*
X109596153Y-78690001D01*
X109442694Y-79163971D01*
X109293721Y-79624447D01*
X109149729Y-80069888D01*
X109011214Y-80498750D01*
X108878673Y-80909493D01*
X108752599Y-81300572D01*
X108633490Y-81670446D01*
X108521840Y-82017573D01*
X108418145Y-82340411D01*
X108322902Y-82637416D01*
X108236604Y-82907048D01*
X108159749Y-83147762D01*
X108092831Y-83358018D01*
X108036347Y-83536273D01*
X107990792Y-83680984D01*
X107956661Y-83790610D01*
X107934450Y-83863607D01*
X107924655Y-83898435D01*
X107924257Y-83901326D01*
X107942361Y-83914645D01*
X107993415Y-83951866D01*
X108076103Y-84012035D01*
X108189110Y-84094197D01*
X108331118Y-84197395D01*
X108500813Y-84320675D01*
X108696877Y-84463081D01*
X108917996Y-84623658D01*
X109162853Y-84801450D01*
X109430132Y-84995502D01*
X109718517Y-85204859D01*
X110026693Y-85428565D01*
X110353342Y-85665664D01*
X110697150Y-85915203D01*
X111056800Y-86176224D01*
X111430976Y-86447772D01*
X111818362Y-86728893D01*
X112217642Y-87018631D01*
X112627501Y-87316031D01*
X113046621Y-87620136D01*
X113182958Y-87719056D01*
X113604657Y-88025074D01*
X114017427Y-88324718D01*
X114419957Y-88617032D01*
X114810936Y-88901061D01*
X115189050Y-89175849D01*
X115552990Y-89440440D01*
X115901442Y-89693878D01*
X116233096Y-89935207D01*
X116546640Y-90163472D01*
X116840761Y-90377716D01*
X117114149Y-90576984D01*
X117365492Y-90760320D01*
X117593478Y-90926768D01*
X117796795Y-91075372D01*
X117974132Y-91205177D01*
X118124177Y-91315226D01*
X118245618Y-91404564D01*
X118337144Y-91472234D01*
X118397442Y-91517282D01*
X118425202Y-91538750D01*
X118427000Y-91540491D01*
X118409631Y-91553046D01*
X118358430Y-91588227D01*
X118274753Y-91645126D01*
X118159954Y-91722835D01*
X118015391Y-91820446D01*
X117842419Y-91937050D01*
X117642394Y-92071739D01*
X117416672Y-92223604D01*
X117166609Y-92391739D01*
X116893561Y-92575233D01*
X116598883Y-92773179D01*
X116283932Y-92984670D01*
X115950064Y-93208795D01*
X115598634Y-93444648D01*
X115230999Y-93691320D01*
X114848515Y-93947902D01*
X114452536Y-94213487D01*
X114044420Y-94487166D01*
X113625522Y-94768030D01*
X113197199Y-95055173D01*
X112760805Y-95347685D01*
X112317697Y-95644658D01*
X111869232Y-95945183D01*
X111416764Y-96248354D01*
X110961650Y-96553260D01*
X110505246Y-96858995D01*
X110048908Y-97164649D01*
X109593991Y-97469315D01*
X109141852Y-97772085D01*
X108693846Y-98072049D01*
X108251329Y-98368300D01*
X107815658Y-98659929D01*
X107388188Y-98946029D01*
X106970276Y-99225691D01*
X106563276Y-99498006D01*
X106168546Y-99762067D01*
X105787441Y-100016965D01*
X105421316Y-100261792D01*
X105071529Y-100495640D01*
X104739434Y-100717600D01*
X104426388Y-100926764D01*
X104133747Y-101122224D01*
X103862866Y-101303071D01*
X103615102Y-101468398D01*
X103391810Y-101617296D01*
X103194347Y-101748857D01*
X103024068Y-101862172D01*
X102882329Y-101956334D01*
X102770486Y-102030434D01*
X102689896Y-102083563D01*
X102641913Y-102114814D01*
X102627758Y-102123500D01*
X102615805Y-102107199D01*
X102615500Y-102102558D01*
X102621183Y-102080991D01*
X102637991Y-102019977D01*
X102665557Y-101920815D01*
X102703518Y-101784803D01*
X102751508Y-101613238D01*
X102809162Y-101407419D01*
X102876115Y-101168644D01*
X102952002Y-100898210D01*
X103036458Y-100597417D01*
X103129118Y-100267561D01*
X103229617Y-99909942D01*
X103337590Y-99525856D01*
X103452673Y-99116603D01*
X103574500Y-98683479D01*
X103702706Y-98227784D01*
X103836926Y-97750815D01*
X103976795Y-97253871D01*
X104121949Y-96738248D01*
X104272021Y-96205246D01*
X104426648Y-95656163D01*
X104585465Y-95092296D01*
X104748105Y-94514943D01*
X104914205Y-93925403D01*
X105083399Y-93324974D01*
X105166083Y-93031582D01*
X105336634Y-92426389D01*
X105504267Y-91831472D01*
X105668618Y-91248129D01*
X105829321Y-90677655D01*
X105986011Y-90121351D01*
X106138323Y-89580512D01*
X106285893Y-89056436D01*
X106428355Y-88550420D01*
X106565345Y-88063763D01*
X106696497Y-87597761D01*
X106821447Y-87153712D01*
X106939830Y-86732913D01*
X107051280Y-86336662D01*
X107155433Y-85966257D01*
X107251924Y-85622994D01*
X107340388Y-85308171D01*
X107420460Y-85023086D01*
X107491775Y-84769036D01*
X107553968Y-84547318D01*
X107606674Y-84359230D01*
X107649528Y-84206070D01*
X107682165Y-84089135D01*
X107704220Y-84009722D01*
X107715329Y-83969128D01*
X107716666Y-83963809D01*
X107700250Y-83950101D01*
X107651858Y-83911222D01*
X107572779Y-83848185D01*
X107464300Y-83762005D01*
X107327708Y-83653698D01*
X107164291Y-83524277D01*
X106975335Y-83374757D01*
X106762128Y-83206153D01*
X106525958Y-83019480D01*
X106268112Y-82815752D01*
X105989876Y-82595984D01*
X105692539Y-82361191D01*
X105377387Y-82112387D01*
X105045708Y-81850586D01*
X104698790Y-81576804D01*
X104337919Y-81292056D01*
X103964383Y-80997355D01*
X103579469Y-80693717D01*
X103184465Y-80382156D01*
X102780657Y-80063686D01*
X102369334Y-79739323D01*
X101951782Y-79410082D01*
X101529289Y-79076976D01*
X101103142Y-78741020D01*
X100674629Y-78403230D01*
X100245036Y-78064619D01*
X99815651Y-77726203D01*
X99387762Y-77388995D01*
X98962655Y-77054012D01*
X98541618Y-76722267D01*
X98125939Y-76394775D01*
X97716904Y-76072550D01*
X97315801Y-75756608D01*
X96923918Y-75447963D01*
X96542541Y-75147629D01*
X96172957Y-74856622D01*
X95816455Y-74575956D01*
X95474322Y-74306646D01*
X95147844Y-74049705D01*
X94838309Y-73806150D01*
X94547005Y-73576994D01*
X94275219Y-73363253D01*
X94024238Y-73165940D01*
X93795349Y-72986071D01*
X93589840Y-72824660D01*
X93408997Y-72682722D01*
X93254109Y-72561271D01*
X93126463Y-72461323D01*
X93027346Y-72383892D01*
X92958045Y-72329992D01*
X92919848Y-72300638D01*
X92912880Y-72295525D01*
X92899697Y-72274599D01*
X92902558Y-72268886D01*
X92924314Y-72267225D01*
X92986962Y-72263964D01*
X93089089Y-72259159D01*
X93229288Y-72252869D01*
X93406146Y-72245152D01*
X93618255Y-72236064D01*
X93864203Y-72225663D01*
X94142581Y-72214007D01*
X94451979Y-72201153D01*
X94790986Y-72187160D01*
X95158193Y-72172084D01*
X95552189Y-72155983D01*
X95971563Y-72138915D01*
X96414907Y-72120937D01*
X96880809Y-72102108D01*
X97367860Y-72082483D01*
X97874649Y-72062122D01*
X98399766Y-72041082D01*
X98941802Y-72019420D01*
X99499345Y-71997193D01*
X100070986Y-71974460D01*
X100655315Y-71951278D01*
X101250921Y-71927704D01*
X101474445Y-71918872D01*
X102082393Y-71894858D01*
X102683360Y-71871117D01*
X103275748Y-71847711D01*
X103857961Y-71824705D01*
X104428401Y-71802162D01*
X104985473Y-71780143D01*
X105527579Y-71758714D01*
X106053122Y-71737936D01*
X106560507Y-71717873D01*
X107048137Y-71698589D01*
X107514414Y-71680146D01*
X107957742Y-71662607D01*
X108376524Y-71646036D01*
X108769164Y-71630496D01*
X109134064Y-71616049D01*
X109469629Y-71602760D01*
X109774262Y-71590692D01*
X110046365Y-71579907D01*
X110284343Y-71570468D01*
X110486597Y-71562439D01*
X110651533Y-71555884D01*
X110777552Y-71550864D01*
X110863059Y-71547444D01*
X110870500Y-71547145D01*
X111059108Y-71539837D01*
X111238287Y-71533422D01*
X111402737Y-71528050D01*
X111547160Y-71523874D01*
X111666255Y-71521043D01*
X111754723Y-71519710D01*
X111807266Y-71520024D01*
X111807266Y-71520024D01*
G37*
X111807266Y-71520024D02*
X111813039Y-71520300D01*
X111919495Y-71527083D01*
X109914546Y-77707750D01*
X109753602Y-78204080D01*
X109596153Y-78690001D01*
X109442694Y-79163971D01*
X109293721Y-79624447D01*
X109149729Y-80069888D01*
X109011214Y-80498750D01*
X108878673Y-80909493D01*
X108752599Y-81300572D01*
X108633490Y-81670446D01*
X108521840Y-82017573D01*
X108418145Y-82340411D01*
X108322902Y-82637416D01*
X108236604Y-82907048D01*
X108159749Y-83147762D01*
X108092831Y-83358018D01*
X108036347Y-83536273D01*
X107990792Y-83680984D01*
X107956661Y-83790610D01*
X107934450Y-83863607D01*
X107924655Y-83898435D01*
X107924257Y-83901326D01*
X107942361Y-83914645D01*
X107993415Y-83951866D01*
X108076103Y-84012035D01*
X108189110Y-84094197D01*
X108331118Y-84197395D01*
X108500813Y-84320675D01*
X108696877Y-84463081D01*
X108917996Y-84623658D01*
X109162853Y-84801450D01*
X109430132Y-84995502D01*
X109718517Y-85204859D01*
X110026693Y-85428565D01*
X110353342Y-85665664D01*
X110697150Y-85915203D01*
X111056800Y-86176224D01*
X111430976Y-86447772D01*
X111818362Y-86728893D01*
X112217642Y-87018631D01*
X112627501Y-87316031D01*
X113046621Y-87620136D01*
X113182958Y-87719056D01*
X113604657Y-88025074D01*
X114017427Y-88324718D01*
X114419957Y-88617032D01*
X114810936Y-88901061D01*
X115189050Y-89175849D01*
X115552990Y-89440440D01*
X115901442Y-89693878D01*
X116233096Y-89935207D01*
X116546640Y-90163472D01*
X116840761Y-90377716D01*
X117114149Y-90576984D01*
X117365492Y-90760320D01*
X117593478Y-90926768D01*
X117796795Y-91075372D01*
X117974132Y-91205177D01*
X118124177Y-91315226D01*
X118245618Y-91404564D01*
X118337144Y-91472234D01*
X118397442Y-91517282D01*
X118425202Y-91538750D01*
X118427000Y-91540491D01*
X118409631Y-91553046D01*
X118358430Y-91588227D01*
X118274753Y-91645126D01*
X118159954Y-91722835D01*
X118015391Y-91820446D01*
X117842419Y-91937050D01*
X117642394Y-92071739D01*
X117416672Y-92223604D01*
X117166609Y-92391739D01*
X116893561Y-92575233D01*
X116598883Y-92773179D01*
X116283932Y-92984670D01*
X115950064Y-93208795D01*
X115598634Y-93444648D01*
X115230999Y-93691320D01*
X114848515Y-93947902D01*
X114452536Y-94213487D01*
X114044420Y-94487166D01*
X113625522Y-94768030D01*
X113197199Y-95055173D01*
X112760805Y-95347685D01*
X112317697Y-95644658D01*
X111869232Y-95945183D01*
X111416764Y-96248354D01*
X110961650Y-96553260D01*
X110505246Y-96858995D01*
X110048908Y-97164649D01*
X109593991Y-97469315D01*
X109141852Y-97772085D01*
X108693846Y-98072049D01*
X108251329Y-98368300D01*
X107815658Y-98659929D01*
X107388188Y-98946029D01*
X106970276Y-99225691D01*
X106563276Y-99498006D01*
X106168546Y-99762067D01*
X105787441Y-100016965D01*
X105421316Y-100261792D01*
X105071529Y-100495640D01*
X104739434Y-100717600D01*
X104426388Y-100926764D01*
X104133747Y-101122224D01*
X103862866Y-101303071D01*
X103615102Y-101468398D01*
X103391810Y-101617296D01*
X103194347Y-101748857D01*
X103024068Y-101862172D01*
X102882329Y-101956334D01*
X102770486Y-102030434D01*
X102689896Y-102083563D01*
X102641913Y-102114814D01*
X102627758Y-102123500D01*
X102615805Y-102107199D01*
X102615500Y-102102558D01*
X102621183Y-102080991D01*
X102637991Y-102019977D01*
X102665557Y-101920815D01*
X102703518Y-101784803D01*
X102751508Y-101613238D01*
X102809162Y-101407419D01*
X102876115Y-101168644D01*
X102952002Y-100898210D01*
X103036458Y-100597417D01*
X103129118Y-100267561D01*
X103229617Y-99909942D01*
X103337590Y-99525856D01*
X103452673Y-99116603D01*
X103574500Y-98683479D01*
X103702706Y-98227784D01*
X103836926Y-97750815D01*
X103976795Y-97253871D01*
X104121949Y-96738248D01*
X104272021Y-96205246D01*
X104426648Y-95656163D01*
X104585465Y-95092296D01*
X104748105Y-94514943D01*
X104914205Y-93925403D01*
X105083399Y-93324974D01*
X105166083Y-93031582D01*
X105336634Y-92426389D01*
X105504267Y-91831472D01*
X105668618Y-91248129D01*
X105829321Y-90677655D01*
X105986011Y-90121351D01*
X106138323Y-89580512D01*
X106285893Y-89056436D01*
X106428355Y-88550420D01*
X106565345Y-88063763D01*
X106696497Y-87597761D01*
X106821447Y-87153712D01*
X106939830Y-86732913D01*
X107051280Y-86336662D01*
X107155433Y-85966257D01*
X107251924Y-85622994D01*
X107340388Y-85308171D01*
X107420460Y-85023086D01*
X107491775Y-84769036D01*
X107553968Y-84547318D01*
X107606674Y-84359230D01*
X107649528Y-84206070D01*
X107682165Y-84089135D01*
X107704220Y-84009722D01*
X107715329Y-83969128D01*
X107716666Y-83963809D01*
X107700250Y-83950101D01*
X107651858Y-83911222D01*
X107572779Y-83848185D01*
X107464300Y-83762005D01*
X107327708Y-83653698D01*
X107164291Y-83524277D01*
X106975335Y-83374757D01*
X106762128Y-83206153D01*
X106525958Y-83019480D01*
X106268112Y-82815752D01*
X105989876Y-82595984D01*
X105692539Y-82361191D01*
X105377387Y-82112387D01*
X105045708Y-81850586D01*
X104698790Y-81576804D01*
X104337919Y-81292056D01*
X103964383Y-80997355D01*
X103579469Y-80693717D01*
X103184465Y-80382156D01*
X102780657Y-80063686D01*
X102369334Y-79739323D01*
X101951782Y-79410082D01*
X101529289Y-79076976D01*
X101103142Y-78741020D01*
X100674629Y-78403230D01*
X100245036Y-78064619D01*
X99815651Y-77726203D01*
X99387762Y-77388995D01*
X98962655Y-77054012D01*
X98541618Y-76722267D01*
X98125939Y-76394775D01*
X97716904Y-76072550D01*
X97315801Y-75756608D01*
X96923918Y-75447963D01*
X96542541Y-75147629D01*
X96172957Y-74856622D01*
X95816455Y-74575956D01*
X95474322Y-74306646D01*
X95147844Y-74049705D01*
X94838309Y-73806150D01*
X94547005Y-73576994D01*
X94275219Y-73363253D01*
X94024238Y-73165940D01*
X93795349Y-72986071D01*
X93589840Y-72824660D01*
X93408997Y-72682722D01*
X93254109Y-72561271D01*
X93126463Y-72461323D01*
X93027346Y-72383892D01*
X92958045Y-72329992D01*
X92919848Y-72300638D01*
X92912880Y-72295525D01*
X92899697Y-72274599D01*
X92902558Y-72268886D01*
X92924314Y-72267225D01*
X92986962Y-72263964D01*
X93089089Y-72259159D01*
X93229288Y-72252869D01*
X93406146Y-72245152D01*
X93618255Y-72236064D01*
X93864203Y-72225663D01*
X94142581Y-72214007D01*
X94451979Y-72201153D01*
X94790986Y-72187160D01*
X95158193Y-72172084D01*
X95552189Y-72155983D01*
X95971563Y-72138915D01*
X96414907Y-72120937D01*
X96880809Y-72102108D01*
X97367860Y-72082483D01*
X97874649Y-72062122D01*
X98399766Y-72041082D01*
X98941802Y-72019420D01*
X99499345Y-71997193D01*
X100070986Y-71974460D01*
X100655315Y-71951278D01*
X101250921Y-71927704D01*
X101474445Y-71918872D01*
X102082393Y-71894858D01*
X102683360Y-71871117D01*
X103275748Y-71847711D01*
X103857961Y-71824705D01*
X104428401Y-71802162D01*
X104985473Y-71780143D01*
X105527579Y-71758714D01*
X106053122Y-71737936D01*
X106560507Y-71717873D01*
X107048137Y-71698589D01*
X107514414Y-71680146D01*
X107957742Y-71662607D01*
X108376524Y-71646036D01*
X108769164Y-71630496D01*
X109134064Y-71616049D01*
X109469629Y-71602760D01*
X109774262Y-71590692D01*
X110046365Y-71579907D01*
X110284343Y-71570468D01*
X110486597Y-71562439D01*
X110651533Y-71555884D01*
X110777552Y-71550864D01*
X110863059Y-71547444D01*
X110870500Y-71547145D01*
X111059108Y-71539837D01*
X111238287Y-71533422D01*
X111402737Y-71528050D01*
X111547160Y-71523874D01*
X111666255Y-71521043D01*
X111754723Y-71519710D01*
X111807266Y-71520024D01*
G04 #@! TD*
D11*
G04 #@! TO.C,BT1*
X126406418Y-88031414D03*
D12*
G36*
X123526597Y-89616227D02*
X126910698Y-84783230D01*
X129286239Y-86446601D01*
X125902138Y-91279598D01*
X123526597Y-89616227D01*
X123526597Y-89616227D01*
G37*
D11*
X107893582Y-75068586D03*
D12*
G36*
X105013761Y-76653399D02*
X108397862Y-71820402D01*
X110773403Y-73483773D01*
X107389302Y-78316770D01*
X105013761Y-76653399D01*
X105013761Y-76653399D01*
G37*
D13*
X117150000Y-81550000D03*
D12*
G36*
X114085997Y-82090266D02*
X116609734Y-78485997D01*
X120214003Y-81009734D01*
X117690266Y-84614003D01*
X114085997Y-82090266D01*
X114085997Y-82090266D01*
G37*
G04 #@! TD*
D14*
G04 #@! TO.C,R2*
X134300000Y-74000000D03*
X126939645Y-75972201D03*
D15*
X126939645Y-75972201D02*
X126939645Y-75972201D01*
G04 #@! TD*
D16*
G04 #@! TO.C,*
X131828237Y-73050887D03*
G04 #@! TD*
G04 #@! TO.C,*
X130193449Y-75352653D03*
G04 #@! TD*
G04 #@! TO.C,*
X134540922Y-76761367D03*
G04 #@! TD*
G04 #@! TO.C,*
X131945173Y-77646239D03*
G04 #@! TD*
D17*
G04 #@! TO.C,D1*
X118300000Y-59100000D03*
D18*
X118300000Y-61640000D03*
G04 #@! TD*
G04 #@! TO.C,D2*
X136246548Y-74557400D03*
X138700000Y-73900000D03*
D12*
G36*
X139477817Y-72552781D02*
X140047219Y-74677817D01*
X137922183Y-75247219D01*
X137352781Y-73122183D01*
X139477817Y-72552781D01*
X139477817Y-72552781D01*
G37*
G04 #@! TD*
D18*
G04 #@! TO.C,D3*
X130900000Y-97600000D03*
D12*
G36*
X132455635Y-97600000D02*
X130900000Y-99155635D01*
X129344365Y-97600000D01*
X130900000Y-96044365D01*
X132455635Y-97600000D01*
X132455635Y-97600000D01*
G37*
D18*
X129103949Y-95803949D03*
G04 #@! TD*
G04 #@! TO.C,D4*
X107300000Y-96000000D03*
X105503949Y-97796051D03*
D12*
G36*
X105503949Y-99351686D02*
X103948314Y-97796051D01*
X105503949Y-96240416D01*
X107059584Y-97796051D01*
X105503949Y-99351686D01*
X105503949Y-99351686D01*
G37*
G04 #@! TD*
D18*
G04 #@! TO.C,D5*
X97800000Y-73900000D03*
D12*
G36*
X96452781Y-74677817D02*
X97022183Y-72552781D01*
X99147219Y-73122183D01*
X98577817Y-75247219D01*
X96452781Y-74677817D01*
X96452781Y-74677817D01*
G37*
D18*
X100253452Y-74557400D03*
G04 #@! TD*
D14*
G04 #@! TO.C,R1*
X118300000Y-64600000D03*
D19*
X118300000Y-72220000D03*
G04 #@! TD*
D14*
G04 #@! TO.C,R3*
X120709331Y-91299850D03*
D15*
X120709331Y-91299850D02*
X120709331Y-91299850D01*
D14*
X127100000Y-95450000D03*
G04 #@! TD*
G04 #@! TO.C,R4*
X109500000Y-95450000D03*
X115890670Y-91299851D03*
D15*
X115890670Y-91299851D02*
X115890670Y-91299851D01*
G04 #@! TD*
D14*
G04 #@! TO.C,R5*
X110660355Y-77772201D03*
D15*
X110660355Y-77772201D02*
X110660355Y-77772201D01*
D14*
X103300000Y-75800000D03*
G04 #@! TD*
M02*
